<svg xmlns="http://www.w3.org/2000/svg" width="812" height="726.291" viewBox="0 0 812 726.291"><g transform="translate(0 -0.01)"><path d="M933.744,250.3c29.016,42.335,22.595,97.176,22.595,97.176s-53.465-13.8-82.48-56.131-22.595-97.176-22.595-97.176S904.729,207.971,933.744,250.3Z" transform="translate(-173.551 -108.828)" fill="#2f2e41"/><path d="M907.964,260.834c3.4,51.211,42.369,90.325,42.369,90.325s33.469-43.916,30.074-95.128-42.369-90.325-42.369-90.325S904.568,209.624,907.964,260.834Z" transform="translate(-168.649 -111.274)" fill="#cd0"/><path d="M603.938,116.646,997.88,314.7a18.629,18.629,0,0,1,10.219,17.9L985.211,671.63a9.23,9.23,0,0,1-13.373,7.616L568.913,473.612,589.6,124.91a9.907,9.907,0,0,1,14.34-8.265Z" transform="translate(-197.757 -115.58)" fill="#d0cde1"/><path d="M608.045,123.005,992.31,316.2a18.171,18.171,0,0,1,9.968,17.459l-22.325,330.7a9,9,0,0,1-13.044,7.428L573.88,471.2l20.178-340.137a9.664,9.664,0,0,1,13.987-8.062Z" transform="translate(-197.33 -115.031)" fill="#3f3d56"/><path d="M623.3,146.628,971.626,321.753a16.471,16.471,0,0,1,9.035,15.826L960.424,637.348a8.161,8.161,0,0,1-11.824,6.734L592.331,462.26l18.291-308.324a8.76,8.76,0,0,1,12.68-7.308Z" transform="translate(-195.745 -112.993)" fill="#fff"/><path d="M290.344,612.341,684.789,810.988a26.263,26.263,0,0,0,23.657-.031l291.8-148.127c3.422-3.422,2.944-8.492,1.849-12.3a27.4,27.4,0,0,0-2.158-5.317L960.174,624.3,625.852,457.494l-19.974-10.6a36.985,36.985,0,0,0-34.354-.139L290.22,592.875a10.922,10.922,0,0,0,.123,19.466Z" transform="translate(-222.208 -87.486)" fill="#d0cde1"/><path d="M290.344,599.822,684.789,798.469a26.263,26.263,0,0,0,23.657-.031l291.8-148.127c3.422-3.422,2.944-8.492,1.849-12.3L711.168,789.23a25.378,25.378,0,0,1-23.021.2L284.457,588.308A10.878,10.878,0,0,0,290.344,599.822Z" transform="translate(-222.208 -74.967)" opacity="0.1"/><path d="M652.139,658.981,524.4,594.429a17.95,17.95,0,0,0-16.554.188l-74.1,39.59a5.3,5.3,0,0,0,.111,9.409L564.1,709.295a14.753,14.753,0,0,0,13.884-.319l74.4-41.915a4.564,4.564,0,0,0-.241-8.079Z" transform="translate(-209.611 -74.607)" opacity="0.1"/><path d="M954.391,659.843,816.93,732.869a11.181,11.181,0,0,1-10.292.1L418.25,536.564a6.6,6.6,0,0,1,.051-11.814l134.235-66.439a14.556,14.556,0,0,1,13.006.046L954.33,654.247a3.151,3.151,0,0,1,.061,5.6Z" transform="translate(-211.012 -86.265)" opacity="0.1"/><rect width="1.541" height="141.297" transform="matrix(0.447, -0.894, 0.894, 0.447, 523.39, 210.762)" fill="#cd0"/><rect width="1.54" height="141.993" transform="translate(523.367 229.283) rotate(-62.909)" fill="#cd0"/><rect width="1.541" height="81.335" transform="translate(546.512 264.694) rotate(-62.935)" fill="#cd0"/><path d="M370.428,429.582s-30.819-13.429-45.294.757S363.891,439.855,370.428,429.582Z" transform="translate(-218.914 -89.098)" fill="#3f3d56"/><path d="M318.115,371.932c10.356-17.5,30.846-18.316,30.846-18.316s19.966-2.553,32.775,24.1c11.938,24.842,28.415,48.828,2.653,54.643l-4.653-14.484-2.882,15.562a100.8,100.8,0,0,1-11.023.188c-27.589-.891-53.864.261-53.018-9.64C313.938,410.825,308.15,388.77,318.115,371.932Z" transform="translate(-219.816 -95.136)" fill="#2f2e41"/><path d="M306.07,662.62S319.145,686.9,327.55,686.9s7.471,15.876,5.6,19.612-6.537,12.141.934,24.281c2.61,4.241,2.143,9.051.43,13.516-4.8,12.51-23.463,8.72-22.868-4.666q.01-.221.024-.445c.934-14.942-6.537-38.29-14.008-43.893s-14.009-20.546-14.009-20.546Z" transform="translate(-222.264 -68.583)" fill="#ffb8b8"/><path d="M389.22,657.46s-13.075,24.281-21.48,24.281-7.471,15.876-5.6,19.612,6.537,12.141-.934,24.281c-2.61,4.241-2.143,9.051-.43,13.516,4.8,12.51,23.463,8.72,22.868-4.665q-.01-.221-.024-.445c-.934-14.942,6.537-38.29,14.009-43.893S411.633,669.6,411.633,669.6Z" transform="translate(-215.76 -69.026)" fill="#ffb8b8"/><path d="M390.309,548.191l5.6,12.141s82.183,27.083,74.712,58.836-43.893,81.249-49.5,79.382-35.488-7.471-36.422-23.348,21.48-43.893,21.48-43.893l-30.819-28.017-44.846-.934-38.271,28.951s40.158,35.488,22.414,49.5-43.893,23.348-47.629,17.744-45.761-88.721-39.224-96.192,72.844-35.488,72.844-35.488L318.4,541.654l69.109-3.736Z" transform="translate(-227.121 -79.296)" fill="#2f2e41"/><path d="M365.1,406.034s-4.67,30.819,4.669,34.554S351.087,460.2,351.087,460.2H335.211l-10.273-21.48s9.339-16.81,3.736-32.687S365.1,406.034,365.1,406.034Z" transform="translate(-218.717 -91.233)" fill="#ffb8b8"/><path d="M365.1,406.034s-4.67,30.819,4.669,34.554S351.087,460.2,351.087,460.2H335.211l-10.273-21.48s9.339-16.81,3.736-32.687S365.1,406.034,365.1,406.034Z" transform="translate(-218.717 -91.233)" opacity="0.1"/><path d="M372.667,429.557s-10.273,11.207-12.141,13.074-10.273,12.141-28.017-2.8-19.612,2.8-19.612,2.8V554.7s14.942-6.537,27.083,0,37.356-1.868,37.356-1.868l4.67-115.8Z" transform="translate(-219.752 -88.606)" fill="#d0cde1"/><path d="M362.57,429.688s8.728-3.736,16.2,0,33.62,22.414,31.753,30.819-26.149,67.241-9.339,95.258,19.612,35.488,19.612,35.488L379.7,569.773s-31.753-19.612-28.951-31.753S362.57,429.688,362.57,429.688Z" transform="translate(-216.515 -88.737)" fill="#3f3d56"/><path d="M331.972,429.557s-19.6,1.868-20.535,3.736S282.02,443.1,283.888,451.5s27.55,83.584,16.343,97.593-29.885,33.62-23.348,35.488,17.744-2.8,28.951,0,37.356-20.546,34.554-45.761S340.367,436.094,331.972,429.557Z" transform="translate(-222.962 -88.606)" fill="#3f3d56"/><path d="M372,594.188v9.339s4.67,21.48-10.273,20.546-5.6-26.149-5.6-26.149l.934-8.405Z" transform="translate(-216.286 -74.863)" fill="#ffb8b8"/><path d="M333.222,594.679s10.273,21.48,0,23.347-17.744-12.141-17.744-15.876S333.222,594.679,333.222,594.679Z" transform="translate(-219.53 -74.42)" fill="#ffb8b8"/><ellipse cx="1.868" cy="3.736" rx="1.868" ry="3.736" transform="translate(98.282 298.458)" fill="#ffb8b8"/><ellipse cx="1.868" cy="3.736" rx="1.868" ry="3.736" transform="translate(153.382 298.458)" fill="#ffb8b8"/><path d="M306.072,440.737s-23.347,0-22.414,9.339,31.753,169.97,31.753,169.97,13.075-12.141,24.281-9.339Z" transform="translate(-222.266 -87.645)" fill="#3f3d56"/><path d="M390.673,443.317s23.348,4.67,23.348,18.678-33.62,148.49-38.29,148.49-22.414-2.8-22.414-7.471S390.673,443.317,390.673,443.317Z" transform="translate(-216.279 -87.424)" fill="#3f3d56"/><path d="M384.65,468.687l-21.013,82.175S373.444,478.96,384.65,468.687Z" transform="translate(-215.393 -85.244)" opacity="0.2"/><path d="M307.723,458.054l21.251,107.439S322.182,464.251,307.723,458.054Z" transform="translate(-220.196 -86.158)" opacity="0.2"/><circle cx="27.083" cy="27.083" r="27.083" transform="translate(100.617 275.577)" fill="#ffb8b8"/><path d="M94.814,254.183l20.244-10.6,27.955,4.337,5.784,25.545-14.4-.553-4.022-9.386v9.23l-6.644-.255-3.856-14.942-2.41,15.905-23.618-.481Z" transform="translate(8.063 20.926)" fill="#2f2e41"/><path d="M375.163,109.887,364,136.437l94.222,49.458L489.966,93" transform="translate(31.272 7.989)" fill="#f2f2f2"/><path d="M456.223,175.018l41.624-97.942L402.179,30,362,125.56Z" transform="translate(31.101 2.577)" fill="#cd0"/><rect width="1.541" height="81.335" transform="translate(430.319 71.401) rotate(-62.935)" fill="#fff"/><rect width="1.541" height="81.335" transform="translate(424.889 84.432) rotate(-62.935)" fill="#fff"/></g></svg>