<svg xmlns="http://www.w3.org/2000/svg" width="812" height="578.197" viewBox="0 0 812 578.197"><g transform="translate(0)"><ellipse cx="71.359" cy="12.046" rx="71.359" ry="12.046" transform="translate(57.199 522.818)" opacity="0.1"/><ellipse cx="71.359" cy="12.046" rx="71.359" ry="12.046" transform="translate(317.121 552.319)" opacity="0.1"/><path d="M165.056,461.076c5.162,6.885,10.731,14.763,16.227,23.35l.785-39.607.433.277a77.3,77.3,0,0,0-19.123-10.222l.433.241Z" transform="translate(-105.5 -157.835)" fill="#e6e6e6"/><path d="M157.444,434.024c-7.079-2.414-13.947-3.215-20.225-2.1-.327.058-.648.125-.968.193,1.6,1.711,10.891,11.818,22.4,27.05Z" transform="translate(-100.001 -157.138)" fill="#e6e6e6"/><path d="M214.781,539.655q1.269,3.031,2.415,6.021l14.527-42.895.418.4q-2.573-4.84-5.456-9.411L214.979,539.83Z" transform="translate(-115.919 -169.773)" fill="#e6e6e6"/><path d="M200.649,512.309l7.592-44.972.431.345a121.528,121.528,0,0,0-20.96-19.586l-.8,40.362Q194.584,500.565,200.649,512.309Z" transform="translate(-110.27 -160.516)" fill="#e6e6e6"/><path d="M107.335,488.581l-.177-.549a101.471,101.471,0,0,0,4.01,20.055l69.807,7.2c-3.644-6.72-7.406-13.025-11.058-18.771Z" transform="translate(-94.104 -168.61)" fill="#e6e6e6"/><path d="M112.577,514.423l-.184-.549q1.059,3.454,2.375,6.985l-.188-.548,70.651,6.28q-1.28-2.5-2.589-4.942Z" transform="translate(-95.165 -173.848)" fill="#e6e6e6"/><path d="M212.312,534.328l11.609-45.678.425.375a145.129,145.129,0,0,0-11.585-15.764l-7.694,45.58Q209.066,526.7,212.312,534.328Z" transform="translate(-113.949 -165.616)" fill="#e6e6e6"/><path d="M200.38,560.066l-68.753-6.621a140.4,140.4,0,0,0,12.188,14.306l-.171-.609,62.847,12.929a174.53,174.53,0,0,0-6.11-20.006Z" transform="translate(-99.064 -181.869)" fill="#e6e6e6"/><path d="M130.548,432.755l.162-.347c-9.451,2.146-16.124,8.576-19.8,17.884l42.058,9.5C140.517,443.317,130.69,432.9,130.548,432.755Z" transform="translate(-94.865 -157.336)" fill="#e6e6e6"/><path d="M219.231,551.634a173.41,173.41,0,0,1,5.5,18.052L241.1,528.623l.4.4a68.748,68.748,0,0,0-5.227-16.546q-1.449-3.1-3.033-6.108l-14.7,43.406C218.771,550.4,219.007,551.017,219.231,551.634Z" transform="translate(-116.68 -172.327)" fill="#e6e6e6"/><path d="M169.1,488.762c-5.44-8.485-10.945-16.269-16.048-23.073l-43.023-9.722-.146-.543c-2.686,7.073-3.668,15.762-2.854,25.467Z" transform="translate(-94.022 -162.001)" fill="#e6e6e6"/><path d="M127.549,546.2l69.146,6.658.014-.041a235.553,235.553,0,0,0-10.255-23.19l-70.825-6.3q1.8,4.776,4.077,9.655A84.4,84.4,0,0,0,127.55,546.2Z" transform="translate(-95.821 -175.765)" fill="#e6e6e6"/><path d="M333.6,563.854l.157.489a77.308,77.308,0,0,0-8.209-20.07l.18.462-15.6,20.79c-.415,8.6-1.152,18.215-2.4,28.334Z" transform="translate(-134.759 -180.01)" fill="#e6e6e6"/><path d="M325.935,539.969c-3.912-6.374-8.691-11.372-14.24-14.513-.289-.163-.579-.317-.869-.469.137,2.336.85,16.049,0,35.12Z" transform="translate(-135.386 -176.101)" fill="#e6e6e6"/><path d="M294.892,659.691q-.956,3.144-1.98,6.177L331.459,642.1l.067.574q1.105-5.369,1.8-10.728l-38.4,28.009Z" transform="translate(-131.755 -197.78)" fill="#e6e6e6"/><path d="M301.671,627.814,336.2,598.02l.112.541a121.526,121.526,0,0,0-3.652-28.453L306.3,600.683Q304.49,614.9,301.671,627.814Z" transform="translate(-133.531 -185.246)" fill="#e6e6e6"/><path d="M335.142,606.584l-35,30.2q-1.928,8.6-4.3,16.549l38.075-27.776.088.559A145.122,145.122,0,0,0,335.142,606.584Z" transform="translate(-132.35 -192.64)" fill="#e6e6e6"/><path d="M234.915,694.266q.046-.707.088-1.452a120.773,120.773,0,0,0,15.843-24.289l-21.137-26.34q-.416-1.348-.87-2.69l22.5,28.037a174.512,174.512,0,0,0,8.054-19.306l-44.5-44.7q.208-.526.422-1.076l44.441,44.642.037-.023a235.58,235.58,0,0,0,6.892-24.4l-44.131-43.684q.139-.608.274-1.223l44.132,43.685q.611-2.745,1.158-5.458l-44-44.8q.11-.641.215-1.287l44.036,44.839c1.479-7.5,2.6-14.756,3.456-21.511L228.686,547.2l.213-.536c-1.022,1.489-2.015,3.05-2.983,4.668a88.93,88.93,0,0,0-1.242-15.266l-16.529,41.456a133.46,133.46,0,0,1,2.865,17.356c-.1.988-.19,1.982-.262,2.986l.543.546c.034.533.066,1.064.093,1.594l-.723-.726c-.034.582-.06,1.168-.085,1.754a125.681,125.681,0,0,0-3.226-23.4l-62.387-12.835c3.143,3.226,6.436,6.361,9.8,9.384a76.261,76.261,0,0,0-20.156-3.444l.486.1,9.209,24.3c7.037,4.952,14.769,10.724,22.65,17.191l-11.337-37.386q.63.56,1.263,1.116l11.308,37.29q11.038,9.143,20.437,18.436l-5.2-35.094,1.087.755,5.253,35.474Q196,639.148,201.447,645.4l-2.519-38.476,1.053.656,2.545,38.882-.242-.1q2.144,2.49,4.157,4.98l.487-39.56q.562.33,1.04.606l-.5,40.244c.412.518.829,1.036,1.233,1.553a173.418,173.418,0,0,1,10.807,15.469l.235-3.6q.434,1.6.869,3.147l-.134,2.047c.484.8.954,1.609,1.416,2.413q.542,1.839,1.072,3.576-1.537-2.849-3.212-5.641l-63.3,7.077c33.282,17.508,74.583,25.807,77.215,26.325-.624-2.761-1.384-5.5-2.257-8.21.227-.238.452-.479.677-.719.107.324.219.648.322.971-.117.126-.233.255-.351.379l.409-.194q.912,2.859,1.635,5.7c.193-1.538.451-3.875.676-6.83,11.4-5.707,40.923-22.384,55.912-48.532L251.527,668.95a121.973,121.973,0,0,1-16.612,25.316ZM221.936,632.5l.1-1.485.994,1.238-.1,1.485Z" transform="translate(-99.668 -178.346)" fill="#e6e6e6"/><path d="M303.243,524.172l.346-.164c-8.648-4.376-17.889-3.679-26.653,1.147L303.267,559.3C304.184,538.666,303.257,524.377,303.243,524.172Z" transform="translate(-128.517 -175.312)" fill="#e6e6e6"/><path d="M289.567,672.209a173.405,173.405,0,0,1-7.28,17.409l38.8-21.184.052.564a68.757,68.757,0,0,0,6.527-16.077q.862-3.312,1.56-6.639l-39.007,24.055C290,670.961,289.788,671.59,289.567,672.209Z" transform="translate(-129.602 -200.686)" fill="#e6e6e6"/><path d="M298.4,561.931,271.46,527l.234-.511c-6.58,3.735-12.878,9.8-18.442,17.794l42.787,45.652C297.262,579.932,297.986,570.426,298.4,561.931Z" transform="translate(-123.717 -176.406)" fill="#e6e6e6"/><path d="M128.758,579.531c-7.478-.108-14.258,1.253-19.882,4.259-.293.156-.577.319-.861.483,2.046,1.134,14.011,7.873,29.663,18.8Z" transform="translate(-94.278 -187.155)" fill="#e6e6e6"/><path d="M159.881,633.268l-61.969,11.8-.338-.467a101.474,101.474,0,0,0,10.012,17.834L176.2,647.7C170.657,642.438,165.13,637.6,159.881,633.268Z" transform="translate(-92.161 -198.049)" fill="#e6e6e6"/><path d="M183.742,656.376q-1.992-1.986-3.99-3.9l-68.868,14.784-.345-.465q2.075,2.958,4.418,5.909l-.348-.463Z" transform="translate(-94.79 -201.942)" fill="#e6e6e6"/><path d="M220.491,700.505A174.536,174.536,0,0,0,208.5,683.368l-67.433,14.955a140.407,140.407,0,0,0,16.013,9.839l-.35-.526Z" transform="translate(-100.976 -208.204)" fill="#e6e6e6"/><path d="M104.138,586.121l.047-.38c-8.325,4.962-12.684,13.14-13.3,23.127l42.936-3.962C116.883,593.086,104.318,586.219,104.138,586.121Z" transform="translate(-90.806 -188.415)" fill="#e6e6e6"/><path d="M135.061,610.886,91.14,614.939l-.307-.471c-.368,7.557,1.384,16.124,5.157,25.1l61.465-11.7C149.659,621.481,142.017,615.779,135.061,610.886Z" transform="translate(-90.786 -193.512)" fill="#e6e6e6"/><path d="M202.764,677.364a235.57,235.57,0,0,0-16.921-18.884l-69.3,15.9q3.192,3.985,6.862,7.922a84.413,84.413,0,0,0,11.544,10.141l67.818-15.04Z" transform="translate(-96.006 -203.159)" fill="#e6e6e6"/><path d="M165.056,461.076c5.162,6.885,10.731,14.763,16.227,23.35l.785-39.607.433.277a77.3,77.3,0,0,0-19.123-10.222l.433.241Z" transform="translate(-105.5 -157.835)" fill="#cd0"/><path d="M157.444,434.024c-7.079-2.414-13.947-3.215-20.225-2.1-.327.058-.648.125-.968.193,1.6,1.711,10.891,11.818,22.4,27.05Z" transform="translate(-100.001 -157.138)" fill="#cd0"/><path d="M214.781,539.655q1.269,3.031,2.415,6.021l14.527-42.895.418.4q-2.573-4.84-5.456-9.411L214.979,539.83Z" transform="translate(-115.919 -169.773)" fill="#cd0"/><path d="M200.649,512.309l7.592-44.972.431.345a121.528,121.528,0,0,0-20.96-19.586l-.8,40.362Q194.584,500.565,200.649,512.309Z" transform="translate(-110.27 -160.516)" fill="#cd0"/><path d="M107.335,488.581l-.177-.549a101.471,101.471,0,0,0,4.01,20.055l69.807,7.2c-3.644-6.72-7.406-13.025-11.058-18.771Z" transform="translate(-94.104 -168.61)" fill="#cd0"/><path d="M112.577,514.423l-.184-.549q1.059,3.454,2.375,6.985l-.188-.548,70.651,6.28q-1.28-2.5-2.589-4.942Z" transform="translate(-95.165 -173.848)" fill="#cd0"/><path d="M212.312,534.328l11.609-45.678.425.375a145.129,145.129,0,0,0-11.585-15.764l-7.694,45.58Q209.066,526.7,212.312,534.328Z" transform="translate(-113.949 -165.616)" fill="#cd0"/><path d="M200.38,560.066l-68.753-6.621a140.4,140.4,0,0,0,12.188,14.306l-.171-.609,62.847,12.929a174.53,174.53,0,0,0-6.11-20.006Z" transform="translate(-99.064 -181.869)" fill="#cd0"/><path d="M130.548,432.755l.162-.347c-9.451,2.146-16.124,8.576-19.8,17.884l42.058,9.5C140.517,443.317,130.69,432.9,130.548,432.755Z" transform="translate(-94.865 -157.336)" fill="#cd0"/><path d="M219.231,551.634a173.41,173.41,0,0,1,5.5,18.052L241.1,528.623l.4.4a68.748,68.748,0,0,0-5.227-16.546q-1.449-3.1-3.033-6.108l-14.7,43.406C218.771,550.4,219.007,551.017,219.231,551.634Z" transform="translate(-116.68 -172.327)" fill="#cd0"/><path d="M169.1,488.762c-5.44-8.485-10.945-16.269-16.048-23.073l-43.023-9.722-.146-.543c-2.686,7.073-3.668,15.762-2.854,25.467Z" transform="translate(-94.022 -162.001)" fill="#cd0"/><path d="M127.549,546.2l69.146,6.658.014-.041a235.553,235.553,0,0,0-10.255-23.19l-70.825-6.3q1.8,4.776,4.077,9.655A84.4,84.4,0,0,0,127.55,546.2Z" transform="translate(-95.821 -175.765)" fill="#cd0"/><path d="M333.6,563.854l.157.489a77.308,77.308,0,0,0-8.209-20.07l.18.462-15.6,20.79c-.415,8.6-1.152,18.215-2.4,28.334Z" transform="translate(-134.759 -180.01)" fill="#cd0"/><path d="M325.935,539.969c-3.912-6.374-8.691-11.372-14.24-14.513-.289-.163-.579-.317-.869-.469.137,2.336.85,16.049,0,35.12Z" transform="translate(-135.386 -176.101)" fill="#cd0"/><path d="M294.892,659.691q-.956,3.144-1.98,6.177L331.459,642.1l.067.574q1.105-5.369,1.8-10.728l-38.4,28.009Z" transform="translate(-131.755 -197.78)" fill="#cd0"/><path d="M301.671,627.814,336.2,598.02l.112.541a121.526,121.526,0,0,0-3.652-28.453L306.3,600.683Q304.49,614.9,301.671,627.814Z" transform="translate(-133.531 -185.246)" fill="#cd0"/><path d="M335.142,606.584l-35,30.2q-1.928,8.6-4.3,16.549l38.075-27.776.088.559A145.122,145.122,0,0,0,335.142,606.584Z" transform="translate(-132.35 -192.64)" fill="#cd0"/><path d="M234.915,694.266q.046-.707.088-1.452a120.773,120.773,0,0,0,15.843-24.289l-21.137-26.34q-.416-1.348-.87-2.69l22.5,28.037a174.512,174.512,0,0,0,8.054-19.306l-44.5-44.7q.208-.526.422-1.076l44.441,44.642.037-.023a235.58,235.58,0,0,0,6.892-24.4l-44.131-43.684q.139-.608.274-1.223l44.132,43.685q.611-2.745,1.158-5.458l-44-44.8q.11-.641.215-1.287l44.036,44.839c1.479-7.5,2.6-14.756,3.456-21.511L228.686,547.2l.213-.536c-1.022,1.489-2.015,3.05-2.983,4.668a88.93,88.93,0,0,0-1.242-15.266l-16.529,41.456a133.46,133.46,0,0,1,2.865,17.356c-.1.988-.19,1.982-.262,2.986l.543.546c.034.533.066,1.064.093,1.594l-.723-.726c-.034.582-.06,1.168-.085,1.754a125.681,125.681,0,0,0-3.226-23.4l-62.387-12.835c3.143,3.226,6.436,6.361,9.8,9.384a76.261,76.261,0,0,0-20.156-3.444l.486.1,9.209,24.3c7.037,4.952,14.769,10.724,22.65,17.191l-11.337-37.386q.63.56,1.263,1.116l11.308,37.29q11.038,9.143,20.437,18.436l-5.2-35.094,1.087.755,5.253,35.474Q196,639.148,201.447,645.4l-2.519-38.476,1.053.656,2.545,38.882-.242-.1q2.144,2.49,4.157,4.98l.487-39.56q.562.33,1.04.606l-.5,40.244c.412.518.829,1.036,1.233,1.553a173.418,173.418,0,0,1,10.807,15.469l.235-3.6q.434,1.6.869,3.147l-.134,2.047c.484.8.954,1.609,1.416,2.413q.542,1.839,1.072,3.576-1.537-2.849-3.212-5.641l-63.3,7.077c33.282,17.508,74.583,25.807,77.215,26.325-.624-2.761-1.384-5.5-2.257-8.21.227-.238.452-.479.677-.719.107.324.219.648.322.971-.117.126-.233.255-.351.379l.409-.194q.912,2.859,1.635,5.7c.193-1.538.451-3.875.676-6.83,11.4-5.707,40.923-22.384,55.912-48.532L251.527,668.95a121.973,121.973,0,0,1-16.612,25.316ZM221.936,632.5l.1-1.485.994,1.238-.1,1.485Z" transform="translate(-99.668 -178.346)" fill="#cd0"/><path d="M303.243,524.172l.346-.164c-8.648-4.376-17.889-3.679-26.653,1.147L303.267,559.3C304.184,538.666,303.257,524.377,303.243,524.172Z" transform="translate(-128.517 -175.312)" fill="#cd0"/><path d="M289.567,672.209a173.405,173.405,0,0,1-7.28,17.409l38.8-21.184.052.564a68.757,68.757,0,0,0,6.527-16.077q.862-3.312,1.56-6.639l-39.007,24.055C290,670.961,289.788,671.59,289.567,672.209Z" transform="translate(-129.602 -200.686)" fill="#cd0"/><path d="M298.4,561.931,271.46,527l.234-.511c-6.58,3.735-12.878,9.8-18.442,17.794l42.787,45.652C297.262,579.932,297.986,570.426,298.4,561.931Z" transform="translate(-123.717 -176.406)" fill="#cd0"/><path d="M128.758,579.531c-7.478-.108-14.258,1.253-19.882,4.259-.293.156-.577.319-.861.483,2.046,1.134,14.011,7.873,29.663,18.8Z" transform="translate(-94.278 -187.155)" fill="#cd0"/><path d="M159.881,633.268l-61.969,11.8-.338-.467a101.474,101.474,0,0,0,10.012,17.834L176.2,647.7C170.657,642.438,165.13,637.6,159.881,633.268Z" transform="translate(-92.161 -198.049)" fill="#cd0"/><path d="M183.742,656.376q-1.992-1.986-3.99-3.9l-68.868,14.784-.345-.465q2.075,2.958,4.418,5.909l-.348-.463Z" transform="translate(-94.79 -201.942)" fill="#cd0"/><path d="M220.491,700.505A174.536,174.536,0,0,0,208.5,683.368l-67.433,14.955a140.407,140.407,0,0,0,16.013,9.839l-.35-.526Z" transform="translate(-100.976 -208.204)" fill="#cd0"/><path d="M104.138,586.121l.047-.38c-8.325,4.962-12.684,13.14-13.3,23.127l42.936-3.962C116.883,593.086,104.318,586.219,104.138,586.121Z" transform="translate(-90.806 -188.415)" fill="#cd0"/><path d="M135.061,610.886,91.14,614.939l-.307-.471c-.368,7.557,1.384,16.124,5.157,25.1l61.465-11.7C149.659,621.481,142.017,615.779,135.061,610.886Z" transform="translate(-90.786 -193.512)" fill="#cd0"/><path d="M202.764,677.364a235.57,235.57,0,0,0-16.921-18.884l-69.3,15.9q3.192,3.985,6.862,7.922a84.413,84.413,0,0,0,11.544,10.141l67.818-15.04Z" transform="translate(-96.006 -203.159)" fill="#cd0"/><rect width="11.96" height="87.704" transform="translate(382.13 330.882)" fill="#3f3d56"/><rect width="11.96" height="87.704" transform="translate(523.253 330.882)" fill="#3f3d56"/><rect width="435.329" height="19.933" transform="translate(241.007 317.328)" fill="#e6e6e6"/><rect width="435.329" height="19.933" transform="translate(241.007 380.315)" fill="#e6e6e6"/><rect width="435.329" height="11.96" transform="translate(241.007 343.639)" fill="#e6e6e6"/><rect width="435.329" height="11.96" transform="translate(241.007 361.977)" fill="#e6e6e6"/><rect width="13.554" height="105.244" transform="translate(239.811 313.74)" fill="#3f3d56"/><rect width="13.554" height="105.244" transform="translate(662.782 313.341)" fill="#3f3d56"/><rect width="13.554" height="109.231" transform="translate(202.736 446.492)" fill="#3f3d56"/><rect width="13.554" height="58.203" transform="translate(247.385 442.505)" fill="#3f3d56"/><rect width="13.554" height="58.203" transform="translate(659.593 442.505)" fill="#3f3d56"/><rect width="13.554" height="109.231" transform="translate(697.863 446.492)" fill="#3f3d56"/><rect width="508.682" height="14.352" transform="translate(202.736 446.492)" fill="#3f3d56"/><path d="M290.952,520l-36.676,31.892H762.958L727.876,520Z" transform="translate(-51.54 -105.401)" fill="#e6e6e6"/><path d="M275.168,113.391l-.1-.574-9.815-5.2h-1.54l-.589-1.129H242.893l-4.691,1.129H220.927l-4.68,5.462-.048.335c-.3,1.953-7.072,47.886,10.788,62.5l7.447,3.46h4.816l-.941-1.88,4.186,1.88h13.554l.241-.361L264.332,176l.207-.239C265.265,174.9,282.359,154.134,275.168,113.391Z" transform="translate(-115.901 -91.274)" fill="#cd0" opacity="0.1"/><rect width="7.973" height="20.73" transform="translate(126.992 67.771)" fill="#e6e6e6"/><rect width="14.352" height="398.653" transform="translate(123.404 115.211)" fill="#3f3d56"/><rect width="21.527" height="13.554" transform="translate(119.816 108.434)" fill="#3f3d56"/><path d="M140.276,105l13.554,14.352-5.581,10.365,11.162,2.392,10.365-2.392L163.4,118.554,176.155,105Z" transform="translate(-28.433 -21.283)" fill="#3f3d56"/><path d="M216.44,112.568l-6.378-6.378,4.784-4.784h60.6l4.784,5.581-7.176,5.581S234.779,110.974,216.44,112.568Z" transform="translate(-114.962 -90.244)" fill="#3f3d56"/><path d="M275.168,112.663l-.1-.574-9.815-5.2-4.481-2.376L235.613,102.9l-14.1,3.317-.582.678-4.68,5.462-.048.335c-.3,1.953-7.072,47.886,10.788,62.5l7.447,3.46,6.267,2.91-1.451-2.91-2.384-4.76c-2.5-14.527-7.981-52.694-4.481-60.667l14.463-4.664,12.837,4.768c.885,5.733,6.61,45.925-3.42,60.252l-.215.311v4.489l8.284-3.1.207-.239C265.265,174.175,282.359,153.405,275.168,112.663Zm-12.278,60.6-4.449,1.674v-.3c11-16.417,3.811-60.5,3.5-62.381l-.112-.686-12.581-4.672-2.336-.869-2.695.869-13.49,4.353-.231.407c-5.127,9.193,3.668,60.627,4.042,62.812l.032.175.949,1.9-7.136-3.293c-15.906-13.243-10.453-55.652-9.871-59.854l4.306-5.023,6.267-1.475,6.737-1.587,11.091.718,13.187.853.032.016,12.781,6.761c6.331,36.955-8.2,57.247-10.022,59.607Z" transform="translate(-115.901 -90.546)" fill="#3f3d56"/><ellipse cx="21.527" cy="11.162" rx="21.527" ry="11.162" transform="translate(109.451)" fill="#3f3d56"/><path d="M237.819,706.406l-12.757,40.663s19.933,11.162,47.041,0l-12.757-40.663Z" transform="translate(-118.002 -212.873)" fill="#3f3d56"/><circle cx="6.378" cy="6.378" r="6.378" transform="translate(124.6 57.406)" fill="#cd0"/><path d="M523.405,442.821a26.981,26.981,0,0,1,7.386-3.7,188.328,188.328,0,0,1,52.039-11.328c15.474-1.1,32.244.206,44.33,9.931a15.244,15.244,0,0,1,4.5,5.239c1.52,3.281,1.06,7.1.567,10.678a12.069,12.069,0,0,1-1.035,4.02c-1.626,3.1-5.63,4.181-9.108,3.81s-6.741-1.843-10.172-2.525a45.462,45.462,0,0,0-6.424-.654l-21.515-1.165c-13.379-.724-26.934-1.437-40.057,1.264a39.9,39.9,0,0,0-11.573,3.988c-3,1.683-5.016,4.1-7.8.989C519.655,457.9,516.95,447.865,523.405,442.821Z" transform="translate(-177.704 -156.334)" fill="#2f2e41"/><path d="M564.665,457.332s28.938-12.972,39.915,2-5.987,8.981-5.987,8.981l-18.96,5.987L558.678,470.3Z" transform="translate(-185.624 -161.33)" fill="#f2f2f2"/><path d="M568.065,444.485s3.992,18.96,1,23.949,16.964,11.975,16.964,11.975l18.96-7.983s-4.989-30.934,0-36.922Z" transform="translate(-187.527 -157.963)" fill="#ffb9b9"/><path d="M568.065,444.485s3.992,18.96,1,23.949,16.964,11.975,16.964,11.975l18.96-7.983s-4.989-30.934,0-36.922Z" transform="translate(-187.527 -157.963)" opacity="0.1"/><path d="M541.9,727.542c2.855,5.474,4.706,11.4,6.594,17.281a1.406,1.406,0,0,0,1.747,1.162l17.75-.02c2.19,0,5.129-.706,5.107-2.9-.016-1.539-1.589-2.5-2.76-3.5-3.249-2.772-4.1-7.344-5.441-11.4a38.668,38.668,0,0,0-14.388-19.324,8.424,8.424,0,0,0-3.076-1.52,8.576,8.576,0,0,0-3.372.183c-3.116.629-14.751,2.779-12.553,7.312.946,1.951,4.454,3.983,5.924,5.806A41.687,41.687,0,0,1,541.9,727.542Z" transform="translate(-180.061 -213.042)" fill="#575a89"/><path d="M618.716,704.309a40.357,40.357,0,0,1-2.087,3.836c-2.571,4.241-5.606,8.2-8,12.541a20.7,20.7,0,0,0-2.916,8.727,9.693,9.693,0,0,0,3.387,8.247c2.577,1.955,6.109,2.046,9.312,1.59s6.386-1.373,9.611-1.132c-1.087-6.154,4.1-11.57,5.4-17.683.365-1.717.419-3.5.907-5.183a25.4,25.4,0,0,1,2.009-4.442,57.438,57.438,0,0,0,5.421-15.987c.122-.675-15.778-.786-17.269-.463C619.836,695.367,620.517,700.45,618.716,704.309Z" transform="translate(-195.155 -210.396)" fill="#575a89"/><path d="M467.544,580.681c-4.539,7.1-3.493,16.516-.305,24.32s8.262,14.7,11.735,22.383c2.214,4.9,3.767,10.089,6.26,14.85,3.087,5.9,7.595,11.091,9.666,17.415,1.32,4.031,1.623,8.449,3.763,12.113a37.117,37.117,0,0,0,4.407,5.468,50.527,50.527,0,0,1,10.158,18.145c1.955-5.824,7.81-9.643,13.823-10.9s12.243-.4,18.326.455c-3.393-5.257-6.819-10.58-8.842-16.5-1.956-5.726-2.534-11.819-3.851-17.725-2.7-12.111-8.475-23.282-14.19-34.3l29.374-2.33a114.513,114.513,0,0,1,14.432-.535c7.582.357,15.01,2.216,22.551,3.075s15.52.634,22.24-2.893a106.579,106.579,0,0,0-19.122,62.942,24.369,24.369,0,0,1,36.889,8.706c11.512-15.731,10.143-37.631,19.265-54.858,1.876-3.542,4.174-6.842,6.2-10.3,4-6.842,6.908-14.261,9.794-21.644,2.552-6.526,5.122-13.788,2.675-20.354a21.251,21.251,0,0,0-4.361-6.706c-5.263-5.8-12.589-10.095-20.42-10.273-12.022-.274-21.954,8.637-32.5,14.416-12.422,6.807-26.914,9.512-41.043,8.512-14.487-1.026-28.322-5.768-42.123-9.944a200.438,200.438,0,0,0-21.022-5.423c-5.919-1.11-11.555.12-17.388,1.633C477.58,572.073,471.2,574.961,467.544,580.681Z" transform="translate(-166.532 -183.446)" fill="#2f2e41"/><path d="M610.416,415.377a29.961,29.961,0,0,1-29.936,29.936,29.213,29.213,0,0,1-5.319-.479,29.935,29.935,0,1,1,35.255-29.457Z" transform="translate(-183.975 -147.816)" fill="#ffb9b9"/><path d="M557.942,458.531s5.488,2.495,7.484,4.49,7.983,12.972,17.962,5.987,10.977-10.977,13.97-10.977,6.985,5.987,6.985,5.987l27.442,82.325A114.931,114.931,0,0,1,606.339,567.8c-15.966,9.979-34.926,14.968-43.907,10.977s-25.945-6.985-28.938-14.968-7.983-31.932-7.983-31.932L539.482,471Z" transform="translate(-178.902 -162.53)" fill="#f2f2f2"/><path d="M550.166,540.2c2.176-4.7,2.492-10.018,2.676-15.193a92.108,92.108,0,0,0-.406-15.37c-.884-6.675-3.058-13.106-4.431-19.7a83.276,83.276,0,0,1-1.745-17.58c.02-2.695.215-5.531,1.683-7.791,1.024-1.576,2.627-2.8,3.267-4.565,1.255-3.466-1.846-7.095-5.245-8.522a20.636,20.636,0,0,0-12.917-.519,61.463,61.463,0,0,0-12.151,4.971c-2.839,1.406-5.738,2.854-7.939,5.132-3.1,3.205-4.46,7.67-5.559,11.989-.88,3.457-1.663,7.063-.993,10.567,1.088,5.69,5.726,9.97,8.2,15.209,2.872,6.084,2.678,13.174,1.536,19.8s-3.17,13.112-3.8,19.811.335,13.9,4.531,19.157c1.71,2.143,6.349,7.221,9.48,6.646,2.459-.451,6.025-5.866,8.007-7.582C540.088,551.71,546.88,547.3,550.166,540.2Z" transform="translate(-174.978 -160.938)" fill="#2f2e41"/><path d="M622.829,451.927c.087,5.565-2.366,10.856-5.251,15.616s-6.274,9.262-8.4,14.406a33.018,33.018,0,0,0-1.541,20.313,65.521,65.521,0,0,0,2.2,6.8l5.467,15a26.023,26.023,0,0,0,3.17,6.656,21.5,21.5,0,0,0,4.309,4.145,40.215,40.215,0,0,0,14.058,7.334,23.776,23.776,0,0,0,15.633-.892,226.212,226.212,0,0,1,9.71-59.954c1.093-3.592,2.288-7.373,1.445-11.032-.945-4.1-4.236-7.175-7.365-9.985-9.569-8.593-20.093-17.62-32.9-18.778C615.951,440.88,622.766,447.9,622.829,451.927Z" transform="translate(-195.359 -159.18)" fill="#2f2e41"/><path d="M541.949,595.994c.759,1.485,1.231,3.1,1.982,4.594A25.662,25.662,0,0,0,548,606.063c6.672,7.4,14.828,14.768,24.78,15.214a6.8,6.8,0,0,0,2.921-.368,5.79,5.79,0,0,0,3.108-4.444c.706-3.865-1-7.72-2.708-11.258-3.7-7.667-7.867-15.529-14.8-20.474a27.766,27.766,0,0,0-23.954-3.6c-3.61,1.112-9.6,3.054-4.817,6.348C536.161,589.977,539.847,591.879,541.949,595.994Z" transform="translate(-179.965 -187.229)" fill="#ffb9b9"/><path d="M590.132,474.436c-1.219-2.723-2.494-5.525-4.683-7.551a17.374,17.374,0,0,0-7.154-3.624,39.12,39.12,0,0,0-10.494-1.5c-4.226-.026-9.126,1.107-10.921,4.934-1.425,3.038-.32,6.636,1.115,9.67a9.481,9.481,0,0,0,2.958,4c1.822,1.231,4.18,1.192,6.34,1.6,3.387.647,6.419,2.462,9.37,4.246l7.4,4.474,12.714,7.685c-.335-.2-.216-8.921-.606-10.35C594.916,483.413,592.084,478.794,590.132,474.436Z" transform="translate(-185.125 -163.284)" fill="#ffb9b9"/><path d="M547.151,750.627c-2.975,4.043-2.379,9.822-5.014,14.094-2.284,3.7-6.589,5.645-9.446,8.926a23.93,23.93,0,0,0-2.429,3.494c-2.65,4.44-4.8,10.129-2.194,14.593,2.1,3.59,6.514,4.994,10.562,5.95,5.116,1.209,10.432,2.176,15.608,1.253s10.233-4.093,12.079-9.016a34.792,34.792,0,0,1,1.292-3.645c2.805-5.522,11.6-5.582,14.475-11.071,2.009-3.841.162-8.484-1.684-12.406L574.76,750.82c-1.871-3.975-9.456-1.689-13.411-2.642C556.193,746.936,550.861,745.568,547.151,750.627Z" transform="translate(-179.18 -221.106)" fill="#2f2e41"/><path d="M604.4,738.1a16.032,16.032,0,0,0-5.1,6.989c-2.79,6.438-3.749,13.5-4.679,20.45a24.765,24.765,0,0,0-.161,8.388c1.2,5.68,6.349,9.862,11.889,11.6s11.481,1.469,17.28,1.185a12.371,12.371,0,0,0,5.432-1.1c2.914-1.607,4.053-5.384,3.553-8.674s-2.3-6.217-4.056-9.042-3.558-5.75-4.062-9.04c-.848-5.533,1.544-13.655-1.855-18.661S608.943,734.917,604.4,738.1Z" transform="translate(-192.814 -218.874)" fill="#2f2e41"/><path d="M607.2,395.817a7.6,7.6,0,0,0-3.3-4.3,17.44,17.44,0,0,0-.7-5.677c-1.813-5.36-6.108-5.052-10.16-7.422-1.758-1.028-1.649-1.937-2.565-3.625a13.455,13.455,0,0,0-5.185-5.29c-2.6-1.656-5.344-3.362-8.42-3.572-6.463-.441-11.419,5.639-17.6,7.59-2.723.86-5.649.9-8.386,1.708s-5.468,2.754-5.876,5.58c-.188,1.3.144,2.643-.047,3.948-.38,2.592-2.654,4.408-4.177,6.54-3.367,4.715-2.982,11.377-.289,16.507a23.211,23.211,0,0,0,1.942,3.038,18.688,18.688,0,0,0,2.05,6.941c2.692,5.13,7.326,8.964,12.166,12.149a28.7,28.7,0,0,1-.718-5.181,3.573,3.573,0,0,1,.22-1.717c.539-1.127,1.963-1.426,3.049-2.043,2.249-1.278,3.131-4.107,3.2-6.693s-.483-5.177-.212-7.75a4.235,4.235,0,0,1,1.45-3.115,5.007,5.007,0,0,1,2.733-.652c4.608-.188,9.424-.273,13.489-2.452a19.988,19.988,0,0,1,4.2-2.124c3.455-.9,6.985,1.521,8.976,4.484s2.984,6.49,4.821,9.551,5.01,5.791,8.562,5.429a1.421,1.421,0,0,0,1.061-.472,1.59,1.59,0,0,0,.2-.9l.2-13.576a20.523,20.523,0,0,0-.685-6.9Z" transform="translate(-181.509 -143.856)" fill="#2f2e41"/><path d="M501.046,489.291c-2.856,4.214-6.15,8.265-7.72,13.108-.923,2.846-1.209,5.855-1.877,8.772-2.225,9.714-8.654,18.343-9.3,28.288a13.45,13.45,0,0,0,.944,6.495c1.844,4.011,6.258,6.125,10.468,7.455s8.731,2.288,12.092,5.152a37.034,37.034,0,0,1,4.582,5.312,44.384,44.384,0,0,0,21.2,14.5c-.659-4.541-.968-10.013,2.661-12.82,1.965-1.519,4.59-1.79,7.064-2l11.692-1.01a150.251,150.251,0,0,0-25.63-19.966c-3.233-2-6.752-4.1-8.228-7.606-.923-2.189-.91-4.641-.932-7.017a172.9,172.9,0,0,0-2.2-25.957c-.963-5.961-2.237-11.868-3.695-17.728-.409-1.645-2.828-9.023-5.8-7.3-.7.407-1.357,5.087-1.767,6.058A36.739,36.739,0,0,1,501.046,489.291Z" transform="translate(-170.098 -166.316)" fill="#2f2e41"/><path d="M657.827,471.937l4.775,9.93a23.861,23.861,0,0,1,3.01,13.427l.284,29.787c.038,3.981.068,8.021-.979,11.861a9.5,9.5,0,0,1-1.647,3.542,11.072,11.072,0,0,1-2.824,2.275c-9.036,5.646-20.754,8.855-30.3,4.124a41.939,41.939,0,0,1-6.212-4.055c-3.805-2.818-7.666-5.691-10.513-9.474-2.979-3.96-4.687-8.7-6.691-13.233A101.69,101.69,0,0,0,592.9,497.446a5.978,5.978,0,0,1-1.712-3.393c-.059-2.611,3.039-3.9,5.454-4.89,4.126-1.7,8.017-4.972,8.708-9.38,8.775,11.507,18.458,23.665,32.3,27.869a1.429,1.429,0,0,0,2.2-1.221c.786-3.289,1.064-6.675,1.639-10.007a57,57,0,0,1,6.013-17.341C649.146,476.046,654.456,464.928,657.827,471.937Z" transform="translate(-192.214 -164.886)" fill="#2f2e41"/><path d="M524.591,508.533a45.8,45.8,0,0,1-4.375,20.409,16.86,16.86,0,0,0-1.713,4.5c-.524,3.355,1.385,6.6,3.568,9.2A37.848,37.848,0,0,0,538.251,553.9" transform="translate(-177.463 -172.766)" opacity="0.1"/><path d="M655.035,501.081c-.7,1.892-.065,3.984.478,5.928a59.734,59.734,0,0,1,2.177,17.332.631.631,0,0,1-.738.756c-2.3.141-4.94.156-6.5-1.542" transform="translate(-204.226 -171.255)" opacity="0.1"/><rect width="284.882" height="56.246" transform="translate(527.119 101.657)" fill="#e6e6e6"/><rect width="284.882" height="56.246" transform="translate(527.119 167.398)" fill="#e6e6e6"/><circle cx="16.801" cy="16.801" r="16.801" transform="translate(540.266 112.613)" fill="#cd0"/><rect width="165.816" height="3.652" transform="translate(597.243 122.84)" fill="#cd0"/><rect width="165.816" height="3.652" transform="translate(597.243 132.336)" fill="#cd0"/><circle cx="16.801" cy="16.801" r="16.801" transform="translate(540.266 179.086)" fill="#ccc"/><rect width="165.816" height="3.652" transform="translate(597.243 189.312)" fill="#ccc"/><rect width="165.816" height="3.652" transform="translate(597.243 198.808)" fill="#ccc"/><rect width="284.882" height="56.246" transform="translate(527.119 231.98)" fill="#e6e6e6"/><circle cx="16.801" cy="16.801" r="16.801" transform="translate(540.266 243.668)" fill="#ccc"/><rect width="165.816" height="3.652" transform="translate(597.243 253.894)" fill="#ccc"/><rect width="165.816" height="3.652" transform="translate(597.243 263.39)" fill="#ccc"/><path d="M695.236,165.617l-6.017-8.023,1.426-1.068,4.9,6.535,19.3-15.791,1.128,1.379Z" transform="translate(-139.7 -29.851)" fill="#f2f2f2"/></g></svg>