<svg xmlns="http://www.w3.org/2000/svg" width="812" height="574.812" viewBox="0 0 812 574.812"><g transform="translate(0 0.02)"><path d="M891.322,155.09H743.105a517.627,517.627,0,0,0,0,183.657c43.4-7.615,93.832-6.283,148.216,0C880.289,276.186,879.784,214.9,891.322,155.09Z" transform="translate(-200.484 -148.427)" opacity="0.1"/><path d="M216.485,736.169c2.856-5.245-.381-11.671-4.084-16.354s-8.2-9.519-8.1-15.507c.143-8.567,9.234-13.622,16.5-18.163a79.961,79.961,0,0,0,14.812-11.909,21.893,21.893,0,0,0,4.55-6.092c1.5-3.351,1.466-7.159,1.371-10.833q-.485-18.334-1.818-36.63" transform="translate(-174.98 -170.806)" fill="none" stroke="#3f3d56" stroke-miterlimit="10" stroke-width="4"/><path d="M254.653,619.286a13.327,13.327,0,0,0-6.664-10.947L245,614.251l.1-7.159a13.327,13.327,0,1,0,9.519,12.194Z" transform="translate(-176.118 -170.127)" fill="#57b894"/><path d="M229.729,713.938a13.327,13.327,0,1,1,.647-10.757l-8.348,6.787,9.186-2.123a13.327,13.327,0,0,1-1.485,6.092Z" transform="translate(-174.993 -174.355)" fill="#57b894"/><path d="M223.327,686.321a13.327,13.327,0,0,1-4.236-26.216l-.076,5.512,3.027-5.988h0a13.327,13.327,0,0,1,14,12.727,13.174,13.174,0,0,1-.571,4.56,13.327,13.327,0,0,1-12.147,9.405Z" transform="translate(-175.207 -172.678)" fill="#57b894"/><path d="M257.422,663.655a13.327,13.327,0,1,1,5.911-25.007l-2.361,6.473,4.855-4.664a13.327,13.327,0,0,1,4.312,9.224,13.033,13.033,0,0,1-.333,3.674A13.375,13.375,0,0,1,257.422,663.655Z" transform="translate(-176.87 -171.591)" fill="#57b894"/><path d="M252.869,623.207c-3.084.343-6.083,1.3-9.177,1.495s-6.492-.552-8.453-2.951a43.354,43.354,0,0,1-2.466-4.35,9.52,9.52,0,0,0-3.37-3.17,13.327,13.327,0,1,0,24.979,8.872C253.878,623.121,253.374,623.159,252.869,623.207Z" transform="translate(-176.124 -170.496)" opacity="0.1"/><path d="M257.413,664.039A13.327,13.327,0,0,1,244.7,645a9.9,9.9,0,0,1,2.684,2.694c.952,1.438,1.533,3.094,2.646,4.417,2.085,2.446,5.635,3.246,8.862,3.094s6.34-1.057,9.519-1.352c.447,0,.895-.067,1.352-.086a13.375,13.375,0,0,1-12.356,10.271Z" transform="translate(-176.86 -171.975)" opacity="0.1"/><path d="M223.343,686.72a13.327,13.327,0,0,1-12.813-18.81,10.927,10.927,0,0,1,2.856,2.713c1.038,1.466,1.685,3.151,2.856,4.5,2.256,2.513,6.045,3.4,9.453,3.313s6.5-.885,9.786-1.133a13.327,13.327,0,0,1-12.137,9.415Z" transform="translate(-175.223 -173.076)" opacity="0.1"/><path d="M229.711,714.37a13.344,13.344,0,0,1-24.36-10.9,13.133,13.133,0,0,1,2.932,2.608c1.276,1.552,2.113,3.3,3.579,4.76,2.732,2.684,7.14,3.808,11.071,3.893A59.192,59.192,0,0,0,229.711,714.37Z" transform="translate(-174.975 -174.786)" opacity="0.1"/><path d="M195.93,739.13s10.547-4.131,13.727-6.4,16.183-4.969,17-1.333,15.85,18.087,3.951,18.144-27.663,1.951-30.843,0S195.93,739.13,195.93,739.13Z" transform="translate(-174.578 -176.043)" fill="#656380"/><path d="M230.818,748.756c-11.909.1-27.663,1.9-30.833,0-2.418-1.466-3.379-6.749-3.7-9.186h-.352s.666,8.5,3.808,10.471,18.934.076,30.843,0c3.436,0,4.617-1.247,4.55-3.065C234.683,748.052,233.379,748.737,230.818,748.756Z" transform="translate(-174.578 -176.521)" opacity="0.2"/><path d="M988.751,728.295c-4.512-8.358.609-18.6,6.492-26.054s13.07-15.231,12.918-24.75c-.219-13.66-14.707-21.714-26.292-28.958a128.29,128.29,0,0,1-23.6-18.972,33.8,33.8,0,0,1-7.254-9.71c-2.4-5.34-2.332-11.423-2.18-17.259q.752-29.234,2.856-58.392" transform="translate(-210.764 -167.13)" fill="none" stroke="#3f3d56" stroke-miterlimit="10" stroke-width="4"/><path d="M928.759,542.094a21.238,21.238,0,0,1,10.624-17.44l4.76,9.424L944,522.656a21.295,21.295,0,1,1-15.231,19.429Z" transform="translate(-209.801 -166.053)" fill="#57b894"/><path d="M968.522,692.944a21.285,21.285,0,1,0-1.028-17.135l13.327,10.823-14.631-3.4a21.181,21.181,0,0,0,2.332,9.71Z" transform="translate(-211.601 -172.789)" fill="#57b894"/><path d="M978.665,648.932a21.295,21.295,0,0,0,6.749-41.771l.114,8.777-4.817-9.519h-.057a21.294,21.294,0,1,0-1.99,42.542Z" transform="translate(-211.225 -170.12)" fill="#57b894"/><path d="M924.368,612.851A21.295,21.295,0,1,0,914.953,573l3.808,10.309-7.739-7.425a21.295,21.295,0,0,0,13.346,36.964Z" transform="translate(-208.618 -168.384)" fill="#57b894"/><path d="M931.638,548.355c4.921.543,9.7,2.075,14.631,2.38s10.348-.876,13.46-4.76c1.685-2.066,2.523-4.674,3.941-6.93A15.289,15.289,0,0,1,969.03,534a21.295,21.295,0,1,1-39.8,14.136C930.039,548.212,930.839,548.279,931.638,548.355Z" transform="translate(-209.825 -166.64)" opacity="0.1"/><path d="M924.393,613.462A21.314,21.314,0,0,0,944.65,583a15.715,15.715,0,0,0-4.284,4.293c-1.514,2.285-2.437,4.931-4.217,7.035-3.313,3.893-8.986,5.169-14.127,4.94s-10.09-1.694-15.231-2.17c-.714-.057-1.428-.1-2.151-.124A21.3,21.3,0,0,0,924.393,613.462Z" transform="translate(-208.643 -168.995)" opacity="0.1"/><path d="M978.712,649.566a21.295,21.295,0,0,0,20.429-29.976,16.972,16.972,0,0,0-4.5,4.331c-1.656,2.332-2.684,5.017-4.626,7.177-3.589,4-9.624,5.407-15.069,5.274-5.274-.114-10.348-1.409-15.593-1.809A21.285,21.285,0,0,0,978.712,649.566Z" transform="translate(-211.272 -170.754)" opacity="0.1"/><path d="M968.64,693.633a21.295,21.295,0,0,0,38.82-17.373,21.2,21.2,0,0,0-4.674,4.169c-2.028,2.466-3.36,5.264-5.712,7.558-4.35,4.274-11.376,6.035-17.63,6.2a92.452,92.452,0,0,1-10.8-.552Z" transform="translate(-211.719 -173.478)" opacity="0.1"/><path d="M1021.341,730.829s-16.8-4.322-21.894-7.93-25.854-7.911-27.111-2.132-25.255,28.767-6.283,28.92,44.084.857,49.139-2.228S1021.341,730.829,1021.341,730.829Z" transform="translate(-211.245 -175.481)" fill="#656380"/><path d="M965.75,748.328c18.972.152,44.084.847,49.139-2.228,3.808-2.351,5.378-10.757,5.892-14.641h.562s-1.066,13.555-6.121,16.63-30.167,2.38-49.139,2.228c-5.474,0-7.368-1.99-7.263-4.874C959.581,747.2,961.666,748.29,965.75,748.328Z" transform="translate(-211.247 -176.131)" opacity="0.2"/><path d="M409.406,159.94H261.19c11.547,59.81,11.033,121.1,0,183.657,54.384-6.283,104.827-7.615,148.216,0a517.624,517.624,0,0,0,0-183.657Z" transform="translate(-177.715 -148.661)" opacity="0.1"/><path d="M564.386,243.362c-14.469,1.028-28.044,11.138-29.034,24.246-.543,7.13,2.437,14.4,1.228,21.438-1.59,9.31-10.119,16.183-19.039,20.857s-18.782,8.2-26.2,14.631-11.756,17.135-6.521,25.521c2.009,3.218,5.179,5.712,7.749,8.567,6.987,7.834,9.348,18.791,6.054,28.092-3,8.425-10.309,15.85-9.519,24.8.762,8.567,9.129,15.517,18.191,18.23s18.753,2.075,28.13,1.4c10.823-.771,22.961-2.18,29.253-10.024,6.759-8.425,3.741-20.562,7.339-30.519,7.178-19.838,36.868-24.665,48.73-42.418,5.712-8.567,6.578-19.124,6.492-29.291C627,286.694,609.727,240.154,564.386,243.362Z" transform="translate(-188.353 -152.663)" fill="#3f3d56"/><path d="M565.178,315.877s4.76,15.231-11.423,23.8,13.327,29.51,13.327,29.51l22.846,8.567,25.7-11.423-4.76-39.029s-21.894,7.615-21.894-19.991Z" transform="translate(-191.544 -155.744)" fill="#a0616a"/><path d="M565.178,315.877s4.76,15.231-11.423,23.8,13.327,29.51,13.327,29.51l22.846,8.567,25.7-11.423-4.76-39.029s-21.894,7.615-21.894-19.991Z" transform="translate(-191.544 -155.744)" opacity="0.1"/><path d="M602.858,676.286s-4.76,32.366-1.9,36.173,16.183,1.9,16.183,1.9,2.856-32.366,3.808-36.173S602.858,676.286,602.858,676.286Z" transform="translate(-194.002 -173.456)" fill="#a0616a"/><path d="M617.382,710.6s-13.813-2.208-13.813,1.6c0,0-5.712,2.856-5.712,0s-5.236,29.986-1.428,34.746,18.353-.457,21.894,1.9c2.856,1.9,24.274,1.428,25.226-3.332s.952-8.567-7.615-13.327S617.382,710.6,617.382,710.6Z" transform="translate(-193.762 -175.098)" fill="#3f3d56"/><path d="M617.382,710.6s-13.813-2.208-13.813,1.6c0,0-5.712,2.856-5.712,0s-5.236,29.986-1.428,34.746,18.353-.457,21.894,1.9c2.856,1.9,24.274,1.428,25.226-3.332s.952-8.567-7.615-13.327S617.382,710.6,617.382,710.6Z" transform="translate(-193.762 -175.098)" opacity="0.1"/><path d="M568,673.246s6.664,28.558,3.808,41.885l19.991-5.712s-12.375-33.318-11.423-36.174S568,673.246,568,673.246Z" transform="translate(-192.462 -173.272)" fill="#a0616a"/><path d="M575.712,711.16s12.375-6.664,16.183,0,15.231,33.318,8.567,36.174-27.606,1.9-28.558-8.567-1.9-25.7-1.9-25.7S574.76,714.968,575.712,711.16Z" transform="translate(-192.558 -175.013)" fill="#3f3d56"/><path d="M539.657,455.31s-18.087,37.125,4.76,96.145c0,0,11.423,34.27,5.712,54.26S562.5,672.351,562.5,672.351l21.894-3.808s-8.567-62.828-5.712-69.491.952-78.059.952-78.059,25.7,48.549,21.895,87.578-4.76,60.924-4.76,60.924l24.75-.952a382.7,382.7,0,0,1,7.615-39.029c4.76-18.087,7.615-103.761-4.76-129.463l-2.856-31.414Z" transform="translate(-190.773 -162.858)" fill="#3f3d56"/><circle cx="22.846" cy="22.846" r="22.846" transform="translate(356.499 122.998)" fill="#a0616a"/><ellipse cx="26.654" cy="14.279" rx="26.654" ry="14.279" transform="translate(350.624 121.255) rotate(-7.3)" fill="#3f3d56"/><path d="M596.521,282.81c-1.257,6.959-11.423,13.441-24.541,15.117-14.336,1.837-26.787-2.789-28.177-10.357a7.752,7.752,0,0,0-.076,2.437c.952,7.815,13.651,12.642,28.253,10.776s25.626-9.729,24.617-17.554C596.578,283.086,596.55,282.991,596.521,282.81Z" transform="translate(-191.292 -154.566)" opacity="0.1"/><path d="M532.626,344.82c-3.065-1.266-6.587.695-8.644,3.294s-3.237,5.807-5.264,8.425c-2.285,2.932-5.512,4.95-8.52,7.149a72.1,72.1,0,0,0-10.823,9.757c-1.733,1.9-3.417,3.979-5.712,5.255-3.646,2.047-8.253,1.685-12.1,0s-7.073-4.407-10.224-7.149q-14.051-12.251-27.72-25.064c-6.483-6.054-15.821-9.1-24.636-10.071-2.151-.238-4.579-.247-6.178,1.209a5.635,5.635,0,0,0-1.647,3.979c-.2,4.96,4.017,9.091,8.567,11.1s9.6,2.618,14.174,4.522a27.73,27.73,0,0,1,11.071,8.453c3.2,4.074,7.073,7.406,10.119,11.585,1.39,1.9,2.618,3.912,3.951,5.854a128.3,128.3,0,0,0,10.547,12.87c4.407,4.9,9.8,10.214,16.364,9.719,2.742-.2,5.274-1.428,7.739-2.637,7.7-3.808,15.469-7.615,22.218-12.9,3.951-3.094,7.52-6.664,11.661-9.519,3.96-2.713,8.482-4.76,11.69-8.348a17.382,17.382,0,0,0,3.865-15.421A18.02,18.02,0,0,0,532.626,344.82Z" transform="translate(-184.923 -157.137)" fill="#a0616a"/><path d="M629.687,334.82c3.065-1.266,6.587.695,8.644,3.294s3.237,5.807,5.264,8.425c2.285,2.932,5.512,4.95,8.52,7.149a72.1,72.1,0,0,1,10.823,9.757c1.733,1.9,3.418,3.979,5.712,5.255,3.646,2.047,8.253,1.685,12.1,0s7.073-4.407,10.224-7.149q14.089-12.3,27.758-25.064c6.483-6.054,15.821-9.1,24.636-10.071,2.151-.238,4.579-.247,6.178,1.209a5.635,5.635,0,0,1,1.647,3.979c.2,4.96-4.017,9.091-8.568,11.1s-9.6,2.618-14.174,4.522a27.729,27.729,0,0,0-11.071,8.453c-3.2,4.074-7.073,7.406-10.119,11.585-1.39,1.9-2.618,3.912-3.951,5.854a128.289,128.289,0,0,1-10.585,12.87c-4.407,4.9-9.8,10.214-16.364,9.719-2.742-.2-5.274-1.428-7.739-2.637-7.7-3.808-15.469-7.615-22.218-12.9-3.951-3.094-7.52-6.664-11.661-9.519-3.96-2.713-8.482-4.76-11.69-8.348a17.383,17.383,0,0,1-3.865-15.421A18.02,18.02,0,0,1,629.687,334.82Z" transform="translate(-194.9 -156.656)" fill="#a0616a"/><path d="M587.02,363.474a179.632,179.632,0,0,0-16.183-9.519c-7.615-3.808-16.183-16.183-16.183-16.183S528,342.532,528,349.2s11.423,30.462,15.231,32.366,9.519,1.9,8.567,5.712,2.856,11.423,2.856,11.423,7.615,11.423,2.856,14.279-25.7,37.125-22.846,41.885,29.51,9.519,42.837,20.943,50.453-.952,50.453-3.808-3.808-8.567-3.808-8.567-.952-47.6,3.808-62.828.952-37.125-.952-39.981c0,0,11.423-19.991,6.664-25.7s-27.606-8.567-29.51-7.615l-1.8,10.367a83.857,83.857,0,0,1-6.578,20.943c-.952,2.066-1.78,3.912-2.094,4.845C592.732,366.33,587.02,363.474,587.02,363.474Z" transform="translate(-190.539 -156.696)" fill="#cd0"/><path d="M737.105,331.727c43.4-7.615,93.832-6.283,148.216,0-11.033-62.561-11.537-123.847,0-183.657H737.105a517.628,517.628,0,0,0,0,183.657Z" transform="translate(-200.195 -148.09)" fill="#f2f2f2"/><rect width="91.386" height="12.375" transform="translate(561.165 30.87)" fill="#cd0"/><rect width="91.386" height="12.375" transform="translate(561.165 56.572)" fill="#cd0"/><path d="M416.406,335.6c-43.389-7.615-93.832-6.283-148.216,0,11.033-62.561,11.547-123.847,0-183.657H416.406a517.626,517.626,0,0,1,0,183.657Z" transform="translate(-178.051 -148.276)" fill="#f2f2f2"/><rect width="91.386" height="12.375" transform="translate(122.324 37.534)" fill="#cd0"/><rect width="625.421" height="1.904" transform="translate(93.29 572.787)" fill="#3f3d56"/><rect width="76.155" height="1.904" transform="translate(735.845 572.787)" fill="#3f3d56"/><rect width="76.155" height="1.904" transform="translate(0 572.787)" fill="#3f3d56"/><path d="M396.305,473.287a13.327,13.327,0,0,0-6.664-10.947l-2.989,5.911.086-7.159a13.291,13.291,0,0,0-17.05,13.412,13.327,13.327,0,0,0,26.626-1.218Z" transform="translate(-182.929 -163.109)" fill="#f2f2f2"/><path d="M394.509,477.207c-3.084.343-6.083,1.3-9.177,1.495s-6.492-.552-8.453-2.951a43.354,43.354,0,0,1-2.466-4.35,9.52,9.52,0,0,0-3.37-3.17,13.327,13.327,0,1,0,24.979,8.872C395.518,477.121,395.014,477.159,394.509,477.207Z" transform="translate(-182.932 -163.479)" opacity="0.03"/><path d="M739.22,609.626a13.327,13.327,0,0,0-12.765,1.257l4.017,5.274-6.406-3.208a13.193,13.193,0,0,0-2.389,3.722,13.327,13.327,0,1,0,17.544-7.016Z" transform="translate(-199.797 -170.223)" fill="#f2f2f2"/><path d="M741.775,612.926c-1.047,2.922-1.485,6.035-2.665,8.91s-3.332,5.6-6.349,6.311c-1.628.381-3.332.143-4.988.324a9.52,9.52,0,0,0-4.322,1.647,13.432,13.432,0,1,0,18.877-18.648C742.127,611.974,741.946,612.46,741.775,612.926Z" transform="translate(-199.934 -170.364)" opacity="0.03"/><path d="M689.458,175.234a13.327,13.327,0,0,0-12.823-.1l3.456,5.664-6.045-3.808a13.327,13.327,0,1,0,15.412-1.7Z" transform="translate(-197.346 -149.314)" fill="#f2f2f2"/><path d="M691.63,178.833c-1.333,2.789-2.1,5.845-3.57,8.567s-3.884,5.226-6.959,5.626a41.851,41.851,0,0,1-5-.19,9.52,9.52,0,0,0-4.474,1.19,13.39,13.39,0,1,0,20.7-16.526C692.087,177.976,691.849,178.376,691.63,178.833Z" transform="translate(-197.443 -149.505)" opacity="0.03"/></g></svg>