<svg xmlns="http://www.w3.org/2000/svg" xmlns:xlink="http://www.w3.org/1999/xlink" width="812" height="479.675" viewBox="0 0 812 479.675"><defs><linearGradient id="a" x1="0.5" y1="1" x2="0.5" gradientUnits="objectBoundingBox"><stop offset="0" stop-color="gray" stop-opacity="0.251"/><stop offset="0.54" stop-color="gray" stop-opacity="0.122"/><stop offset="1" stop-color="gray" stop-opacity="0.102"/></linearGradient><linearGradient id="c" x1="0.5" y1="1" x2="0.5" y2="0" xlink:href="#a"/><linearGradient id="d" x1="0.5" y1="1" x2="0.5" y2="0" xlink:href="#a"/></defs><g transform="translate(0.001)"><path d="M200.664,144.055c-6.317-.18-12.791,0-18.717,1.818-16.122,4.954-23.764,21.162-21.28,35.168s12.705,26.21,23.31,37.363,22.095,22.181,27.911,35.513c2.9,6.654,4.256,14.108,1.309,20.755-4.546,10.244-18.254,15.966-31.414,17.157s-26.374-1.129-39.581-1.9c-5.541-.321-11.239-.361-16.459,1.137-5.729,1.63-10.5,4.961-14.892,8.434-17.126,13.622-30.834,32.206-28.616,51.73,2.508,22.126,24.877,39.612,49.378,48.994,8.112,3.135,16.695,5.628,23.835,10.064,18.811,11.7,23.035,33.648,21.162,53.015s-8.253,38.758-4.7,57.953c4.178,22.33,22.667,42.5,47.607,51.926,22.22,8.394,50.029,7.838,69.757-4.005,9.617-5.784,16.891-13.818,23.216-22.126a178.5,178.5,0,0,0,23.082-39.973c2.751-6.654,5.338-13.81,11.757-18.435,3.919-2.845,9-4.436,14.022-5.675,15.143-3.731,31.093-4.75,46.376-8.073s30.662-9.539,38.97-20.59c11.757-15.676,6.27-35.756,6.325-54.191.094-42.058,30.654-79.7,41.932-120.7,3.684-13.395,5.055-28.216-3.174-40.169-5.588-8.112-15.017-13.967-24.924-18.489-21.8-9.946-46.572-14.375-70.94-18.685-33.867-5.988-74.992-6.764-101.241-26.139C269.481,157.324,235.018,144.055,200.664,144.055Z" transform="translate(-82 -144)" fill="#cd0" opacity="0.2"/><ellipse cx="364.459" cy="97.597" rx="364.459" ry="97.597" transform="translate(83.081 284.482)" fill="#f5f5f5"/><path d="M1028.309,330.86s-28.083,28.083-12.227,69.757S988.9,511.592,988.9,511.592s.462-.071,1.317-.219c57.679-10.189,86.341-76.152,54.269-125.162C1032.565,368,1022.775,346.645,1028.309,330.86Z" transform="translate(-278.088 -184.402)" fill="#cd0"/><path d="M1028.309,330.86s-15.856,34.424,0,62.507,2.72,106.9-39.409,118.226" transform="translate(-278.088 -184.402)" fill="none" stroke="#535461" stroke-miterlimit="10" stroke-width="2"/><path d="M1076.355,475.693s-32.049-5.1-34.964,23.615-61.621,32.7-61.621,32.7l1.1.729c48.469,31.814,94.838,20.269,87.784-21.946C1066.088,495.053,1066.3,479.275,1076.355,475.693Z" transform="translate(-276.114 -215.642)" fill="#6c63ff"/><path d="M1076.355,475.693s-32.049-5.1-34.964,23.615-61.621,32.7-61.621,32.7l1.1.729c48.469,31.814,94.838,20.269,87.784-21.946C1066.088,495.053,1066.3,479.275,1076.355,475.693Z" transform="translate(-276.114 -215.642)" fill="#a2be15" opacity="0.2"/><path d="M1076.355,475.79s-24.877,5.486-22.832,28.075-36.94,49.731-73.754,28.216" transform="translate(-276.114 -215.739)" fill="none" stroke="#535461" stroke-miterlimit="10" stroke-width="2"/><path d="M863,493.943h-50.35a16.788,16.788,0,0,0,1.756-7.5v-229.3a16.859,16.859,0,0,0-16.859-16.859H407.74a16.859,16.859,0,0,0-16.867,16.859V486.451a16.788,16.788,0,0,0,1.756,7.5H340.5a4.46,4.46,0,0,0-4.46,4.46v3.6a24.94,24.94,0,0,0,24.94,24.916H842.52a24.94,24.94,0,0,0,24.94-24.94v-3.6a4.46,4.46,0,0,0-4.46-4.444ZM552.709,508.208l-4.3-4.9H655.573l-4.781,4.906Z" transform="translate(-136.928 -164.817)" fill="url(#a)"/><rect width="413.931" height="257.073" rx="23.26" transform="translate(258.734 78.707)" fill="#535461"/><rect width="395.63" height="210.015" transform="translate(267.442 116.18)" fill="#fff"/><circle cx="3.488" cy="3.488" r="3.488" transform="translate(461.773 94.391)" fill="#fff"/><path d="M664.94,560.73l-13.6,13.943H555.485L543.2,560.73H348.088a4.358,4.358,0,0,0-4.358,4.358V568.6a24.376,24.376,0,0,0,24.376,24.376H838.728A24.376,24.376,0,0,0,863.1,568.6v-3.511a4.358,4.358,0,0,0-4.358-4.358Z" transform="translate(-138.591 -234.104)" fill="#535461"/><path d="M530.148,301.65H363.257a15.292,15.292,0,0,0-15.307,15.268V548.134A15.292,15.292,0,0,0,363.257,563.4H530.148a15.292,15.292,0,0,0,15.307-15.268V316.918a15.292,15.292,0,0,0-15.307-15.268Z" transform="translate(-139.503 -178.087)" fill="url(#a)"/><rect width="192.811" height="256.297" rx="20" transform="translate(210.79 126.698)" fill="#535461"/><rect width="173.216" height="207.812" transform="translate(220.588 150.941)" fill="#fff"/><circle cx="2.351" cy="2.351" r="2.351" transform="translate(304.06 136.104)" fill="#fff"/><circle cx="7.054" cy="7.054" r="7.054" transform="translate(299.358 363.401)" fill="#fff"/><path d="M392.129,401.65H306.438a8.473,8.473,0,0,0-8.488,8.457V597.76a8.473,8.473,0,0,0,8.488,8.457h85.691a8.473,8.473,0,0,0,8.488-8.457V410.107a8.473,8.473,0,0,0-8.488-8.457Z" transform="translate(-128.692 -199.708)" fill="url(#c)"/><rect width="101.108" height="202.216" rx="11" transform="translate(170.034 203.509)" fill="#535461"/><rect width="86.216" height="164.594" transform="translate(177.48 222.32)" fill="#fff"/><circle cx="0.784" cy="0.784" r="0.784" transform="translate(209.615 212.131)" fill="#fff"/><rect width="17.243" height="1.568" rx="0.784" transform="translate(214.317 212.131)" fill="#fff"/><circle cx="5.486" cy="5.486" r="5.486" transform="translate(214.709 389.266)" fill="#fff"/><path d="M284.6,649.184s-10.393-35.27,1.952-61.245a55.719,55.719,0,0,0,4.53-34.965,93.717,93.717,0,0,0-4.946-16.4" transform="translate(-124.922 -228.88)" fill="none" stroke="#535461" stroke-miterlimit="10" stroke-width="2"/><path d="M293.126,513.468c0,4.326-7.838,16.859-7.838,16.859s-7.838-12.541-7.838-16.859a7.838,7.838,0,0,1,15.676,0Z" transform="translate(-124.26 -222.191)" fill="#cd0"/><path d="M309.658,542.771c-2.351,3.629-15.738,9.9-15.738,9.9s.243-14.782,2.594-18.411a7.838,7.838,0,1,1,13.144,8.512Z" transform="translate(-127.821 -227.542)" fill="#cd0"/><path d="M308.113,594.353c-3.864,1.944-18.583.6-18.583.6s7.673-12.635,11.529-14.578a7.838,7.838,0,0,1,7.054,13.983Z" transform="translate(-126.872 -238.202)" fill="#cd0"/><path d="M298.775,633.954c-3.48,2.571-18.215,3.731-18.215,3.731s5.424-13.748,8.9-16.318a7.838,7.838,0,0,1,9.311,12.588Z" transform="translate(-124.932 -246.93)" fill="#cd0"/><path d="M272.18,556.11c3.135,3.01,17.549,6.137,17.549,6.137s-3.535-14.351-6.639-17.361a7.838,7.838,0,1,0-10.91,11.232Z" transform="translate(-122.548 -230.142)" fill="#cd0"/><path d="M261.178,601.96c3.864,1.944,18.583.6,18.583.6s-7.673-12.635-11.529-14.578a7.838,7.838,0,1,0-7.054,13.983Z" transform="translate(-119.745 -239.781)" fill="#cd0"/><path d="M257.656,648.554c3.48,2.571,18.215,3.731,18.215,3.731s-5.424-13.748-8.9-16.318a7.838,7.838,0,0,0-9.311,12.588Z" transform="translate(-119.358 -250.086)" fill="#cd0"/><path d="M978.694,504.323c-8.676-10.526-19.187-22.62-17.713-36.626,1.191-11.341-1.662-21.828-1.1-33.209.784-16.169-2.461-28.828-14.108-39.189-6.8-6.059-18.176-10.816-21.562-9.6-6.709,2.4-14.03,1.481-20.935,3.135-5.244,1.223-8.731,3.135-10.895,5.486-4.35,3.919-4.421,9.405-2.438,15.245a25.747,25.747,0,0,0,12.721,36.117c-4.836,2.022-9.013,6.678-10.644,16.13a110.266,110.266,0,0,1-5.118,19.054,30.964,30.964,0,0,1-3.135,1.262c.235.094.478.157.713.243-.509.2-1.011.392-1.568.564a16.624,16.624,0,0,0,2.861.831,109.117,109.117,0,0,1-14.108,25.653s-14.618,3.229-20.3-2.422c0,0,.925,1.082,2.179,2.7-5.557-2.3-14.68-6.066-22.479-9.162-5.659-2.249-7.109,0-7.054,3.135a10.44,10.44,0,0,0-3.919,1.317,38.153,38.153,0,0,0-5.244-2.822c-3.245-.784-13.8-6.458-24.36,12.909-6.145,11.263-21.9,31.822-34.008,47.027-23.553,10.832-54.214,24.548-65.61,28h-7.3c-.956-1.568-1.622-2.555-1.622-2.555l-.564.376-.243-.376s-14.343,9.931-28.906,10.009a27.43,27.43,0,0,1-6.145-.784c-6.694-1.685-11.412-2.438-14.782-2.351-3.989-.071-6.27.878-7.65,2.665h0a7,7,0,0,0-.51.737h0a8.678,8.678,0,0,0-.423.784h0c-.125.282-.251.58-.361.886a1.818,1.818,0,0,0,.455,1.528,8.148,8.148,0,0,0,.635.784l.408.439a64.764,64.764,0,0,0,9.327,7.219c1.2.784,2.469,1.646,3.794,2.5l2.516,1.568,2.249,1.4.9.557,1,.611,1.795,1.089,1.066.643,2.014,1.2,1.63.964c4.264,2.516,8.512,4.953,12.345,7.117l2.681,1.6.259.141,1.724.964,2.978,1.654,2.046,1.129.956.525,1.027.564.2.11,1.787.972a2.586,2.586,0,0,0,2.085-.564c.517-2.195,1.779-6.9,3.135-7.258s7.227-10.62,8.88-17.486H706.11a69.839,69.839,0,0,0,9.28-1.426c-4.091,2.916-8.144,4.75-11.294,3.966-6.662-1.654-12.972,2.406-13.606,6.411a1.03,1.03,0,0,1-.078.251c-.023.086-.039.165-.055.243s-.047.2-.063.3a1.337,1.337,0,0,0,0,.251v1.082a1.578,1.578,0,0,0,.078.321c.031.11,0,.141.055.2a3.91,3.91,0,0,0,.172.415l.039.1a4.217,4.217,0,0,0,.3.494l.125.165a3.309,3.309,0,0,0,.259.321l.18.18c.094.094.2.188.3.282l.219.18.353.259.259.172.423.251.282.149.533.251.266.118c.282.118.58.227.9.329.509.165,1.113.337,1.795.509l.682.165,1,.227.525.118q1.019.219,2.163.439l1.058.2.862.157,1.983.345c1.238.212,2.532.423,3.919.627l3.417.517,4.452.635.988.133,1.568.219,2.3.306,1.568.2h0l4.068.517,1.27.157,2.563.314c3.37.408,6.631.784,9.633,1.121l3.472.392,1.756.2.784.078,2.1.227,1.168.125,1.442.149,2.03.212h.219l1.3.133h0a1.184,1.184,0,0,0,1.309-1.152h0v-.133a1.144,1.144,0,0,0,.188-.611,26.649,26.649,0,0,1,.729-5.737c.086-.321.188-.651.3-.98l.125-.376c.141-.4.282-.784.447-1.215a8.718,8.718,0,0,0,.306-.894,1.1,1.1,0,0,1,.086-.29c.031-.1.078-.321.11-.486,1.63-5.573-.337-15.966-.9-20.049a21.77,21.77,0,0,0-.894-3.841,1.569,1.569,0,0,0,.306,0,9.242,9.242,0,0,0,2.351-1.278c11.976-4.272,22.071-9.155,25.261-14.045a21.875,21.875,0,0,1,15.425,1.615c6.2,3.08,53.1,18.388,74.937,25.457,3.919,3.378,6.991,5.353,8.692,5.2,0,0,27.8,4.5,38.977-4.279,1,.69,1.622,1.058,1.622,1.058s16.24-8.065,18.678-18.56c.784-3.4,1.5-8.418,2.226-13.967a20.308,20.308,0,0,0,5.894-14.273c.51-17.619,7.336-37.747,12.4-55.649,6.145.486,8.52-.674,14.155-3.456l-.251-.321C977.989,504.652,978.342,504.5,978.694,504.323Zm-93.106,26.39-3.135-1.042a25.858,25.858,0,0,0,2.7-4.5Zm-17.471,7.415,18.811,11.286.165,2.3a16.462,16.462,0,0,0,.157,5.251c-8.292-7.368-18-16.311-19.14-18.842Zm-7.681-16.459c-2.054-.846-3.754-1.615-4.922-2.249,1.568.11,3.057.2,4.358.274a9.752,9.752,0,0,1,.564,1.975Zm-50.382,18.4s3.245-7.258,10.557,4.844c1.137,1.881,3.229,4.875,6,8.582l-21.288-2.845c2.508-3.888,4.193-7.5,4.734-10.573Z" transform="translate(-198.831 -196.218)" fill="url(#d)"/><path d="M912.272,542.23s-14.892-6.27-26.649-10.973-4.7,10.973-4.7,10.973,19.595,5.487,19.595,6.27,16.459,1.568,16.459,1.568Z" transform="translate(-254.287 -227.541)" fill="#f7c4a7"/><path d="M912.272,542.23s-14.892-6.27-26.649-10.973-4.7,10.973-4.7,10.973,19.595,5.487,19.595,6.27,16.459,1.568,16.459,1.568Z" transform="translate(-254.287 -227.541)" opacity="0.05"/><path d="M983.04,465.5s-26.649-14.108-31.351,13.324a112,112,0,0,1-19.595,46.243s-14.108,3.135-19.595-2.351c0,0,13.324,15.676,7.054,17.243,0,0,14.108,10.189,20.378,7.054s10.973-24.3,13.324-29.784S964.23,463.932,983.04,465.5Z" transform="translate(-261.569 -212.729)" fill="#575988"/><path d="M983.04,465.5s-26.649-14.108-31.351,13.324a112,112,0,0,1-19.595,46.243s-14.108,3.135-19.595-2.351c0,0,13.324,15.676,7.054,17.243,0,0,14.108,10.189,20.378,7.054s10.973-24.3,13.324-29.784S964.23,463.932,983.04,465.5Z" transform="translate(-261.569 -212.729)" opacity="0.1"/><path d="M983.5,448.848s16.459,18.811,17.243,34.486,18.811-16.459,20.378-17.243-15.676-27.432-17.243-36.054S983.5,448.848,983.5,448.848Z" transform="translate(-276.92 -205.484)" fill="#f7c4a7"/><path d="M913.135,320.75l-10.385,9.405,4.9,19.791,13.324-12.541-1.568-12.541Z" transform="translate(-195.19 -69.352)" fill="#f7c4a7"/><path d="M634.527,498.5H616.5l7.054,17.243,17.243-4.7Z" transform="translate(-133.298 -107.784)" fill="#f7c4a7"/><path d="M688.149,639.33s-18.67,13-34.62,8.959-20.284-2.532-22.142,2.688c-1.716,4.8,44.55,30.215,51.926,34.228a.847.847,0,0,0,1.231-.549c.5-2.132,1.717-6.7,3.018-7.054,1.693-.455,9.405-14.892,8.982-20.566S688.149,639.33,688.149,639.33Z" transform="translate(-200.777 -251.099)" opacity="0.1"/><path d="M687.149,639.33s-18.67,13-34.62,8.959-20.284-2.532-22.142,2.688c-1.716,4.8,44.55,30.215,51.926,34.228a.847.847,0,0,0,1.231-.549c.5-2.132,1.716-6.7,3.018-7.054,1.693-.455,9.405-14.892,8.982-20.566S687.149,639.33,687.149,639.33Z" transform="translate(-200.561 -251.099)" fill="#f3b5b7"/><path d="M858.635,597.554,806.121,590.5s-85.432,40.757-95.621,41.54l2.351,18.027h15.676c6.27,0,67.405-13.324,76.027-26.649a20.989,20.989,0,0,1,14.892,1.568c7.838,3.919,83.081,28.216,83.081,28.216Z" transform="translate(-217.893 -240.541)" fill="#575988"/><path d="M858.635,597.554,806.121,590.5s-85.432,40.757-95.621,41.54l2.351,18.027h15.676c6.27,0,67.405-13.324,76.027-26.649a20.989,20.989,0,0,1,14.892,1.568c7.838,3.919,83.081,28.216,83.081,28.216Z" transform="translate(-217.893 -240.541)" opacity="0.1"/><path d="M696.122,486.5,687.5,497.473l8.622,4.7,12.541-9.405Z" transform="translate(-148.65 -105.19)" fill="#f7c4a7"/><path d="M929.338,596.616s-28.216-24.156-30.168-28.537-48.21-34.165-51.346-34.949-13.324-6.27-23.513,12.541S776.5,609.94,776.5,609.94s11.757,16.459,15.676,15.676,47.811-37.622,50.946-55.649c0,0,3.135-7.054,10.189,4.7s52.513,68.189,61.135,67.405c0,0,33.7,5.487,40.757-7.838S929.338,596.616,929.338,596.616Z" transform="translate(-232.163 -227.846)" fill="#575988"/><path d="M984.108,467.676s-9.8,4.311-10.581,22.338S955.5,538.608,955.5,538.608l1.568,36.054s18.811,18.811,20.378,30.568,14.892,19.595,14.892,19.595,15.676-7.838,18.027-18.027,3.919-35.27,7.838-44.676,1.568-68.189,1.568-68.189l-11.757-20.378-6.27-7.054-16.459,18.811S976.27,473.162,984.108,467.676Z" transform="translate(-270.866 -213.73)" fill="#dddbe2"/><path d="M960.554,563.2s-2.351-28.216,4.7-34.486l14.108-39.973s5.095-19.2,4.311-20.77-18.419,15.284-18.419,15.284L953.5,524.8l3.135,43.892Z" transform="translate(-270.434 -214.026)" opacity="0.1"/><path d="M959.554,563.094s-2.351-28.216,4.7-34.486l14.108-39.973s5.487-19.595,4.7-21.162-18.811,15.676-18.811,15.676L952.5,524.688l3.135,43.892Z" transform="translate(-270.217 -213.919)" fill="#575988"/><path d="M946.764,565.223s-39.189-12.541-41.541-15.676-27.432-23.513-36.054-9.405S901.3,558.169,901.3,558.169l41.541,25.081Z" transform="translate(-251.941 -228.588)" fill="#f7c4a7"/><path d="M767.858,643.835l-11.6-2.085s-19,24.336-28.9,21.868-19.007,8.183-8.551,11.6c9.445,3.088,50.233,7.407,58,8.206a1.144,1.144,0,0,0,1.262-1.113,24.959,24.959,0,0,1,1.8-8.833c2.093-5.134,0-16.161-.58-20.378a20.247,20.247,0,0,0-2.281-7.054Z" transform="translate(-218.685 -251.622)" opacity="0.1"/><path d="M767.613,644.8l-11.6-2.085s-19,24.336-28.882,21.875-19.007,8.183-8.551,11.6c9.445,3.088,50.233,7.407,58,8.206a1.144,1.144,0,0,0,1.262-1.113,24.956,24.956,0,0,1,1.732-8.825c2.093-5.134,0-16.162-.58-20.378a20.246,20.246,0,0,0-2.281-7.054Z" transform="translate(-218.636 -251.832)" fill="#f3b5b7"/><circle cx="25.081" cy="25.081" r="25.081" transform="translate(687.377 202.216)" opacity="0.1"/><circle cx="25.081" cy="25.081" r="25.081" transform="translate(685.026 202.216)" fill="#f7c4a7"/><path d="M1010.083,465.5s29.784,10.189,29.784,31.351-16.459,54.865-17.243,82.3-43.892,23.513-43.892,23.513-6.27-92.486,0-99.54S1013.218,468.635,1010.083,465.5Z" transform="translate(-275.286 -213.514)" fill="#575988"/><path d="M1000.33,515.836s-10.973,48.595-36.838,39.973c0,0-13.324,19.595-3.919,28.216,0,0,22.73,5.487,37.622-9.405s25.865-20.378,28.216-38.405,3.919-43.108-3.919-40.757S1000.33,515.836,1000.33,515.836Z" transform="translate(-271.02 -219.958)" opacity="0.1"/><path d="M1001.33,514.836s-10.973,48.595-36.838,39.973c0,0-13.324,19.595-3.919,28.216,0,0,22.73,5.487,37.622-9.405s25.865-20.378,28.216-38.405,3.919-43.108-3.919-40.757S1001.33,514.836,1001.33,514.836Z" transform="translate(-271.236 -219.742)" fill="#575988"/><path d="M798.181,680a.718.718,0,0,1-.071.219,22.953,22.953,0,0,0-1.231,4.146c.188-.611.408-1.238.658-1.865A11.378,11.378,0,0,0,798.181,680Z" transform="translate(-236.57 -259.892)" fill="#dddbe2"/><path d="M719.151,681.232c-3.229-1.058-4.585-2.8-4.64-4.632-1.332,2.555-.494,5.424,4.068,6.913,9.445,3.088,50.24,7.407,58,8.206a1.144,1.144,0,0,0,1.262-1.121h0a1.152,1.152,0,0,0-1.027-1.168C768.3,688.521,728.471,684.273,719.151,681.232Z" transform="translate(-218.636 -259.157)" fill="#dddbe2"/><path d="M631.475,651.972a9.658,9.658,0,0,1,.784-1.662,7.642,7.642,0,0,0-1.842,3.041c-1.716,4.8,44.55,30.215,51.926,34.228a.847.847,0,0,0,1.231-.557h0a.846.846,0,0,0-.415-.941C675.007,681.622,629.782,656.721,631.475,651.972Z" transform="translate(-200.567 -253.473)" fill="#dddbe2"/><path d="M703.107,686.293c-.415.11-.823.666-1.207,1.427l.125-.047c.345-.094.933-.784,1.646-1.8A1.522,1.522,0,0,1,703.107,686.293Z" transform="translate(-216.033 -261.162)" fill="#dddbe2"/><path d="M976.587,446.538c-2.21,4.875-2.673,10.369-4.3,15.48-3.221,10.134-11.3,18.521-20.982,21.758,8.144,3.245,17.753-.721,24.047-7.3s9.985-15.346,13.52-23.874c9.139,6.145,8.026,20.269,11.1,31.265a34.674,34.674,0,0,0,18.458,22.064,33.052,33.052,0,0,0,28.271-.572c-8.379-10.189-20.308-24.242-18.889-37.849,1.152-11.02-6.756-19.438-6.215-30.5.784-15.676-5.22-23.639-16.459-33.7-6.568-5.886,3.77-14.186-4.7-11.757-3.331.956-6.842-2.61-10.111-1.434-6.474,2.351-13.544,1.442-20.206,3.01C935.493,401.259,979.816,439.421,976.587,446.538Z" transform="translate(-269.96 -197.162)" opacity="0.1"/><path d="M977.587,445.472c-2.21,4.875-2.673,10.369-4.3,15.48-3.221,10.134-11.3,18.521-20.982,21.758,8.143,3.245,17.753-.721,24.046-7.3s9.985-15.346,13.52-23.874c9.139,6.145,8.026,20.269,11.1,31.265a34.675,34.675,0,0,0,18.458,22.064,33.052,33.052,0,0,0,28.271-.572c-8.379-10.189-19.524-21.891-18.105-35.5,1.152-11.02-.564-22.346,0-33.4.784-15.676-6.905-30.818-18.152-40.882-6.568-5.886-16.828-6.639-20.1-5.486-6.474,2.351-13.544,1.442-20.206,3.01C936.493,400.193,980.816,438.355,977.587,445.472Z" transform="translate(-270.176 -196.88)" fill="#4f9a94"/></g></svg>