<svg xmlns="http://www.w3.org/2000/svg" xmlns:xlink="http://www.w3.org/1999/xlink" width="760.656" height="525.102" viewBox="0 0 760.656 525.102"><defs><linearGradient id="a" y1="0.5" x2="1" y2="0.5" gradientUnits="objectBoundingBox"><stop offset="0" stop-color="gray" stop-opacity="0.251"/><stop offset="0.54" stop-color="gray" stop-opacity="0.122"/><stop offset="1" stop-color="gray" stop-opacity="0.102"/></linearGradient></defs><g transform="translate(0 0.006)"><path d="M447.158,118.953c-48.757.065-95.687-13.756-140.576-29.111S217.149,57.294,169.3,50.008c-30.774-4.683-65.768-4.253-89.824,12.752-23.155,16.359-29.861,43.434-33.1,68.449-2.433,18.818-3.555,38.568,5.557,55.782,6.327,11.95,17.155,21.8,24.786,33.187,26.639,39.619,10.619,90.228-15.27,130.766C49.315,369.964,35.1,388.2,25.918,408.3s-12.941,42.913-3.581,62.761c9.275,19.672,30.226,33.95,52.71,43.7,45.659,19.842,98.818,24.095,150.55,25.732,114.512,3.633,229.245-3.777,343.672-11.186,42.345-2.74,84.879-5.5,126.35-13.437,23.025-4.4,46.735-10.938,63.061-25.262,20.722-18.185,24.962-47.876,9.882-69.219-25.288-35.8-91.969-42.547-110.1-81.279-10-21.323-1.376-45.776,11.323-66.329,27.239-44.1,74.123-83.6,74.913-132.925.541-33.872-23.84-66.916-60.256-81.638-38.171-15.42-90.215-11.454-116.958,17.285C539.982,106.116,490.207,118.907,447.158,118.953Z" transform="translate(-16.91 -47.46)" fill="#8e99f3" opacity="0.1"/><path d="M1000.931,691.286s-8.016-5.29-15.961-1.526c0,0,2.446,4.709,12.5,4.266Z" transform="translate(-353.537 -270.341)" fill="#6c63ff"/><path d="M1008.167,693.25s2.44,9.288-3.679,15.609c0,0-3.679-3.829,0-13.208Z" transform="translate(-359.756 -272.025)" fill="#6c63ff"/><path d="M1016.453,676.483s-.594-7.9-18.433-5.277c0,0-.085,5.094,6.177,7.508S1013.329,679.092,1016.453,676.483Z" transform="translate(-358.075 -264.174)" fill="#6c63ff"/><path d="M1025.212,679.5s7.54,2.42.815,19.151c0,0-4.977-1.109-5.87-7.768S1021.911,681.926,1025.212,679.5Z" transform="translate(-365.712 -267.244)" fill="#6c63ff"/><path d="M1034.252,656.048s1.024-13-17.207-11.669c0,0-1.3,11.741,13.991,14.793Z" transform="translate(-364.681 -254.998)" fill="#6c63ff"/><path d="M1050.862,633.87s-2.5-14.735-20.722-10.345c0,0-.065,12.739,17.748,13.854Z" transform="translate(-369.245 -247.495)" fill="#6c63ff"/><path d="M1063.552,610.771s-4.188-14.35-22.242-10.058c0,0,4.3,12.908,21.042,12.706Z" transform="translate(-373.129 -239.568)" fill="#cd0"/><path d="M1076.755,587.833s-4.09-14.891-21.525-10.436c0,0,5.818,14.148,20.37,12.954Z" transform="translate(-377.969 -231.45)" fill="#cd0"/><path d="M1086.148,564.39s-3.144-18.211-19.4-14.18c0,0,4.722,16.568,18.2,16.835Z" transform="translate(-381.975 -222.083)" fill="#cd0"/><path d="M1093.46,538.721s-3.777-18.355-20.22-13.045c0,0,6.444,17.35,19.053,15.557Z" transform="translate(-384.232 -213.419)" fill="#cd0"/><path d="M1099.027,512.4s-5.994-18.361-18.707-17.866c0,0,6.125,19.392,17.644,21.525Z" transform="translate(-386.694 -202.922)" fill="#cd0"/><path d="M1103.088,487.327s-6.523-22.1-16.868-20.4c0,0,4.514,16.894,16.5,23.84Z" transform="translate(-388.745 -193.294)" fill="#cd0"/><path d="M1105.127,459.79s-6.118-18.413-16.307-19.15c0,0,4.161,18.12,16.1,23.938Z" transform="translate(-389.65 -184.184)" fill="#cd0"/><path d="M1108.06,433.59s-7.625-18.433-14.35-18.85c0,0,3.313,18.153,13.7,21.877Z" transform="translate(-391.35 -175.178)" fill="#cd0"/><path d="M1110.908,407.561s-4.69-20.018-11.428-21.681c0,0,.92,16.378,10.749,23.182Z" transform="translate(-393.356 -165.142)" fill="#cd0"/><path d="M1115.36,377.194s-4.931-15.961-10.391-18.394c0,0,1.076,18.818,9.132,22.294Z" transform="translate(-395.265 -155.726)" fill="#cd0"/><path d="M1121.942,351l.991-28.139s-10.208,21.212-1.729,33.076Z" transform="translate(-399.74 -143.228)" fill="#cd0"/><path d="M1134.093,311.524s7.351-20.546,9.132-21.694c0,0-14.415,13.332-13.006,30.48Z" transform="translate(-404.011 -131.742)" fill="#cd0"/><path d="M1042.625,662.148s12.928-1.689,12.543,16.581c0,0-11.682,1.9-15.5-13.208Z" transform="translate(-372.558 -261.196)" fill="#6c63ff"/><path d="M1061.261,639.06s14.937-.046,13.7,18.655c0,0-12.543,2.244-16.678-15.12Z" transform="translate(-379.03 -253.181)" fill="#cd0"/><path d="M1074.99,617.764s13.561-6.36,22.236,10.058c0,0-12.523,5.3-23.436-7.4Z" transform="translate(-384.423 -245.355)" fill="#cd0"/><path d="M1088.078,593.295s13.887-6.764,22.04,9.269c0,0-14.467,4.983-23.188-6.731Z" transform="translate(-388.992 -236.775)" fill="#cd0"/><path d="M1095.893,569.868s13.365-12.765,24.03.144c0,0-13.652,10.508-24.643,2.7Z" transform="translate(-391.896 -227.163)" fill="#cd0"/><path d="M1102.823,542.522s13.443-13.045,24.023.6c0,0-15.087,10.717-24.505,2.139Z" transform="translate(-394.351 -217.656)" fill="#cd0"/><path d="M1106.93,514.095s10.358-16.307,22.555-12.667c0,0-10.749,17.266-22.438,16.5Z" transform="translate(-395.947 -205.138)" fill="#cd0"/><path d="M1111.467,488.826s10.436-20.533,20.312-16.959c0,0-7.527,15.785-20.579,20.422Z" transform="translate(-397.432 -194.898)" fill="#cd0"/><path d="M1112.164,460.707s10.73-16.163,20.781-14.187c0,0-8.773,16.391-21.825,18.864Z" transform="translate(-397.404 -186.171)" fill="#cd0"/><path d="M1114,433.353s8.316-18.14,15.074-18.263c0,0-3.992,18.009-14.513,21.342Z" transform="translate(-398.406 -175.3)" fill="#cd0"/><path d="M1116.5,408.707s9.243-18.368,16.189-18.407c0,0-4.729,15.707-15.883,20.018Z" transform="translate(-399.275 -166.679)" fill="#cd0"/><path d="M1118.63,379.74s6.914-15.2,12.641-16.92c0,0-3.457,18.524-11.878,20.951Z" transform="translate(-400.016 -157.123)" fill="#cd0"/><path d="M1124.187,352.6l15.452-23.54s-3.959,23.221-17.709,28.047Z" transform="translate(-401.163 -145.384)" fill="#cd0"/><path d="M1137.661,318.326s17.957-12.393,18.609-14.4c0,0-9.132,17.357-26.091,20.422Z" transform="translate(-404.032 -136.645)" fill="#cd0"/><path d="M1143.036,306.893s20.618-19.822,25.882-19.8c0,0-17,.776-26.378,18.746Z" transform="translate(-408.33 -130.79)" fill="#cd0"/><path d="M1118.94,366.035l.75.1c3.874-30.324,9.523-48.268,15.9-50.466l-.248-.717C1128.58,317.3,1122.893,334.968,1118.94,366.035Z" transform="translate(-400.123 -140.477)" fill="#444053"/><path d="M1110.2,464.589l1.135.091c.241-2.831.424-5.727.548-8.616,1.083-25.1,2.759-48.15,4.964-65.429l-.652-.815c-2.211,17.318-4.364,41.06-5.446,66.2C1110.624,458.888,1110.441,461.771,1110.2,464.589Z" transform="translate(-397.084 -166.512)" fill="#444053"/><path d="M976.673,640.63c.2-.085,20.175-9.008,40.91-30.285a164.512,164.512,0,0,0,29.906-42.4c9.588-19.522,15.433-43.513,17.39-66.818l-1.181.554c-4.4,52.312-28.217,88.056-47.152,107.526-20.533,21.088-40.29,29.919-40.486,30Z" transform="translate(-350.439 -205.219)" fill="#444053"/><path d="M719.2,132.69H92.453a5.583,5.583,0,0,0-5.583,5.583v16.268H724.786V138.273A5.583,5.583,0,0,0,719.2,132.69Z" transform="translate(-41.237 -77.099)" fill="#3f3d56"/><path d="M86.87,166.19V532.268a11.258,11.258,0,0,0,11.258,11.258h615.4a11.258,11.258,0,0,0,11.258-11.258V166.19Z" transform="translate(-41.237 -88.749)" fill="#fff"/><circle cx="2.609" cy="2.609" r="2.609" transform="translate(53.127 63.744)" fill="#fa5959" opacity="0.8"/><circle cx="2.609" cy="2.609" r="2.609" transform="translate(60.302 63.744)" fill="#fed253" opacity="0.8"/><circle cx="2.609" cy="2.609" r="2.609" transform="translate(67.477 63.744)" fill="#8ccf4d" opacity="0.8"/><rect width="512.681" height="225.436" transform="translate(104.93 138.481)" opacity="0.05"/><rect width="504.854" height="220.466" transform="translate(108.844 140.189)" fill="#3f3d56"/><path d="M368,349.38A50.224,50.224,0,1,0,418.229,399.6,50.224,50.224,0,0,0,368,349.38Zm9.008,51.431v23.782H359.258V400.811a14.709,14.709,0,1,1,17.755,0Z" transform="translate(-121.533 -152.45)" fill="#6c63ff"/><path d="M368,349.38A50.224,50.224,0,1,0,418.229,399.6,50.224,50.224,0,0,0,368,349.38Zm9.008,51.431v23.782H359.258V400.811a14.709,14.709,0,1,1,17.755,0Z" transform="translate(-121.533 -152.45)" fill="#cd0" opacity="0.05"/><path d="M360.354,327.38a64.574,64.574,0,1,0,64.574,64.574,64.574,64.574,0,0,0-64.574-64.574Zm11.578,66.127v30.572H349.1V393.507a18.916,18.916,0,1,1,22.829,0Z" transform="translate(-113.883 -144.8)" fill="#cd0"/><rect width="208.725" height="22.177" transform="translate(337.789 238.682)" fill="#fff"/><rect width="45.006" height="22.177" transform="translate(501.508 279.122)" fill="#cd0"/><path d="M561.238,427.446h-3.777l3.359-3.353a.333.333,0,0,0,0-.463.326.326,0,0,0-.463,0L557,426.989v-3.783a.326.326,0,0,0-.326-.326.333.333,0,0,0-.326.326v3.783l-3.353-3.379a.326.326,0,0,0-.463,0,.333.333,0,0,0,0,.463l3.359,3.353h-3.783a.333.333,0,0,0-.326.326.326.326,0,0,0,.326.326h3.783l-3.359,3.359a.333.333,0,0,0,0,.463.339.339,0,0,0,.463,0l3.353-3.359v3.777a.326.326,0,0,0,.652,0v-3.777l3.359,3.359a.339.339,0,0,0,.463,0,.333.333,0,0,0,0-.463l-3.359-3.359h3.777a.316.316,0,1,0,0-.633Z" transform="translate(-202.903 -178.008)" fill="#cd0"/><path d="M582.238,427.446h-3.777l3.359-3.353a.333.333,0,0,0,0-.463.326.326,0,0,0-.463,0L578,426.989v-3.783a.326.326,0,0,0-.326-.326.333.333,0,0,0-.326.326v3.783l-3.353-3.379a.326.326,0,0,0-.463,0,.333.333,0,0,0,0,.463l3.359,3.353h-3.783a.333.333,0,0,0-.326.326.326.326,0,0,0,.326.326h3.783l-3.359,3.359a.333.333,0,0,0,0,.463.339.339,0,0,0,.463,0l3.353-3.359v3.777a.326.326,0,1,0,.652,0v-3.777l3.359,3.359a.339.339,0,0,0,.463,0,.333.333,0,0,0,0-.463l-3.359-3.359h3.777a.316.316,0,1,0,0-.633Z" transform="translate(-210.205 -178.008)" fill="#cd0"/><path d="M603.238,427.446h-3.777l3.359-3.353a.333.333,0,0,0,0-.463.326.326,0,0,0-.463,0L599,426.989v-3.783a.326.326,0,0,0-.326-.326.333.333,0,0,0-.326.326v3.783l-3.353-3.379a.326.326,0,0,0-.463,0,.333.333,0,0,0,0,.463l3.359,3.353h-3.783a.333.333,0,0,0-.326.326.326.326,0,0,0,.326.326h3.783l-3.359,3.359a.333.333,0,0,0,0,.463.339.339,0,0,0,.463,0l3.353-3.359v3.777a.326.326,0,1,0,.652,0v-3.777l3.359,3.359a.339.339,0,0,0,.463,0,.333.333,0,0,0,0-.463l-3.359-3.359h3.777a.316.316,0,1,0,0-.633Z" transform="translate(-217.507 -178.008)" fill="#cd0"/><path d="M624.238,427.446h-3.777l3.359-3.353a.333.333,0,0,0,0-.463.326.326,0,0,0-.463,0L620,426.989v-3.783a.326.326,0,0,0-.326-.326.333.333,0,0,0-.326.326v3.783l-3.353-3.379a.326.326,0,0,0-.463,0,.333.333,0,0,0,0,.463l3.359,3.353h-3.783a.333.333,0,0,0-.326.326.326.326,0,0,0,.326.326h3.783l-3.359,3.359a.333.333,0,0,0,0,.463.339.339,0,0,0,.463,0l3.353-3.359v3.777a.326.326,0,1,0,.652,0v-3.777l3.359,3.359a.339.339,0,0,0,.463,0,.333.333,0,0,0,0-.463l-3.359-3.359h3.777a.316.316,0,1,0,0-.633Z" transform="translate(-224.81 -178.008)" fill="#cd0"/><path d="M645.238,427.446h-3.777l3.359-3.353a.333.333,0,0,0,0-.463.326.326,0,0,0-.463,0L641,426.989v-3.783a.326.326,0,0,0-.326-.326.333.333,0,0,0-.326.326v3.783l-3.353-3.379a.326.326,0,0,0-.463,0,.333.333,0,0,0,0,.463l3.359,3.353h-3.783a.333.333,0,0,0-.326.326.326.326,0,0,0,.326.326h3.783l-3.359,3.359a.333.333,0,0,0,0,.463.339.339,0,0,0,.463,0l3.353-3.359v3.777a.326.326,0,1,0,.652,0v-3.777l3.359,3.359a.339.339,0,0,0,.463,0,.333.333,0,0,0,0-.463l-3.359-3.359h3.777a.316.316,0,1,0,0-.633Z" transform="translate(-232.112 -178.008)" fill="#cd0"/><path d="M666.238,427.446h-3.777l3.359-3.353a.333.333,0,0,0,0-.463.326.326,0,0,0-.463,0L662,426.989v-3.783a.326.326,0,0,0-.326-.326.333.333,0,0,0-.326.326v3.783l-3.353-3.379a.326.326,0,0,0-.463,0,.333.333,0,0,0,0,.463l3.359,3.353h-3.783a.333.333,0,0,0-.326.326.326.326,0,0,0,.326.326h3.783l-3.359,3.359a.333.333,0,0,0,0,.463.339.339,0,0,0,.463,0l3.353-3.359v3.777a.326.326,0,1,0,.652,0v-3.777l3.359,3.359a.339.339,0,0,0,.463,0,.333.333,0,0,0,0-.463l-3.359-3.359h3.777a.316.316,0,1,0,0-.633Z" transform="translate(-239.414 -178.008)" fill="#cd0"/><path d="M687.238,427.446h-3.777l3.359-3.353a.333.333,0,0,0,0-.463.326.326,0,0,0-.463,0L683,426.989v-3.783a.326.326,0,0,0-.326-.326.333.333,0,0,0-.326.326v3.783l-3.353-3.379a.326.326,0,0,0-.463,0,.333.333,0,0,0,0,.463l3.359,3.353h-3.783a.333.333,0,0,0-.326.326.326.326,0,0,0,.326.326h3.783l-3.359,3.359a.333.333,0,0,0,0,.463.339.339,0,0,0,.463,0l3.353-3.359v3.777a.326.326,0,1,0,.652,0v-3.777l3.359,3.359a.339.339,0,0,0,.463,0,.333.333,0,0,0,0-.463l-3.359-3.359h3.777a.316.316,0,1,0,0-.633Z" transform="translate(-246.717 -178.008)" fill="#cd0"/><path d="M708.238,427.446h-3.777l3.359-3.353a.333.333,0,0,0,0-.463.326.326,0,0,0-.463,0L704,426.989v-3.783a.326.326,0,0,0-.326-.326.332.332,0,0,0-.326.326v3.783l-3.353-3.379a.326.326,0,0,0-.463,0,.333.333,0,0,0,0,.463l3.359,3.353h-3.783a.333.333,0,0,0-.326.326.326.326,0,0,0,.326.326h3.783l-3.359,3.359a.333.333,0,0,0,0,.463.339.339,0,0,0,.463,0l3.353-3.359v3.777a.326.326,0,1,0,.652,0v-3.777l3.359,3.359a.339.339,0,0,0,.463,0,.333.333,0,0,0,0-.463l-3.359-3.359h3.777a.316.316,0,1,0,0-.633Z" transform="translate(-254.019 -178.008)" fill="#cd0"/><path d="M729.238,427.446h-3.777l3.359-3.353a.333.333,0,0,0,0-.463.326.326,0,0,0-.463,0L725,426.989v-3.783a.326.326,0,0,0-.326-.326.333.333,0,0,0-.326.326v3.783l-3.353-3.379a.326.326,0,0,0-.463,0,.333.333,0,0,0,0,.463l3.359,3.353h-3.783a.333.333,0,0,0-.326.326.326.326,0,0,0,.326.326h3.783l-3.359,3.359a.333.333,0,0,0,0,.463.339.339,0,0,0,.463,0l3.353-3.359v3.777a.326.326,0,1,0,.652,0v-3.777l3.359,3.359a.339.339,0,0,0,.463,0,.333.333,0,0,0,0-.463l-3.359-3.359h3.777a.316.316,0,1,0,0-.633Z" transform="translate(-261.322 -178.008)" fill="#cd0"/><path d="M750.238,427.446h-3.777l3.359-3.353a.333.333,0,0,0,0-.463.326.326,0,0,0-.463,0L746,426.989v-3.783a.326.326,0,0,0-.326-.326.333.333,0,0,0-.326.326v3.783l-3.353-3.379a.326.326,0,0,0-.463,0,.333.333,0,0,0,0,.463l3.359,3.353h-3.783a.333.333,0,0,0-.326.326.326.326,0,0,0,.326.326h3.783l-3.359,3.359a.333.333,0,0,0,0,.463.339.339,0,0,0,.463,0l3.353-3.359v3.777a.326.326,0,1,0,.652,0v-3.777l3.359,3.359a.339.339,0,0,0,.463,0,.333.333,0,0,0,0-.463l-3.359-3.359h3.777a.316.316,0,1,0,0-.633Z" transform="translate(-268.624 -178.008)" fill="#cd0"/><path d="M771.238,427.446h-3.777l3.359-3.353a.333.333,0,0,0,0-.463.326.326,0,0,0-.463,0L767,426.989v-3.783a.326.326,0,0,0-.326-.326.333.333,0,0,0-.326.326v3.783l-3.353-3.379a.326.326,0,0,0-.463,0,.333.333,0,0,0,0,.463l3.359,3.353h-3.783a.333.333,0,0,0-.326.326.326.326,0,0,0,.326.326h3.783l-3.359,3.359a.333.333,0,0,0,0,.463.339.339,0,0,0,.463,0l3.353-3.359v3.777a.326.326,0,1,0,.652,0v-3.777l3.359,3.359a.339.339,0,0,0,.463,0,.333.333,0,0,0,0-.463l-3.359-3.359h3.777a.316.316,0,1,0,0-.633Z" transform="translate(-275.927 -178.008)" fill="#cd0"/><path d="M884.475,522.259a11.669,11.669,0,0,0-.294-2.342c-.587-2.2-1.911-4.872-4.09-5.538a34.34,34.34,0,0,1-6.484-2.74c-.391-6.992,1.213-14.148-.535-20.925-.652-2.479-1.729-4.853-2.016-7.39-.359-3.157.5-6.523-.757-9.432a9.308,9.308,0,0,0-5.512-4.762,29.373,29.373,0,0,0-7.351-1.3c-3.131-.254-13.267-1.455-16.8,1.344h0a3.692,3.692,0,0,0-.652.652h0a2.611,2.611,0,0,0-.209.339l-.033.052a2.648,2.648,0,0,0-.176.424h0a3.3,3.3,0,0,0-.111.489V472.3c.046.587.13,1.174.13,1.755a3.78,3.78,0,0,1-.078.861,6.026,6.026,0,0,1-1.083,2.113h0l-.117.17c-.072.1-.143.2-.209.307s-.117.183-.17.274-.1.15-.15.235a3.18,3.18,0,0,0-.17.333c0,.065-.072.124-.1.189a3.219,3.219,0,0,0-.2.548,3.641,3.641,0,0,0-.039,1.735,6.459,6.459,0,0,0,.894,2.055c.163.267.339.528.522.789l.457.62a14.077,14.077,0,0,0-.137,1.826,13.494,13.494,0,0,0,5.151,10.6,39.957,39.957,0,0,1-.083,8.279c-.059.574-.13,1.155-.209,1.729s-.137.952-.215,1.428a6.62,6.62,0,0,1-2.85-.215,13.442,13.442,0,0,0-1.3-.5c-1.9-.476-3.835,1.415-5.714.841a.766.766,0,0,1-.085.261,2.556,2.556,0,0,0-1.3-.385,4.758,4.758,0,0,1-2.831-1.624l-2.485-2.342a2.748,2.748,0,0,1-.431-.483,3.386,3.386,0,0,1-.3-.8,9.245,9.245,0,0,0-2.407-3.45,1.631,1.631,0,0,0-.711-.515,1.1,1.1,0,0,0-.326,0,2.875,2.875,0,0,0-.215-.261,6.145,6.145,0,0,0-.541-.548c-1.187-1.1-1.3-2.035-2.335-3.261a31.346,31.346,0,0,1-2.439-3.685c-.085-.685-.2-1.389-.346-2.1a27.022,27.022,0,0,0-1.429-4.762l-1.3-2.89-.15.15c-.946-1.409-1.957-2.179-2.863-2-1.52.313-2.27,3.261-2.029,7.116l.522,3.914a1.2,1.2,0,0,0,.072.294,7.229,7.229,0,0,0-.143,1.409c0,.548.509.952.776,1.441a4.077,4.077,0,0,1,.652,2.224c-.033.28-.117.548-.13.822a3.163,3.163,0,0,0,.613,1.7l3.261,5.479.652,1.148.039.052a2.785,2.785,0,0,0,.874,1,11.948,11.948,0,0,0,1.076,3.959c.111.248.235.483.365.717a23.071,23.071,0,0,0,3.079,4l1.552,1.741c1.533,1.709,3.066,3.424,4.729,5a6.334,6.334,0,0,0,2.113,1.481,2.394,2.394,0,0,0,2.374-.346q0,1.213,0,2.426a1.363,1.363,0,0,1,1.031,2.146,53.792,53.792,0,0,1-4.827,10.215,21.74,21.74,0,0,1,4.044,3.085,18.184,18.184,0,0,1,2.107,2.851c.059.483.1.959.13,1.435.483,7.775-2.524,15.491-5.218,22.9a17.842,17.842,0,0,0-1.559,6.484,12.723,12.723,0,0,0-1.461,1.05,9.671,9.671,0,0,1,.267,4.135,7.325,7.325,0,0,1-.541,2.609,18.329,18.329,0,0,1-.939,1.676c-1.689,2.981-2.061,6.523-2.4,9.927-.2,2.055.594,4.566-.339,6.405a26.2,26.2,0,0,0-3.261,10.032,10.058,10.058,0,0,1-.3,2.342c-.2.652-.561,1.207-.744,1.846a7.9,7.9,0,0,0-.13,2.609,24.969,24.969,0,0,1-1.37,9.2c-.815,2.329-1.715,4.82-1.076,7.214a10.169,10.169,0,0,0-2.759,6.06,9.559,9.559,0,0,1-.209,1.729,8.4,8.4,0,0,1-.783,1.663,14.558,14.558,0,0,0-1.774,7.827,21.772,21.772,0,0,0-3.516,9.184c-.581,3.255-.835,6.568-1.578,9.784-.991,4.253-2.785,8.551-3.137,12.908-2.113,1.35-3.027,3.966-3.431,6.438s-.47,5.068-1.507,7.351c-.535,1.187-1.3,2.25-1.813,3.464a15.9,15.9,0,0,0-.783,2.981,11.632,11.632,0,0,0-.2,4.892,7.377,7.377,0,0,1-1.911,1.455c.1-.4.189-.809.261-1.22-1.683,1.526-4.735.991-6.079,2.824a2.753,2.753,0,0,0,.652,3.777,5.219,5.219,0,0,0,1.35.581c3.261,1.044,6.614,2.094,9.967,1.539a2.975,2.975,0,0,0,1.128-.359,3.632,3.632,0,0,0,1.05-1.213c.5-.8,1-1.591,1.5-2.387a30.987,30.987,0,0,0,3.659.854c.124,1.044.215,2.087.261,3.131.652.13,1.526.17,1.833-.437a1.587,1.587,0,0,0,.111-.724c0-.463.065-1.076.1-1.7h.13a12.393,12.393,0,0,0,5.773-1.167c-.7-5.779,1.6-11.428,3.6-16.894,2.107-5.753,3.914-11.61,5.733-17.468,1.3-4.122,2.746-8.114,4.024-12.243q2.413-7.827,4.846-15.654c.7-2.3,1.415-4.566,2.224-6.849a106.7,106.7,0,0,1,6.047-13.456c.652-1.233,1.3-2.453,1.839-3.731.652-1.559,1.115-3.19,1.637-4.8a74.367,74.367,0,0,1,4.1-9.641c.046-.085.078-.163.124-.241.528,2.159,1.057,4.351,1.409,6.523a24.789,24.789,0,0,1,.111,8.062,26.586,26.586,0,0,0-.835,5.466c.1,2.55,1.461,4.866,2.133,7.325a27.88,27.88,0,0,1,.731,5.609c.183,2.935,1.774,6.229.652,8.949-3.49,8.616-1.8,18.348-3.79,27.4-1.024,4.644-4.161,9.008-3.914,13.756q.261,5.055.887,10.084a9.6,9.6,0,0,0,.816,3.059,11.234,11.234,0,0,0,.894,1.461c-.287.111-.528.4-.737,1.024a4.024,4.024,0,0,0,1.448,4.566,6.339,6.339,0,0,0,1.885.652,9.927,9.927,0,0,0,2.726.378,6.362,6.362,0,0,0,.854-.1,31.1,31.1,0,0,0,3.085,1.109,6.7,6.7,0,0,0,.085.8,1,1,0,0,0,.339.737,1.017,1.017,0,0,0,.522.091h3.542v-.887a2.916,2.916,0,0,0,2.25-.73,3.484,3.484,0,0,0,.652-1.357q1.448-4.912,2.876-9.83a31.425,31.425,0,0,0,1.4-11.219c-1.259-12.021,1.507-24.082.607-36.136a86.561,86.561,0,0,1,1.109-21.681c.294-1.618.652-3.261.783-4.872.287-3.039-.065-6.112.15-9.132.072-1.057.215-2.107.346-3.157a151.6,151.6,0,0,0,1.4-19.666,61.955,61.955,0,0,0-.4-6.523,3.725,3.725,0,0,0,1.781-1.044c.58-.757.43-1.82.424-2.785,0-2.309.972-4.488,1.755-6.666a79.2,79.2,0,0,0,2.466-9.171,32.015,32.015,0,0,0,1.1-7.664q0-.391-.039-.783a2.022,2.022,0,0,0,.6-.652,3.789,3.789,0,0,0,.313-1.207c.235-1.663.476-3.333.711-5q.261-1.794.515-3.581l2.074-14.474c.176-1.259.359-2.511.535-3.764l.541-3.744c.059-.443.124-.887.17-1.3C886.164,528.834,884.645,525.286,884.475,522.259Zm-17.3,54.19a11.922,11.922,0,0,1-1.3-5.668h-.072a2.909,2.909,0,0,0-.085-1.839c-.2-.476-.554-.88-.77-1.357a4.969,4.969,0,0,1-.352-1.826,49.79,49.79,0,0,1,.933-11.832c.085-.457.176-.92.261-1.376a3.406,3.406,0,0,0,.744-.581,5.29,5.29,0,0,0,.841-1.3c.737-1.481,1.409-2.987,2.029-4.52.2-.5.5-1.07,1-1.194-.1,3.816.287,7.71-1.265,11.154a7.056,7.056,0,0,0-.652,1.761c-.143.972.261,1.957.117,2.922-.072.5-.287.965-.372,1.461a1.428,1.428,0,0,0,.378,1.383,1.14,1.14,0,0,0,.28.143c-.039.261-.072.528-.1.783-.052.535-.078,1.037-.111,1.35a42.059,42.059,0,0,0-.176,4.8c0,1.729.065,3.457.039,5.218a3.543,3.543,0,0,1-.248,1.481,2.57,2.57,0,0,1-.5.652A16.979,16.979,0,0,0,867.171,576.449Z" transform="translate(-284.156 -193.474)" fill="url(#a)"/><ellipse cx="3.679" cy="10.417" rx="3.679" ry="10.417" transform="matrix(0.98, -0.201, 0.201, 0.98, 523.744, 287.622)" fill="#fbbebe"/><path d="M878.292,838.473a3.949,3.949,0,0,0,1.448,4.52,6.448,6.448,0,0,0,1.872.652,9.877,9.877,0,0,0,2.72.372c1.128-.052,2.211-.5,3.34-.652a.522.522,0,0,1,.385.052.555.555,0,0,1,.143.457,17.256,17.256,0,0,0,.143,1.918.985.985,0,0,0,.339.737,1.017,1.017,0,0,0,.522.091h3.535a34.478,34.478,0,0,0-1.011-9.223,2.06,2.06,0,0,0-.261-.652,2.16,2.16,0,0,0-1.128-.652,6.308,6.308,0,0,0-2.733-.476,8.007,8.007,0,0,0-3.066,1.5,4.67,4.67,0,0,1-3.477.841C879.883,837.644,878.9,836.66,878.292,838.473Z" transform="translate(-316.371 -321.528)" fill="#3f3d56"/><path d="M796.486,834.9a9.782,9.782,0,0,1-3.568,2.426l-.6.287a.417.417,0,0,0-.2.163.352.352,0,0,0,.065.294,4.22,4.22,0,0,0,4.788,1.742,2.537,2.537,0,0,0,1.05-.548,3.444,3.444,0,0,0,.809-2.1,4.3,4.3,0,0,0-.1-2.407C797.823,832.71,797.49,833.636,796.486,834.9Z" transform="translate(-286.472 -320.814)" fill="#fbbebe"/><path d="M807.91,843.132a1.586,1.586,0,0,1-.111.724c-.307.6-1.161.567-1.826.437a43.9,43.9,0,0,0-.8-6.588c-1.265-.059-2.179,1.141-2.857,2.218l-1.748,2.772a3.614,3.614,0,0,1-1.044,1.213,3.09,3.09,0,0,1-1.128.359c-3.34.554-6.712-.5-9.934-1.539a5.261,5.261,0,0,1-1.35-.574,2.759,2.759,0,0,1-.652-3.77c1.35-1.826,4.383-1.3,6.066-2.818a15.184,15.184,0,0,1-.861,3.111c2.25-.339,3.764-2.4,5.577-3.777a3.431,3.431,0,0,1,1.592-.757,3.5,3.5,0,0,1,1.3.137,15.3,15.3,0,0,1,5.74,2.824,6.188,6.188,0,0,1,2.055,2.139C808.25,840.242,807.91,842.068,807.91,843.132Z" transform="translate(-284.343 -321.014)" fill="#3f3d56"/><circle cx="13.476" cy="13.476" r="13.476" transform="translate(554.961 279.957)" fill="#fbbebe"/><path d="M921.641,617.046a31.965,31.965,0,0,1-1.089,7.625,78.71,78.71,0,0,1-2.466,9.132c-.776,2.172-1.748,4.351-1.742,6.653,0,.959.157,2.022-.43,2.779a4.058,4.058,0,0,1-1.9,1.089,2.381,2.381,0,0,0-1.6,1.428,10.079,10.079,0,0,1-1.357-2.987q-1.755-5.375-3.261-10.808a1.4,1.4,0,0,1,.091-1.3,1.617,1.617,0,0,1,.568-.32,5.869,5.869,0,0,0,1.807-1.161,2.643,2.643,0,0,0,.6-.776,3.514,3.514,0,0,0,.254-1.474c0-1.729,0-3.45-.046-5.179a43.275,43.275,0,0,1,.183-4.781c0-.313.059-.815.111-1.35.1-1.024.294-2.211.848-2.609.828-.554,3.307.189,4.246.32,1.618.222,3.261.483,4.84.789A12.924,12.924,0,0,1,921.641,617.046Z" transform="translate(-326.657 -244.05)" fill="#3f3d56"/><path d="M837.8,513.263c-.522,1.044-1.774,1.546-2.74,2.2l-3.307,2.27a2.205,2.205,0,0,1-1.637.561,2.152,2.152,0,0,1-1.22-1.141.231.231,0,0,0,0-.052l-.685-1.148-3.261-5.466a3.111,3.111,0,0,1-.607-1.683c0-.28.1-.541.124-.822a3.946,3.946,0,0,0-.652-2.218c-.261-.489-.783-.894-.77-1.441a5.218,5.218,0,0,1,.365-2.107,4.266,4.266,0,0,1,1.428-1.526c.307-.222.62-.43.946-.652a1.864,1.864,0,0,1,.568-.261c.541-.111,1.076.339,1.624.359,2.355,1.578,3.261,4.566,5.114,6.718,1.044,1.226,1.148,2.165,2.329,3.261.189.17.372.352.548.541a3.789,3.789,0,0,1,.587.848C836.772,512.069,838.07,512.728,837.8,513.263Z" transform="translate(-297.231 -204.743)" fill="#3f3d56"/><path d="M877.891,512.713a12.143,12.143,0,0,1,1.448,6.568,4.1,4.1,0,0,1-.567,1.729c-.939,1.442-2.909,1.7-4.625,1.787a2.727,2.727,0,0,0-2.009.652,1.826,1.826,0,0,0,.124,2.231,5.036,5.036,0,0,0,2,1.3c2.714,1.194,5.642,2.179,8.59,1.9,1.37-.13,2.7-.528,4.064-.731a42.675,42.675,0,0,1,4.475-.248c1.774-.065,3.542-.241,5.309-.417l4.683-.463a1.043,1.043,0,0,0,.7-.254c.346-.4-.1-1-.528-1.3-2.485-1.839-5.649-3.1-7.064-5.87a34.541,34.541,0,0,1-1.337-4.266,35.856,35.856,0,0,1-1.552-4.116,27.263,27.263,0,0,1-.215-3.8,5.094,5.094,0,0,0-1.3-3.47,5.438,5.438,0,0,0-3.548-1.141c-3.118-.137-6.438.607-8.649,2.8-.594.594-1.1,1.3-1.715,1.839s-1.448.691-1.044,1.4,1.2,1.141,1.631,1.761a15.005,15.005,0,0,1,1.142,2.1Z" transform="translate(-314.19 -205.798)" fill="#fbbebe"/><path d="M896.93,538.151a74.107,74.107,0,0,1-3.992,14.7,55.352,55.352,0,0,0-2.348,6.588c-.5,2.022-.4,4.188-.867,6.216-.574,2.524-1.148,5.055-1.611,7.6a49.822,49.822,0,0,0-.926,11.806,4.934,4.934,0,0,0,.352,1.82c.215.47.561.874.763,1.357a3.26,3.26,0,0,1-.183,2.609,7.554,7.554,0,0,1-1.344,2.035c-6.079,1.813-12.582,1.22-18.916,1.6-5.838.352-11.741,1.552-17.494.554-.652-2.609.437-5.342,1.37-7.886,2.707-7.39,5.7-15.087,5.218-22.829a23.634,23.634,0,0,0-.307-2.694c-.946-5.486.085-11.167,1.735-16.483a28.287,28.287,0,0,0,.743-10.293,18.8,18.8,0,0,1-.046-3.372,5.93,5.93,0,0,1,1.226-3.151c0-.046.059-.091.091-.137a.9.9,0,0,1,.489,0h0a.418.418,0,0,0,.326,0l.072-.046a.163.163,0,0,1,.189,0c.15.091.235.4.561.463a12.992,12.992,0,0,0,1.455.137,7.821,7.821,0,0,1,1.735.248h.078a5.094,5.094,0,0,0,2.531-.215,6.728,6.728,0,0,0,1.552-.6c.143-.157,1.044-.3,1.226-.411.594-.359.463-2.042.587-2.733a7.517,7.517,0,0,1,.489-2.022,3.444,3.444,0,0,1,2.792-1.624,14.865,14.865,0,0,1,3.346.3c2.433.346,4.925.287,7.312.848,1.2.28,2.511.7,3.614.157.3.072.346.333.346.652a4.178,4.178,0,0,1-.183.894c-.418,1.8,1,3.457,2.3,4.761a7.382,7.382,0,0,0,1.924,1.533c.652.3,1.3.424,1.957.75a3.561,3.561,0,0,1,1.3,1.194,4.983,4.983,0,0,1,.744,1.9,11.348,11.348,0,0,1-.215,3.777Z" transform="translate(-306.661 -212.261)" fill="#3f3d56"/><path d="M900.2,541.738a74.107,74.107,0,0,1-3.992,14.7,55.358,55.358,0,0,0-2.348,6.588c-.5,2.022-.4,4.188-.867,6.216-.574,2.524-1.148,5.055-1.611,7.6-.137.078-.281.15-.424.215a10.007,10.007,0,0,1-2.557.822,15.656,15.656,0,0,1-4.774-.156l-9.308-1.246c-3.718-.5-7.677-1.109-10.436-3.627a22.269,22.269,0,0,1-3.64-4.97,23.65,23.65,0,0,0-.307-2.694c-.946-5.486.085-11.167,1.735-16.483a28.287,28.287,0,0,0,.744-10.293,18.78,18.78,0,0,1-.046-3.372,5.928,5.928,0,0,1,1.226-3.151,4.659,4.659,0,0,1,.581-.13h0a2.891,2.891,0,0,1,.4-.052h.189a2.842,2.842,0,0,1,.652.078,11.815,11.815,0,0,1,1.3.5h.078a5,5,0,0,0,1.735.248c.861,0,1.748-.137,2.609-.2a4.813,4.813,0,0,1,3.092.554,18.537,18.537,0,0,1,1.722,1.572,7.4,7.4,0,0,0,2.172,1.181,23.084,23.084,0,0,0,17.363-.365,3.4,3.4,0,0,1,1.742-.444,3.26,3.26,0,0,1,1.252.535c.391.228.776.45,1.174.652a4.983,4.983,0,0,1,.744,1.9A11.348,11.348,0,0,1,900.2,541.738Z" transform="translate(-309.934 -215.849)" opacity="0.1"/><path d="M902.88,536.753a34.809,34.809,0,0,1-7.436-3.261,3.333,3.333,0,0,0-1.252-.535,3.5,3.5,0,0,0-1.748.444,23.071,23.071,0,0,1-17.357.365,7.546,7.546,0,0,1-2.172-1.181,19.479,19.479,0,0,0-1.722-1.572c-2.146-1.389-5.114.241-7.514-.652a13.3,13.3,0,0,0-1.3-.5c-1.9-.476-3.829,1.415-5.694.841a31.729,31.729,0,0,0-1.533,5.818,63.411,63.411,0,0,0-.424,6.862c0,1.376-.065,2.753,0,4.129a1.354,1.354,0,0,1,1.031,2.139,53.467,53.467,0,0,1-4.814,10.182,22.127,22.127,0,0,1,4.031,3.079c2.283,2.413,3.4,5.8,5.87,8.029,2.779,2.511,6.738,3.124,10.436,3.62l9.308,1.246a15.91,15.91,0,0,0,4.781.163,10.067,10.067,0,0,0,2.55-.828,4.566,4.566,0,0,0,1.422-.939,5.217,5.217,0,0,0,.841-1.3c.737-1.474,1.409-2.981,2.029-4.507.215-.541.541-1.174,1.128-1.22,3.457-3.118,6.718-6.314,10.175-9.432a22.548,22.548,0,0,0,3.711-3.914c1.716-2.537.157-6.131,0-9.2a11.611,11.611,0,0,0-.293-2.329C906.37,540.073,905.052,537.412,902.88,536.753Z" transform="translate(-306.931 -215.181)" fill="#cd0"/><path d="M840.921,519.009c-.522,1.044-1.774,1.546-2.74,2.2l-3.307,2.27a2.2,2.2,0,0,1-1.637.561,2.152,2.152,0,0,1-1.22-1.141v-.47a4.377,4.377,0,0,1,.209-1.559A4.858,4.858,0,0,1,833.687,519a11.963,11.963,0,0,1,4.285-2.609,1.468,1.468,0,0,1,.783-.078,1.032,1.032,0,0,1,.287.124,3.784,3.784,0,0,1,.587.848C839.89,517.815,841.188,518.474,840.921,519.009Z" transform="translate(-300.349 -210.489)" opacity="0.1"/><path d="M849.14,526.109a4.751,4.751,0,0,1-2.824-1.618l-2.472-2.3a2.312,2.312,0,0,1-.43-.483,3.388,3.388,0,0,1-.3-.8,9.2,9.2,0,0,0-2.4-3.444,1.565,1.565,0,0,0-.711-.509,1.428,1.428,0,0,0-.789.078,11.93,11.93,0,0,0-4.285,2.609,4.873,4.873,0,0,0-1.461,1.879,4.337,4.337,0,0,0-.209,1.559,11.977,11.977,0,0,0,1.135,4.983c.111.241.235.483.365.717a22.584,22.584,0,0,0,3.066,3.985l1.552,1.735c1.526,1.709,3.053,3.418,4.709,4.99a6.221,6.221,0,0,0,2.113,1.474,2.361,2.361,0,0,0,2.426-.391,3.509,3.509,0,0,0,.691-1.239,24.4,24.4,0,0,0,2.016-8.134,30.719,30.719,0,0,0-.144-3.372C851.09,526.643,850.249,526.18,849.14,526.109Z" transform="translate(-300.78 -210.714)" fill="#cd0"/><path d="M876.468,654.976a150.736,150.736,0,0,1-1.4,19.614c-.13,1.05-.274,2.1-.346,3.151-.215,3.046.137,6.105-.15,9.132-.15,1.637-.489,3.261-.776,4.859a86.4,86.4,0,0,0-1.109,21.623c.9,12.021-1.859,24.049-.607,36.038a29.131,29.131,0,0,1-.385,6.973,29.537,29.537,0,0,1-1.011,4.214q-1.428,4.9-2.87,9.784a3.393,3.393,0,0,1-.652,1.357,3.092,3.092,0,0,1-2.446.724c-3.764-.117-7.305-1.742-10.723-3.327a3.734,3.734,0,0,1-1.076-.652c-.711-.737-.652-1.9-.965-2.87a27.331,27.331,0,0,0-1.644-2.883,9.412,9.412,0,0,1-.711-2.968q-.652-5.009-.887-10.058c-.248-4.735,2.883-9.093,3.914-13.7,1.957-9.053.3-18.759,3.777-27.349,1.1-2.713-.5-6-.652-8.923a28.294,28.294,0,0,0-.731-5.6c-.652-2.453-2.029-4.762-2.126-7.305a26.844,26.844,0,0,1,.828-5.446,24.48,24.48,0,0,0-.111-8.042c-.346-2.192-.874-4.383-1.4-6.523l-.117.241a73.7,73.7,0,0,0-4.09,9.621c-.522,1.6-.978,3.229-1.631,4.781-.535,1.3-1.194,2.5-1.839,3.724a106.976,106.976,0,0,0-6.034,13.4c-.809,2.257-1.52,4.566-2.224,6.829l-4.833,15.654c-1.3,4.116-2.733,8.095-4.011,12.2-1.807,5.87-3.614,11.688-5.714,17.428-1.957,5.446-4.285,11.089-3.587,16.841a12.392,12.392,0,0,1-5.76,1.168,33.72,33.72,0,0,1-9.784-2.374,7.605,7.605,0,0,1-3.379-2.009c-1.448-1.768-1.089-4.357-.652-6.607a15.972,15.972,0,0,1,.783-2.974c.5-1.2,1.3-2.263,1.813-3.45,1.024-2.276,1.089-4.853,1.494-7.325s1.3-5.081,3.418-6.425c.359-4.344,2.146-8.629,3.131-12.876.744-3.216.991-6.523,1.579-9.784a21.489,21.489,0,0,1,3.5-9.164,14.526,14.526,0,0,1,1.774-7.827,8.557,8.557,0,0,0,.776-1.663,9.547,9.547,0,0,0,.209-1.722,10.182,10.182,0,0,1,2.753-6.046c-.652-2.381.254-4.866,1.07-7.175a24.931,24.931,0,0,0,1.37-9.177,8.04,8.04,0,0,1,.124-2.609c.183-.652.541-1.207.75-1.833a10.434,10.434,0,0,0,.294-2.342,27.085,27.085,0,0,1,3.261-10.006c.939-1.839.143-4.338.339-6.386.339-3.4.711-6.927,2.4-9.895.313-.561.652-1.1.933-1.676a7.256,7.256,0,0,0,.541-2.609,9.606,9.606,0,0,0-.267-4.122c3.49-2.9,8.251-3.718,12.791-3.914s9.132.215,13.574-.75c1.3-.294,2.609-.7,3.985-.894,3.124-.457,6.294.254,9.38.959a11.174,11.174,0,0,0,1.3,5.655,60.7,60.7,0,0,1,4.833,23.3Z" transform="translate(-288.58 -248.264)" fill="#33313f"/><path d="M889.854,673.29l-7.495,16.855c-.346-2.192-.874-4.383-1.4-6.523l-.117.241v-.352l4.083-8.982Z" transform="translate(-317.328 -265.084)" opacity="0.1"/><path d="M923.582,617.046a2.817,2.817,0,0,1-1.487.554,7.232,7.232,0,0,1-2.44-.333l-5.87-1.468a2.886,2.886,0,0,1-.535-.189c.1-1.024.293-2.211.848-2.609.828-.554,3.307.189,4.246.32,1.618.222,3.261.483,4.84.789A12.921,12.921,0,0,1,923.582,617.046Z" transform="translate(-328.598 -244.05)" opacity="0.1"/><path d="M928.221,558.7c.124.541.3,1.076.4,1.624a12.394,12.394,0,0,1-.137,4.038l-.535,3.731-.535,3.751-2.068,14.435-.509,3.574-.717,4.99a3.587,3.587,0,0,1-.313,1.2,2.5,2.5,0,0,1-2.042,1.207,7.4,7.4,0,0,1-2.44-.333l-5.87-1.474a1.84,1.84,0,0,1-.717-.294,1.415,1.415,0,0,1-.378-1.376c.085-.5.3-.959.372-1.455.144-.965-.261-1.957-.117-2.916a7.253,7.253,0,0,1,.652-1.755c1.957-4.325.822-9.373,1.487-14.069a21.329,21.329,0,0,1,4.527-10.071,28.91,28.91,0,0,1,5-4.905c.731-.567,1.892-1.735,2.811-1.957C928.273,556.4,928.026,557.878,928.221,558.7Z" transform="translate(-328.273 -224.514)" fill="#cd0"/><path d="M865.346,471.9c-.431,1.37.241,2.876-.065,4.272-.333,1.539-1.781,2.609-2.192,4.155-.652,2.355,1.344,4.5,2.8,6.457,5.414,7.266,4.7,17.324,2.85,26.188a135.223,135.223,0,0,1-6.164,20.873,15.993,15.993,0,0,1-3.32,5.825c3-.861,6.19-1.729,9.2-.894,3.809,1.057,7.1,4.755,10.958,3.914,2.322-.515,3.953-2.576,6.04-3.718,3.914-2.107,8.63-.783,12.993-.1a5.1,5.1,0,0,0,2.838-.143,4.716,4.716,0,0,0,1.722-1.585,16.085,16.085,0,0,0,3.353-8.675,11.128,11.128,0,0,0-3.2-8.564,18.316,18.316,0,0,1-2.746-2.609,8.1,8.1,0,0,1-1.076-3.953c-.515-7.175,1.233-14.5-.567-21.44-.652-2.472-1.715-4.84-2-7.371-.359-3.15.5-6.523-.757-9.406a9.224,9.224,0,0,0-5.5-4.748,30.123,30.123,0,0,0-7.332-1.3C879.6,468.774,866.839,467.241,865.346,471.9Z" transform="translate(-309.824 -193.905)" fill="#33313f"/><g transform="translate(549.436 276.507)" opacity="0.1"><path d="M870.531,518.147a134.952,134.952,0,0,1-6.131,20.788c.45-.894.828-1.833,1.187-2.766a134.517,134.517,0,0,0,6.164-20.873c1.859-8.871,2.57-18.916-2.844-26.188-1.3-1.735-2.981-3.614-2.922-5.649a6.952,6.952,0,0,0-1.109,2.048c-.652,2.355,1.344,4.5,2.8,6.457C873.095,499.225,872.384,509.283,870.531,518.147Z" transform="translate(-861.047 -475.581)"/><path d="M868.519,476.487a6.348,6.348,0,0,0,1.148-2.2,11.175,11.175,0,0,0-.078-2.909,3.137,3.137,0,0,0-1.083,1.494C868.121,474.028,868.564,475.281,868.519,476.487Z" transform="translate(-862.42 -471.38)"/><path d="M904.234,568.07a4.7,4.7,0,0,1-1.722,1.578,4.983,4.983,0,0,1-2.837.143c-4.364-.652-9.132-2-12.993.111-2.094,1.135-3.718,3.2-6.047,3.718-3.855.861-7.142-2.837-10.952-3.914-2.7-.75-5.544-.13-8.264.652a11.4,11.4,0,0,1-2.159,3.118c3-.861,6.19-1.728,9.2-.894,3.809,1.057,7.1,4.755,10.958,3.914,2.322-.515,3.953-2.576,6.04-3.718,3.914-2.107,8.629-.783,12.993-.1a5.1,5.1,0,0,0,2.837-.143,4.716,4.716,0,0,0,1.722-1.585,17.535,17.535,0,0,0,2.7-5.166,18.972,18.972,0,0,1-1.474,2.289Z" transform="translate(-859.26 -504.206)"/></g></g></svg>