<svg xmlns="http://www.w3.org/2000/svg" xmlns:xlink="http://www.w3.org/1999/xlink" width="804" height="438.668" viewBox="0 0 804 438.668"><defs><linearGradient id="a" x1="0.5" y1="1" x2="0.5" gradientUnits="objectBoundingBox"><stop offset="0" stop-color="gray" stop-opacity="0.251"/><stop offset="0.54" stop-color="gray" stop-opacity="0.122"/><stop offset="1" stop-color="gray" stop-opacity="0.102"/></linearGradient><linearGradient id="b" x1="0.5" y1="1" x2="0.5" y2="-0.001" xlink:href="#a"/></defs><g transform="translate(0 0.359)"><g transform="translate(311.879 28.984)" opacity="0.1"><ellipse cx="8.348" cy="10.93" rx="8.348" ry="10.93" transform="translate(31.464 225.633)" fill="#3f3d56"/><path d="M534.987,454.6a13.2,13.2,0,0,0,1.746-6.683c0-6.037-3.741-10.93-8.355-10.93S520,441.9,520,447.935a13.2,13.2,0,0,0,1.746,6.683,13.652,13.652,0,0,0,0,13.358,13.652,13.652,0,0,0,0,13.358A13.16,13.16,0,0,0,520,488.018c0,6.03,3.741,10.93,8.348,10.93s8.355-4.9,8.355-10.93a13.161,13.161,0,0,0-1.746-6.683,13.652,13.652,0,0,0,0-13.358,13.652,13.652,0,0,0,0-13.358Z" transform="translate(-488.565 -264.806)" fill="#3f3d56"/><ellipse cx="8.348" cy="10.93" rx="8.348" ry="10.93" transform="translate(31.464 158.841)" fill="#3f3d56"/><ellipse cx="8.348" cy="10.93" rx="8.348" ry="10.93" transform="translate(31.464 145.482)" fill="#3f3d56"/><path d="M485.711,267.258a38.94,38.94,0,0,1-3.11-4.577l21.934-3.6-23.724.176a40.068,40.068,0,0,1-.734-31.691l31.83,16.513-29.343-21.582a40,40,0,1,1,66.022,44.748,40.013,40.013,0,0,1,4.563,7.292l-28.485,14.833,30.363-10.189a40,40,0,0,1-6.448,37.559,39.995,39.995,0,1,1-62.867,0,39.995,39.995,0,0,1,0-49.458Z" transform="translate(-477.149 -202.271)" fill="#6c63ff"/><path d="M557.139,324.356a39.811,39.811,0,0,1-8.561,24.729,39.995,39.995,0,1,1-62.868,0C480.348,342.277,557.139,319.866,557.139,324.356Z" transform="translate(-477.149 -234.64)" opacity="0.1"/></g><g transform="translate(419.401 70.206)" opacity="0.1"><ellipse cx="6.243" cy="8.165" rx="6.243" ry="8.165" transform="translate(23.511 168.471)" fill="#3f3d56"/><path d="M666.94,440.48a9.852,9.852,0,0,0,1.3-4.988c0-4.512-2.795-8.172-6.235-8.172s-6.243,3.668-6.243,8.172a9.779,9.779,0,0,0,1.306,4.988,10.2,10.2,0,0,0,0,9.984,10.2,10.2,0,0,0,0,9.984,9.779,9.779,0,0,0-1.306,4.988c0,4.512,2.795,8.172,6.243,8.172s6.235-3.668,6.235-8.172a9.852,9.852,0,0,0-1.3-4.988,10.27,10.27,0,0,0,0-9.984,10.27,10.27,0,0,0,0-9.984Z" transform="translate(-632.256 -298.785)" fill="#3f3d56"/><ellipse cx="6.243" cy="8.165" rx="6.243" ry="8.165" transform="translate(23.511 118.558)" fill="#3f3d56"/><ellipse cx="6.243" cy="8.165" rx="6.243" ry="8.165" transform="translate(23.511 108.574)" fill="#3f3d56"/><path d="M630.117,300.524a28.616,28.616,0,0,1-2.325-3.418l16.4-2.692-17.731.132a29.959,29.959,0,0,1-.572-23.687l23.79,12.346-21.941-16.139A29.893,29.893,0,1,1,677.1,300.517a30.231,30.231,0,0,1,3.411,5.451l-21.274,11.055,22.69-7.615a29.9,29.9,0,0,1-4.82,28.067,29.886,29.886,0,1,1-46.949,0,29.886,29.886,0,0,1,0-36.958Z" transform="translate(-623.72 -252.103)" fill="#6c63ff"/><path d="M683.5,343.14a29.761,29.761,0,0,1-6.4,18.479,29.886,29.886,0,1,1-46.949,0C626.131,356.535,683.5,339.788,683.5,343.14Z" transform="translate(-623.725 -276.24)" opacity="0.1"/></g><g transform="translate(721.503 -0.359)" opacity="0.1"><ellipse cx="8.348" cy="10.93" rx="8.348" ry="10.93" transform="translate(32.027 225.633)" fill="#3f3d56"/><path d="M1080.936,414.6a13.2,13.2,0,0,1-1.746-6.683c0-6.037,3.741-10.93,8.355-10.93s8.348,4.893,8.348,10.93a13.2,13.2,0,0,1-1.746,6.683,13.652,13.652,0,0,1,0,13.358,13.652,13.652,0,0,1,0,13.358,13.16,13.16,0,0,1,1.746,6.683c0,6.03-3.741,10.93-8.348,10.93s-8.355-4.9-8.355-10.93a13.16,13.16,0,0,1,1.746-6.683,13.652,13.652,0,0,1,0-13.358A13.652,13.652,0,0,1,1080.936,414.6Z" transform="translate(-1047.17 -224.806)" fill="#3f3d56"/><ellipse cx="8.348" cy="10.93" rx="8.348" ry="10.93" transform="translate(32.027 158.84)" fill="#3f3d56"/><ellipse cx="8.348" cy="10.93" rx="8.348" ry="10.93" transform="translate(32.027 145.482)" fill="#3f3d56"/><path d="M1107.167,227.258a38.936,38.936,0,0,0,3.11-4.578l-21.934-3.6,23.724.176a40.068,40.068,0,0,0,.734-31.691l-31.83,16.513,29.343-21.582a40,40,0,1,0-66.022,44.748,40.017,40.017,0,0,0-4.563,7.292l28.485,14.833-30.363-10.189a40,40,0,0,0,6.448,37.559,39.995,39.995,0,1,0,62.868,0,39.994,39.994,0,0,0,0-49.458Z" transform="translate(-1035.541 -162.271)" fill="#6c63ff"/><path d="M1035.81,284.356a39.812,39.812,0,0,0,8.561,24.729,39.995,39.995,0,1,0,62.867,0C1112.6,302.277,1035.81,279.866,1035.81,284.356Z" transform="translate(-1035.613 -194.64)" opacity="0.1"/></g><g transform="translate(651.237 61.138)" opacity="0.1"><ellipse cx="6.243" cy="8.165" rx="6.243" ry="8.165" transform="translate(23.807 168.471)" fill="#3f3d56"/><path d="M973.528,434.48a9.853,9.853,0,0,1-1.3-4.988c0-4.512,2.795-8.172,6.235-8.172s6.243,3.668,6.243,8.172a9.778,9.778,0,0,1-1.306,4.988,10.2,10.2,0,0,1,0,9.984,10.2,10.2,0,0,1,0,9.984,9.777,9.777,0,0,1,1.306,4.988c0,4.512-2.795,8.172-6.243,8.172s-6.235-3.668-6.235-8.172a9.852,9.852,0,0,1,1.3-4.988,10.27,10.27,0,0,1,0-9.984,10.27,10.27,0,0,1,0-9.984Z" transform="translate(-948.408 -292.785)" fill="#3f3d56"/><ellipse cx="6.243" cy="8.165" rx="6.243" ry="8.165" transform="translate(23.807 118.558)" fill="#3f3d56"/><ellipse cx="6.243" cy="8.165" rx="6.243" ry="8.165" transform="translate(23.807 108.574)" fill="#3f3d56"/><path d="M993.163,294.524a28.6,28.6,0,0,0,2.325-3.418l-16.4-2.692,17.73.132a29.959,29.959,0,0,0,.572-23.687L973.606,277.2l21.941-16.139a29.893,29.893,0,1,0-49.362,33.451,30.227,30.227,0,0,0-3.411,5.45l21.274,11.055L941.4,303.415a29.9,29.9,0,0,0,4.82,28.067,29.886,29.886,0,1,0,46.949,0,29.886,29.886,0,0,0,0-36.958Z" transform="translate(-939.757 -246.103)" fill="#6c63ff"/><path d="M939.794,337.14a29.762,29.762,0,0,0,6.4,18.479,29.886,29.886,0,1,0,46.949,0C997.16,350.535,939.794,333.788,939.794,337.14Z" transform="translate(-939.763 -270.24)" opacity="0.1"/></g><g transform="translate(5.362 -0.236)" opacity="0.1"><ellipse cx="8.348" cy="10.93" rx="8.348" ry="10.93" transform="translate(31.471 225.51)" fill="#3f3d56"/><path d="M117.16,414.6a13.2,13.2,0,0,0,1.746-6.683c0-6.037-3.741-10.93-8.348-10.93s-8.348,4.893-8.348,10.93a13.2,13.2,0,0,0,1.739,6.683,13.7,13.7,0,0,0,0,13.358,13.7,13.7,0,0,0,0,13.358A13.153,13.153,0,0,0,102.21,448c0,6.03,3.734,10.93,8.348,10.93s8.37-4.886,8.37-10.916a13.16,13.16,0,0,0-1.746-6.683,13.652,13.652,0,0,0,0-13.358,13.652,13.652,0,0,0,0-13.358Z" transform="translate(-70.739 -224.929)" fill="#3f3d56"/><ellipse cx="8.348" cy="10.93" rx="8.348" ry="10.93" transform="translate(31.471 158.718)" fill="#3f3d56"/><ellipse cx="8.348" cy="10.93" rx="8.348" ry="10.93" transform="translate(31.471 145.359)" fill="#3f3d56"/><path d="M67.885,227.3a39.85,39.85,0,0,1-3.11-4.577l21.941-3.6-23.746.213a40.068,40.068,0,0,1-.734-31.69l31.837,16.513L64.731,182.576a39.995,39.995,0,1,1,66.022,44.748,40.009,40.009,0,0,1,4.563,7.292l-28.492,14.8,30.37-10.189a40.046,40.046,0,0,1-6.455,37.559,39.995,39.995,0,1,1-62.868,0,39.995,39.995,0,0,1,0-49.458Z" transform="translate(-59.309 -162.439)" fill="#6c63ff"/><path d="M139.3,284.356a39.811,39.811,0,0,1-8.561,24.729,39.995,39.995,0,1,1-62.868,0C62.508,302.277,139.3,279.866,139.3,284.356Z" transform="translate(-59.309 -194.763)" opacity="0.1"/></g><g transform="translate(96.011 61.138)" opacity="0.1"><ellipse cx="6.243" cy="8.165" rx="6.243" ry="8.165" transform="translate(23.511 168.471)" fill="#3f3d56"/><path d="M226.11,434.48a9.852,9.852,0,0,0,1.3-4.988c0-4.512-2.788-8.172-6.235-8.172s-6.243,3.668-6.243,8.172a9.852,9.852,0,0,0,1.306,4.988,10.2,10.2,0,0,0,0,9.984,10.2,10.2,0,0,0,0,9.984,9.852,9.852,0,0,0-1.306,4.988c0,4.511,2.795,8.172,6.243,8.172s6.235-3.668,6.235-8.172a9.852,9.852,0,0,0-1.3-4.988,10.27,10.27,0,0,0,0-9.984,10.27,10.27,0,0,0,0-9.984Z" transform="translate(-191.419 -292.785)" fill="#3f3d56"/><ellipse cx="6.243" cy="8.165" rx="6.243" ry="8.165" transform="translate(23.511 118.559)" fill="#3f3d56"/><ellipse cx="6.243" cy="8.165" rx="6.243" ry="8.165" transform="translate(23.511 108.575)" fill="#3f3d56"/><path d="M189.277,294.524a29.494,29.494,0,0,1-2.325-3.418l16.4-2.692-17.731.132a29.959,29.959,0,0,1-.572-23.687l23.79,12.346-21.941-16.139a29.893,29.893,0,1,1,49.362,33.451,29.431,29.431,0,0,1,3.411,5.451l-21.274,11.055,22.69-7.615a29.9,29.9,0,0,1-4.82,28.067,29.886,29.886,0,1,1-46.949,0,29.886,29.886,0,0,1,0-36.958Z" transform="translate(-182.88 -246.103)" fill="#6c63ff"/><path d="M242.657,337.14a29.761,29.761,0,0,1-6.4,18.479,29.886,29.886,0,1,1-46.949,0C185.277,350.535,242.657,333.788,242.657,337.14Z" transform="translate(-182.885 -270.24)" opacity="0.1"/></g><ellipse cx="402" cy="6.499" rx="402" ry="6.499" transform="translate(0 371.942)" fill="#6c63ff" opacity="0.1"/><ellipse cx="402" cy="6.499" rx="402" ry="6.499" transform="translate(0 425.31)" fill="#6c63ff" opacity="0.1"/><ellipse cx="402" cy="6.499" rx="402" ry="6.499" transform="translate(0 253.749)" fill="#6c63ff" opacity="0.1"/><ellipse cx="402" cy="6.499" rx="402" ry="6.499" transform="translate(0 311.65)" fill="#6c63ff" opacity="0.1"/><path d="M846.182,266.51a13.424,13.424,0,0,0-7.776.851,11.48,11.48,0,0,1-9.346,0,13.117,13.117,0,0,0-11,.213,6.779,6.779,0,0,1-3.162.792c-4.46,0-8.165-4.489-8.935-10.409a8.715,8.715,0,0,0,2.2-2.4c2.612-4.211,6.654-6.918,11.2-6.918s8.539,2.67,11.15,6.837a8.568,8.568,0,0,0,7.4,4.064h.117C841.619,259.5,844.693,262.351,846.182,266.51Z" transform="translate(-252.873 -185.641)" fill="#6c63ff" opacity="0.1"/><path d="M859.755,241.9l-7.2,4.563,4.4-7.952a7.116,7.116,0,0,0-4.357-1.548h-.117a8.327,8.327,0,0,1-1.467-.11l-2.479,1.548,1.049-1.907a8.648,8.648,0,0,1-4.277-3.242l-4.4,2.773L843.66,231a12.783,12.783,0,0,0-9.786-4.944c-4.548,0-8.59,2.7-11.209,6.91a8.37,8.37,0,0,1-7.4,3.991h-.242c-5.018,0-9.082,5.685-9.082,12.7s4.064,12.706,9.082,12.706a6.888,6.888,0,0,0,3.162-.792,13.1,13.1,0,0,1,11-.22,11.407,11.407,0,0,0,9.346,0,13.146,13.146,0,0,1,10.9.213,6.822,6.822,0,0,0,3.125.778c5.018,0,9.082-5.693,9.082-12.706a16.087,16.087,0,0,0-1.885-7.739Z" transform="translate(-252.867 -179.625)" fill="#6c63ff" opacity="0.1"/><path d="M433.04,263.047a9.419,9.419,0,0,0-5.451.594,8.011,8.011,0,0,1-6.536,0,9.155,9.155,0,0,0-7.7.154,4.856,4.856,0,0,1-2.2.55c-3.118,0-5.715-3.14-6.257-7.284a6.1,6.1,0,0,0,1.563-1.68,8.766,8.766,0,0,1,15.647-.059,6.008,6.008,0,0,0,5.186,2.846h.081C429.842,258.155,431.991,260.15,433.04,263.047Z" transform="translate(-146.021 -186.147)" fill="#6c63ff" opacity="0.1"/><path d="M442.534,245.832l-5.04,3.2,3.059-5.568a4.952,4.952,0,0,0-3.044-1.086h-.088a5.493,5.493,0,0,1-1.042-.081l-1.709,1.086.734-1.335a6.089,6.089,0,0,1-2.993-2.267l-3.059,1.937,1.937-3.507a8.957,8.957,0,0,0-6.852-3.47,9.383,9.383,0,0,0-7.842,4.842,5.869,5.869,0,0,1-5.186,2.795h-.169c-3.514,0-6.36,3.976-6.36,8.891s2.846,8.891,6.36,8.891a4.768,4.768,0,0,0,2.2-.558,9.17,9.17,0,0,1,7.688-.147,7.879,7.879,0,0,0,6.544.044,9.2,9.2,0,0,1,7.629.147,4.754,4.754,0,0,0,2.2.543c3.506,0,6.353-3.983,6.353-8.891A11.245,11.245,0,0,0,442.534,245.832Z" transform="translate(-146.015 -181.937)" fill="#6c63ff" opacity="0.1"/><path d="M321.59,341.457a9.4,9.4,0,0,1,5.443.594,8.025,8.025,0,0,0,6.543,0,9.184,9.184,0,0,1,7.7.147,4.746,4.746,0,0,0,2.2.557c3.118,0,5.715-3.147,6.25-7.292a5.979,5.979,0,0,1-1.555-1.68c-1.834-2.934-4.666-4.834-7.842-4.834a9.356,9.356,0,0,0-7.813,4.783,6.008,6.008,0,0,1-5.179,2.846h-.081C324.781,336.594,322.624,338.582,321.59,341.457Z" transform="translate(-123.825 -202.007)" fill="#6c63ff" opacity="0.1"/><path d="M308.158,324.274l5.047,3.2-3.066-5.56a4.981,4.981,0,0,1,3.052-1.093h.081a6.248,6.248,0,0,0,1.049-.073l1.709,1.078L315.3,320.5a6.082,6.082,0,0,0,2.986-2.267l3.059,1.937-1.907-3.514a8.949,8.949,0,0,1,6.852-3.462,9.392,9.392,0,0,1,7.842,4.842,5.869,5.869,0,0,0,5.179,2.795h.176c3.507,0,6.353,3.983,6.353,8.891s-2.846,8.891-6.353,8.891a4.76,4.76,0,0,1-2.2-.55,9.155,9.155,0,0,0-7.7-.154,7.967,7.967,0,0,1-3.286.734,8.069,8.069,0,0,1-3.257-.69,9.184,9.184,0,0,0-7.622.147,4.754,4.754,0,0,1-2.2.543c-3.514,0-6.36-3.976-6.36-8.891A11.327,11.327,0,0,1,308.158,324.274Z" transform="translate(-119.9 -198.15)" fill="#6c63ff" opacity="0.1"/><path d="M713.32,624.521c1.915-3.551-.257-7.893-2.751-11.055s-5.546-6.455-5.48-10.483c.1-5.788,6.243-9.214,11.15-12.28a54.5,54.5,0,0,0,10.013-8.069,14.767,14.767,0,0,0,3.074-4.123c1.02-2.259.99-4.842.924-7.336q-.315-12.39-1.225-24.766" transform="translate(-225.998 -248.185)" fill="none" stroke="#3f3d56" stroke-miterlimit="10" stroke-width="4"/><path d="M743.894,542.722a9.03,9.03,0,0,0-4.511-7.4l-2.025,4,.066-4.842a9.03,9.03,0,1,0,6.47,8.245Z" transform="translate(-231.528 -250.355)" fill="#cd0"/><path d="M722.294,624.418a9.03,9.03,0,0,1-17.048-3.668,8.8,8.8,0,0,1,.587-3.668,9.038,9.038,0,0,1,16.872.1l-5.641,4.592,6.206-1.467A8.979,8.979,0,0,1,722.294,624.418Z" transform="translate(-226.036 -268.578)" fill="#cd0"/><path d="M718.976,598.712A9.03,9.03,0,0,1,716.115,581l-.051,3.719,2.047-4.049h0a9.033,9.033,0,1,1,.844,18.046Z" transform="translate(-227.179 -261.337)" fill="#cd0"/><path d="M748.851,578.825a9.03,9.03,0,1,1,3.991-16.872l-1.592,4.4,3.25-3.213a9.03,9.03,0,0,1-5.678,15.677Z" transform="translate(-235.127 -256.647)" fill="#cd0"/><path d="M742.671,546.927c-2.083.227-4.108.873-6.206,1.005s-4.4-.374-5.707-2A28.964,28.964,0,0,1,729.085,543a6.426,6.426,0,0,0-2.274-2.142,9.03,9.03,0,1,0,16.872,6C743.354,546.868,743.009,546.89,742.671,546.927Z" transform="translate(-231.522 -252.088)" opacity="0.1"/><path d="M748.865,580.7a9.03,9.03,0,0,1-8.59-12.882,6.683,6.683,0,0,1,1.812,1.819,30.613,30.613,0,0,0,1.79,2.986c1.409,1.651,3.815,2.2,5.993,2.091s4.284-.734,6.456-.917c.3,0,.6-.044.91-.051a9.03,9.03,0,0,1-8.37,6.954Z" transform="translate(-235.141 -258.465)" opacity="0.1"/><path d="M718.977,600.653a9.03,9.03,0,0,1-8.664-12.713,7.336,7.336,0,0,1,1.915,1.834,30.26,30.26,0,0,0,1.959,3.044c1.518,1.695,4.086,2.3,6.389,2.2s4.4-.594,6.6-.734A9.045,9.045,0,0,1,718.977,600.653Z" transform="translate(-227.18 -263.225)" opacity="0.1"/><path d="M722.294,626.506a9.03,9.03,0,0,1-17.048-3.668,8.8,8.8,0,0,1,.587-3.668,9.017,9.017,0,0,1,1.981,1.768c.858,1.042,1.423,2.2,2.421,3.206,1.841,1.812,4.827,2.56,7.475,2.626A37.936,37.936,0,0,0,722.294,626.506Z" transform="translate(-226.036 -270.622)" opacity="0.1"/><path d="M103.32,552.521c1.915-3.551-.257-7.893-2.751-11.055s-5.546-6.47-5.48-10.483c.1-5.788,6.243-9.214,11.15-12.28a54.5,54.5,0,0,0,10.013-8.069,14.768,14.768,0,0,0,3.074-4.123c1.02-2.259.99-4.842.924-7.336q-.323-12.39-1.225-24.766" transform="translate(-63.48 -234.608)" fill="none" stroke="#3f3d56" stroke-miterlimit="10" stroke-width="4"/><path d="M133.894,470.722a9.03,9.03,0,0,0-4.512-7.4l-2.025,4,.066-4.842a9.03,9.03,0,1,0,6.47,8.245Z" transform="translate(-69.009 -233.369)" fill="#cd0"/><path d="M112.294,552.418a9.03,9.03,0,0,1-17.048-3.668,8.8,8.8,0,0,1,.587-3.668,9.038,9.038,0,0,1,16.872.1l-5.641,4.592,6.206-1.467a8.979,8.979,0,0,1-.976,4.115Z" transform="translate(-63.518 -251.591)" fill="#cd0"/><path d="M108.976,526.712A9.03,9.03,0,0,1,106.115,509l-.051,3.719,2.047-4.049h0a9.033,9.033,0,1,1,.844,18.046Z" transform="translate(-64.66 -244.351)" fill="#cd0"/><path d="M138.851,506.825a9.03,9.03,0,1,1,3.991-16.872l-1.592,4.4,3.25-3.213a9.03,9.03,0,0,1-5.678,15.677Z" transform="translate(-72.609 -239.661)" fill="#cd0"/><path d="M132.671,474.927c-2.083.227-4.108.873-6.206,1s-4.4-.374-5.707-2A28.962,28.962,0,0,1,119.085,471a6.426,6.426,0,0,0-2.274-2.142,9.03,9.03,0,1,0,16.872,6C133.354,474.868,133.009,474.89,132.671,474.927Z" transform="translate(-69.004 -235.075)" opacity="0.1"/><path d="M138.865,508.7a9.03,9.03,0,0,1-8.59-12.882,6.682,6.682,0,0,1,1.812,1.819,30.613,30.613,0,0,0,1.79,2.986c1.408,1.651,3.815,2.2,5.993,2.091s4.284-.734,6.455-.917c.3,0,.6-.044.91-.051A9.03,9.03,0,0,1,138.865,508.7Z" transform="translate(-72.623 -241.451)" opacity="0.1"/><path d="M108.977,528.653a9.03,9.03,0,0,1-8.664-12.713,7.335,7.335,0,0,1,1.915,1.834,30.242,30.242,0,0,0,1.959,3.044c1.518,1.695,4.086,2.3,6.389,2.2s4.4-.594,6.6-.734A9.045,9.045,0,0,1,108.977,528.653Z" transform="translate(-64.661 -246.21)" opacity="0.1"/><path d="M112.294,554.506a9.03,9.03,0,0,1-17.048-3.668,8.8,8.8,0,0,1,.587-3.668,9.019,9.019,0,0,1,1.981,1.768c.858,1.042,1.423,2.2,2.421,3.206,1.841,1.812,4.827,2.56,7.475,2.626a37.911,37.911,0,0,0,4.585-.264Z" transform="translate(-63.518 -253.604)" opacity="0.1"/><path d="M506.362,470.157c-1.915-3.543.257-7.886,2.758-11.048s5.539-6.455,5.472-10.483c-.088-5.8-6.235-9.214-11.15-12.28a54.285,54.285,0,0,1-10.006-8.069,14.509,14.509,0,0,1-3.081-4.115c-1.012-2.267-.983-4.842-.924-7.336q.33-12.39,1.225-24.766" transform="translate(-168.536 -215.619)" fill="none" stroke="#3f3d56" stroke-miterlimit="10" stroke-width="4"/><path d="M478.387,388.362a9.023,9.023,0,0,1,4.5-7.4l2.025,4-.059-4.842a9.258,9.258,0,0,1,2.971-.359,9.03,9.03,0,1,1-9.441,8.6Z" transform="translate(-165.597 -213.938)" fill="#cd0"/><path d="M499.978,470.032a9.03,9.03,0,1,0-.433-7.27l5.641,4.592-6.206-1.467A8.979,8.979,0,0,0,499.978,470.032Z" transform="translate(-171.086 -232.134)" fill="#cd0"/><path d="M503.294,444.352a9.03,9.03,0,0,0,2.868-17.716l.044,3.719-2.047-4.049h0a9.03,9.03,0,0,0-9.463,8.576,8.92,8.92,0,0,0,.389,3.081,9.023,9.023,0,0,0,8.209,6.389Z" transform="translate(-169.942 -224.92)" fill="#cd0"/><path d="M473.405,424.445a9.03,9.03,0,1,0-4-16.872l1.6,4.4-3.286-3.147a8.957,8.957,0,0,0-2.934,6.235,8.734,8.734,0,0,0,.227,2.487A9.023,9.023,0,0,0,473.405,424.445Z" transform="translate(-161.973 -220.225)" fill="#cd0"/><path d="M479.682,392.567c2.083.227,4.108.873,6.2,1.005s4.4-.374,5.715-2a28.909,28.909,0,0,0,1.665-2.934,6.448,6.448,0,0,1,2.281-2.142,9.03,9.03,0,1,1-16.872,5.993C479,392.5,479.338,392.53,479.682,392.567Z" transform="translate(-165.675 -215.613)" opacity="0.1"/><path d="M473.5,426.322a9.038,9.038,0,0,0,8.59-12.882,6.714,6.714,0,0,0-1.819,1.819,30.6,30.6,0,0,1-1.79,2.986c-1.4,1.651-3.807,2.2-5.986,2.091s-4.284-.734-6.455-.917c-.3,0-.609-.044-.91-.051A9.023,9.023,0,0,0,473.5,426.322Z" transform="translate(-162.068 -221.984)" fill="#cd0" opacity="0.1"/><path d="M503.441,446.293A9.023,9.023,0,0,0,512.1,433.58a7.211,7.211,0,0,0-1.907,1.834,30.245,30.245,0,0,1-1.959,3.044c-1.526,1.695-4.086,2.3-6.4,2.2s-4.4-.594-6.6-.734A9.023,9.023,0,0,0,503.441,446.293Z" transform="translate(-170.09 -226.746)" opacity="0.1"/><path d="M500.34,472.146a9.03,9.03,0,0,0,16.469-7.336,8.671,8.671,0,0,0-1.981,1.768c-.858,1.042-1.467,2.2-2.421,3.206-1.849,1.812-4.827,2.56-7.483,2.626a39.576,39.576,0,0,1-4.585-.264Z" transform="translate(-171.448 -234.138)" opacity="0.1"/><circle cx="73.328" cy="73.328" r="73.328" transform="translate(498.663 107.501)" fill="#3f3d56"/><path d="M851.07,407.583c-2.553-2.553-8.693-6.4-11.737-7.842-3.514-1.687-4.8-1.658-7.292.139-2.069,1.467-3.411,2.883-5.788,2.362s-7.086-4.071-11.642-8.612-8.091-9.221-8.6-11.635.888-3.727,2.369-5.8c1.79-2.487,1.841-3.778.139-7.292-1.467-3.044-5.274-9.17-7.849-11.737s-3.132-2-4.541-1.467a26.264,26.264,0,0,0-4.159,2.2c-2.553,1.709-3.983,3.132-4.988,5.274s-2.142,6.118,3.7,16.527A92.2,92.2,0,0,0,806.9,401.326h0a92.341,92.341,0,0,0,21.692,16.241c10.4,5.869,14.385,4.7,16.528,3.7s3.565-2.413,5.267-4.988a25.922,25.922,0,0,0,2.2-4.159C853.072,410.715,853.644,410.143,851.07,407.583Z" transform="translate(-247.6 -207.349)" fill="#cd0"/><path d="M805.074,300.86A73.358,73.358,0,1,0,878.4,374.193,73.358,73.358,0,0,0,805.074,300.86Zm0,136.9a63.579,63.579,0,1,1,63.579-63.579,63.579,63.579,0,0,1-63.579,63.579Z" transform="translate(-233.083 -193.35)" opacity="0.1"/><circle cx="73.328" cy="73.328" r="73.328" transform="translate(330.198 229.467)" fill="#3f3d56"/><path d="M628.374,522.383l-21.956,22.337a.4.4,0,0,0,0,.572l15.405,16.381a2.651,2.651,0,1,1-3.749,3.749L602.75,549.1a.418.418,0,0,0-.587,0l-3.734,3.771a16.41,16.41,0,0,1-11.737,4.937,16.77,16.77,0,0,1-11.943-5.076l-3.587-3.668a.418.418,0,0,0-.587,0l-15.288,16.285a2.651,2.651,0,1,1-3.749-3.749l15.346-16.344a.44.44,0,0,0,0-.572L544.93,522.347a.4.4,0,0,0-.69.286v44.7a6.544,6.544,0,0,0,6.522,6.521h71.8a6.543,6.543,0,0,0,6.521-6.522V522.67a.4.4,0,0,0-.7-.286Z" transform="translate(-183.144 -246.558)" fill="#cd0"/><path d="M587.579,549.947a11.106,11.106,0,0,0,8.011-3.3L627.566,514.1a6.382,6.382,0,0,0-4.035-1.467H551.685a6.338,6.338,0,0,0-4.035,1.467l31.984,32.549A11.062,11.062,0,0,0,587.579,549.947Z" transform="translate(-184.053 -244.753)" fill="#cd0"/><path d="M574.164,452.69a73.358,73.358,0,1,0,73.321,73.333A73.358,73.358,0,0,0,574.164,452.69Zm0,136.9a63.579,63.579,0,1,1,63.579-63.579,63.579,63.579,0,0,1-63.579,63.579Z" transform="translate(-171.563 -223.216)" opacity="0.1"/><circle cx="73.328" cy="73.328" r="73.328" transform="translate(156.171 167.572)" fill="#3f3d56"/><path d="M354.233,430.16,325,497.605l2.729,2.729,26.511-11.693,26.511,11.693,2.729-2.729Z" transform="translate(-124.734 -224.621)" fill="#cd0"/><path d="M338.194,378a73.315,73.315,0,1,0,.012,0Zm0,136.9a52.322,52.322,0,1,1,.007.029Z" transform="translate(-108.695 -210.45)" opacity="0.1"/><path d="M828.213,592.312q-1-2.435-2.047-4.856a14.417,14.417,0,0,0-2.5-4.321,4.578,4.578,0,0,0-1.467-1.1,6.257,6.257,0,0,0-1.915-.382,15.281,15.281,0,0,0-3.008-.081c-.389-.117-.829-.271-1.262-.448a10.476,10.476,0,0,0,7.805-9.72c0-.147,0-.3,0-.447a10.453,10.453,0,0,0-10.409-10.5,10.27,10.27,0,0,0-5.465,1.563,9.808,9.808,0,0,0-11,5.3,12.126,12.126,0,0,0-3.741,9.023c0,.154,0,.315,0,.462.191,5.7,3.873,10.27,8.524,10.732a4.887,4.887,0,0,0-1.35.9c-1.423,1.372-1.658,3.551-1.812,5.531l-.11,1.467-2.465.88a.455.455,0,0,0-.11.8l2.355,1.68v.418a1.834,1.834,0,0,0,.044.477,3.367,3.367,0,0,0-.91,1.3,6,6,0,0,0-.213,2.377l.088,2.047a16.071,16.071,0,0,0,.623,4.556c.308.91,1.643,3.1,2.6,3.118-.888,4.035-1.122,12.544-1.122,12.544-.11.11.2.213.734.3.528,4.049,2.252,15.405,5.311,20.4a43.018,43.018,0,0,1,1.152,4.959s.873,10.791,2.025,14c.983,2.729,1.761,9.463,1.973,11.414a1.122,1.122,0,0,0-.814.836c-.579,1.746-4.335,4.4-4.335,4.4a18.164,18.164,0,0,0-3.242,2.076c-1.181,1.064-1.137,2.025,4.108,1.423,10.123-1.166,11.855-4.4,11.855-4.4s-.161-.543-.4-1.247a13.542,13.542,0,0,0-1.328-3.132c-.147-.139-.293.1-.469.462a62.813,62.813,0,0,1-.69-14.165s.286-4.959-1.159-8.458a16.013,16.013,0,0,1,0-5.538c.579-2.333-2.311-13.711-2.311-13.711l-1.658-8.377a2.4,2.4,0,0,1,.462.976l.044.169.044.242a.454.454,0,0,0,.117.227c1.13,4.695,4.225,17.7,4.225,19.608,0,2.333,2.89,8.165,2.89,8.165s1.152,9.625,3.176,13.41c1.541,2.883,1.577,7.108,1.5,8.972h0s-.345,2.4-.924,2.978a7.087,7.087,0,0,0-1.093,1.9l-.066.139s-.866,1.753-.286,2.047a14.21,14.21,0,0,0,6.94.873s1.159-1.467,1.159-2.039a9.2,9.2,0,0,0-.132-1.042c-.213-1.379-.609-3.551-.616-3.573.242-.939-.734-3.551-.734-3.551l-.293-8.165a37.691,37.691,0,0,0-2.025-16.337s-1.467-5.245-1.152-6.7-.579-16.916-.579-16.916l-.088-.22a16.7,16.7,0,0,1,.088-3.279c.286-3.5-.866-10.791-1.159-11.077a9.609,9.609,0,0,1-.411-2.413c.066-.609.264-2.391.535-4.607a82.793,82.793,0,0,0,8.524-.734,1.064,1.064,0,0,0,.734-.293,1.027,1.027,0,0,0,.169-.594C831.484,600.645,829.878,596.376,828.213,592.312Zm-5.817,9.25c.3-2.091.624-4.115.946-5.619l.044.132a40.819,40.819,0,0,1,1.394,4.621A15.722,15.722,0,0,1,822.4,601.562Z" transform="translate(-249.472 -251.928)" fill="url(#a)"/><path d="M802.37,648.472s1.731,15.574,5.48,21.626A41.975,41.975,0,0,1,809,675s.866,10.666,2.017,13.835,2.017,11.825,2.017,11.825,4.035,4.607,5.48.866a60.754,60.754,0,0,1-.866-14.994s.286-4.9-1.152-8.363a15.638,15.638,0,0,1,0-5.472c.572-2.311-2.311-13.549-2.311-13.549l-2.3-11.246Z" transform="translate(-251.916 -275.224)" fill="#be6f72"/><path d="M821.123,723.342s-1.731,3.169-11.818,4.321c-5.238.594-5.274-.352-4.093-1.408a18.262,18.262,0,0,1,3.228-2.054s3.749-2.59,4.321-4.321,2.6-.286,2.6-.286c2.883,4.321,3.462-1.159,4.035-.58a13.009,13.009,0,0,1,1.328,3.088C820.961,722.8,821.123,723.342,821.123,723.342Z" transform="translate(-252.505 -294.159)" fill="#ff6f61"/><path d="M821.123,724.48s-1.731,3.169-11.818,4.321c-5.238.594-5.274-.352-4.093-1.408.822.521,2.479.734,5.817-.609,4.8-1.966,8.289-3.1,9.691-3.543C820.961,723.937,821.123,724.48,821.123,724.48Z" transform="translate(-252.505 -295.296)" opacity="0.1"/><path d="M820.381,686.53s.286-4.9-1.152-8.363a15.639,15.639,0,0,1,0-5.473c.572-2.311-2.311-13.549-2.311-13.549l-2.3-11.246-2,.117,2.281,11.128s2.883,11.238,2.311,13.549a15.638,15.638,0,0,0,0,5.472c1.467,3.463,1.152,8.363,1.152,8.363a60.754,60.754,0,0,0,.866,14.994,2.524,2.524,0,0,1-.836,1.188,1.884,1.884,0,0,0,2.854-1.188A60.766,60.766,0,0,1,820.381,686.53Z" transform="translate(-254.647 -275.224)" opacity="0.1"/><path d="M813.31,562.42a10.271,10.271,0,0,0-5.443,1.548,9.793,9.793,0,0,0-11,5.245,11.942,11.942,0,0,0-3.734,8.92c0,6.133,4.13,11.1,9.221,11.1,3.668,0,6.881-2.612,8.355-6.389a10.126,10.126,0,0,0,2.6.337,10.38,10.38,0,0,0,0-20.76Z" transform="translate(-249.453 -256.765)" fill="#3f3d56"/><path d="M828.036,650.65l.866,2.3s.866,15.28.572,16.726,1.159,6.6,1.159,6.6a36.9,36.9,0,0,1,2.017,16.139l.286,8.069s1.152,3.169.58,3.749-4.922-.514-4.922-.514.579-6.052-1.467-9.8-3.169-13.263-3.169-13.263-2.883-5.766-2.883-8.069-4.614-21.046-4.614-21.046Z" transform="translate(-255.67 -275.957)" fill="#be6f72"/><path d="M801.572,643.669s.293-10.38,1.467-13.549a21.514,21.514,0,0,0,1.284-4.6s17.452,3.154,18.9,2c0,0,.286,4.035.58,4.321s1.467,7.5,1.152,10.96,0,3.455,0,3.455-11.825,1.731-12.111,0-1.152-1.724-1.152-1.724S801,644.212,801.572,643.669Z" transform="translate(-251.698 -269.261)" fill="#3f3d56"/><g transform="translate(549.874 358.261)" opacity="0.1"><path d="M811.094,650.044s-7.292-.2-9.492-.594v.594c-.572.572,10.094.866,10.094.866a.734.734,0,0,1,.4.161C811.7,650.044,811.094,650.044,811.094,650.044Z" transform="translate(-801.58 -633.898)"/><path d="M827.838,632.571c-.293-.286-.579-4.321-.579-4.321a1.241,1.241,0,0,1-.492.176,14.579,14.579,0,0,0,.492,3.279,45.788,45.788,0,0,1,1.152,10.96c-.315,3.462,0,3.455,0,3.455s-9.353,1.372-11.62.455a3.472,3.472,0,0,0,.088.411c.286,1.731,12.111,0,12.111,0s-.293,0,0-3.455A42.856,42.856,0,0,0,827.838,632.571Z" transform="translate(-805.632 -628.25)"/><path d="M811.094,650.044s-7.292-.2-9.492-.594v.594c-.572.572,10.094.866,10.094.866a.734.734,0,0,1,.4.161C811.7,650.044,811.094,650.044,811.094,650.044Z" transform="translate(-801.58 -633.898)"/><path d="M827.838,632.571c-.293-.286-.579-4.321-.579-4.321a1.241,1.241,0,0,1-.492.176,14.579,14.579,0,0,0,.492,3.279,45.788,45.788,0,0,1,1.152,10.96c-.315,3.462,0,3.455,0,3.455s-9.353,1.372-11.62.455a3.472,3.472,0,0,0,.088.411c.286,1.731,12.111,0,12.111,0s-.293,0,0-3.455A42.856,42.856,0,0,0,827.838,632.571Z" transform="translate(-805.632 -628.25)"/></g><path d="M816.646,586.1a3.822,3.822,0,0,0,1.1,1.423,2.466,2.466,0,0,0,1.034.447c-.646.374-1.35.653-2,1.027a35.479,35.479,0,0,0-2.934,2.2,5.97,5.97,0,0,1-3.367,1.306,4.123,4.123,0,0,0,.469-4.1,3.831,3.831,0,0,1-.513-1.423,2.557,2.557,0,0,1,1.416-1.907c.55-.374,1.115-.734,1.687-1.093.448-.279,1.122-.866,1.687-.844s.631.521.734,1.034A8.133,8.133,0,0,0,816.646,586.1Z" transform="translate(-254.066 -262.194)" fill="#be6f72"/><path d="M816.646,586.1a3.822,3.822,0,0,0,1.1,1.423,2.466,2.466,0,0,0,1.034.447c-.646.374-1.35.653-2,1.027a35.479,35.479,0,0,0-2.934,2.2,5.97,5.97,0,0,1-3.367,1.306,4.123,4.123,0,0,0,.469-4.1,3.831,3.831,0,0,1-.513-1.423,2.557,2.557,0,0,1,1.416-1.907c.55-.374,1.115-.734,1.687-1.093.448-.279,1.122-.866,1.687-.844s.631.521.734,1.034A8.133,8.133,0,0,0,816.646,586.1Z" transform="translate(-254.066 -262.194)" opacity="0.1"/><circle cx="6.632" cy="6.632" r="6.632" transform="translate(562.705 328.054)" fill="#be6f72"/><path d="M837.877,727.149c0,.58-1.152,2.017-1.152,2.017a14.275,14.275,0,0,1-6.918-.866c-.579-.286.286-2.017.286-2.017l.066-.139a7,7,0,0,1,1.093-1.878c.572-.572.917-2.934.917-2.934,1.79-2.934,4.966,1.269,4.966,1.269s.4,2.2.616,3.536A10.048,10.048,0,0,1,837.877,727.149Z" transform="translate(-259.173 -294.511)" fill="#ff6f61"/><path d="M837.877,729.267c0,.58-1.152,2.017-1.152,2.017a14.275,14.275,0,0,1-6.918-.866c-.579-.286.286-2.017.286-2.017l.066-.139a13.938,13.938,0,0,0,6.279,1.291l1.313-1.313C837.825,728.732,837.877,729.12,837.877,729.267Z" transform="translate(-259.173 -296.628)" opacity="0.1"/><circle cx="6.485" cy="6.485" r="6.485" transform="translate(549.588 313.786)" fill="#be6f72"/><path d="M802.137,599.51c-1.423,1.357-1.658,3.507-1.8,5.465l-.22,2.868a14.475,14.475,0,0,0-.051,2.325c0,.477.117.961.161,1.467s.059,1.144.066,1.724v4.24a5,5,0,0,0,.47,2.545,1.731,1.731,0,0,0,2.2.792,2.509,2.509,0,0,0,.91-1.408,21.9,21.9,0,0,0,1.467-5.37c.059-.638.066-1.276.125-1.915s.169-1.306.264-1.951c.411-2.7.594-5.428.778-8.15.051-.807.778-3.983-.279-4.335-.514-.169-1.577.359-2.069.535a5.825,5.825,0,0,0-2.017,1.166Z" transform="translate(-251.294 -265.202)" fill="#be6f72"/><path d="M802.137,599.51c-1.423,1.357-1.658,3.507-1.8,5.465l-.22,2.868a14.475,14.475,0,0,0-.051,2.325c0,.477.117.961.161,1.467s.059,1.144.066,1.724v4.24a5,5,0,0,0,.47,2.545,1.731,1.731,0,0,0,2.2.792,2.509,2.509,0,0,0,.91-1.408,21.9,21.9,0,0,0,1.467-5.37c.059-.638.066-1.276.125-1.915s.169-1.306.264-1.951c.411-2.7.594-5.428.778-8.15.051-.807.778-3.983-.279-4.335-.514-.169-1.577.359-2.069.535a5.825,5.825,0,0,0-2.017,1.166Z" transform="translate(-251.294 -265.202)" opacity="0.1"/><path d="M816.765,588.16s-4.9,3.749-7.783,4.614c0,0-1.709,1.951-2,2.421s-.88,5.649-1.467,6.808-2.017,3.749,0,6.338a10.989,10.989,0,0,1,.286,3.462c-.286.866-1.335,4.035-.381,4.181s3.844,2.157,6.433,1.585,12.258,2.2,12.258,2.2,1.6-14.855,2.758-17.481l-2.6-.866s-7.2-4.321-2.883-10.952C821.379,590.471,817.33,589.605,816.765,588.16Z" transform="translate(-252.476 -262.657)" fill="#4f9a94"/><path d="M796.773,611.152l5.957,4.218a.44.44,0,0,0,.521,0l1.614-1.21a.455.455,0,0,0,0-.69L800.28,609.4a.44.44,0,0,0-.447-.088l-2.942,1.056a.447.447,0,0,0-.117.785Z" transform="translate(-250.376 -268.481)" fill="#3f3d56"/><path d="M799.3,625.027a15.963,15.963,0,0,1-.624-4.5l-.088-2.032a5.867,5.867,0,0,1,.213-2.347,3.837,3.837,0,0,1,2.472-2.164,8.538,8.538,0,0,1,3.367-.242.866.866,0,0,1,.433.117.807.807,0,0,1,.235.4,2.656,2.656,0,0,1,.132,2.12,2.2,2.2,0,0,1-.675.7c-.8.572-1.731.954-2.487,1.577a.9.9,0,0,0-.337.425.991.991,0,0,0,0,.462,7.39,7.39,0,0,0,.381,1.181,1.166,1.166,0,0,0,.33.5c.139.117.323.161.469.271.315.257.976.594.939,1-.11,1.467-.99,3.11-1.335,4.563C802.064,629.891,799.724,626.267,799.3,625.027Z" transform="translate(-250.898 -269.25)" fill="#be6f72"/><g transform="translate(557.504 339.311)" opacity="0.1"><path d="M812.141,628.225h-.161a4.938,4.938,0,0,0,1.885,0h.183a6.607,6.607,0,0,0-1.907,0Z" transform="translate(-811.98 -612.512)"/><path d="M831.8,606.83c-1.034,2.325-2.56,14.921-2.832,17.422,1.012.264,1.68.455,1.68.455s1.585-14.818,2.744-17.444Z" transform="translate(-816.507 -606.83)"/></g><path d="M824.021,598.738a2.2,2.2,0,0,0,.946,1.431,12.7,12.7,0,0,1,1.68,1.7,12.054,12.054,0,0,1,1.665,3.338,40.886,40.886,0,0,1,1.386,4.563c-3.668,1.7-7.835,1.621-11.737,2.744a9.367,9.367,0,0,0-4.4,2.6,6.066,6.066,0,0,0-1.621,4.776.622.622,0,0,0,.088.286.616.616,0,0,0,.513.205,4.4,4.4,0,0,0,2.692-.924,12.816,12.816,0,0,0,2.061-2.025,3.316,3.316,0,0,1,1.467-1.086,24.011,24.011,0,0,1,6.6-.646,83.2,83.2,0,0,0,9.837-.778.792.792,0,0,0,.88-.88c.323-4.328-1.284-8.553-2.934-12.566q-.99-2.414-2.039-4.8a14.233,14.233,0,0,0-2.494-4.27,4.4,4.4,0,0,0-1.467-1.086,6.2,6.2,0,0,0-1.966-.367,13.941,13.941,0,0,0-3.22-.059,6.862,6.862,0,0,0-.308,1.665,14.426,14.426,0,0,0,1.775,5.627C823.536,598.459,823.852,598.474,824.021,598.738Z" transform="translate(-254.457 -263.354)" fill="#be6f72"/><path d="M812.143,606.67a5.377,5.377,0,0,0-.734,2.8,3.774,3.774,0,0,0,.183,1.144,3.712,3.712,0,0,0,2.34,2.2" transform="translate(-254.324 -267.863)" fill="none" stroke="#000" stroke-miterlimit="10" stroke-width="1" opacity="0.1"/><path d="M812.678,572.981a3.366,3.366,0,0,0-1.064.169c-.961-1.467-3.22-2.479-5.869-2.479-3.507,0-6.345,1.812-6.345,4.042s2.839,4.035,6.345,4.035a8.927,8.927,0,0,0,3.807-.807,3.455,3.455,0,1,0,3.11-4.959Z" transform="translate(-251.125 -259.248)" fill="#3f3d56"/><path d="M812.959,580.04a3.448,3.448,0,0,1-3.111-1.959,8.929,8.929,0,0,1-3.807.808c-3.5,0-6.338-1.8-6.338-4.035a2.414,2.414,0,0,1,0-.4,2.736,2.736,0,0,0-.323,1.269c0,2.2,2.839,4.035,6.345,4.035a8.927,8.927,0,0,0,3.807-.807,3.455,3.455,0,0,0,6.507-.858A3.44,3.44,0,0,1,812.959,580.04Z" transform="translate(-251.12 -260.225)" opacity="0.1"/><path d="M796.86,570.915a9.793,9.793,0,0,1,11-5.245,10.373,10.373,0,0,1,15.787,7.967v-.866a10.373,10.373,0,0,0-15.823-8.8,9.793,9.793,0,0,0-11,5.245,11.942,11.942,0,0,0-3.734,8.92V579A11.737,11.737,0,0,1,796.86,570.915Z" transform="translate(-249.443 -257.08)" opacity="0.1"/><path d="M885.4,548.634c1.915-3.543-.257-7.893-2.758-11.055s-5.539-6.448-5.472-10.483c.088-5.788,6.235-9.206,11.15-12.28a54.215,54.215,0,0,0,10.006-8.069,14.62,14.62,0,0,0,3.081-4.115c1.012-2.267.983-4.842.924-7.336q-.323-12.4-1.225-24.766" transform="translate(-271.844 -233.714)" fill="none" stroke="#3f3d56" stroke-miterlimit="10" stroke-width="4"/><path d="M915.964,466.8a9.016,9.016,0,0,0-4.5-7.394l-2.025,4,.059-4.842a8.862,8.862,0,0,0-2.971-.359,9.03,9.03,0,1,0,9.441,8.6Z" transform="translate(-277.371 -232.446)" fill="#cd0"/><path d="M894.374,548.48a9.03,9.03,0,1,1,.433-7.277l-5.641,4.592,6.206-1.467a8.979,8.979,0,0,1-1,4.152Z" transform="translate(-271.882 -250.642)" fill="#cd0"/><path d="M891.052,522.8a9.03,9.03,0,0,1-2.868-17.716l-.044,3.719,2.047-4.042h0a9.033,9.033,0,1,1,.844,18.046Z" transform="translate(-273.021 -243.429)" fill="#cd0"/><path d="M920.923,502.915a9.03,9.03,0,1,1,4-16.872l-1.6,4.4,3.286-3.154a8.979,8.979,0,0,1,2.934,6.235,8.717,8.717,0,0,1-.227,2.487A9.03,9.03,0,0,1,920.923,502.915Z" transform="translate(-280.973 -238.738)" fill="#cd0"/><path d="M914.75,471.007c-2.083.235-4.115.88-6.206,1.012s-4.4-.374-5.714-2a28.036,28.036,0,0,1-1.665-2.934,6.493,6.493,0,0,0-2.274-2.142,9.03,9.03,0,1,0,16.872,5.993C915.425,470.948,915.088,470.97,914.75,471.007Z" transform="translate(-277.368 -234.148)" opacity="0.1"/><path d="M920.937,504.792a9.038,9.038,0,0,1-8.59-12.882,6.683,6.683,0,0,1,1.819,1.812,28.942,28.942,0,0,0,1.79,2.986c1.4,1.658,3.807,2.2,5.986,2.1s4.284-.734,6.455-.917c.3,0,.609-.051.91-.059a9.03,9.03,0,0,1-8.37,6.962Z" transform="translate(-280.987 -240.527)" opacity="0.1"/><path d="M891.053,524.728A9.023,9.023,0,0,1,882.389,512a7.445,7.445,0,0,1,1.907,1.834c.734.99,1.137,2.135,1.958,3.044,1.526,1.7,4.086,2.3,6.4,2.245s4.4-.6,6.6-.77A9.03,9.03,0,0,1,891.053,524.728Z" transform="translate(-273.022 -245.278)" opacity="0.1"/><path d="M894.392,550.6a9.038,9.038,0,0,1-16.469-7.336,8.845,8.845,0,0,1,1.981,1.768c.866,1.049,1.431,2.2,2.421,3.213,1.849,1.812,4.827,2.553,7.483,2.626a39.568,39.568,0,0,0,4.585-.271Z" transform="translate(-271.901 -252.683)" opacity="0.1"/><path d="M1044.4,700.634c1.915-3.543-.257-7.893-2.758-11.055s-5.539-6.448-5.472-10.483c.088-5.788,6.235-9.206,11.15-12.28a54.212,54.212,0,0,0,10.006-8.069,14.619,14.619,0,0,0,3.081-4.115c1.012-2.267.983-4.842.924-7.336q-.315-12.4-1.225-24.766" transform="translate(-314.206 -268.465)" fill="none" stroke="#3f3d56" stroke-miterlimit="10" stroke-width="4"/><path d="M1074.978,618.8a9.016,9.016,0,0,0-4.5-7.395l-2.025,4,.059-4.842a8.86,8.86,0,0,0-2.934-.359,9.03,9.03,0,1,0,9.441,8.6Z" transform="translate(-319.746 -268.307)" fill="#cd0"/><path d="M1053.373,700.481a9.03,9.03,0,1,1,.433-7.277l-5.641,4.592,6.206-1.467a8.975,8.975,0,0,1-1,4.152Z" transform="translate(-314.244 -285.727)" fill="#cd0"/><path d="M1050.052,674.8a9.03,9.03,0,0,1-2.868-17.716l-.044,3.719,2.047-4.042h0a9.033,9.033,0,1,1,.844,18.046Z" transform="translate(-315.383 -277.581)" fill="#cd0"/><path d="M1079.923,654.915a9.03,9.03,0,1,1,4-16.872l-1.6,4.4,3.286-3.154a8.98,8.98,0,0,1,2.934,6.235,8.728,8.728,0,0,1-.228,2.487A9.03,9.03,0,0,1,1079.923,654.915Z" transform="translate(-323.334 -272.284)" fill="#cd0"/><path d="M1073.75,623.007c-2.083.235-4.115.88-6.206,1.012s-4.4-.374-5.714-2a28.019,28.019,0,0,1-1.665-2.934,6.491,6.491,0,0,0-2.274-2.142,9.03,9.03,0,1,0,16.872,5.993C1074.425,622.948,1074.088,622.97,1073.75,623.007Z" transform="translate(-319.729 -270.065)" opacity="0.1"/><path d="M1079.937,656.792a9.038,9.038,0,0,1-8.59-12.882,6.682,6.682,0,0,1,1.819,1.812,28.965,28.965,0,0,0,1.79,2.986c1.4,1.658,3.807,2.2,5.986,2.1s4.284-.734,6.455-.917c.3,0,.609-.051.91-.059A9.03,9.03,0,0,1,1079.937,656.792Z" transform="translate(-323.348 -274.161)" opacity="0.1"/><path d="M1050.053,676.728A9.023,9.023,0,0,1,1041.389,664a7.449,7.449,0,0,1,1.907,1.834c.734.99,1.137,2.135,1.959,3.044,1.526,1.7,4.086,2.3,6.4,2.245s4.4-.6,6.6-.77A9.03,9.03,0,0,1,1050.053,676.728Z" transform="translate(-315.383 -279.513)" opacity="0.1"/><path d="M1053.392,702.6a9.038,9.038,0,0,1-16.469-7.336,8.845,8.845,0,0,1,1.981,1.768c.866,1.049,1.467,2.2,2.421,3.213,1.849,1.812,4.827,2.553,7.482,2.626A39.58,39.58,0,0,0,1053.392,702.6Z" transform="translate(-314.262 -287.842)" fill="#cd0" opacity="0.1"/><path d="M494.279,580.429a7.2,7.2,0,0,0-2.868-5.81,8.436,8.436,0,0,0-7.05-8.275,8.422,8.422,0,0,0-5.612-6.272h0a7.159,7.159,0,0,0-1.042-.242h-1.24a8.26,8.26,0,0,0-7.981,7.057c-2.575-.594-4.93.176-5.362,1.8A2.2,2.2,0,0,0,463.2,570a5.677,5.677,0,0,0,3.785,3.066l.249.073.374.1h.081a6.486,6.486,0,0,0-.616,2.78,6.412,6.412,0,0,0,3.455,5.722l-.169.1a2.288,2.288,0,0,0-.558.778,11.633,11.633,0,0,0-1.078,2.6c-.183.778-.213,1.585-.44,2.355-.425,1.416-1.511,2.612-1.636,4.086-.059.66.051,1.467-.418,1.893a2.287,2.287,0,0,1-.374.264,3.028,3.028,0,0,0-.814.858,2.847,2.847,0,0,1-.572.822c-.425.315-1.122.286-1.328.778s.33,1.071.205,1.607-.58.638-.91.939a3.264,3.264,0,0,0-.785,1.467,4.812,4.812,0,0,1-3.961-1.012,7.4,7.4,0,0,1,.411,1.467,6.426,6.426,0,0,0-2.135-1.071,6.741,6.741,0,0,1-2.274-1.687l1.218-.169-5.377-8.209-1.592-.33L449.362,592a.873.873,0,0,0-.484.579,2.486,2.486,0,0,0-.051.932,16.676,16.676,0,0,0,.367,2.2l.411,1.922c.037.176.081.359.132.536a5.053,5.053,0,0,0-1.592.176,13.85,13.85,0,0,0-3.308-.785,1.835,1.835,0,0,0-.734,0,1.9,1.9,0,0,0-.7.565,22.565,22.565,0,0,0-2.458,3.462c-2.934,5.032-6.756,9.426-10.373,13.975-2.494,1.012-5.01,1.973-7.526,2.934l-5.414,2.069a8.209,8.209,0,0,1-3.36.734c-.514,0-1.152-.11-1.467.33a3.091,3.091,0,0,0-.33.734l-.558.059h0a6.411,6.411,0,0,0-1.3-2.391.821.821,0,0,0-.609.47c-.132.242-.213.506-.367.734-.286.426-.792.631-1.152.99s-.587.917-.983,1.284a3.888,3.888,0,0,1-1.841.734,11.621,11.621,0,0,0-2.883,1.093,4.646,4.646,0,0,1-1.064.492,4,4,0,0,1-1.254.044l-2.861-.213a2.261,2.261,0,0,0-.77.037,1.467,1.467,0,0,0-.91,1.467,2.311,2.311,0,0,0,.91,1.577,5.825,5.825,0,0,0,1.629.844,47.8,47.8,0,0,0,7.629,2.259v.58a13.021,13.021,0,0,0,5.869,1.394.91.91,0,0,0,.44-.081.968.968,0,0,0,.367-.572,23.6,23.6,0,0,0,1.144-5.619h0a2.935,2.935,0,0,0,1.034-.264c.983-.271,1.966.4,2.986.513,1.254.139,2.413-.594,3.6-1.042l.513-.169a5.633,5.633,0,0,1-1.188,1.137c-.492.352-1.042.616-1.519.983a10.465,10.465,0,0,1-1.291,1,8.1,8.1,0,0,1-.99.382,6.531,6.531,0,0,0-1.416.733,2.868,2.868,0,0,0-.961.939,1.409,1.409,0,0,0-.081,1.32,1.394,1.394,0,0,0,.946.66,3.884,3.884,0,0,0,1.166,0c1.555-.117,3.1-.257,4.651-.4a12.4,12.4,0,0,0,1.944-.279c.337-.081.675-.191,1.012-.286a9.03,9.03,0,0,1,1.768-.264,1.468,1.468,0,0,1,.514.051c.359.117.616.484.983.557a1.467,1.467,0,0,0,.734-.1,16.361,16.361,0,0,1,3.441-.367,1.42,1.42,0,0,0,1.335-.594c.235-.469-.191-1.225-.381-1.849a5.658,5.658,0,0,1-.161-1.218,7.622,7.622,0,0,0-.851-2.89,7.541,7.541,0,0,1-.638-1.32,33.36,33.36,0,0,0,6.331-3.213,11.319,11.319,0,0,1,3.609-1.739,9.815,9.815,0,0,1,4.533.528,103.147,103.147,0,0,1,10.395,3.624c1.621.668,3.235,1.372,4.908,1.878a7.651,7.651,0,0,0,1.746,1.695,8.07,8.07,0,0,0,3.778,1.034,49.518,49.518,0,0,0,5.318.2,8.971,8.971,0,0,0,3.961-.734,4.072,4.072,0,0,0,.829-.55,3.286,3.286,0,0,0,2.612-.961,6.331,6.331,0,0,0,1.988-3.14c.433-1.673.1-3.668,1.13-5,.271-.367.631-.66.9-1.027a2.891,2.891,0,0,0,.469-1.695.341.341,0,0,1,.044-.066,6.215,6.215,0,0,0,.44-1.687,9.648,9.648,0,0,1,.477-1.335,41.211,41.211,0,0,0,1.364-3.954,23.1,23.1,0,0,0,.631-2.714c.11-.734.176-1.467.235-2.2a13.67,13.67,0,0,1,.668-3.4,27.64,27.64,0,0,0,1.54-8.128v-.161A5.451,5.451,0,0,0,493.8,586.5a5.787,5.787,0,0,0-.506-2.369,7.335,7.335,0,0,0,.983-3.7Zm-26.247,31.889c.081.286.176.565.271.844-.433-.418-.851-.851-1.284-1.276.169.059.345.11.506.176a2.731,2.731,0,0,1,.484.257Zm-2.076-1.408c-2.538-2.2-5.472-3.91-8.069-6.045,1.416.7,2.795,1.511,4.159,2.289q2.428,1.386,4.922,2.663a4.027,4.027,0,0,1-1.034,1.093Zm1.078-5.546.125-.125v.873l-.682-.235a6.078,6.078,0,0,0,.535-.514Zm-22.323,5.942a21,21,0,0,0,2.7-3.851c1.005,1.753,2.641,3.022,4.027,4.5C449.2,611.664,446.956,611.422,444.711,611.305Z" transform="translate(-143.63 -251.76)" fill="url(#b)"/><path d="M415.35,438.25l1.6.323,5.45,8.062-2.4.323Z" transform="translate(-110.659 -103.782)" fill="#2f2e41"/><path d="M414.49,645.431a31.383,31.383,0,0,0,1.6,4.159,39.6,39.6,0,0,0,5.318-1.519A16.758,16.758,0,0,0,420.3,646.6a5.47,5.47,0,0,0-1.5-1.152,4.137,4.137,0,0,0-1.827,0C416.148,645.431,415.319,645.446,414.49,645.431Z" transform="translate(-148.576 -274.545)" fill="#fbbebe"/><path d="M413.826,646.741a3.316,3.316,0,0,1-1.819-2.069,6.662,6.662,0,0,0-1.386-2.472.792.792,0,0,0-.616.462c-.132.235-.213.5-.359.734-.293.418-.807.624-1.174.976s-.587.9-.983,1.262a3.9,3.9,0,0,1-1.856.734,12.037,12.037,0,0,0-2.934,1.078,5.065,5.065,0,0,1-1.078.484,4.269,4.269,0,0,1-1.262,0l-2.89-.205a2.262,2.262,0,0,0-.734,0,1.4,1.4,0,0,0-.917,1.467,2.2,2.2,0,0,0,.917,1.555,6.091,6.091,0,0,0,1.643.836,48.351,48.351,0,0,0,7.747,2.2v.572a13.409,13.409,0,0,0,5.905,1.372,1,1,0,0,0,.44-.073.968.968,0,0,0,.367-.572,22.888,22.888,0,0,0,1.21-6.279,5,5,0,0,0-.125-1.621c-.161-.521.381-.3-.117-.506" transform="translate(-143.599 -273.705)" fill="#2f2e41"/><path d="M475.267,632.71c-8.568.513-17.034-2-25.616-2.259a12.506,12.506,0,0,0-3.184.2,16.039,16.039,0,0,0-3.154,1.225c-4.6,2.142-9.36,3.917-14.114,5.685l-5.465,2.032a8.275,8.275,0,0,1-3.382.734c-.521,0-1.159-.11-1.467.323-.888,1.32-.469,3.25.117,4.732.191.477.513,1,1.027,1.049a2.985,2.985,0,0,0,1.042-.264c.99-.264,1.981.4,3.008.514,1.262.132,2.435-.587,3.631-1.027,1.981-.734,4.137-.734,6.221-1.056a27.871,27.871,0,0,0,9.742-4.042,11.37,11.37,0,0,1,3.631-1.717,10.049,10.049,0,0,1,4.57.521,104.887,104.887,0,0,1,10.483,3.565,48.857,48.857,0,0,0,5.472,2,19.806,19.806,0,0,0,12.273-.734c1.372-.543,2.861-1.467,2.934-2.978.051-.844-.609-1.585-1.042-2.311-.279-.462-.565-.924-.866-1.372C479.661,635.4,477.871,632.556,475.267,632.71Z" transform="translate(-149.61 -270.568)" fill="#2f2e41"/><path d="M475.267,632.71c-8.568.513-17.034-2-25.616-2.259a12.506,12.506,0,0,0-3.184.2,16.039,16.039,0,0,0-3.154,1.225c-4.6,2.142-9.36,3.917-14.114,5.685l-5.465,2.032a8.275,8.275,0,0,1-3.382.734c-.521,0-1.159-.11-1.467.323-.888,1.32-.469,3.25.117,4.732.191.477.513,1,1.027,1.049a2.985,2.985,0,0,0,1.042-.264c.99-.264,1.981.4,3.008.514,1.262.132,2.435-.587,3.631-1.027,1.981-.734,4.137-.734,6.221-1.056a27.871,27.871,0,0,0,9.742-4.042,11.37,11.37,0,0,1,3.631-1.717,10.049,10.049,0,0,1,4.57.521,104.887,104.887,0,0,1,10.483,3.565,48.857,48.857,0,0,0,5.472,2,19.806,19.806,0,0,0,12.273-.734c1.372-.543,2.861-1.467,2.934-2.978.051-.844-.609-1.585-1.042-2.311-.279-.462-.565-.924-.866-1.372C479.661,635.4,477.871,632.556,475.267,632.71Z" transform="translate(-149.61 -270.568)" opacity="0.1"/><path d="M436.92,644.7q2.01.682,4.057,1.262c.734-1.254,2.2-2.127,2.516-3.565a.338.338,0,0,0,0-.191.352.352,0,0,0-.154-.139,7.687,7.687,0,0,0-3.184-.932c-.88-.051-1.284.866-1.68,1.511C438.321,642.937,437.279,644.844,436.92,644.7Z" transform="translate(-154.552 -273.422)" fill="#fbbebe"/><path d="M434.668,644.041a2.934,2.934,0,0,1-1.973-1.3c-.183-.33-.389-.778-.77-.734s-.506.44-.587.785a22,22,0,0,1-1.108,3.807,7.145,7.145,0,0,1-2.369,3.118c-.5.345-1.049.6-1.541.968a10.584,10.584,0,0,1-1.3.983,7.721,7.721,0,0,1-1,.367,6.911,6.911,0,0,0-1.423.734,2.825,2.825,0,0,0-.976.932,1.342,1.342,0,0,0-.073,1.3,1.386,1.386,0,0,0,.946.646,3.994,3.994,0,0,0,1.181,0c1.563-.11,3.125-.249,4.688-.389a13.533,13.533,0,0,0,1.959-.271l1.02-.279a8.117,8.117,0,0,1,1.783-.264,1.386,1.386,0,0,1,.521.051c.359.117.616.477.99.55a1.659,1.659,0,0,0,.734-.1,16.2,16.2,0,0,1,3.47-.359,1.464,1.464,0,0,0,1.35-.587c.293-.572-.191-1.21-.389-1.827a5.872,5.872,0,0,1-.161-1.2,7.291,7.291,0,0,0-.858-2.846c-.4-.734-.939-1.541-.66-2.318a2.2,2.2,0,0,0,.264-.8C438.277,643.755,435.387,644.2,434.668,644.041Z" transform="translate(-150.422 -273.654)" fill="#2f2e41"/><path d="M475.8,612.064a6.69,6.69,0,0,1-3.418-3.389c-.139-.323-.257-.667-.4-.99a7.527,7.527,0,0,0-2.039-2.839,1,1,0,0,0-.734-.315.8.8,0,0,0-.55.594,2.267,2.267,0,0,0-.059.917,16.336,16.336,0,0,0,.367,2.142l.418,1.893a4.152,4.152,0,0,0,.257.844,2.933,2.933,0,0,0,.7.829c.381.352.77.69,1.159,1.027a3.985,3.985,0,0,0,.734.506,4.26,4.26,0,0,0,1.3.382,11.049,11.049,0,0,1,4.871,1.878v-1.409a1.863,1.863,0,0,0-.367-1.02A6.506,6.506,0,0,0,475.8,612.064Z" transform="translate(-162.987 -267.201)" fill="#fbbebe"/><path d="M475.8,612.064a6.69,6.69,0,0,1-3.418-3.389c-.139-.323-.257-.667-.4-.99a7.527,7.527,0,0,0-2.039-2.839,1,1,0,0,0-.734-.315.8.8,0,0,0-.55.594,2.267,2.267,0,0,0-.059.917,16.336,16.336,0,0,0,.367,2.142l.418,1.893a4.152,4.152,0,0,0,.257.844,2.933,2.933,0,0,0,.7.829c.381.352.77.69,1.159,1.027a3.985,3.985,0,0,0,.734.506,4.26,4.26,0,0,0,1.3.382,11.049,11.049,0,0,1,4.871,1.878v-1.409a1.863,1.863,0,0,0-.367-1.02A6.506,6.506,0,0,0,475.8,612.064Z" transform="translate(-162.987 -267.201)" opacity="0.1"/><ellipse cx="2.083" cy="2.098" rx="2.083" ry="2.098" transform="translate(328.173 325.522)" fill="#2f2e41"/><path d="M495.2,590.457a2.252,2.252,0,0,0-1.643.235,2.282,2.282,0,0,0-.565.77,11.186,11.186,0,0,0-1.086,2.553c-.183.734-.213,1.563-.448,2.318-.425,1.394-1.518,2.575-1.643,4.027-.059.653.051,1.416-.425,1.856a2.694,2.694,0,0,1-.374.271,2.817,2.817,0,0,0-.822.844,2.765,2.765,0,0,1-.58.8c-.425.315-1.13.286-1.335.734s.33,1.056.205,1.584-.587.631-.917.924a3.205,3.205,0,0,0-.792,1.467,4.893,4.893,0,0,1-3.991-.99,12.706,12.706,0,0,1,.623,4.563,1.863,1.863,0,0,1-.367,1.408,25.408,25.408,0,0,1,4.893.851,3.375,3.375,0,0,0,2.135,0,3.565,3.565,0,0,0,.983-.778,6.266,6.266,0,0,0,2.017-3.11,18.274,18.274,0,0,0,.037-2.105,11.868,11.868,0,0,1,.536-2.56,30.459,30.459,0,0,0,.932-5.267c.1-1.1,1.049-1.981,1.548-2.934a14.368,14.368,0,0,0,1.973-5.869C496.129,591.374,495.894,590.531,495.2,590.457Z" transform="translate(-166.24 -263.425)" fill="#2f2e41"/><path d="M495.2,590.457a2.252,2.252,0,0,0-1.643.235,2.282,2.282,0,0,0-.565.77,11.186,11.186,0,0,0-1.086,2.553c-.183.734-.213,1.563-.448,2.318-.425,1.394-1.518,2.575-1.643,4.027-.059.653.051,1.416-.425,1.856a2.694,2.694,0,0,1-.374.271,2.817,2.817,0,0,0-.822.844,2.765,2.765,0,0,1-.58.8c-.425.315-1.13.286-1.335.734s.33,1.056.205,1.584-.587.631-.917.924a3.205,3.205,0,0,0-.792,1.467,4.893,4.893,0,0,1-3.991-.99,12.706,12.706,0,0,1,.623,4.563,1.863,1.863,0,0,1-.367,1.408,25.408,25.408,0,0,1,4.893.851,3.375,3.375,0,0,0,2.135,0,3.565,3.565,0,0,0,.983-.778,6.266,6.266,0,0,0,2.017-3.11,18.274,18.274,0,0,0,.037-2.105,11.868,11.868,0,0,1,.536-2.56,30.459,30.459,0,0,0,.932-5.267c.1-1.1,1.049-1.981,1.548-2.934a14.368,14.368,0,0,0,1.973-5.869C496.129,591.374,495.894,590.531,495.2,590.457Z" transform="translate(-166.24 -263.425)" opacity="0.1"/><path d="M482.241,629.591c-1.783-.851-3.088-2.428-4.534-3.785-2.751-2.59-6.118-4.4-9.016-6.844a63.522,63.522,0,0,0-5.744-4.827,14.355,14.355,0,0,0-6.155-2.149,1.638,1.638,0,0,0-.734,0,1.688,1.688,0,0,0-.7.55,22.172,22.172,0,0,0-2.487,3.411c-3.668,6.235-8.884,11.473-13.2,17.268a1.1,1.1,0,0,0-.213.411,1.02,1.02,0,0,0,.161.638l.88,1.716c.492.968,1.284,2.091,2.34,1.9a2.56,2.56,0,0,0,1.225-.785l3.947-3.778,4.137-3.954c2.421-2.311,4.886-4.68,6.47-7.644,1.232,2.142,3.426,3.543,4.922,5.5.572.734,1.042,1.563,1.555,2.355.814,1.262,1.746,2.45,2.67,3.668l4.746,6.052a9.081,9.081,0,0,0,2.2,2.2,8.4,8.4,0,0,0,3.807,1.02,50.305,50.305,0,0,0,5.362.191,9.245,9.245,0,0,0,4-.734,3.624,3.624,0,0,0,2.164-3.22,4.725,4.725,0,0,0-.682-2A16.349,16.349,0,0,0,482.241,629.591Z" transform="translate(-155.227 -265.644)" fill="#2f2e41"/><ellipse cx="1.607" cy="1.614" rx="1.607" ry="1.614" transform="translate(329.933 327.507)" fill="#e8e8f0"/><path d="M502.671,590.7a3.088,3.088,0,0,1,.176,2.318,9.4,9.4,0,0,1-1.034,2.135,10.161,10.161,0,0,1-1.342,1.907,13.817,13.817,0,0,0,7.057-2.025,10.248,10.248,0,0,0,4.453-3.881,2.054,2.054,0,0,1-1.643-.308,5.868,5.868,0,0,1-1.255-1.166l-1.24-1.394a5.579,5.579,0,0,1-.734-1.005,2.773,2.773,0,0,1-.33-1.621,9.438,9.438,0,0,1-1.643,1.364c-.888.58-1.863,1-2.758,1.57-.308.205-1.012.528-.829.939S502.421,590.26,502.671,590.7Z" transform="translate(-171.483 -262.727)" fill="#fbbebe"/><path d="M502.671,590.7a3.088,3.088,0,0,1,.176,2.318,9.4,9.4,0,0,1-1.034,2.135,10.161,10.161,0,0,1-1.342,1.907,13.817,13.817,0,0,0,7.057-2.025,10.248,10.248,0,0,0,4.453-3.881,2.054,2.054,0,0,1-1.643-.308,5.868,5.868,0,0,1-1.255-1.166l-1.24-1.394a5.579,5.579,0,0,1-.734-1.005,2.773,2.773,0,0,1-.33-1.621,9.438,9.438,0,0,1-1.643,1.364c-.888.58-1.863,1-2.758,1.57-.308.205-1.012.528-.829.939S502.421,590.26,502.671,590.7Z" transform="translate(-171.483 -262.727)" opacity="0.1"/><path d="M499.964,592.766a2.091,2.091,0,0,0,0,2.421c.073.088.337.638.447.646a.4.4,0,0,0,.279-.147,18.405,18.405,0,0,0,1.57-1.871,3.492,3.492,0,0,1,2-1.306,4.314,4.314,0,0,1,2.751.858,2.611,2.611,0,0,1,.946.734,2.56,2.56,0,0,1,.308,1.049,50.535,50.535,0,0,1,.279,6.668,26.27,26.27,0,0,1-.315,4.8c-.161.814-.4,1.614-.506,2.443a15.586,15.586,0,0,0-.1,2.2v3.066a8.072,8.072,0,0,0,.117,1.68c.147.668.462,1.291.675,1.944a12.715,12.715,0,0,1,.448,2.3l.418,3.169a4.007,4.007,0,0,1-.374,2.934c-.271.359-.631.653-.91,1.012-1.034,1.35-.734,3.279-1.137,4.93a6.147,6.147,0,0,1-2.01,3.081,3.323,3.323,0,0,1-2.648.946c-1.291-.242-2.061-1.584-2.413-2.854a11.409,11.409,0,0,0-1.24-3.719,9.865,9.865,0,0,0-2.45-2.047,4.232,4.232,0,0,1-1.915-2.487c-.081-.462,0-.939-.081-1.409a3.323,3.323,0,0,0-2.047-2.692c-.66-.257-1.467-.352-1.849-.954a4.452,4.452,0,0,0,1.929-2.59,13.3,13.3,0,0,0,.469-3.272l.22-3.668a12.252,12.252,0,0,1,.873-4.761c.323-.66.734-1.284,1.064-1.937a21.016,21.016,0,0,0,1.137-2.839c.528-1.511,1.056-3.022,1.526-4.548a8.573,8.573,0,0,1,.836-2.12C498.651,593.741,499.223,592.912,499.964,592.766Z" transform="translate(-168.747 -260.466)" fill="#e8e8f0"/><path d="M492.322,616.468h.976L493.5,615a3.057,3.057,0,0,1,.205-.858,5.137,5.137,0,0,1,.565-.822c.954-1.357.888-3.154,1.122-4.8a24.45,24.45,0,0,1,2.142-6.279l1.893-4.218a5.82,5.82,0,0,0,.411-1.078,6.463,6.463,0,0,0,.117-1.247c0-.653.205-3.03.227-3.668,0-.242-.535-.11-.646-.323-.235-.47-.558.8-1.005,1.078a2.465,2.465,0,0,0-.873,1.276c-.411,1.056-.66,2.2-1.042,3.25a6.639,6.639,0,0,1-1.768,2.876c-.389.337-.836.609-1.2.976-1.174,1.159-1.291,3-1.328,4.658C492.293,606.829,492.1,616.468,492.322,616.468Z" transform="translate(-169.284 -263.695)" fill="#2f2e41"/><path d="M508.268,590.434a3.33,3.33,0,0,0-1.739,2.384,12.059,12.059,0,0,1-.88,2.934c-1.188,2.069-4.218,2.67-5.062,4.908a9.022,9.022,0,0,0-.337,2.311c-.147,1.607-.675,3.154-.836,4.754a21.18,21.18,0,0,0,.088,3.734l1.064,12.632a16.873,16.873,0,0,1-.315,5.561,5.356,5.356,0,0,0,3.184-.528c.99-.455,1.9-1.078,2.861-1.607a29.473,29.473,0,0,0,4.908-2.758,3,3,0,0,0,.66-.734,6.344,6.344,0,0,0,.44-1.658,8.946,8.946,0,0,1,.477-1.306,38.468,38.468,0,0,0,1.379-3.9,22.4,22.4,0,0,0,.631-2.67c.117-.734.183-1.467.242-2.2a12.91,12.91,0,0,1,.675-3.338,26.887,26.887,0,0,0,1.548-8.011,4.189,4.189,0,0,0-.081-1.174,6.28,6.28,0,0,0-.646-1.343c-.44-.829-.734-1.739-1.115-2.582a12.7,12.7,0,0,0-4.335-4.555C510.227,590.705,509.229,590.089,508.268,590.434Z" transform="translate(-171.19 -262.893)" fill="#2f2e41"/><path d="M477.119,617.023a7.649,7.649,0,0,1-2.017-1.533c-.264-.308-.484-.653-.734-.961a5,5,0,0,0-2.538-1.467,12.4,12.4,0,0,0-2.934-.286,5.324,5.324,0,0,0-1.959.235,2,2,0,0,0-1.3,1.394,2.311,2.311,0,0,0,.99,2.054,4.667,4.667,0,0,0,1.973.954,15.787,15.787,0,0,0,1.783.213c3.507.367,6.639,2.274,9.713,4.013q4.049,2.3,8.26,4.284a17.167,17.167,0,0,0,.139-2.531c0-.631-.051-1.6-.646-1.973a12.955,12.955,0,0,0-2.626-.785,41.328,41.328,0,0,1-5.289-2.142A26.316,26.316,0,0,1,477.119,617.023Z" transform="translate(-162.201 -269.077)" fill="#fbbebe"/><ellipse cx="6.25" cy="6.287" rx="6.25" ry="6.287" transform="translate(324.006 314.378)" fill="#fbbebe"/><path d="M508.333,599.891a10.02,10.02,0,0,0-1.21,2.267c-.734,1.584-1.981,2.934-2.59,4.614s-.616,3.837-1.871,5.208a1.826,1.826,0,0,0-.55.792,3.782,3.782,0,0,1-.059.572c-.183.5-1,.521-1.152,1.034-.044.147,0,.308-.073.455-.125.33-.565.381-.851.58-.609.411-.484,1.364-.917,1.959a1.651,1.651,0,0,1-1.563.55,5.5,5.5,0,0,1-1.621-.609,1.564,1.564,0,0,0-.587-.183,1.21,1.21,0,0,0-.675.235,4.159,4.159,0,0,0-1.687,3.558,11.62,11.62,0,0,0,.968,3.983,1.6,1.6,0,0,0,.315.594,1.4,1.4,0,0,0,1.555.117,7.336,7.336,0,0,1,1.518-.682c.968-.176,1.915.491,2.9.433a4.027,4.027,0,0,0,1.951-.858,10.782,10.782,0,0,0,2.626-2.2c.425-.565.734-1.2,1.115-1.8a23.151,23.151,0,0,1,1.577-2.105l3.609-4.4a10.137,10.137,0,0,0,.968-1.335,9.408,9.408,0,0,0,.734-2.017,15.454,15.454,0,0,0,.734-3.587,13.787,13.787,0,0,0-.264-3.008,10.632,10.632,0,0,0-.734-2.868C511.715,599.524,509.808,598.174,508.333,599.891Z" transform="translate(-169.472 -265.396)" fill="#2f2e41"/><path d="M519.621,581.592a7.042,7.042,0,0,0-2.89-5.722,8.37,8.37,0,0,0-7.108-8.15,8.121,8.121,0,0,0-16,.433c-2.6-.587-4.974.176-5.406,1.775s1.4,3.668,4.137,4.4a7.71,7.71,0,0,0,2.656.264,8.128,8.128,0,0,0,5.59,3.484,8.341,8.341,0,0,0,6.1,6.294,7,7,0,0,0,1.885,2.6v.609a5.289,5.289,0,0,0,10.578,0,5.647,5.647,0,0,0-.506-2.34A7.072,7.072,0,0,0,519.621,581.592Z" transform="translate(-168.202 -256.321)" fill="#4f9a94"/><path d="M489.975,570.264c.433-1.6,2.81-2.362,5.406-1.775a8.26,8.26,0,0,1,8.069-6.954h.536a7.951,7.951,0,0,0-2.3-.345,8.26,8.26,0,0,0-8.069,6.954c-2.6-.587-4.974.176-5.406,1.775s1.4,3.668,4.137,4.4a8.064,8.064,0,0,0,1.57.271C491.3,573.808,489.542,571.9,489.975,570.264Z" transform="translate(-168.199 -256.884)" opacity="0.1"/><path d="M512.868,592.858a5.508,5.508,0,0,1,0-.6,6.851,6.851,0,0,1-1.885-2.6,8.319,8.319,0,0,1-6.1-6.3,8.106,8.106,0,0,1-5.6-3.477,7.039,7.039,0,0,1-1.563-.044,8.15,8.15,0,0,0,5.392,3.206,8.341,8.341,0,0,0,6.1,6.294,7.006,7.006,0,0,0,1.885,2.6v.609a5.384,5.384,0,0,0,5.26,5.472A5.472,5.472,0,0,1,512.868,592.858Z" transform="translate(-170.75 -261.139)" opacity="0.1"/><ellipse cx="0.961" cy="1.284" rx="0.961" ry="1.284" transform="translate(330.806 321.47) rotate(-37.22)" fill="#fbbebe"/></g></svg>