<svg id="Coop_image" data-name="Coop image" xmlns="http://www.w3.org/2000/svg" xmlns:xlink="http://www.w3.org/1999/xlink" width="812" height="621.927" viewBox="0 0 812 621.927">
  <defs>
    <linearGradient id="linear-gradient" y1="0.5" x2="1" y2="0.5" gradientUnits="objectBoundingBox">
      <stop offset="0" stop-color="gray" stop-opacity="0.251"/>
      <stop offset="0.54" stop-color="gray" stop-opacity="0.122"/>
      <stop offset="1" stop-color="gray" stop-opacity="0.102"/>
    </linearGradient>
    <linearGradient id="linear-gradient-2" x1="0" y1="0.5" x2="1" y2="0.5" xlink:href="#linear-gradient"/>
    <linearGradient id="linear-gradient-4" x1="0" y1="0.5" x2="1" y2="0.5" xlink:href="#linear-gradient"/>
    <linearGradient id="linear-gradient-5" x1="0" y1="0.5" x2="1" y2="0.5" xlink:href="#linear-gradient"/>
    <linearGradient id="linear-gradient-7" x1="0" y1="0.5" x2="1" y2="0.5" xlink:href="#linear-gradient"/>
    <linearGradient id="linear-gradient-8" x1="0" y1="0.5" x2="1" y2="0.5" xlink:href="#linear-gradient"/>
    <linearGradient id="linear-gradient-13" x1="0" y1="0.5" x2="1" y2="0.5" xlink:href="#linear-gradient"/>
    <linearGradient id="linear-gradient-14" x1="0" y1="0.501" x2="1" y2="0.501" xlink:href="#linear-gradient"/>
    <linearGradient id="linear-gradient-15" x1="0" y1="0.5" x2="1" y2="0.5" xlink:href="#linear-gradient"/>
    <linearGradient id="linear-gradient-17" x1="0" y1="0.5" x2="1" y2="0.5" xlink:href="#linear-gradient"/>
    <linearGradient id="linear-gradient-18" x1="0" y1="0.5" x2="1" y2="0.5" xlink:href="#linear-gradient"/>
    <linearGradient id="linear-gradient-19" x1="0" y1="0.5" x2="0.999" y2="0.5" xlink:href="#linear-gradient"/>
    <linearGradient id="linear-gradient-20" x1="0" y1="0.5" x2="0.999" y2="0.5" xlink:href="#linear-gradient"/>
    <linearGradient id="linear-gradient-21" x1="0.5" y1="1" x2="0.5" y2="0" xlink:href="#linear-gradient"/>
    <linearGradient id="linear-gradient-22" x1="0.5" y1="1" x2="0.5" y2="0" xlink:href="#linear-gradient"/>
  </defs>
  <path id="Path_270" data-name="Path 270" d="M910.234,731.7H852V698.89h58.234Zm-55.774-2.461h53.313V701.351H854.461Z" transform="translate(-239.309 -183.803)" fill="#6c63ff" opacity="0.2"/>
  <path id="Path_271" data-name="Path 271" d="M981.234,729.7H923V696.89h58.234Zm-55.774-2.461h53.313V699.351H925.461Z" transform="translate(-252.075 -183.444)" fill="#6c63ff" opacity="0.2"/>
  <path id="Path_272" data-name="Path 272" d="M1052.234,729.7H994V696.89h58.234Zm-55.774-2.461h53.313V699.351H996.461Z" transform="translate(-264.84 -183.444)" fill="#6c63ff" opacity="0.2"/>
  <path id="Path_273" data-name="Path 273" d="M1052.234,689.7H994V656.89h58.234Zm-55.774-2.461h53.313V659.351H996.461Z" transform="translate(-264.84 -176.252)" fill="#6c63ff" opacity="0.2"/>
  <path id="Path_274" data-name="Path 274" d="M981.234,689.7H923V656.89h58.234Zm-55.774-2.461h53.313V659.351H925.461Z" transform="translate(-252.075 -176.252)" fill="#6c63ff" opacity="0.2"/>
  <path id="Path_275" data-name="Path 275" d="M181.234,729.7H123V696.89h58.234Zm-55.774-2.461h53.313V699.351H125.461Z" transform="translate(-108.236 -183.444)" fill="#6c63ff" opacity="0.2"/>
  <path id="Path_276" data-name="Path 276" d="M252.234,729.7H194V696.89h58.234Zm-55.774-2.461h53.313V699.351H196.461Z" transform="translate(-121.002 -183.444)" fill="#6c63ff" opacity="0.2"/>
  <path id="Path_277" data-name="Path 277" d="M323.234,729.7H265V696.89h58.234Zm-55.774-2.461h53.313V699.351H267.461Z" transform="translate(-133.768 -183.444)" fill="#6c63ff" opacity="0.2"/>
  <path id="Path_278" data-name="Path 278" d="M394.234,731.7H336V698.89h58.234Zm-55.774-2.461h53.313V701.351H338.461Z" transform="translate(-146.533 -183.803)" fill="#6c63ff" opacity="0.2"/>
  <path id="Path_279" data-name="Path 279" d="M323.234,689.7H265V656.89h58.234Zm-55.774-2.461h53.313V659.351H267.461Z" transform="translate(-133.768 -176.252)" fill="#6c63ff" opacity="0.2"/>
  <path id="Path_280" data-name="Path 280" d="M252.234,689.7H194V656.89h58.234Zm-55.774-2.461h53.313V659.351H196.461Z" transform="translate(-121.002 -176.252)" fill="#6c63ff" opacity="0.2"/>
  <path id="Path_281" data-name="Path 281" d="M994.35,587.636s-10.778-36.606,2.018-63.549a57.816,57.816,0,0,0,4.675-36.269,97.231,97.231,0,0,0-5.134-17.027" transform="translate(-264.14 -142.791)" fill="none" stroke="#535461" stroke-miterlimit="10" stroke-width="2"/>
  <path id="Path_282" data-name="Path 282" d="M1003.34,448.219c0,4.487-8.12,17.495-8.12,17.495s-8.12-13.008-8.12-17.495a8.124,8.124,0,1,1,16.248,0Z" transform="translate(-263.6 -137.272)" fill="#6c63ff"/>
  <path id="Path_283" data-name="Path 283" d="M1019.69,477.58c-2.461,3.765-16.33,10.269-16.33,10.269s.254-15.338,2.69-19.1a8.123,8.123,0,1,1,13.64,8.825Z" transform="translate(-266.523 -141.757)" fill="#6c63ff"/>
  <path id="Path_284" data-name="Path 284" d="M1018.325,528.738c-4,2.018-19.275.623-19.275.623s7.956-13.123,11.967-15.133a8.125,8.125,0,0,1,7.316,14.509Z" transform="translate(-265.748 -150.445)" fill="#6c63ff"/>
  <path id="Path_285" data-name="Path 285" d="M1009.055,567.947c-3.609,2.666-18.865,3.871-18.865,3.871s5.627-14.263,9.235-16.937a8.122,8.122,0,1,1,9.662,13.058Z" transform="translate(-264.155 -157.624)" fill="#6c63ff"/>
  <path id="Path_286" data-name="Path 286" d="M982.03,490.856c3.215,3.125,18.208,6.365,18.208,6.365s-3.674-14.895-6.89-18.044a8.123,8.123,0,0,0-11.319,11.655Z" transform="translate(-262.245 -143.886)" fill="#6c63ff"/>
  <path id="Path_287" data-name="Path 287" d="M971.219,536.348c4,2.018,19.275.623,19.275.623s-7.956-13.123-11.967-15.133a8.125,8.125,0,1,0-7.316,14.509Z" transform="translate(-259.94 -151.813)" fill="#6c63ff"/>
  <path id="Path_288" data-name="Path 288" d="M967.507,582.418c3.609,2.666,18.865,3.871,18.865,3.871s-5.594-14.23-9.211-16.929a8.122,8.122,0,1,0-9.662,13.057Z" transform="translate(-259.484 -160.228)" fill="#6c63ff"/>
  <path id="Path_289" data-name="Path 289" d="M1003.34,448.219c0,4.487-8.12,17.495-8.12,17.495s-8.12-13.008-8.12-17.495a8.124,8.124,0,1,1,16.248,0Z" transform="translate(-263.6 -137.272)" fill="#5c6bc0" opacity="0.25"/>
  <path id="Path_290" data-name="Path 290" d="M1019.69,477.58c-2.461,3.765-16.33,10.269-16.33,10.269s.254-15.338,2.69-19.1a8.123,8.123,0,1,1,13.64,8.825Z" transform="translate(-266.523 -141.757)" fill="#5c6bc0" opacity="0.25"/>
  <path id="Path_291" data-name="Path 291" d="M1018.325,528.738c-4,2.018-19.275.623-19.275.623s7.956-13.123,11.967-15.133a8.125,8.125,0,0,1,7.316,14.509Z" transform="translate(-265.748 -150.445)" fill="#5c6bc0" opacity="0.25"/>
  <path id="Path_292" data-name="Path 292" d="M1009.055,567.947c-3.609,2.666-18.865,3.871-18.865,3.871s5.627-14.263,9.235-16.937a8.122,8.122,0,1,1,9.662,13.058Z" transform="translate(-264.155 -157.624)" fill="#5c6bc0" opacity="0.25"/>
  <path id="Path_293" data-name="Path 293" d="M982.03,490.856c3.215,3.125,18.208,6.365,18.208,6.365s-3.674-14.895-6.89-18.044a8.123,8.123,0,0,0-11.319,11.655Z" transform="translate(-262.245 -143.886)" fill="#5c6bc0" opacity="0.25"/>
  <path id="Path_294" data-name="Path 294" d="M971.219,536.348c4,2.018,19.275.623,19.275.623s-7.956-13.123-11.967-15.133a8.125,8.125,0,1,0-7.316,14.509Z" transform="translate(-259.94 -151.813)" fill="#5c6bc0" opacity="0.25"/>
  <path id="Path_295" data-name="Path 295" d="M967.507,582.418c3.609,2.666,18.865,3.871,18.865,3.871s-5.594-14.23-9.211-16.929a8.122,8.122,0,1,0-9.662,13.057Z" transform="translate(-259.484 -160.228)" fill="#5c6bc0" opacity="0.25"/>
  <path id="Path_296" data-name="Path 296" d="M272.856,587.593s-10.941-37.147,2.051-64.46a58.677,58.677,0,0,0,4.749-36.811A98.677,98.677,0,0,0,274.439,469" transform="translate(-134.406 -142.469)" fill="none" stroke="#535461" stroke-miterlimit="10" stroke-width="2"/>
  <path id="Path_297" data-name="Path 297" d="M281.974,446.193c0,4.552-8.243,17.757-8.243,17.757s-8.251-13.246-8.251-17.757a8.243,8.243,0,0,1,16.486,0Z" transform="translate(-133.854 -136.887)" fill="#6c63ff"/>
  <path id="Path_298" data-name="Path 298" d="M298.568,475.911C296.107,479.733,282,486.336,282,486.336s.254-15.584,2.731-19.381a8.242,8.242,0,1,1,13.838,8.958Z" transform="translate(-136.824 -141.425)" fill="#6c63ff"/>
  <path id="Path_299" data-name="Path 299" d="M297.182,527.819c-4.1,2.051-19.562.632-19.562.632s8.079-13.3,12.139-15.354a8.244,8.244,0,0,1,7.423,14.723Z" transform="translate(-136.037 -150.239)" fill="#6c63ff"/>
  <path id="Path_300" data-name="Path 300" d="M287.8,567.6c-3.658,2.707-19.176,3.929-19.176,3.929s5.741-14.477,9.375-17.224a8.255,8.255,0,0,1,9.842,13.255Z" transform="translate(-134.419 -157.514)" fill="#6c63ff"/>
  <path id="Path_301" data-name="Path 301" d="M260.343,489.377c3.281,3.174,18.479,6.455,18.479,6.455s-3.724-15.108-6.988-18.282a8.243,8.243,0,1,0-11.483,11.828Z" transform="translate(-132.482 -143.588)" fill="#6c63ff"/>
  <path id="Path_302" data-name="Path 302" d="M249.376,535.579c4.1,2.05,19.562.632,19.562.632s-8.079-13.3-12.139-15.354a8.244,8.244,0,0,0-7.423,14.723Z" transform="translate(-130.143 -151.634)" fill="#6c63ff"/>
  <path id="Path_303" data-name="Path 303" d="M245.6,582.289c3.658,2.707,19.176,3.929,19.176,3.929s-5.741-14.477-9.375-17.224a8.255,8.255,0,1,0-9.842,13.254Z" transform="translate(-129.673 -160.155)" fill="#6c63ff"/>
  <path id="Path_304" data-name="Path 304" d="M281.974,446.193c0,4.552-8.243,17.757-8.243,17.757s-8.251-13.246-8.251-17.757a8.243,8.243,0,0,1,16.486,0Z" transform="translate(-133.854 -136.887)" fill="#8e99f3" opacity="0.5"/>
  <path id="Path_305" data-name="Path 305" d="M298.568,475.911C296.107,479.733,282,486.336,282,486.336s.254-15.584,2.731-19.381a8.242,8.242,0,1,1,13.838,8.958Z" transform="translate(-136.824 -141.425)" fill="#8e99f3" opacity="0.5"/>
  <path id="Path_306" data-name="Path 306" d="M297.182,527.819c-4.1,2.051-19.562.632-19.562.632s8.079-13.3,12.139-15.354a8.244,8.244,0,0,1,7.423,14.723Z" transform="translate(-136.037 -150.239)" fill="#8e99f3" opacity="0.5"/>
  <path id="Path_307" data-name="Path 307" d="M287.8,567.6c-3.658,2.707-19.176,3.929-19.176,3.929s5.741-14.477,9.375-17.224a8.255,8.255,0,0,1,9.842,13.255Z" transform="translate(-134.419 -157.514)" fill="#8e99f3" opacity="0.5"/>
  <path id="Path_308" data-name="Path 308" d="M260.343,489.377c3.281,3.174,18.479,6.455,18.479,6.455s-3.724-15.108-6.988-18.282a8.243,8.243,0,1,0-11.483,11.828Z" transform="translate(-132.482 -143.588)" fill="#8e99f3" opacity="0.5"/>
  <path id="Path_309" data-name="Path 309" d="M249.376,535.579c4.1,2.05,19.562.632,19.562.632s-8.079-13.3-12.139-15.354a8.244,8.244,0,0,0-7.423,14.723Z" transform="translate(-130.143 -151.634)" fill="#8e99f3" opacity="0.5"/>
  <path id="Path_310" data-name="Path 310" d="M245.6,582.289c3.658,2.707,19.176,3.929,19.176,3.929s-5.741-14.477-9.375-17.224a8.255,8.255,0,1,0-9.842,13.254Z" transform="translate(-129.673 -160.155)" fill="#8e99f3" opacity="0.5"/>
  <path id="Path_311" data-name="Path 311" d="M196.971,592.662s-8.333-28.272,1.567-49.146a44.717,44.717,0,0,0,3.617-28.051,75.205,75.205,0,0,0-3.97-13.164" transform="translate(-120.947 -148.457)" fill="none" stroke="#535461" stroke-miterlimit="10" stroke-width="2"/>
  <path id="Path_312" data-name="Path 312" d="M203.925,484.863c0,3.469-6.283,13.533-6.283,13.533s-6.283-10.064-6.283-13.533a6.283,6.283,0,0,1,12.565,0Z" transform="translate(-120.527 -144.192)" fill="#6c63ff"/>
  <path id="Path_313" data-name="Path 313" d="M216.571,507.547c-1.886,2.912-12.631,7.948-12.631,7.948s.2-11.86,2.083-14.764a6.284,6.284,0,1,1,10.548,6.832Z" transform="translate(-122.789 -147.659)" fill="#6c63ff"/>
  <path id="Path_314" data-name="Path 314" d="M215.521,547.1c-3.1,1.558-14.911.484-14.911.484s6.152-10.138,9.252-11.7a6.283,6.283,0,1,1,5.659,11.22Z" transform="translate(-122.19 -154.373)" fill="#6c63ff"/>
  <path id="Path_315" data-name="Path 315" d="M208.346,577.43c-2.789,2.067-14.616,2.994-14.616,2.994s4.355-11.032,7.144-13.123a6.284,6.284,0,1,1,7.472,10.1Z" transform="translate(-120.953 -159.922)" fill="#6c63ff"/>
  <path id="Path_316" data-name="Path 316" d="M187.442,517.813c2.461,2.42,14.083,4.921,14.083,4.921s-2.838-11.483-5.331-13.943a6.285,6.285,0,1,0-8.752,9.022Z" transform="translate(-119.48 -149.305)" fill="#6c63ff"/>
  <path id="Path_317" data-name="Path 317" d="M179.083,553c3.1,1.558,14.911.484,14.911.484s-6.152-10.138-9.252-11.7A6.283,6.283,0,0,0,179.083,553Z" transform="translate(-117.699 -155.434)" fill="#6c63ff"/>
  <path id="Path_318" data-name="Path 318" d="M176.211,588.619c2.789,2.067,14.616,2.994,14.616,2.994s-4.355-11.032-7.144-13.123a6.284,6.284,0,1,0-7.472,10.1Z" transform="translate(-117.346 -161.934)" fill="#6c63ff"/>
  <path id="Path_319" data-name="Path 319" d="M203.925,484.863c0,3.469-6.283,13.533-6.283,13.533s-6.283-10.064-6.283-13.533a6.283,6.283,0,0,1,12.565,0Z" transform="translate(-120.527 -144.192)" fill="#5c6bc0" opacity="0.25"/>
  <path id="Path_320" data-name="Path 320" d="M216.571,507.547c-1.886,2.912-12.631,7.948-12.631,7.948s.2-11.86,2.083-14.764a6.284,6.284,0,1,1,10.548,6.832Z" transform="translate(-122.789 -147.659)" fill="#5c6bc0" opacity="0.25"/>
  <path id="Path_321" data-name="Path 321" d="M215.521,547.1c-3.1,1.558-14.911.484-14.911.484s6.152-10.138,9.252-11.7a6.283,6.283,0,1,1,5.659,11.22Z" transform="translate(-122.19 -154.373)" fill="#5c6bc0" opacity="0.25"/>
  <path id="Path_322" data-name="Path 322" d="M208.346,577.43c-2.789,2.067-14.616,2.994-14.616,2.994s4.355-11.032,7.144-13.123a6.284,6.284,0,1,1,7.472,10.1Z" transform="translate(-120.953 -159.922)" fill="#5c6bc0" opacity="0.25"/>
  <path id="Path_323" data-name="Path 323" d="M187.442,517.813c2.461,2.42,14.083,4.921,14.083,4.921s-2.838-11.483-5.331-13.943a6.285,6.285,0,1,0-8.752,9.022Z" transform="translate(-119.48 -149.305)" fill="#5c6bc0" opacity="0.25"/>
  <path id="Path_324" data-name="Path 324" d="M179.083,553c3.1,1.558,14.911.484,14.911.484s-6.152-10.138-9.252-11.7A6.283,6.283,0,0,0,179.083,553Z" transform="translate(-117.699 -155.434)" fill="#5c6bc0" opacity="0.25"/>
  <path id="Path_325" data-name="Path 325" d="M176.211,588.619c2.789,2.067,14.616,2.994,14.616,2.994s-4.355-11.032-7.144-13.123a6.284,6.284,0,1,0-7.472,10.1Z" transform="translate(-117.346 -161.934)" fill="#5c6bc0" opacity="0.25"/>
  <g id="Group_14" data-name="Group 14" transform="translate(0 65.616)" opacity="0.7">
    <rect id="Rectangle_38" data-name="Rectangle 38" width="812" height="414.202" fill="#5c6bc0" opacity="0.6"/>
    <path id="Path_326" data-name="Path 326" d="M105,150.89V565.912H917V150.89Zm36.089,36.089H492.956V340.357H141.089Zm0,189.467H492.956V529.823H141.089ZM880.911,529.823H529.044V376.446H880.911Zm0-189.467H529.044V186.979H880.911Z" transform="translate(-105 -150.89)" opacity="0.25"/>
  </g>
  <g id="Group_21" data-name="Group 21" transform="translate(181.01 135.96)" opacity="0.7">
    <path id="Path_327" data-name="Path 327" d="M450.4,675.808s-71.062-25.984-80.79,10.589l27.255,69.282,2.92,44.291H459.16V762.413s-8.76-37.532,13.632-60.621Z" transform="translate(-333.587 -314.004)" fill="url(#linear-gradient)"/>
    <g id="Group_15" data-name="Group 15" transform="translate(66.398 154.529)" opacity="0.1">
      <path id="Path_328" data-name="Path 328" d="M468.96,426.151c-3.018-1-6.652-1.895-9.112.1-1.427,1.156-2.042,3.018-3.15,4.478-3.683,4.831-11.106,3.929-16.97,5.659-8.62,2.543-13.943,11.081-16.995,19.447-13.5,36.909,1.55,79.125-10.2,116.608-3.461,11.032-9.121,23.277-3.527,33.423,1.862,3.387,4.921,6.209,5.823,9.949,1.263,5.077-1.173,11.737,3.084,14.829a12.614,12.614,0,0,0,4.6,1.64c9.58,2.526,16.839,9.982,24.139,16.609s16.076,13.041,25.976,12.606a42.294,42.294,0,0,0,9.416-1.87l49.13-13.681c4.921-1.37,10.269-3.026,13.123-7.226,1.747-2.567,2.3-5.741,2.74-8.792a231.64,231.64,0,0,0,2.4-35.211c0-3.888-.18-7.866-1.64-11.483-1.64-4.175-4.921-7.513-7.308-11.327-4.61-7.382-5.848-16.248-6.988-24.836-1.813-13.673-3.625-27.616-1.115-41.182,1.074-5.823,2.928-11.483,4.158-17.265a81.905,81.905,0,0,0,.935-28.65c-1.148-7.915-3.609-15.945-9.022-21.9a22.892,22.892,0,0,0-13.615-7.382c-6.644-.82-9.949,3-15.871,4.429C490.211,437.313,477.383,428.931,468.96,426.151Z" transform="translate(-406.643 -425.058)" fill="url(#linear-gradient-2)"/>
    </g>
    <path id="Path_329" data-name="Path 329" d="M468.96,423.76c-3.018-1-6.652-1.895-9.112.1-1.427,1.156-2.042,3.018-3.15,4.478-3.683,4.831-11.106,3.929-16.97,5.659-8.62,2.543-13.943,11.081-16.995,19.447-13.5,36.909,1.55,79.125-10.2,116.608-3.461,11.032-9.121,23.277-3.527,33.423,1.862,3.387,4.921,6.209,5.823,9.949,1.263,5.077-1.173,11.737,3.084,14.829a12.614,12.614,0,0,0,4.6,1.64c9.58,2.526,16.839,9.982,24.139,16.609s16.06,13.115,25.976,12.656a42.3,42.3,0,0,0,9.416-1.87l49.13-13.681c4.921-1.37,10.269-3.027,13.123-7.226,1.747-2.567,2.3-5.741,2.74-8.793a231.639,231.639,0,0,0,2.4-35.211c0-3.888-.18-7.866-1.64-11.483-1.64-4.175-4.921-7.513-7.308-11.327-4.61-7.382-5.848-16.248-6.988-24.836-1.813-13.673-3.625-27.616-1.115-41.182,1.074-5.823,2.928-11.483,4.158-17.265a81.9,81.9,0,0,0,.935-28.65c-1.148-7.915-3.609-15.945-9.022-21.9a22.892,22.892,0,0,0-13.615-7.382c-6.644-.82-9.949,3-15.871,4.429C490.211,434.915,477.383,426.582,468.96,423.76Z" transform="translate(-340.245 -270.099)" fill="url(#linear-gradient-2)"/>
    <path id="Path_330" data-name="Path 330" d="M462.967,335.134s.976,36.565-10.7,35.6,33.062,60.621,33.062,60.621l37.959-20.21s-22.375-35.6-6.791-57.734S462.967,335.134,462.967,335.134Z" transform="translate(-348.098 -254.315)" fill="url(#linear-gradient-4)"/>
    <g id="Group_16" data-name="Group 16" transform="translate(5.684 139.143)" opacity="0.1">
      <path id="Path_331" data-name="Path 331" d="M376.583,658.791s-7.784,52.928-27.255,38.492-16.552-38.492-16.552-38.492,37.967-102,36.023-117.4S433.6,406.3,433.6,406.3l24.721,196.676S384.367,629.92,376.583,658.791Z" transform="translate(-332.621 -406.3)" fill="url(#linear-gradient-5)"/>
    </g>
    <path id="Path_332" data-name="Path 332" d="M374.213,658.791s-7.784,52.928-27.255,38.492-16.552-38.492-16.552-38.492,37.967-102,36.015-117.4,64.8-135.087,64.8-135.087l24.721,196.676S382,629.92,374.213,658.791Z" transform="translate(-326.51 -267.157)" fill="url(#linear-gradient-5)"/>
    <path id="Path_333" data-name="Path 333" d="M442.5,363.35s-37.967,25.959-52.583,25.016l-11.343,3.084a62.261,62.261,0,0,0-44.931,47.957l-.18.919c-5.823,30.8-7.776,115.484-7.776,115.484s.976,22.146,10.7,27.887l62.335,42.339s-1.944-46.186,21.415-51-5.84-1.927-5.84-1.927l-42.831-25.016s.976-37.532,12.656-50.032S436.7,420.141,436.7,420.141l-11.68-40.411Z" transform="translate(-325.69 -259.434)" fill="url(#linear-gradient-7)"/>
    <g id="Group_17" data-name="Group 17" transform="translate(153.014 128.932)" opacity="0.1">
      <path id="Path_334" data-name="Path 334" d="M517.9,393.85s23.909,6.258,40.649,9.318a16.847,16.847,0,0,1,12.172,9.186c5.052,10.425,12.754,29.281,11.425,45l14.6,56.774,41.83,50.032L600.626,581.5l-42.815-47.153,35.039,89.492-65.222,2.887s-19.472-144.356-14.6-168.4Z" transform="translate(-512.246 -393.85)" fill="url(#linear-gradient-8)"/>
    </g>
    <path id="Path_335" data-name="Path 335" d="M520.272,393.85s23.909,6.258,40.649,9.318a16.847,16.847,0,0,1,12.172,9.186c5.052,10.425,12.754,29.281,11.425,45l14.6,56.774,41.83,50.032L602.99,581.488l-42.831-47.153,35.072,89.5-65.222,2.887s-19.472-144.356-14.6-168.4Z" transform="translate(-359.66 -264.918)" fill="url(#linear-gradient-5)"/>
    <path id="Path_336" data-name="Path 336" d="M354.72,288.72l13.419,65.132-21.9,11.065-12-58.669Z" transform="translate(-241.106 -187.872)" fill="url(#linear-gradient-7)"/>
    <path id="Path_337" data-name="Path 337" d="M404.05,364.823l10.22-41.863,13.148,24.54L420.6,367.71Z" transform="translate(-253.658 -194.028)" fill="url(#linear-gradient-7)"/>
    <path id="Path_338" data-name="Path 338" d="M554.15,460.14s0,65.436,8.76,70.242" transform="translate(-366.767 -276.837)" opacity="0.1" fill="url(#linear-gradient-7)"/>
    <path id="Path_339" data-name="Path 339" d="M397.651,480.08s-20.2,64.443-14.485,71.194" transform="translate(-335.841 -280.422)" opacity="0.1" fill="url(#linear-gradient-13)"/>
    <path id="Path_340" data-name="Path 340" d="M396.31,588s38.943,25.172,44.291,25.574" transform="translate(-338.387 -299.826)" opacity="0.1" fill="url(#linear-gradient-14)"/>
    <g id="Group_18" data-name="Group 18" transform="translate(115.46 84.41)" opacity="0.1">
      <path id="Path_341" data-name="Path 341" d="M466.837,339.824s.148,5.635-.377,12.418a44.8,44.8,0,0,0,41.256,27.067,45.574,45.574,0,0,0,7.177-.574c-.254-7.2,1.132-14.427,5.479-20.6C535.948,335.977,466.837,339.824,466.837,339.824Z" transform="translate(-466.46 -339.569)" fill="url(#linear-gradient-15)"/>
    </g>
    <ellipse id="Ellipse_42" data-name="Ellipse 42" cx="44.775" cy="44.266" rx="44.775" ry="44.266" transform="translate(110.973 31.746)" fill="url(#linear-gradient-7)"/>
    <g id="Group_19" data-name="Group 19" transform="translate(90.592 0.964)" opacity="0.1">
      <path id="Path_342" data-name="Path 342" d="M529.709,294.268c5.422.722,12.3-1.066,13.378-6.381,1.32-6.709-7.759-11.073-9.162-17.774-.525-2.51.1-5.134-.205-7.685-.607-5.134-4.806-9.088-9.08-12.073a70.431,70.431,0,0,0-46.44-12.237c-2.034.189-4.175.517-5.741,1.8-1.788,1.452-2.461,3.814-3.7,5.741-4.2,6.709-13.632,7.5-20.4,11.68-7.915,4.921-11.836,14.493-12.188,23.712s2.3,18.266,4.921,27.124c2.239,7.529,4.585,15.264,9.5,21.432s13.066,10.474,20.784,8.62c-3.535-2.518-.968-8.366,2.863-10.417s8.588-2.4,11.86-5.233,4.257-7.464,5.323-11.68c1.345-5.315,3.281-10.712,7.218-14.591C506.358,288.715,520.26,293.013,529.709,294.268Z" transform="translate(-436.141 -237.83)" fill="url(#linear-gradient-17)"/>
    </g>
    <path id="Path_343" data-name="Path 343" d="M528.5,293.1c5.422.722,12.3-1.066,13.378-6.381,1.321-6.709-7.759-11.073-9.162-17.774-.525-2.51.1-5.134-.205-7.685-.607-5.134-4.806-9.088-9.08-12.073a70.431,70.431,0,0,0-46.407-12.246c-2.034.189-4.175.517-5.741,1.8-1.788,1.452-2.461,3.814-3.7,5.741-4.2,6.709-13.632,7.5-20.4,11.68-7.915,4.921-11.836,14.493-12.188,23.712s2.3,18.266,4.921,27.124c2.239,7.529,4.585,15.264,9.5,21.432s13.066,10.474,20.784,8.62c-3.535-2.518-.968-8.366,2.862-10.417s8.588-2.4,11.86-5.233,4.257-7.464,5.323-11.68c1.345-5.315,3.281-10.712,7.218-14.591C505.17,287.544,519.072,291.834,528.5,293.1Z" transform="translate(-345.337 -236.655)" fill="url(#linear-gradient-18)"/>
    <g id="Group_20" data-name="Group 20" transform="translate(133.849 78.424)" opacity="0.1">
      <path id="Path_344" data-name="Path 344" d="M503.037,335.83c-.656,4.577-2.116,12.5-4.864,17.5a139.978,139.978,0,0,0-9.293,20.308h0s17.93,13.722,27.067,23.1a21.26,21.26,0,0,0,22.326,5.405c4.749-1.706,8.907-5,10.015-11.188a36.374,36.374,0,0,0-2.28-21.465,15.953,15.953,0,0,1-.066-13.123c.673-1.476,1.46-2.633,2.338-2.92,0,0-17.519-3.847-18.5.96s-14.6,9.621-17.52.96l-.82-19.094a4.2,4.2,0,0,0-4.216-4h0a4.2,4.2,0,0,0-4.191,3.56Z" transform="translate(-488.88 -332.27)" fill="url(#linear-gradient-19)"/>
    </g>
    <path id="Path_345" data-name="Path 345" d="M503.037,337.01c-.656,4.577-2.116,12.5-4.864,17.5a139.979,139.979,0,0,0-9.293,20.308h0s17.93,13.722,27.067,23.1a21.26,21.26,0,0,0,22.326,5.405c4.749-1.706,8.907-5,10.015-11.188a36.374,36.374,0,0,0-2.28-21.465,15.953,15.953,0,0,1-.066-13.123c.673-1.476,1.46-2.633,2.338-2.92,0,0-17.519-3.847-18.5.96s-14.6,9.621-17.52.96l-.82-19.094a4.2,4.2,0,0,0-4.216-4h0a4.2,4.2,0,0,0-4.191,3.56Z" transform="translate(-355.031 -254.058)" fill="url(#linear-gradient-20)"/>
  </g>
  <path id="Path_346" data-name="Path 346" d="M452.268,675.095s-68.216-25.229-77.558,10.277l26.164,67.257,2.78,43.036h57V759.206s-8.407-36.442,13.123-58.874Z" transform="translate(-153.493 -177.962)" fill="#535461"/>
  <path id="Path_347" data-name="Path 347" d="M470.089,432.658c-2.9-.968-6.389-1.837-8.743.1-1.37,1.124-1.96,2.928-3.027,4.347-3.535,4.692-10.663,3.814-16.289,5.5-8.276,2.461-13.378,10.761-16.314,18.865C412.757,497.3,427.2,538.308,415.923,574.7c-3.281,10.712-8.752,22.6-3.387,32.455,1.788,3.281,4.7,6.028,5.594,9.662,1.214,4.921-1.124,11.4,2.961,14.4a13,13,0,0,0,4.413,1.64c9.194,2.461,16.166,9.695,23.171,16.133s15.436,12.664,24.934,12.246a40.189,40.189,0,0,0,9.022-1.813l47.162-13.287c4.733-1.337,9.842-2.945,12.607-7.021,1.64-2.461,2.206-5.561,2.633-8.538a227.5,227.5,0,0,0,2.3-34.194c0-3.773-.172-7.636-1.558-11.146-1.64-4.052-4.724-7.292-7.021-11.007-4.421-7.152-5.618-15.781-6.709-24.122-1.739-13.279-3.478-26.821-1.074-39.993,1.033-5.651,2.813-11.147,3.994-16.765a80.446,80.446,0,0,0,.9-27.821c-1.1-7.685-3.469-15.485-8.653-21.268a21.908,21.908,0,0,0-13.074-7.168c-6.381-.82-9.555,2.92-15.239,4.306C490.5,443.46,478.177,435.365,470.089,432.658Z" transform="translate(-159.889 -135.745)" opacity="0.1"/>
  <path id="Path_348" data-name="Path 348" d="M470.089,430.378c-2.9-.968-6.389-1.837-8.743.1-1.37,1.124-1.96,2.928-3.027,4.347-3.535,4.692-10.663,3.814-16.289,5.5-8.276,2.461-13.378,10.761-16.314,18.865-12.959,35.835,1.485,76.845-9.793,113.237-3.281,10.712-8.752,22.6-3.387,32.455,1.788,3.281,4.7,6.028,5.594,9.662,1.214,4.921-1.124,11.4,2.961,14.4a13,13,0,0,0,4.413,1.64c9.194,2.461,16.166,9.695,23.171,16.133s15.436,12.664,24.934,12.246a40.189,40.189,0,0,0,9.022-1.813l47.17-13.279c4.733-1.337,9.842-2.945,12.607-7.021,1.64-2.461,2.206-5.561,2.633-8.538a227.519,227.519,0,0,0,2.3-34.194c0-3.773-.172-7.636-1.558-11.147-1.64-4.052-4.724-7.292-7.021-11.007-4.421-7.152-5.618-15.781-6.709-24.122-1.739-13.279-3.478-26.821-1.074-39.993,1.033-5.651,2.813-11.147,3.994-16.765a80.446,80.446,0,0,0,.9-27.821c-1.1-7.685-3.469-15.485-8.653-21.268a21.908,21.908,0,0,0-13.049-7.193c-6.381-.82-9.555,2.92-15.239,4.306C490.5,441.188,478.177,433.085,470.089,430.378Z" transform="translate(-159.889 -135.335)" fill="#e0e0e0"/>
  <path id="Path_349" data-name="Path 349" d="M464.338,344.275s.935,35.507-10.277,34.572,31.775,58.874,31.775,58.874l36.442-19.627s-21.489-34.572-6.562-56.069S464.338,344.275,464.338,344.275Z" transform="translate(-167.425 -119.999)" fill="#fda57d"/>
  <path id="Path_350" data-name="Path 350" d="M381.409,658.579s-7.472,51.394-26.164,37.377-15.887-37.377-15.887-37.377,36.442-99.056,34.572-114.008S436.166,413.38,436.166,413.38l23.728,190.992S388.881,630.545,381.409,658.579Z" transform="translate(-147.11 -132.469)" opacity="0.1"/>
  <path id="Path_351" data-name="Path 351" d="M379.129,658.579s-7.472,51.394-26.164,37.377-15.887-37.377-15.887-37.377,36.442-99.056,34.571-114.008S433.886,413.38,433.886,413.38l23.728,190.992S386.6,630.545,379.129,658.579Z" transform="translate(-146.7 -132.469)" fill="#4d8af0"/>
  <path id="Path_352" data-name="Path 352" d="M444.69,371.67s-36.442,25.229-50.459,24.294l-10.892,2.994A60.187,60.187,0,0,0,340.2,445.529l-.172.894c-5.61,29.9-7.472,112.138-7.472,112.138s.935,21.489,10.277,27.067l59.8,41.158s-1.87-44.857,20.562-49.524-5.61-1.87-5.61-1.87l-41.117-24.3s.935-36.442,12.147-48.589,50.459-75.688,50.459-75.688l-11.212-39.288Z" transform="translate(-145.915 -124.97)" fill="#4d8af0"/>
  <path id="Path_353" data-name="Path 353" d="M517.072,401.3s22.966,6.078,39.025,9.022a16.19,16.19,0,0,1,11.68,8.924c4.847,10.129,12.237,28.428,10.966,43.7l14.017,55.134,40.19,48.589L596.5,583.516l-41.092-45.784,33.628,86.941-62.614,2.756S507.73,487.257,512.405,463.9Z" transform="translate(-178.116 -130.297)" opacity="0.1"/>
  <path id="Path_354" data-name="Path 354" d="M519.351,401.3s22.966,6.078,39.025,9.022a16.191,16.191,0,0,1,11.68,8.924c4.847,10.13,12.237,28.428,10.966,43.7l14.017,55.134,40.19,48.589-36.442,16.822L557.671,537.7,591.3,624.641l-62.606,2.789S510,487.257,514.675,463.9Z" transform="translate(-178.524 -130.297)" fill="#4d8af0"/>
  <path id="Path_355" data-name="Path 355" d="M356.22,297.16l12.885,63.246-21.03,10.745L336.56,314.179Z" transform="translate(-60.513 -53.429)" fill="#e0e0e0"/>
  <path id="Path_356" data-name="Path 356" d="M403.58,371.059l9.81-40.649L426,354.237l-6.537,19.627Z" transform="translate(-72.563 -59.407)" fill="#e0e0e0"/>
  <path id="Path_357" data-name="Path 357" d="M551.87,465.67s0,63.541,8.407,68.216" transform="translate(-185.346 -141.871)" opacity="0.1"/>
  <path id="Path_358" data-name="Path 358" d="M401.631,485s-19.4,62.581-13.943,69.135" transform="translate(-155.653 -145.346)" opacity="0.1"/>
  <path id="Path_359" data-name="Path 359" d="M400.34,589.85s37.385,24.442,42.519,24.836" transform="translate(-158.102 -164.198)" opacity="0.1"/>
  <path id="Path_360" data-name="Path 360" d="M468.051,348.835s.148,5.471-.361,12.057a43,43,0,0,0,46.5,25.7c-.246-7,1.091-14.009,5.257-20C534.381,345.1,468.051,348.835,468.051,348.835Z" transform="translate(-170.211 -120.819)" opacity="0.1"/>
  <circle id="Ellipse_43" data-name="Ellipse 43" cx="42.987" cy="42.987" r="42.987" transform="translate(293.165 176.622)" fill="#fda57d"/>
  <path id="Path_361" data-name="Path 361" d="M528.4,304.609c5.208.7,11.844-1.042,12.844-6.193,1.271-6.521-7.447-10.753-8.793-17.224-.508-2.461.1-4.987-.2-7.456-.582-4.987-4.618-8.825-8.719-11.721a67.035,67.035,0,0,0-44.578-11.876c-1.952.189-4.011.5-5.52,1.747-1.714,1.411-2.379,3.7-3.551,5.594-4.035,6.512-13.123,7.283-19.578,11.343-7.6,4.749-11.36,14.075-11.7,23.031s2.215,17.741,4.741,26.337c2.149,7.316,4.4,14.821,9.121,20.809s12.549,10.171,19.947,8.366c-3.4-2.461-.927-8.128,2.748-10.113s8.2-2.329,11.393-5.085,4.1-7.251,5.11-11.343c1.3-5.167,3.166-10.4,6.931-14.173C505.991,299.187,519.3,303.387,528.4,304.609Z" transform="translate(-164.976 -103.069)" opacity="0.1"/>
  <path id="Path_362" data-name="Path 362" d="M527.3,303.459c5.208.7,11.844-1.042,12.844-6.193,1.271-6.521-7.448-10.753-8.793-17.224-.509-2.461.1-4.987-.2-7.456-.623-5.028-4.675-8.883-8.776-11.762a67.035,67.035,0,0,0-44.553-11.885c-1.952.189-4.011.5-5.52,1.747-1.714,1.411-2.379,3.7-3.551,5.594-4.035,6.512-13.123,7.283-19.578,11.343-7.6,4.749-11.36,14.075-11.7,23.031s2.215,17.741,4.741,26.337c2.149,7.316,4.4,14.821,9.121,20.809s12.549,10.171,19.947,8.366c-3.4-2.461-.927-8.128,2.748-10.113s8.2-2.329,11.393-5.085,4.1-7.251,5.11-11.343c1.3-5.167,3.166-10.4,6.931-14.173C504.853,298.062,518.2,302.253,527.3,303.459Z" transform="translate(-164.772 -102.854)" fill="#72351c"/>
  <path id="Path_363" data-name="Path 363" d="M502.8,344.948c-.632,4.445-2.034,12.139-4.675,16.995a136.7,136.7,0,0,0-8.924,19.685h0s17.224,13.328,25.959,22.433a20.243,20.243,0,0,0,21.432,5.249c4.56-1.64,8.555-4.864,9.613-10.859a36,36,0,0,0-2.182-20.85,15.658,15.658,0,0,1-.033-12.73c.648-1.435,1.4-2.551,2.247-2.838,0,0-16.822-3.74-17.757.935s-14.017,9.342-16.822.935l-.771-18.545a4.052,4.052,0,0,0-4.052-3.888h0a4.044,4.044,0,0,0-4.035,3.478Z" transform="translate(-174.078 -119.54)" opacity="0.1"/>
  <path id="Path_364" data-name="Path 364" d="M502.8,346.095c-.632,4.445-2.034,12.139-4.675,16.995a136.7,136.7,0,0,0-8.924,19.685h0s17.224,13.328,25.959,22.433a20.243,20.243,0,0,0,21.432,5.249c4.56-1.64,8.555-4.864,9.613-10.859a36,36,0,0,0-2.182-20.85,15.658,15.658,0,0,1-.057-12.762c.648-1.435,1.4-2.551,2.247-2.838,0,0-16.822-3.74-17.757.935s-13.993,9.383-16.822,1l-.771-18.545a4.052,4.052,0,0,0-4.052-3.888h0A4.044,4.044,0,0,0,502.8,346.095Z" transform="translate(-174.078 -119.752)" fill="#72351c"/>
  <path id="Path_365" data-name="Path 365" d="M860,598.846s-16.888-16.9-23.1-39.37h1.452l-.7-1.952h.7l-2.2-6.25c6.225-6.119,10.827-12.049,11.573-15.42,1.263-5.676,2.518-36.384,3.281-57.726l.673.164c1.64-2.805,1.985-6.34,1.87-9.547a37.015,37.015,0,0,0-1.378-10.663l-3.043-30.471a20.784,20.784,0,0,0-8-14.312L810.3,389.375a19.611,19.611,0,0,1,6.053-5.364c1.763-.935,3.814-1.575,5-3.174,2.149-2.9.32-7.21,1.788-10.507,1.1-2.461,3.806-3.839,5.389-6.045,3.24-4.519.894-10.761-1.526-15.764l-14.058-29.06c-3.9-8.046-7.825-16.158-13.271-23.245C783,274.5,750.917,263.7,724.761,273.111c-7.456,2.682-14.321,7.833-17.5,15.083-1.107,2.526-1.772,5.282-3.379,7.521-3.584,5-10.581,5.938-15.584,9.531-6.389,4.618-8.76,13.312-7.866,21.145s4.486,15.067,8.03,22.145c3.724,7.382,7.57,14.985,13.681,20.579,2.854,2.616,6.348,5.044,7.259,8.809.779,3.232-.6,6.562-.312,9.908a10.08,10.08,0,0,0,1.2,3.97c-13.8,1.731-23.6,13.2-27.985,30.257-.271,1.058-.377,1.64-.377,1.64l-1.944,17.667c-.041.763,0,1.5,0,2.231a23.235,23.235,0,0,0,2.461,11.483v62.032L623.384,554.5c-8.858,3.937-6.89,35.424,10.827,41.322S667.683,564.4,667.683,564.4c10.786-.722,28.929-15.108,38.681-26.247a17.773,17.773,0,0,0,5.143,5.356c-7.037,15.863-20.956,48.679-18.733,55.339,1.337,4.019,35.9,4.388,73.26,3.6a17.857,17.857,0,0,0,2.994,1.32c3.986,1.329,7.874.459,11.483-1.681C820.929,600.929,860,598.846,860,598.846ZM810.127,478.563c.82-2.272,3.51-3.51,7.111-4.1v23.925Zm-3.437-84.071h0l.115-.172Z" transform="translate(-197.28 -106.635)" fill="url(#linear-gradient-21)"/>
  <path id="Path_366" data-name="Path 366" d="M719.328,486.455s-1.87,66.346-3.74,74.761-28.953,33.6-42.987,34.572c0,0-14.952,35.507-31.775,29.9s-18.692-35.507-10.277-39.247l56.085-35.515V479.91Z" transform="translate(-198.615 -144.431)" fill="#fdb797"/>
  <path id="Path_367" data-name="Path 367" d="M733.39,587S709.1,639.329,711.9,647.744s158.857,0,158.857,0S841.788,618.775,847.4,587Z" transform="translate(-214.079 -163.686)" fill="#4f9a94"/>
  <path id="Path_368" data-name="Path 368" d="M760.136,396.659s3.74,36.442-2.805,44.857,26.164,13.123,28.97,13.123,32.71-10.277,38.312-13.123,10.277-23.359,10.277-23.359-28.034,5.61-36.442-27.067Z" transform="translate(-222.132 -128.461)" fill="#fdb797"/>
  <path id="Path_369" data-name="Path 369" d="M739.741,283.189c-7.078,2.551-13.607,7.439-16.625,14.329-1.05,2.4-1.681,5.011-3.207,7.144-3.4,4.741-10.047,5.635-14.764,9.022-6.07,4.388-8.317,12.639-7.472,20.087s4.257,14.313,7.62,21.005c3.535,7.029,7.193,14.23,12.992,19.545,2.707,2.461,6.028,4.79,6.89,8.366.738,3.068-.566,6.275-.3,9.416.673,7.767,9.957,11.384,17.708,12.246,3.371.377,7.226.394,9.6-2.026a16.521,16.521,0,0,0,2.592-4.495,21.547,21.547,0,0,1,38.435-.394c1.821,3.494,2.879,7.743,6.184,9.842,5.061,3.281,11.836-.566,15.584-5.307s6.439-10.663,11.762-13.509c1.64-.894,3.625-1.493,4.757-3.018,2.042-2.748.3-6.849,1.7-9.974,1.05-2.354,3.617-3.642,5.118-5.741,3.076-4.29.82-10.22-1.452-14.969l-13.353-27.6c-3.7-7.644-7.431-15.346-12.6-22.08C795.047,284.509,764.576,274.249,739.741,283.189Z" transform="translate(-211.531 -108.478)" fill="#5c6bc0"/>
  <path id="Path_370" data-name="Path 370" d="M773.756,453.168s36.442,0,45.792-33.628l30.676,23.786a19.734,19.734,0,0,1,7.546,13.64l2.9,28.937s3.281,10.745-.468,17.29c0,0-38.779-9.842-39.714,1.4l27.067,75.688s-42.052.935-53.264-6.562c0,0-45.792,9.342-57-.935s-22.424-9.342-13.123-32.71c0,0-18.692-18.692-10.277-44.857s.468.467.468.467-18.151-8.875-17.216-25.738L699,453.127s.1-.558.361-1.558c5.7-22.145,21.005-34.448,42.527-26.607,6.291,2.28,12.721-.336,12.721-.336S747.591,455.038,773.756,453.168Z" transform="translate(-211.458 -133.577)" opacity="0.1"/>
  <path id="Path_371" data-name="Path 371" d="M773.756,450.888s36.442,0,45.792-33.628l30.676,23.786a19.734,19.734,0,0,1,7.546,13.64l2.9,28.937s3.281,10.745-.468,17.29c0,0-38.779-9.842-39.714,1.4L847.549,578s-42.052.935-53.264-6.562c0,0-45.792,9.342-57-.935s-22.424-9.342-13.123-32.71c0,0-18.692-18.692-10.277-44.857s.468.468.468.468-18.151-8.875-17.216-25.7L699,450.888s.1-.558.361-1.558c5.7-22.145,21.005-34.448,42.527-26.607,6.291,2.28,12.721-.336,12.721-.336S747.591,452.758,773.756,450.888Z" transform="translate(-211.458 -133.167)" fill="#252a62"/>
  <path id="Path_372" data-name="Path 372" d="M875.419,495.562s-1.87,66.346-3.74,74.761-28.97,33.628-42.987,34.572c0,0-14.952,35.507-31.775,29.9s-18.692-35.507-10.277-39.247l56.069-35.507V489Z" transform="translate(-226.68 -146.065)" fill="#fdb797"/>
  <path id="Path_373" data-name="Path 373" d="M847,496.887s21.489,14.583,40.19,13.369c0,0,1.87-25.049-3.74-26.452S853.5,483.8,847,496.887Z" transform="translate(-238.41 -145.053)" opacity="0.1"/>
  <path id="Path_374" data-name="Path 374" d="M847,495.747s21.489,14.583,40.19,13.369c0,0,1.87-25.049-3.74-26.451S853.5,482.665,847,495.747Z" transform="translate(-238.41 -144.848)" fill="#252a62"/>
  <path id="Path_375" data-name="Path 375" d="M801.532,393.32l-38.312,5.61s.861,8.432,1.034,18.118a43,43,0,0,0,45.111-7.333A42.039,42.039,0,0,1,801.532,393.32Z" transform="translate(-223.347 -128.862)" opacity="0.1"/>
  <circle id="Ellipse_44" data-name="Ellipse 44" cx="42.987" cy="42.987" r="42.987" transform="translate(512.774 203.722)" fill="#fdb797"/>
  <path id="Path_376" data-name="Path 376" d="M785.349,350.829a13.427,13.427,0,0,1-5.742.82q-11.4-.074-22.793-.82c-5.741-.385-11.893-1.066-16.33-4.749-5.971-4.921-6.914-14.247-3.83-21.366s9.375-12.369,16.019-16.4a47.8,47.8,0,0,1,12.073-5.446c12.3-3.346,25.951.763,35.736,8.965s16.027,20.046,19.332,32.382c1.14,4.265,2.608,9.35,6.832,10.663-2.813,4.675-9.678,5.422-14.6,3.076-7.267-3.453-10.991-16.675-17.511-18.758C787.26,336.853,791.492,348.008,785.349,350.829Z" transform="translate(-218.261 -112.389)" opacity="0.1"/>
  <path id="Path_377" data-name="Path 377" d="M785.349,349.693a13.427,13.427,0,0,1-5.742.82q-11.4-.074-22.793-.82c-5.741-.385-11.893-1.066-16.33-4.749-5.971-4.921-6.914-14.247-3.83-21.366s9.375-12.369,16.019-16.4a47.8,47.8,0,0,1,12.065-5.43c12.3-3.346,25.951.763,35.736,8.965s16.027,20.046,19.332,32.382c1.14,4.265,2.608,9.35,6.832,10.663-2.813,4.675-9.678,5.422-14.6,3.076-7.267-3.453-10.991-16.675-17.511-18.758C787.26,335.717,791.492,346.855,785.349,349.693Z" transform="translate(-218.261 -112.187)" fill="#5c6bc0"/>
  <path id="Path_378" data-name="Path 378" d="M729.61,562.42a165.543,165.543,0,0,1,42.97-5.61" transform="translate(-217.304 -158.257)" opacity="0.1"/>
  <path id="Path_379" data-name="Path 379" d="M844.608,502.13s-14.017,10.277-10.277,15.887" transform="translate(-236.018 -148.426)" opacity="0.1"/>
  <g id="Group_22" data-name="Group 22" transform="translate(245.979 455.557)" opacity="0.7">
    <path id="Path_380" data-name="Path 380" d="M758.729,555.42H299.9v40.124h26.706V721.757H732.975V595.544h25.754Z" transform="translate(-299.9 -555.42)" fill="url(#linear-gradient-22)"/>
  </g>
  <rect id="Rectangle_39" data-name="Rectangle 39" width="398.085" height="142.978" transform="translate(276.818 478.924)" fill="#e0e0e0"/>
  <rect id="Rectangle_40" data-name="Rectangle 40" width="398.085" height="22.424" transform="translate(276.818 486.396)" opacity="0.1"/>
  <rect id="Rectangle_41" data-name="Rectangle 41" width="449.479" height="38.312" transform="translate(250.654 463.037)" fill="#e0e0e0"/>
  <rect id="Rectangle_42" data-name="Rectangle 42" width="85.974" height="12.147" rx="6.074" transform="translate(315.072 453.605)" fill="#535461"/>
  <g id="Group_23" data-name="Group 23" transform="translate(367.401 318.165)" opacity="0.7">
    <rect id="Rectangle_43" data-name="Rectangle 43" width="213.679" height="147.743" rx="28.22" fill="url(#linear-gradient-22)"/>
  </g>
  <rect id="Rectangle_44" data-name="Rectangle 44" width="202.418" height="145.012" rx="26.84" transform="translate(371.207 320.888)" fill="#3e3f49"/>
  <rect id="Rectangle_45" data-name="Rectangle 45" width="202.418" height="145.012" rx="26.84" transform="translate(374.012 320.888)" fill="#535461"/>
  <circle id="Ellipse_45" data-name="Ellipse 45" cx="6.545" cy="6.545" r="6.545" transform="translate(478.129 385.856)" fill="#e0e0e0"/>
  <path id="Path_381" data-name="Path 381" d="M369.58,658.21s5.528,8.112,21.924,10.6" transform="translate(-152.571 -176.489)" opacity="0.1"/>
  <path id="Path_382" data-name="Path 382" d="M535.234,143.7H477V110.89h58.234Zm-55.774-2.461h53.313V113.351H479.461Z" transform="translate(-171.885 -78.082)" fill="#6c63ff" opacity="0.2"/>
  <path id="Path_383" data-name="Path 383" d="M606.234,143.7H548V110.89h58.234Zm-55.774-2.461h53.313V113.351H550.461Z" transform="translate(-184.65 -78.082)" fill="#6c63ff" opacity="0.2"/>
  <path id="Path_384" data-name="Path 384" d="M677.234,143.7H619V110.89h58.234Zm-55.774-2.461h53.313V113.351H621.461Z" transform="translate(-197.416 -78.082)" fill="#6c63ff" opacity="0.2"/>
  <path id="Path_385" data-name="Path 385" d="M748.234,143.7H690V110.89h58.234Zm-55.774-2.461h53.313V113.351H692.461Z" transform="translate(-210.182 -78.082)" fill="#6c63ff" opacity="0.2"/>
  <path id="Path_386" data-name="Path 386" d="M677.234,103.7H619V70.89h58.234Zm-55.774-2.461h53.313V73.351H621.461Z" transform="translate(-197.416 -70.89)" fill="#6c63ff" opacity="0.2"/>
  <path id="Path_387" data-name="Path 387" d="M606.234,103.7H548V70.89h58.234Zm-55.774-2.461h53.313V73.351H550.461Z" transform="translate(-184.65 -70.89)" fill="#6c63ff" opacity="0.2"/>
  <path id="Path_388" data-name="Path 388" d="M272.234,143.7H214V110.89h58.234Zm-55.774-2.461h53.313V113.351H216.461Z" transform="translate(-124.598 -78.082)" fill="#6c63ff" opacity="0.2"/>
  <path id="Path_389" data-name="Path 389" d="M343.234,143.7H285V110.89h58.234Zm-55.774-2.461h53.313V113.351H287.461Z" transform="translate(-137.364 -78.082)" fill="#6c63ff" opacity="0.2"/>
  <path id="Path_390" data-name="Path 390" d="M343.234,103.7H285V70.89h58.234Zm-55.774-2.461h53.313V73.351H287.461Z" transform="translate(-137.364 -70.89)" fill="#6c63ff" opacity="0.2"/>
  <path id="Path_391" data-name="Path 391" d="M892.234,143.7H834V110.89h58.234Zm-55.774-2.461h53.313V113.351H836.461Z" transform="translate(-236.073 -78.082)" fill="#6c63ff" opacity="0.2"/>
  <path id="Path_392" data-name="Path 392" d="M963.234,143.7H905V110.89h58.234Zm-55.774-2.461h53.313V113.351H907.461Z" transform="translate(-248.839 -78.082)" fill="#6c63ff" opacity="0.2"/>
  <path id="Path_393" data-name="Path 393" d="M963.234,103.7H905V70.89h58.234Zm-55.774-2.461h53.313V73.351H907.461Z" transform="translate(-248.839 -70.89)" fill="#6c63ff" opacity="0.2"/>
</svg>
