<svg xmlns="http://www.w3.org/2000/svg" xmlns:xlink="http://www.w3.org/1999/xlink" width="812" height="623.76" viewBox="0 0 812 623.76">
  <defs>
    <linearGradient id="linear-gradient" x1="0.5" y1="1" x2="0.5" gradientUnits="objectBoundingBox">
      <stop offset="0" stop-color="gray" stop-opacity="0.251"/>
      <stop offset="0.54" stop-color="gray" stop-opacity="0.122"/>
      <stop offset="1" stop-color="gray" stop-opacity="0.102"/>
    </linearGradient>
  </defs>
  <g id="Group_3" data-name="Group 3" transform="translate(0 -0.05)">
    <path id="Path_1" data-name="Path 1" d="M856.484,158a166.148,166.148,0,0,0-32.214-43.388l-446.859-3.722L745.326,67.206A242.442,242.442,0,0,0,670.68,54.689C635.261,30.508,589.739,16,540.084,16c-44.552,0-85.749,11.706-119.335,31.567A239.65,239.65,0,0,0,325.1,28.087c-99.287,0-182.017,58.133-200.578,135.23Z" transform="translate(-60.192 -15.95)" fill="#8e99f3" opacity="0.1"/>
    <path id="Path_2" data-name="Path 2" d="M847,279.692a141.562,141.562,0,0,0-13.926-61.022L58.613,287.4a150.572,150.572,0,0,0-18.144,38.739L280.3,356.358,35,378.39c7.38,87.279,95.881,156.191,203.992,156.191,54.418,0,103.864-17.462,140.5-45.939C416.252,517.659,466.172,535.5,521.18,535.5c81.61,0,152.052-39.285,184.856-96.082,65.808-17.663,116.928-62,134.426-117.467L537.168,282.186H847Z" transform="translate(-35 -72.985)" fill="#8e99f3" opacity="0.1"/>
    <ellipse id="Ellipse_1" data-name="Ellipse 1" cx="208.375" cy="9.298" rx="208.375" ry="9.298" transform="translate(150.903 605.213)" fill="#8e99f3" opacity="0.1"/>
    <path id="Path_3" data-name="Path 3" d="M642.013,809.251v5.619H475.84v-4.563A54.612,54.612,0,0,0,479.6,709.44H640.884a54.612,54.612,0,0,0,1.128,99.811Z" transform="translate(-159.059 -211.095)" fill="#c8cad7"/>
    <path id="Path_4" data-name="Path 4" d="M642.359,709.44a54.691,54.691,0,0,0-30.18,36.209H511.261A54.705,54.705,0,0,0,481.08,709.44Z" transform="translate(-160.534 -211.095)" opacity="0.1"/>
    <path id="Path_5" data-name="Path 5" d="M211,669.6v31.546c0,17.419,12.748,31.539,28.477,31.539H728.417c15.73,0,28.477-14.12,28.477-31.539V669.6Z" transform="translate(-84.529 -199.883)" fill="#c8cad7"/>
    <path id="Path_6" data-name="Path 6" d="M642.013,846.08V851.7H475.84v-4.563a54.609,54.609,0,0,0,12.812-6.827H631.823a54.889,54.889,0,0,0,10.19,5.77Z" transform="translate(-159.059 -247.924)" opacity="0.1"/>
    <rect id="Rectangle_5" data-name="Rectangle 5" width="276.001" height="16.65" rx="8.325" transform="translate(261.866 594.139)" fill="#c8cad7"/>
    <path id="Path_7" data-name="Path 7" d="M756.894,177.434A28.47,28.47,0,0,0,728.417,149H239.5A28.47,28.47,0,0,0,211,177.434v351.8H756.894Z" transform="translate(-84.529 -53.378)" fill="#474157"/>
    <path id="Path_8" data-name="Path 8" d="M747.876,200.76V503.046a14.012,14.012,0,0,1-14.02,14.02H245.78a14.012,14.012,0,0,1-14.02-14.02V200.76a14.02,14.02,0,0,1,14.02-14.02H733.82a14.02,14.02,0,0,1,14.056,14.02Z" transform="translate(-90.371 -63.999)" fill="#4c4c78"/>
    <circle id="Ellipse_2" data-name="Ellipse 2" cx="6.575" cy="6.575" r="6.575" transform="translate(392.85 102.585)" fill="#fff"/>
    <circle id="Ellipse_3" data-name="Ellipse 3" cx="16.211" cy="16.211" r="16.211" transform="translate(383.214 486.366)" fill="#fff"/>
    <path id="Path_9" data-name="Path 9" d="M340.82,196.5V519.813H245.78a14.012,14.012,0,0,1-14.02-14.02V203.506l.51-1.9,1.365-5.1Z" transform="translate(-90.371 -66.746)" fill="#fff"/>
    <path id="Path_10" data-name="Path 10" d="M318.014,187.65v29.1H196.76v-27.2l.51-1.9Z" transform="translate(-55.371 -52.794)" fill="#4c4c78"/>
    <path id="Path_11" data-name="Path 11" d="M747.876,200.762H231.76a14.012,14.012,0,0,1,14.02-14.012H733.82a14.012,14.012,0,0,1,14.055,14.012Z" transform="translate(-90.371 -64.002)" fill="#c8cad7"/>
    <circle id="Ellipse_4" data-name="Ellipse 4" cx="3.507" cy="3.507" r="3.507" transform="translate(151.902 126.248)" fill="#ededf4"/>
    <circle id="Ellipse_5" data-name="Ellipse 5" cx="3.507" cy="3.507" r="3.507" transform="translate(162.414 126.248)" fill="#ededf4"/>
    <circle id="Ellipse_6" data-name="Ellipse 6" cx="3.507" cy="3.507" r="3.507" transform="translate(172.927 126.248)" fill="#ededf4"/>
    <rect id="Rectangle_6" data-name="Rectangle 6" width="72.814" height="6.704" transform="translate(159.511 147.669)" fill="#5c6bc0"/>
    <rect id="Rectangle_7" data-name="Rectangle 7" width="72.814" height="6.704" transform="translate(159.511 180.364)" fill="#8e99f3" opacity="0.5"/>
    <rect id="Rectangle_8" data-name="Rectangle 8" width="72.814" height="6.704" transform="translate(159.511 203.481)" fill="#8e99f3" opacity="0.5"/>
    <rect id="Rectangle_9" data-name="Rectangle 9" width="72.814" height="6.704" transform="translate(159.511 226.598)" fill="#8e99f3" opacity="0.5"/>
    <rect id="Rectangle_10" data-name="Rectangle 10" width="72.814" height="6.704" transform="translate(159.511 249.708)" fill="#8e99f3" opacity="0.5"/>
    <rect id="Rectangle_11" data-name="Rectangle 11" width="72.814" height="6.704" transform="translate(159.511 272.825)" fill="#8e99f3" opacity="0.5"/>
    <rect id="Rectangle_12" data-name="Rectangle 12" width="72.814" height="6.704" transform="translate(159.511 295.941)" fill="#8e99f3" opacity="0.5"/>
    <rect id="Rectangle_13" data-name="Rectangle 13" width="72.814" height="6.704" transform="translate(159.511 319.051)" fill="#8e99f3" opacity="0.5"/>
    <rect id="Rectangle_14" data-name="Rectangle 14" width="322.651" height="1.078" transform="translate(310.062 172.323)" fill="#dce0ed" opacity="0.5"/>
    <rect id="Rectangle_15" data-name="Rectangle 15" width="322.651" height="1.078" transform="translate(310.062 197.352)" fill="#dce0ed" opacity="0.5"/>
    <rect id="Rectangle_16" data-name="Rectangle 16" width="322.651" height="1.078" transform="translate(310.062 222.387)" fill="#dce0ed" opacity="0.5"/>
    <rect id="Rectangle_17" data-name="Rectangle 17" width="322.651" height="1.078" transform="translate(310.062 247.415)" fill="#dce0ed" opacity="0.5"/>
    <rect id="Rectangle_18" data-name="Rectangle 18" width="322.651" height="1.078" transform="translate(310.062 272.444)" fill="#dce0ed" opacity="0.5"/>
    <path id="Path_12" data-name="Path 12" d="M753.994,346.955H430.94V297.732l29.627,14.6,30.662,4.153,26.9-8.113L550.592,283.2l16.326-9.428,11.936-2.3,11.418.611,18.784,9.277,25.524,16.262,20.034,2.58,15.888-5.476,33.666-27.579,17.189-6.13,17.986,2.781,14.652,8.458Z" transform="translate(-121.273 -73.441)" fill="#6c63ff" opacity="0.5"/>
    <path id="Path_13" data-name="Path 13" d="M522.248,332.39c-29.088,0-55.978-17.792-56.308-18.022l.8-1.193c.417.28,41.793,27.658,76.953,13.941,12.834-4.994,21.945-12.776,30.8-20.293,9.219-7.854,17.929-15.277,29.793-18.5a44.57,44.57,0,0,1,39.8,8.939c9.658,7.94,28.9,20.7,49.23,16.88,10.362-1.94,19.1-9.514,28.348-17.526,17.706-15.378,36.073-31.251,67.755-8.458l-.841,1.164c-30.791-22.125-48.691-6.618-65.995,8.379-9.4,8.149-18.281,15.809-29.024,17.857-20.911,3.916-40.557-9.083-50.409-17.181a43.147,43.147,0,0,0-38.5-8.659c-11.562,3.133-20.12,10.448-29.239,18.195-8.918,7.6-18.144,15.457-31.187,20.544A60.275,60.275,0,0,1,522.248,332.39Z" transform="translate(-156.273 -89.329)" fill="#6c63ff"/>
    <circle id="Ellipse_7" data-name="Ellipse 7" cx="7.998" cy="7.998" r="7.998" transform="translate(457.321 189.893)" fill="#6c63ff"/>
    <path id="Path_14" data-name="Path 14" d="M364.873,510.455c-10.93-6.295-15.09-7.854-15.09-7.861l-.223-.158a9.1,9.1,0,0,1-2.759-3.485V498.3c.18-3.334,2.544-6.359,4.793-9q2.874-3.385,5.749-6.762a6.6,6.6,0,0,0,1.48-2.4,5.385,5.385,0,0,0,.158-1.437v-.589c0-1.681-.079-3.363-.137-5.03-.057-1.473-.431-3.32-1.9-3.593-.762-.158-1.768.115-2.156-.539a1.207,1.207,0,0,1-.1-.87v.065a.368.368,0,0,1,0-.079,19.868,19.868,0,0,0,.546-3.456,4.959,4.959,0,0,0-.237-1.746c-.855-2.436-3.78-3.435-6.367-3.895s-5.49-.855-7.114-2.874a23.5,23.5,0,0,0-1.437-1.947,5.663,5.663,0,0,0-2.652-1.308,14.889,14.889,0,0,0-9.615.841c-1.25.56-2.508,1.308-3.88,1.229s-2.644-1.078-4.053-1.315c-2.271-.388-4.448,1.286-5.569,3.262a7.905,7.905,0,0,0-1.028,3.844v.223h0a5.648,5.648,0,0,0,1.48,3.923c.977,1.02,2.436,1.717,2.874,3.054.165.546.129,1.135.273,1.681a.774.774,0,0,0,.065.208l-.079.093a17.081,17.081,0,0,0-3.593,10.506,17.433,17.433,0,0,0,12.216,16.527q0,.248,0,.517a7.43,7.43,0,0,1-2.371,5.785l-15.507,6.223s-9.342-1.107-12.7,12.539a23.108,23.108,0,0,0-.575,6.92A20.315,20.315,0,0,1,292.8,539.27c-3.83,7.5-2.961,24.712,4.872,26.415,7.394,1.61,10.29.941,10.592.862v.3c-.122,3.234-1.293,31.086-5.555,34.492-1.186.927-.963,1.559,0,1.983v.5c-.129,2.041-.79,9.794-3.643,14.214-3.277,5.095-2.9,34.557-2.9,34.557l-2.256,17.383s1.387,10.736,0,12.611c-1.243,1.674-2.874,41.4-3.248,50.006h-.144a4.189,4.189,0,0,0-3.349,2.041c-1.854,2.975-8.249,8.458-8.249,8.458-1.387,1.976-6.532,3.866-9.248,4.757a5.928,5.928,0,0,0-1.049.453,5.519,5.519,0,0,0-2.335,2.458,2.63,2.63,0,0,0-.244,2.048c.719,1.7,15.141,2.874,18.791,1.193,2.874-1.337,14.257-3.1,18.985-3.794a3.9,3.9,0,0,0,3.377-3.377,2.227,2.227,0,0,0-.431-1.689h0c-.905-1.121-1.373-4.182-1.581-6.18a4.2,4.2,0,0,0,1.064-.632,45.336,45.336,0,0,1,2.608-18.238c3.478-9.2,4.527-26.243,3.658-37.323,0,0,10.613-45.68,18.971-49.942h0c.129.158,4.182,5.361,4.7,21.471.517,16.362,6.431,27.1,6.431,27.1s-2.608,27.78,0,38.178l-3.428,16.377a5.329,5.329,0,0,1-.41-.374s.1.46.244,1.186l-.072.345.144.036a31.694,31.694,0,0,1,.719,7.718c-.137,1.2-.467,2.831-.719,4.441-.359,2.522-.46,4.973.869,5.5,2.156.877,14.968,2.077,17.145-.719a4.031,4.031,0,0,0,.632-4.211,4.313,4.313,0,0,0-.632-1.071s-3.4-5.555-2.436-9.471a2.875,2.875,0,0,0-.41-2.242,115.744,115.744,0,0,1,2.982-18.388c2.156-8.2,6.769-26.178,3.392-38.006h0c-.129-.46-.273-.92-.431-1.365a51.02,51.02,0,0,1-1.919-19.941,40.536,40.536,0,0,1,0-17.383c2.07-9.536,3.528-18.877,3.528-18.877s1.15-12.611.144-20.343l-.065-.5.546-.122s-2.953-13.121-4-21.471c-.244-1.976-.568-4.47-.92-7.135a18.845,18.845,0,0,0,2.838-.719c9.4-3.241,12.353-32.559,12.353-32.559v-9.3S375.838,516.786,364.873,510.455ZM294.861,736.809l-.46-.244h0Z" transform="translate(-99.988 -138.761)" fill="url(#linear-gradient)"/>
    <path id="Path_15" data-name="Path 15" d="M369.122,735.975c4.074,11.72-.719,30.741-2.874,39.235a119.075,119.075,0,0,0-2.874,18.683,39.524,39.524,0,0,1-14.947-.345l3.593-17.49c-2.544-10.362,0-38.049,0-38.049S346.271,727.3,345.739,711c-.5-16.046-4.455-21.234-4.585-21.4h0c-8.213,4.268-18.547,49.776-18.547,49.776.848,11.037-.172,28.025-3.593,37.2a46.025,46.025,0,0,0-2.551,18.173,5.606,5.606,0,0,1-4.62.884c-4.85-.783-10.664-4.965-10.664-4.965s1.868-49.582,3.226-51.465,0-12.568,0-12.568l2.206-17.325s-.338-29.383,2.874-34.492c2.788-4.4,3.428-12.137,3.557-14.163v-.5l4.915-5.885s47.563-3.593,51.127,0c.877.877,1.437,2.874,1.739,5.375.977,7.7-.144,20.271-.144,20.271s-1.437,9.342-3.464,18.848a41.247,41.247,0,0,0,0,17.325,51.739,51.739,0,0,0,1.9,19.89Z" transform="translate(-109.907 -195.118)" fill="#65617d"/>
    <path id="Path_16" data-name="Path 16" d="M384.574,864.016c-2.12,2.8-14.6,1.617-16.729.719-1.3-.539-1.2-2.975-.848-5.49.223-1.6.546-3.234.675-4.419.345-3.061-1.013-9.263-1.013-9.263s2.8,2.975,3.478,0a3.234,3.234,0,0,1,2.422-2.3,6.353,6.353,0,0,1,4.412.273c2.206.956,5.885,3,5.224,5.749-.934,3.9,2.379,9.435,2.379,9.435a4.258,4.258,0,0,1,.618,1.071,4.074,4.074,0,0,1-.618,4.225Z" transform="translate(-128.334 -248.679)" fill="#a27772"/>
    <path id="Path_17" data-name="Path 17" d="M384.617,870.381c-2.12,2.8-14.6,1.617-16.729.719-1.3-.539-1.2-2.975-.848-5.49,1.336.625,3.593,1.15,7.416.8a20.767,20.767,0,0,1,2.673-.086,61.1,61.1,0,0,0,8.106-.158,4.074,4.074,0,0,1-.618,4.218Z" transform="translate(-128.377 -255.044)" opacity="0.1"/>
    <path id="Path_18" data-name="Path 18" d="M326.784,752.559c.848,11.037-.172,28.025-3.593,37.2a46.025,46.025,0,0,0-2.551,18.173,5.606,5.606,0,0,1-4.62.884c1.028-7.186,5.389-38.035,8.192-62.416A102.06,102.06,0,0,1,342.3,699.52l2.975,3.269C337.118,707.051,326.784,752.559,326.784,752.559Z" transform="translate(-114.084 -208.304)" opacity="0.1"/>
    <path id="Path_19" data-name="Path 19" d="M370.943,516.919l-2.077,10.19-10.154,17.074-12.525-5.353s-17.03-17.835-6.331-20.379a9.436,9.436,0,0,0,3.557-1.581,7.369,7.369,0,0,0,2.774-6.144,18.892,18.892,0,0,0-1.739-7.308l21.91-6.877a34.866,34.866,0,0,0-1.574,8.874c-.165,5.964,2.048,8.911,3.866,10.312a6.511,6.511,0,0,0,2.292,1.193Z" transform="translate(-119.798 -151.182)" fill="#fbbebe"/>
    <path id="Path_20" data-name="Path 20" d="M369.54,496.54a34.869,34.869,0,0,0-1.574,8.874,17.318,17.318,0,0,1-18.6,5.31,18.892,18.892,0,0,0-1.739-7.308Z" transform="translate(-122.979 -151.182)" opacity="0.1"/>
    <path id="Path_21" data-name="Path 21" d="M368.04,485.855a17.282,17.282,0,1,1-5.062-12.263A17.325,17.325,0,0,1,368.04,485.855Z" transform="translate(-118.972 -143.299)" fill="#fbbebe"/>
    <path id="Path_22" data-name="Path 22" d="M370.943,524.433l-2.077,10.19L358.713,551.7l-12.525-5.354s-17.03-17.835-6.331-20.379a9.435,9.435,0,0,0,3.557-1.581c-1.933,5.31,6.043,16.355,6.043,16.355.927,1.365,3.061.51,3.061.51,5.131-.776,14.594-15.55,16.132-18.008A6.508,6.508,0,0,0,370.943,524.433Z" transform="translate(-119.798 -158.695)" opacity="0.1"/>
    <path id="Path_23" data-name="Path 23" d="M375.513,659.671c-3.018.719-19.7,4.376-26.027,3.456-6.963-1.02-20.508-1.7-20.508-1.7s-8.623.46-11.267-.719v-.5l4.915-5.885s47.563-3.593,51.127,0C374.687,655.173,375.19,657.163,375.513,659.671Z" transform="translate(-114.559 -195.135)" opacity="0.1"/>
    <path id="Path_24" data-name="Path 24" d="M339.589,541.3s-8.961-12.41-5.583-17.246l-15.141,6.209s-9.112-1.107-12.4,12.489a23.715,23.715,0,0,0-.568,6.906,20.545,20.545,0,0,1-2.493,10.326c-3.737,7.473-2.874,24.633,4.757,26.329s10.362.848,10.362.848-1.02,31.086-5.432,34.65,11.26,2.716,11.26,2.716,13.538.719,20.5,1.7,26.494-3.593,26.494-3.593-2.874-13.078-3.909-21.4S364.05,575.2,364.05,575.2l17.325-23.469s3.054-14.185-7.646-20.465S359,523.43,359,523.43s-10.779,17.512-16.355,18.36C342.643,541.8,340.516,542.667,339.589,541.3Z" transform="translate(-109.93 -158.749)" fill="#4f9a94"/>
    <path id="Path_25" data-name="Path 25" d="M325.812,555.16s-.165,5.6.855,7.811,4.75,14.436,4.75,14.436H322.93s4.585-4.922,4.247-7.3S325.812,555.16,325.812,555.16Z" transform="translate(-116.028 -167.678)" opacity="0.1"/>
    <path id="Path_26" data-name="Path 26" d="M351.329,604.677s-18.755-4.585-20.5-8.487-6.568-12.654-6.568-12.654l1.976-2.666,9.126,7.186s10.872,8.623,15.967,9.514S351.329,604.677,351.329,604.677Z" transform="translate(-116.402 -174.913)" fill="#fbbebe"/>
    <path id="Path_27" data-name="Path 27" d="M351.329,604.677s-18.755-4.585-20.5-8.487-6.568-12.654-6.568-12.654l1.976-2.666,9.126,7.186s10.872,8.623,15.967,9.514S351.329,604.677,351.329,604.677Z" transform="translate(-116.402 -174.913)" opacity="0.05"/>
    <path id="Path_28" data-name="Path 28" d="M371.228,583.248v10.175H369.59A47.6,47.6,0,0,0,346.5,599.4l-3.061,1.7-.826.46L337.34,589.7l4.929-4.419h.252c1.207.115,6.417.546,8.623-.194s4.707-2.975,10.879-1.394c3.047.776,5.641,4.189,8.623,3.126Z" transform="translate(-120.083 -175.552)" fill="#fbbebe"/>
    <path id="Path_29" data-name="Path 29" d="M392.825,552.995l3.4,3.823v9.255s-2.874,29.218-12.058,32.444-25.546-1.868-25.546-1.868-4.232-11.21-2.256-11.893,17.49-4.771,17.49-4.771-.223-17.138,3.176-22.233c0,0-2.206-15.967,5.432-16.3S392.825,552.995,392.825,552.995Z" transform="translate(-125.289 -163.817)" opacity="0.1"/>
    <path id="Path_30" data-name="Path 30" d="M393.515,552.995l3.4,3.823v9.255s-2.874,29.218-12.065,32.444-25.539-1.868-25.539-1.868-4.232-11.21-2.256-11.893,17.483-4.771,17.483-4.771-.216-17.138,3.183-22.233c0,0-2.213-15.967,5.432-16.3S393.515,552.995,393.515,552.995Z" transform="translate(-125.483 -163.817)" fill="#4f9a94"/>
    <path id="Path_31" data-name="Path 31" d="M364.68,493.2a6.69,6.69,0,0,0-.388-3.305,2.537,2.537,0,0,0-2.688-1.552c-1.437.338-2.084,2.228-3.507,2.68a2.784,2.784,0,0,1-3.09-1.588,8.12,8.12,0,0,1-.589-3.694v-4.261c0-1.545-.05-3.212-1.006-4.427-1.186-1.509-3.967-2.156-5.821-2.105a4.937,4.937,0,0,0-3.327,1.337,4.311,4.311,0,0,1-3.5,1.25,3.025,3.025,0,0,1-2.436-2.113.173.173,0,0,1,0-.057A17.325,17.325,0,1,1,364.1,498.363,47.98,47.98,0,0,0,364.68,493.2Z" transform="translate(-120.361 -143.289)" opacity="0.1"/>
    <path id="Path_32" data-name="Path 32" d="M339,472.9a3.047,3.047,0,0,1-2.443-2.113c-.137-.546-.1-1.135-.266-1.674-.4-1.337-1.818-2.034-2.774-3.047-1.911-2.026-1.789-5.368-.438-7.811,1.1-1.969,3.219-3.629,5.44-3.248,1.372.244,2.558,1.222,3.952,1.308s2.565-.661,3.787-1.222a14.257,14.257,0,0,1,9.385-.834,5.432,5.432,0,0,1,2.587,1.3,21.982,21.982,0,0,1,1.38,1.94c1.581,2.019,4.419,2.414,6.942,2.874s5.382,1.437,6.209,3.888c.553,1.61,0,3.356-.295,5.03a1.437,1.437,0,0,0,.065,1.042c.4.654,1.38.381,2.156.532,1.437.3,1.8,2.156,1.847,3.593q.1,2.5.137,5.03a6.468,6.468,0,0,1-.144,1.861,6.589,6.589,0,0,1-1.437,2.335l-5.612,6.74c-2.486,2.989-5.124,6.467-4.628,10.326-1.178.525-2.573-.489-2.961-1.725a7.614,7.614,0,0,1,.187-3.823,46.97,46.97,0,0,0,.884-6.632,6.712,6.712,0,0,0-.388-3.313,2.544,2.544,0,0,0-2.695-1.552c-1.437.338-2.077,2.228-3.5,2.68a2.775,2.775,0,0,1-3.09-1.588,8.214,8.214,0,0,1-.589-3.694v-4.261c0-1.545-.05-3.212-1.006-4.426-1.178-1.509-3.967-2.156-5.821-2.105a4.937,4.937,0,0,0-3.327,1.337A4.312,4.312,0,0,1,339,472.9Z" transform="translate(-118.6 -139.16)" fill="#7c5c5c"/>
    <path id="Path_33" data-name="Path 33" d="M347.15,554.57l5.325,21.845S356.664,576.393,347.15,554.57Z" transform="translate(-122.844 -167.512)" opacity="0.1"/>
    <path id="Path_34" data-name="Path 34" d="M370.54,549.48s-6.97,11.411-4.247,23.2l1.293.093S365.272,567.315,370.54,549.48Z" transform="translate(-128.053 -166.08)" opacity="0.1"/>
    <path id="Path_35" data-name="Path 35" d="M378.59,639.072s8.551-2.831,9.176,3.737C387.766,642.809,386.15,638.3,378.59,639.072Z" transform="translate(-131.692 -191.122)" opacity="0.1"/>
    <path id="Path_36" data-name="Path 36" d="M338.479,586.83s-1.7,11.893,1.358,16.65a37.325,37.325,0,0,1-14.947,2.034l-1.02-18.683Z" transform="translate(-116.293 -176.591)" opacity="0.1"/>
    <path id="Path_37" data-name="Path 37" d="M343.434,601.936l-.826.46-5.267-11.857,4.929-4.419h.252C342.442,586.695,341.07,596.906,343.434,601.936Z" transform="translate(-120.083 -176.391)" opacity="0.1"/>
    <path id="Path_38" data-name="Path 38" d="M336.551,586.12s-1.7,11.893,1.358,16.65a37.325,37.325,0,0,1-14.947,2.034L317.02,586.12Z" transform="translate(-114.365 -176.391)" fill="#4f9a94"/>
    <path id="Path_39" data-name="Path 39" d="M307.979,856.642a3.837,3.837,0,0,1-3.3,3.363c-4.606.719-15.723,2.443-18.525,3.78-3.593,1.7-17.663.51-18.345-1.186a2.694,2.694,0,0,1,.244-2.048,5.6,5.6,0,0,1,3.3-2.874c2.659-.891,7.674-2.766,9.025-4.735,0,0,6.252-5.476,8.034-8.429a4.067,4.067,0,0,1,3.27-2.034c1.487-.072,3.14.683,3.823,3.938,0,0,8.149,4.649,10.355.575,0,0,.338,6.259,1.689,7.976h0A2.249,2.249,0,0,1,307.979,856.642Z" transform="translate(-100.488 -248.533)" fill="#a27772"/>
    <path id="Path_40" data-name="Path 40" d="M307.979,861.526a3.837,3.837,0,0,1-3.3,3.363c-4.606.719-15.723,2.443-18.525,3.78-3.593,1.7-17.663.51-18.345-1.186a2.7,2.7,0,0,1,.244-2.048,5.439,5.439,0,0,1,2.278-2.443c2.3,1.523,7.4,3.018,18.626,1.265,10.707-1.674,16-3.313,18.59-4.426h0A2.249,2.249,0,0,1,307.979,861.526Z" transform="translate(-100.488 -253.417)" opacity="0.1"/>
    <g id="Group_1" data-name="Group 1" transform="translate(213.462 322.709)" opacity="0.1">
      <path id="Path_41" data-name="Path 41" d="M388.231,474.128a.361.361,0,0,0,0-.086,15.486,15.486,0,0,0,.525-3.852,24.346,24.346,0,0,1-.525,3.09A1.883,1.883,0,0,0,388.231,474.128Z" transform="translate(-347.854 -466.475)"/>
      <path id="Path_42" data-name="Path 42" d="M362.528,488.568a5.031,5.031,0,0,1,.417,1.94,5.828,5.828,0,0,0-.417-2.7,2.551,2.551,0,0,0-2.695-1.559c-1.437.338-2.077,2.235-3.5,2.688a2.789,2.789,0,0,1-3.09-1.6,8.026,8.026,0,0,1-.589-3.694v-4.254c0-1.545-.05-3.212-1.006-4.427-1.186-1.516-3.967-2.156-5.828-2.113a4.907,4.907,0,0,0-3.32,1.344,4.311,4.311,0,0,1-3.5,1.243,3.011,3.011,0,0,1-2.443-2.113c-.144-.546-.1-1.128-.266-1.674-.4-1.337-1.818-2.026-2.774-3.04a5.59,5.59,0,0,1-1.437-3.593,5.813,5.813,0,0,0,1.437,4.355c.956,1.013,2.379,1.71,2.774,3.047.165.539.122,1.128.266,1.674A3.04,3.04,0,0,0,339,476.208a4.312,4.312,0,0,0,3.5-1.25,4.98,4.98,0,0,1,3.313-1.329c1.861-.057,4.642.6,5.828,2.113.956,1.214,1,2.874,1.006,4.426v4.254a8.041,8.041,0,0,0,.589,3.7,2.784,2.784,0,0,0,3.09,1.588c1.437-.453,2.048-2.343,3.5-2.687A2.565,2.565,0,0,1,362.528,488.568Z" transform="translate(-332.06 -465.02)"/>
      <path id="Path_43" data-name="Path 43" d="M389.294,490.849a6.682,6.682,0,0,1-1.437,2.343q-2.817,3.363-5.612,6.733c-2.357,2.838-4.858,6.122-4.678,9.744.172-3.32,2.486-6.338,4.678-8.975l5.612-6.74a6.654,6.654,0,0,0,1.437-2.335,6.466,6.466,0,0,0,.144-1.868A4.661,4.661,0,0,1,389.294,490.849Z" transform="translate(-344.863 -471.979)"/>
      <path id="Path_44" data-name="Path 44" d="M373.436,515.533a4.009,4.009,0,0,1-.172-.913,4.548,4.548,0,0,0,.172,1.674c.381,1.236,1.782,2.249,2.961,1.725,0-.252-.05-.5-.057-.719C375.175,517.767,373.788,516.74,373.436,515.533Z" transform="translate(-343.651 -478.978)"/>
    </g>
    <path id="Path_45" data-name="Path 45" d="M295,847.42s1.775,3.119,8.213.366" transform="translate(-108.168 -249.925)" opacity="0.1"/>
    <path id="Path_46" data-name="Path 46" d="M370.65,848.46s5.555,6.532,12.547,2.156" transform="translate(-129.457 -250.218)" opacity="0.1"/>
    <path id="Path_47" data-name="Path 47" d="M391.541,740.94s-3.923,2.45-4.053,3.852,2.026-1.02,2.026-1.02Z" transform="translate(-134.194 -219.96)" opacity="0.1"/>
    <path id="Path_48" data-name="Path 48" d="M392.524,767.08a8.141,8.141,0,0,1-4.829,1.883c-2.932.129-2.687,3.952-.769,2.8A48.235,48.235,0,0,0,392.524,767.08Z" transform="translate(-133.632 -227.316)" opacity="0.1"/>
    <path id="Path_49" data-name="Path 49" d="M394.983,770.49s-1.883,9.241-3.413,7.459" transform="translate(-135.344 -228.276)" opacity="0.1"/>
    <g id="Group_2" data-name="Group 2" transform="translate(338.575 329.593)" opacity="0.5">
      <rect id="Rectangle_19" data-name="Rectangle 19" width="47.427" height="10.06" fill="#dce0ed"/>
      <rect id="Rectangle_20" data-name="Rectangle 20" width="47.427" height="10.06" transform="translate(108.901)" fill="#dce0ed"/>
      <rect id="Rectangle_21" data-name="Rectangle 21" width="47.427" height="10.06" transform="translate(217.803)" fill="#dce0ed"/>
    </g>
    <ellipse id="Ellipse_8" data-name="Ellipse 8" cx="19.351" cy="3.27" rx="19.351" ry="3.27" transform="translate(665.265 572.539)" fill="#6c63ff" opacity="0.1"/>
    <ellipse id="Ellipse_9" data-name="Ellipse 9" cx="19.351" cy="3.27" rx="19.351" ry="3.27" transform="translate(63.444 613.821)" fill="#6c63ff" opacity="0.1"/>
    <ellipse id="Ellipse_10" data-name="Ellipse 10" cx="28.894" cy="4.886" rx="28.894" ry="4.886" transform="translate(613.369 605.96)" fill="#5c6bc0"/>
    <path id="Path_50" data-name="Path 50" d="M934.946,849.674a8.365,8.365,0,0,0,2.752-4.161,3.691,3.691,0,0,0-1.919-4.232c-1.768-.675-3.658.546-5.095,1.789s-3.068,2.644-4.944,2.386a7.545,7.545,0,0,0,2.328-7.049,2.932,2.932,0,0,0-.647-1.437c-.984-1.049-2.759-.6-3.938.223-3.737,2.63-4.779,7.7-4.8,12.273a23.069,23.069,0,0,1-.065-5.03c-.007-1.667-.474-3.593-1.9-4.477a5.748,5.748,0,0,0-2.874-.675c-1.681-.065-3.557.1-4.7,1.329-1.437,1.531-1.056,4.089.18,5.749s3.133,2.731,4.865,3.895a10.873,10.873,0,0,1,3.478,3.313,3.458,3.458,0,0,1,.251.6h10.534A29.544,29.544,0,0,0,934.946,849.674Z" transform="translate(-280.739 -246.811)" fill="#5c6bc0"/>
    <path id="Path_51" data-name="Path 51" d="M147.194,807.19s3.952,5.167-1.818,12.935-10.527,14.372-8.623,19.236c0,0,8.709-14.479,15.809-14.681S154.991,815.9,147.194,807.19Z" transform="translate(-63.515 -238.604)" fill="#5c6bc0"/>
    <path id="Path_52" data-name="Path 52" d="M147.285,807.19a6.469,6.469,0,0,1,.812,1.624c6.913,8.12,10.592,15.7,3.945,15.888-6.187.18-13.61,11.246-15.392,14.041a6.637,6.637,0,0,0,.208.64s8.709-14.479,15.809-14.681S155.082,815.9,147.285,807.19Z" transform="translate(-63.606 -238.604)" opacity="0.1"/>
    <path id="Path_53" data-name="Path 53" d="M161.305,815.889c0,1.818-.2,3.291-.453,3.291s-.453-1.437-.453-3.291.251-.963.5-.963S161.305,814.071,161.305,815.889Z" transform="translate(-70.29 -240.72)" fill="#ffd037"/>
    <path id="Path_54" data-name="Path 54" d="M163.951,818.881c-1.6.869-2.989,1.394-3.1,1.171s1.071-1.107,2.666-1.976.97-.237,1.085,0S165.547,818.011,163.951,818.881Z" transform="translate(-70.413 -241.542)" fill="#ffd037"/>
    <path id="Path_55" data-name="Path 55" d="M118.966,807.19s-3.952,5.167,1.818,12.935,10.527,14.372,8.623,19.236c0,0-8.7-14.479-15.809-14.681S111.169,815.9,118.966,807.19Z" transform="translate(-56.133 -238.604)" fill="#5c6bc0"/>
    <path id="Path_56" data-name="Path 56" d="M118.96,807.19a6.469,6.469,0,0,0-.812,1.624c-6.913,8.12-10.592,15.7-3.945,15.888,6.187.18,13.61,11.246,15.392,14.041a5.143,5.143,0,0,1-.216.64s-8.7-14.479-15.809-14.681S111.163,815.9,118.96,807.19Z" transform="translate(-56.127 -238.604)" opacity="0.1"/>
    <path id="Path_57" data-name="Path 57" d="M112.22,815.889c0,1.818.208,3.291.46,3.291s.453-1.437.453-3.291-.252-.963-.5-.963S112.22,814.071,112.22,815.889Z" transform="translate(-56.731 -240.72)" fill="#ffd037"/>
    <path id="Path_58" data-name="Path 58" d="M108.339,818.881c1.6.869,2.982,1.394,3.1,1.171s-1.071-1.107-2.666-1.976-.97-.237-1.092,0S106.744,818.011,108.339,818.881Z" transform="translate(-55.365 -241.542)" fill="#ffd037"/>
    <path id="Path_59" data-name="Path 59" d="M114,848.713s11.037-.345,14.372-2.709,16.98-5.2,17.807-1.4,16.585,18.892,4.125,18.992-28.952-1.94-32.272-3.959S114,848.713,114,848.713Z" transform="translate(-57.232 -248.61)" fill="#a8a8a8"/>
    <path id="Path_60" data-name="Path 60" d="M150.488,864.6c-12.46.1-28.959-1.94-32.279-3.959-2.522-1.545-3.535-7.071-3.866-9.615h-.374s.719,8.9,4.024,10.922,19.811,4.06,32.272,3.959c3.593,0,4.836-1.308,4.771-3.2C154.534,863.871,153.162,864.583,150.488,864.6Z" transform="translate(-57.223 -250.941)" opacity="0.2"/>
    <path id="Path_61" data-name="Path 61" d="M498.883,559.582c0-14.688,11.95-25.97,26.645-25.97h.208V526.93h-.208c-18.381,0-33.328,14.278-33.328,32.652a33.244,33.244,0,0,0,11.421,25.081l4.733-4.738A26.587,26.587,0,0,1,498.883,559.582Z" transform="translate(-163.663 -159.734)" fill="#6c63ff"/>
    <path id="Path_62" data-name="Path 62" d="M531.132,526.94v6.683A26.638,26.638,0,1,1,513.75,580.6L509,585.332a33.314,33.314,0,1,0,22.118-58.392Z" transform="translate(-168.391 -159.737)" fill="#6c63ff" opacity="0.5"/>
    <path id="Path_63" data-name="Path 63" d="M833.979,533.143c14.688,0,25.97,11.95,25.97,26.645V560h6.683v-.208c0-18.374-14.278-33.328-32.652-33.328A33.227,33.227,0,0,0,808.9,537.878l4.736,4.736a26.587,26.587,0,0,1,20.343-9.471Z" transform="translate(-252.788 -159.602)" fill="#6c63ff" opacity="0.5"/>
    <path id="Path_64" data-name="Path 64" d="M863.146,565.4h-6.683a26.638,26.638,0,1,1-46.974-17.383l-4.714-4.735A33.314,33.314,0,1,0,863.167,565.4Z" transform="translate(-249.31 -164.335)" fill="#6c63ff"/>
    <path id="Path_65" data-name="Path 65" d="M691.291,529.66l-1.329,6.654c9.78,3.945,16.032,13.531,16.032,24.7a26.638,26.638,0,1,1-37.316-24.4l-2.961-6a33.314,33.314,0,1,0,46.988,30.4C712.705,546.6,704.168,534.295,691.291,529.66Z" transform="translate(-206.966 -160.502)" fill="#6c63ff" opacity="0.5"/>
    <path id="Path_66" data-name="Path 66" d="M688.243,533.073A23.267,23.267,0,0,1,697.52,535l1.329-6.647a29.389,29.389,0,0,0-10.606-1.962,33.177,33.177,0,0,0-13.654,2.939l2.99,5.985A26.364,26.364,0,0,1,688.243,533.073Z" transform="translate(-214.991 -159.582)" fill="#6c63ff"/>
  </g>
</svg>
