<svg id="Group_7" data-name="Group 7" xmlns="http://www.w3.org/2000/svg" xmlns:xlink="http://www.w3.org/1999/xlink" width="861" height="653.435" viewBox="0 0 861 653.435">
  <defs>
    <linearGradient id="linear-gradient" x1="0.5" y1="1" x2="0.5" gradientUnits="objectBoundingBox">
      <stop offset="0" stop-color="gray" stop-opacity="0.251"/>
      <stop offset="0.54" stop-color="gray" stop-opacity="0.122"/>
      <stop offset="1" stop-color="gray" stop-opacity="0.102"/>
    </linearGradient>
  </defs>
  <path id="Path_67" data-name="Path 67" d="M918.735,225.642c-.15.7-.292,1.4-.457,2.1C913.1,251.6,904.65,274.584,892.08,295.7c-.418.7-.836,1.4-1.262,2.106a195.283,195.283,0,0,1-29.534,37.278c-6.262,6.183-13.091,12.058-21.214,16.293-11.38,5.946-24.684,8.359-37.759,10.331-13.58,2.058-27.349,3.777-41.079,5.631q-7.319.97-14.55,2.058c-13.265,1.964-26.435,4.235-39.289,7.247a230.341,230.341,0,0,0-45.843,15.425q-1.743.789-3.446,1.672c-1.136.568-2.279,1.144-3.4,1.727s-2.224,1.167-3.32,1.767c-.568.308-1.136.615-1.7.938s-1.112.607-1.656.923c-1.64.915-3.249,1.853-4.858,2.8l-.063.039c-1.065.623-2.114,1.262-3.155,1.9-5.946,3.612-11.766,7.381-17.586,11.175l-3.659,2.366-5.67,3.667c-1.1.718-2.232,1.435-3.344,2.145-.789.52-1.577,1.041-2.437,1.577-4.132,2.6-8.32,5.158-12.618,7.594-1.017.584-2.043,1.167-3.076,1.735a174.791,174.791,0,0,1-27.144,12.239l-.126.047a123.819,123.819,0,0,1-14.416,4.069c-2.815.615-5.639,1.12-8.494,1.506a91.056,91.056,0,0,1-23.028.323c-15.039-1.743-29.132-7.516-44.163-9.463-30.945-3.943-61,8.762-90.1,18.714q-10.733,3.667-21.624,6.869c-4.826,1.427-9.668,2.776-14.55,4.077a547.5,547.5,0,0,1-91.243,16,256.978,256.978,0,0,1-38.761.86,142.324,142.324,0,0,1-14.542-1.577c-16.324-2.524-31.545-7.815-43.832-17.507-10.063-7.957-17.263-18.328-22.744-29.179a127.331,127.331,0,0,1-11.758-35.125c-.3-1.664-.568-3.336-.789-5.008q-.591-4.29-.883-8.628a123.49,123.49,0,0,1,5.426-45.622c5.2-16.5,13.88-32.333,17.7-48.958q.237-1.057.45-2.106a72.89,72.89,0,0,0,1.159-7.642c1.948-20.425-5.52-40.338-11.38-60.314-.205-.694-.41-1.4-.607-2.1q-.946-3.328-1.814-6.648c-5.426-21.119-6.932-43.729-2.1-64.809.15-.7.331-1.4.5-2.1a94.887,94.887,0,0,1,17.839-36.537c9.053-11.356,20.938-20.812,33.635-29.116q9.282-6.072,19.2-11.348,7.1-3.785,14.542-7.169A286.391,286.391,0,0,1,347.971,42.809c2.366.1,4.732.229,7.1.4s4.953.379,7.429.607c28.911,2.807,57.041,9.582,84.974,16.987,9.361,2.484,18.706,5.031,28.043,7.531,4.156,1.1,8.3,2.208,12.46,3.281,20.354,5.26,41.008,10.023,61.923,13.58q7.263,1.254,14.542,2.287A416.565,416.565,0,0,0,615.3,91.8q9.929.2,19.865-.174,5.016-.181,10.039-.544c34.581-2.437,68-10.591,101.48-18.209q7.263-1.656,14.55-3.265c6.372-1.4,12.744-2.76,19.148-4.014,39.849-7.831,75.368-3.328,112.418,12.831,8.422,3.667,16.837,8.1,21.995,14.984s6.451,15.339,7.413,23.5c1.364,11.624,2.255,23.4,2.595,35.236,0,.694,0,1.4.047,2.1A316.273,316.273,0,0,1,918.735,225.642Z" transform="translate(-68.689 -37.154)" fill="#8e99f3" opacity="0.1"/>
  <path id="Path_68" data-name="Path 68" d="M656.851,295.786h-2.6v2.106H657.2Zm-29.518,0a.132.132,0,0,0,0,.055c-.071.576-.15,1.151-.229,1.735v.315h22.554v-.126l1.577-1.979Zm-60.448,0V227.831h25.946c-.276-.181-.56-.371-.852-.544l-.379-.244-.489-.3c-.284-.166-.568-.331-.867-.489s-.481-.268-.734-.4l-.173-.095H566.885V222.01l-.607.237-.639.3h-.047l-.134.071-.4.213-.4.213c-.394.213-.789.45-1.183.694l-.379.252-.789.5c-1.017.678-2.019,1.388-3.052,2.05-.26.166-.52.331-.789.481-.56.331-1.136.647-1.727.931a6.587,6.587,0,0,1-.789.339l-.426.166-.394.134h0a18.474,18.474,0,0,1-2.839.741V295.77h-38.9c0,.079.055.142.079.221.213.631.426,1.254.631,1.885h38.248v72.837h.592l.686.039,1.238.071,1.979.237.907.087.986.1h.15l1.743.213.371.047.844.118,1.207.173h0l2.894-.126h0l.394.071a2.74,2.74,0,0,1,.489.079V297.892h60.2v-.315c.079-.584.158-1.159.229-1.735a.136.136,0,0,1,0-.055Zm89.966,0h-2.6v2.106H657.2Zm-31.143,0c-.095.7-.181,1.4-.276,2.106h25.149l1.711-2.106Zm-58.823,0V227.831h25.946c-.276-.181-.56-.371-.852-.544l-.379-.244-.489-.3c-.284-.166-.568-.331-.867-.489s-.481-.268-.734-.4l-.173-.095H566.885V222.01l-.607.237-.639.3h-.047l-.134.071-.4.213-.4.213c-.394.213-.789.45-1.183.694l-.379.252-.789.5c-1.017.678-2.019,1.388-3.052,2.05-.26.166-.521.331-.789.481-.56.331-1.136.647-1.727.931a6.585,6.585,0,0,1-.789.339l-.426.166-.394.134h0a18.472,18.472,0,0,1-2.839.741V295.77h-38.9c0,.079.055.142.079.221.213.623.434,1.254.639,1.885h38.24V370.7h.592l.686.039,1.238.071,1.979.245.907.087.986.1h.15l1.743.213.371.047.844.118,1.207.173h0l2.894-.126h0l.394.071a2.74,2.74,0,0,1,.489.079V297.892h58.626c.095-.7.181-1.4.276-2.106Zm196.792-141.51H927.292c0-.7,0-1.4-.047-2.1H763.677V69.673q-7.287,1.577-14.55,3.265v79.241H571.183l-.45-.4.678-.6h0L637.6,91.7q-9.937.379-19.865.173l-50.858,45.693V87.574q-7.287-1.033-14.542-2.287v49.975L477.976,68.427c-9.337-2.5-18.682-5.047-28.043-7.531l101.125,90.881-.45.4H364.967V43.979q-3.714-.347-7.429-.607c-2.366-.174-4.732-.3-7.1-.4V152.178H220.365V68.009Q213,71.384,205.823,75.177v77H135.155c-.174.694-.355,1.4-.5,2.1h71.173v71.457H138.562c.2.7.4,1.4.607,2.1h66.654v67.955H149.389q-.213,1.049-.45,2.106h56.883v190c4.732.733,9.629,1.246,14.542,1.577V297.892H350.417v174.7c4.882-1.3,9.724-2.65,14.55-4.077V297.892H552.343V450.529a123.808,123.808,0,0,0,14.416-4.069l.126-.047V297.892H749.127v71.591q7.255-1.065,14.55-2.043V297.892H893.263c.426-.7.844-1.4,1.262-2.106H763.677V227.831H920.723c.166-.694.308-1.4.457-2.1h-157.5Zm-543.312,0H350.417v71.457H220.365Zm0,141.51V227.831H350.417v67.955Zm144.6-141.51H552.343v71.457H364.967Zm0,141.51V227.831H552.343v67.955Zm384.161,0H566.885V227.831H749.127Zm0-70.053H566.885V156.192l2.555-1.916H749.127ZM627.333,295.786a.132.132,0,0,0,0,.055c-.071.576-.15,1.151-.229,1.735v.315h22.554v-.126l1.577-1.979Zm29.518,0h-2.6v2.106H657.2Zm-89.966,0V227.831h25.946c-.276-.181-.56-.371-.852-.544l-.379-.244-.489-.3c-.284-.166-.568-.331-.867-.489s-.481-.268-.734-.4l-.173-.095H566.885V222.01l-.607.237-.639.3h-.047l-.134.071-.4.213-.4.213c-.394.213-.789.45-1.183.694l-.379.252-.789.5c-1.017.678-2.019,1.388-3.052,2.05-.26.166-.52.331-.789.481-.56.331-1.136.647-1.727.931a6.587,6.587,0,0,1-.789.339l-.426.166-.394.134h0a18.474,18.474,0,0,1-2.839.741V295.77h-38.9c0,.079.055.142.079.221.213.631.426,1.254.631,1.885h38.248v72.837h.592l.686.039,1.238.071,1.979.237.907.087.986.1h.15l1.743.213.371.047.844.118,1.207.173h0l2.894-.126h0l.394.071a2.74,2.74,0,0,1,.489.079V297.892h60.2v-.315c.079-.584.158-1.159.229-1.735a.136.136,0,0,1,0-.055Z" transform="translate(-71.135 -37.245)" fill="#6c63ff" opacity="0.1"/>
  <path id="Path_69" data-name="Path 69" d="M321.341,120.531h1.128a2.287,2.287,0,0,1-1.38-1.837h0c0-1.451,2.169-2.634,4.818-2.634h33.721c2.65,0,4.811,1.183,4.811,2.634h0c0,1.443-2.161,2.634-4.811,2.634H358.5a2.263,2.263,0,0,1,1.38,1.83c0,1.238-1.577,2.279-3.683,2.555h9.708c2.642,0,4.811,1.183,4.811,2.634s-2.169,2.634-4.811,2.634H332.176c-2.642,0-4.811-1.191-4.811-2.634,0-1.238,1.577-2.271,3.683-2.555h-9.708c-2.65,0-4.811-1.183-4.811-2.634S318.691,120.531,321.341,120.531Z" transform="translate(-109.58 -52.694)" fill="#6c63ff" opacity="0.1"/>
  <path id="Path_70" data-name="Path 70" d="M784.781,152.3h1.128a2.287,2.287,0,0,1-1.372-1.838h0c0-1.451,2.161-2.634,4.811-2.634h33.721c2.65,0,4.818,1.183,4.818,2.634h0c0,1.443-2.169,2.626-4.818,2.626h-1.12a2.287,2.287,0,0,1,1.372,1.837c0,1.238-1.577,2.279-3.683,2.555h9.708c2.65,0,4.811,1.183,4.811,2.634s-2.161,2.634-4.811,2.634H795.624c-2.65,0-4.818-1.191-4.818-2.634,0-1.238,1.577-2.279,3.683-2.555h-9.708c-2.642,0-4.811-1.183-4.811-2.634S782.139,152.3,784.781,152.3Z" transform="translate(-207.542 -59.41)" fill="#6c63ff" opacity="0.1"/>
  <path id="Path_71" data-name="Path 71" d="M255.708,288.261h1.12a2.279,2.279,0,0,1-1.372-1.837h0c0-1.443,2.169-2.634,4.811-2.634H294c2.642,0,4.811,1.191,4.811,2.634h0c0,1.451-2.169,2.634-4.811,2.634h-1.128a2.255,2.255,0,0,1,1.372,1.83c0,1.238-1.577,2.279-3.683,2.555h9.708c2.65,0,4.818,1.191,4.818,2.634s-2.169,2.634-4.818,2.634h-33.69c-2.65,0-4.811-1.183-4.811-2.634,0-1.23,1.577-2.271,3.683-2.555h-9.739c-2.65,0-4.818-1.183-4.818-2.634S253.09,288.261,255.708,288.261Z" transform="translate(-95.705 -88.149)" fill="#6c63ff" opacity="0.1"/>
  <ellipse id="Ellipse_11" data-name="Ellipse 11" cx="51.229" cy="168.583" rx="51.229" ry="168.583" transform="translate(454.364 463.823) rotate(-78.45)" fill="#6c63ff" opacity="0.1"/>
  <path id="Path_72" data-name="Path 72" d="M828.56,409.814s8.967-44.013,43.2-39.936c0,0,23.659,1.625,28.524,17.113v34.234Z" transform="translate(-217.813 -106.29)" fill="#3a3768"/>
  <path id="Path_73" data-name="Path 73" d="M919.98,398.785,615.123,373.51,576,381.664l2.445,54.612,2.666.323,3.036,82.009L883.294,572.4l31.8-26.9V456.6l4.069-2.389Z" transform="translate(-121.755 -78.952)" fill="#d48a9b"/>
  <path id="Path_74" data-name="Path 74" d="M1003.522,405.56l-.82,55.424L969.69,476.473l-.41-57.877Z" transform="translate(-204.886 -85.727)" opacity="0.05"/>
  <path id="Path_75" data-name="Path 75" d="M997.567,478.94l.4,87.221-31.789,26.9,2.043-101.078Z" transform="translate(-204.231 -101.238)" opacity="0.05"/>
  <path id="Path_76" data-name="Path 76" d="M582.939,456.906l304.471,37.152.158-7.05L582.71,454.13Z" transform="translate(-123.173 -95.994)" opacity="0.05"/>
  <path id="Path_77" data-name="Path 77" d="M997.895,482.142v-3.2L967.73,492.252v7.066Z" transform="translate(-204.558 -101.238)" opacity="0.05"/>
  <path id="Path_78" data-name="Path 78" d="M575.48,381.664,614.6,373.51,919.46,398.785l-34.234,13.036Z" transform="translate(-121.645 -78.952)" fill="#efc6cd"/>
  <path id="Path_79" data-name="Path 79" d="M964.46,407.55l14.96.978-24.794,7.421L942,415.042Z" transform="translate(-199.12 -86.148)" opacity="0.1"/>
  <path id="Path_80" data-name="Path 80" d="M964.46,406.72l14.96.978-24.794,7.429L942,414.212Z" transform="translate(-199.12 -85.972)" fill="#fff"/>
  <path id="Path_81" data-name="Path 81" d="M1022.32,444.541c.592-.252,1.214.229,1.845.347.363.071.733,0,1.1.071.733.095,1.459.584,2.161.339" transform="translate(-258.77 -122.113)" fill="#d3dae1"/>
  <path id="Path_82" data-name="Path 82" d="M1021.34,445.11c.584-.252,1.214.221,1.845.347.363.063.733,0,1.1.063.733.1,1.459.591,2.161.347" transform="translate(-258.563 -122.233)" fill="#d3dae1"/>
  <path id="Path_83" data-name="Path 83" d="M1019.08,446.25c.591-.252,1.222.221,1.853.339.355.071.733,0,1.088.071.741.1,1.467.591,2.161.339" transform="translate(-258.085 -122.474)" fill="#d3dae1"/>
  <path id="Path_84" data-name="Path 84" d="M882.46,398.21l14.96.986-24.794,7.421L860,405.7Z" transform="translate(-181.786 -84.173)" opacity="0.1"/>
  <path id="Path_85" data-name="Path 85" d="M882.46,397.39l14.96.978-24.794,7.421L860,404.882Z" transform="translate(-181.786 -84)" fill="#fff"/>
  <path id="Path_86" data-name="Path 86" d="M940.32,435.21c.591-.252,1.214.221,1.845.347.363.063.733,0,1.1.063.733.1,1.459.591,2.161.347" transform="translate(-241.437 -120.141)" fill="#d3dae1"/>
  <path id="Path_87" data-name="Path 87" d="M939.34,435.78c.584-.252,1.214.221,1.845.339.363.071.733,0,1.1.071.733.1,1.459.591,2.161.339" transform="translate(-241.229 -120.261)" fill="#d3dae1"/>
  <path id="Path_88" data-name="Path 88" d="M937.08,436.911c.591-.252,1.222.229,1.853.347.355.071.733,0,1.088.071.741.095,1.467.591,2.161.339" transform="translate(-240.752 -120.5)" fill="#d3dae1"/>
  <path id="Path_89" data-name="Path 89" d="M921.79,402.88l14.968.978-24.794,7.429-12.634-.915Z" transform="translate(-190.1 -85.161)" opacity="0.1"/>
  <path id="Path_90" data-name="Path 90" d="M921.79,402.06l14.968.978-24.794,7.421-12.634-.915Z" transform="translate(-190.1 -84.987)" fill="#fff"/>
  <path id="Path_91" data-name="Path 91" d="M979.65,439.88c.591-.252,1.222.221,1.853.339.355.071.726,0,1.088.071.733.095,1.467.591,2.161.339" transform="translate(-249.75 -121.128)" fill="#d3dae1"/>
  <path id="Path_92" data-name="Path 92" d="M978.67,440.441c.591-.252,1.222.229,1.853.347.355.071.726,0,1.088.071.733.095,1.467.591,2.161.339" transform="translate(-249.543 -121.246)" fill="#d3dae1"/>
  <path id="Path_93" data-name="Path 93" d="M976.42,441.58c.584-.252,1.214.221,1.845.347.363.063.733,0,1.1.063.733.1,1.459.591,2.161.347" transform="translate(-249.067 -121.487)" fill="#d3dae1"/>
  <ellipse id="Ellipse_12" data-name="Ellipse 12" cx="159.68" cy="32.87" rx="159.68" ry="32.87" transform="translate(233.305 558.359)" fill="#8e99f3" opacity="0.1"/>
  <path id="Path_94" data-name="Path 94" d="M692.464,398.007c-1.7-14.968-8.446-29.25-8.446-29.25l.513-5.047s.11-2.524-.055-6.309a28.705,28.705,0,0,1,.923-7c1.38-4.377-1.727-9.755-2.074-10.252s.174-10.094-2.934-14.8-23.8-13.462-23.8-13.462-1.112-2.326-2.681-5.047l.142-.276a29.651,29.651,0,0,0-4.732-6.38c-1.27-1.356-2.492-2.129-3.478-1.751a28.389,28.389,0,0,1-.915-4c.205.055.418.11.623.15a6.435,6.435,0,0,0,2.6.063c1.924-.434,3.2-2.161,4.274-3.785,5.347-8.123,9.952-17.034,10.891-26.647a16.942,16.942,0,0,0-.276-5.883,19.851,19.851,0,0,0-1.845-4.3,34.541,34.541,0,0,0-5.2-7.673c-3.683-3.88-8.762-6.254-13.982-7.657a48.4,48.4,0,0,0-18.059-1.349c-1.577.181-3.154.442-4.732.544a49.149,49.149,0,0,1-6-.1l-10.323-.6-.047-.158-1.719-.1c-.678,1.349,0,2.949.844,4.211s1.814,2.579,1.743,4.069-1.151,2.689-2,3.943-1.483,2.894-.639,4.124a2.365,2.365,0,0,0,.418.457c.891.923,2.445,1.025,3.793,1.009h.237A25.685,25.685,0,0,0,600.3,270.3a26.151,26.151,0,0,0,14.266,23.17c.15.513.3,1.041.442,1.577a48.311,48.311,0,0,1,1.656,17.05l-.181.394-.11-.418S604.209,320.32,600.6,322.5s-7.24,9.59-7.413,11.608-5.867,32.468-5.867,32.468a74.6,74.6,0,0,0-2.855,9.4l-7.263,6.38s-14.984,1.349-19.321.339l.126.836a65.524,65.524,0,0,0-11.64-1.577,12.342,12.342,0,0,0-6.309.844l-.15.071-.118.055a25,25,0,0,0-6.624,1.861c-.252.1-.481.205-.7.308l.047-1.033-16.214-.836-8.281-1.68s-2.934-2.366-4.661-2.019-5.347-2.019-5.347-2.019a14.454,14.454,0,0,0-2.665-1.656c-.276-1.908-.45-3.068-.45-3.068s-6.443-25.567-11.269-40.6c-3.233-10.039-7.886-14.984-10.631-17.137-1.222-2.129-2.027-3.5-2.027-3.5-.528-1.845-3.431-6-4.172-6.1-.118-.189-.205-.284-.252-.284a.923.923,0,0,0-.465.071c-1.356-6.751-2.145-15.213-.071-22.586a24.928,24.928,0,0,0,9.1-19.211q0-.166,0-.331v-.339a24.818,24.818,0,0,0-5.859-16.009l-.268-.3a2.092,2.092,0,0,0,.205-.166,4.227,4.227,0,0,0,1.491-4.069c-.355-1.514-1.538-2.7-2.145-4.14a26.82,26.82,0,0,1-.875-3.375,10.41,10.41,0,0,0-2.484-4.33l.118.315a14.986,14.986,0,0,0-13.194-4.432c-3.557.568-6.869,2.224-10.441,2.737-2.563.363-5.173.126-7.752.386a20.118,20.118,0,0,0-6.877,1.987,3.943,3.943,0,0,0-1.459,1.073,5.772,5.772,0,0,0-.726,2.027c-.875,3.194-3.651,5.473-5.662,8.139a19.045,19.045,0,0,0-3.817,10.52,8.234,8.234,0,0,0,.276,2.878c.173.56.442,1.088.568,1.656.394,1.735-.513,3.462-.954,5.181a10.086,10.086,0,0,0,.56,6.577c3.115,6.971,13.343,9.3,15.473,16.616a20.355,20.355,0,0,0,5.118,1.577c.142.726.268,1.459.371,2.2a.592.592,0,0,0-.134.079c-2.76,2.689-3.446,7.886-3.446,7.886l-.331.268c-1.128.931-4.984,4.053-8.47,6.459-4.14,2.863-11.041,12.452-15.867,15.315s-8.8,20.5-7.76,26.916,5.347,24.392,3.62,30.953,2.587,36.505,2.587,36.505a44.091,44.091,0,0,1,8.454,2.508l-.087,1.309-.26,3.943s-7.815,28.264-4.826,50.022-1.38,24-1.38,24,.915,9.645-1.38,13.012-2.76,10.765-2.76,10.765-.229,16.6.229,21.293.686,13.241-.923,15.26-4.6,15.244-4.369,19.282-5.749,13.241-2.531,25.125-9.463,12.113-9.463,12.113,1.617,18.138,5.063,23.327l.5.741c-.087.3-.173.615-.268.954-1.3,4.732-3.083,12.2-1.845,14.006,1.837,2.7,2.76,2.24,2.76,2.24l.686,12.113s13.8,11.664,24.384,11.222,8.509-11.222,8.509-11.222l-9.014-23.375-.308-.789,10.015-18.927s2.76-8.3,3.446-11.214,4.432-13.257,4.432-13.257,9.463-22.428,9.661-25.125.923-17.263,2.76-20.189,6.9-19.716,6.9-19.716l.126.11a6.648,6.648,0,0,1,1.719,6.617c-1.159,4.259-.465,13-.465,13a88.468,88.468,0,0,1-1.38,11.222c-.923,3.817-1.144,34.991.465,42.388,1.285,5.923,1.246,17.011,1.183,21.206-1.08,4.456-2.027,9.992-.268,10.646,3,1.128,18.178.9,18.178.9s6.435-2.247,15.181,5.607,35.646-2.24,35.646-2.24,8.281-2.248-8.052-8.746c-11.4-4.535-18.753-7.555-23.564-10.788.11-.213.229-.426.331-.655,0,0-6.672-6.309-1.151-17.492A48.71,48.71,0,0,0,498.6,584.76l.923-37.688-2.76-50.03-2.137-52.506.379-.126c.363,9.653,2.248,32.633,12.113,28.177,12.421-5.607,1.837-20.189,1.837-20.189l-5.576-10.867,1.664-.568L498.8,420.806a45.463,45.463,0,0,1-.237-11.885,47.084,47.084,0,0,0-.142-6.94c8.17-1.427,15.993-2.942,17.4-2.595,1.656.4,10.922.481,14.566.5-1.191.931-2.145,1.853-2.145,1.853l14.834,9.984s5.031-2.752,6.08-5.67a6.546,6.546,0,0,0,2.776-1.483c.158,3.446,1.073,7.176,4.259,7.263a5.52,5.52,0,0,0,2.319-.457l24.258-4.8-2.082,13,1.451,2.579c-.733,10.97-1.577,22.618-2.319,32.862l-.339,2.24.173.039c-1.151,15.772-2.074,27.72-2.074,27.72a14.535,14.535,0,0,1,6.049-6.08l.158,23.406S585,539.351,585,544.4s.166,16.317.166,16.317,2.595,13.793,4.14,18.335,2.76,25.236,2.76,25.236,3.628,5.718,2.074,7.886,6.041,6.893,6.041,6.893S595.345,625.627,595,630c-.039.5.457,1.041,1.356,1.577-.284.229-.576.457-.9.678-2.24,1.5-5.52,2.539-10.457,2.114-13.462-1.183-22.949,11.269-14.668,13.793s33.122,3.028,33.122,3.028,7.523-4.692,13.407-2.579c-.087,4.937.158,9.463.2,10.063l-.071.055c-3.517,3.154-10.252,8.58-16.829,10.8-9.463,3.194-11.561,16.151.686,17.831s30.188-2.019,30.188-2.019,9.314-6.893,16.388-8.407,13.115-4.882,11.908-8.919c-.789-2.579-2.815-9.337-4.188-13.88q-.118-.41-.237-.789c.213-.473.426-.962.623-1.467,0,0-3.62-18.84-.686-23.548s1.38-51.82,1.38-51.82-5.008-11.94-2.413-19.171-4.14-17.5-4.14-17.5.733-20.575,2.7-32.042q.134-.733.26-1.419a64.605,64.605,0,0,0,9.621-3.714s1.727-25.914,2.76-31.8c.1-.552.244-1.443.418-2.6l.789-4.156h0l.931-4.732h0L670.3,443.25,676,435.884,690.666,420.9S694.191,412.983,692.464,398.007ZM466.256,305.478l-.11.079a1.366,1.366,0,0,1-.039-.173.711.711,0,0,0,.15.095Zm144.925,18.367-.568,1.238,2.074-2.066-2.815,3.154.946-1.987Zm-14.006,28.942c-.544,1.443-1.128,3-1.735,4.629l1.112-3.32Z" transform="translate(-124.618 -75.95)" fill="url(#linear-gradient)"/>
  <path id="Path_95" data-name="Path 95" d="M595.857,445.25s-1.932,12.862,3.864,13.028,9.669-9.921,9.669-9.921l-2.366-8.068Z" transform="translate(-168.559 -121.23)" fill="#585b8a"/>
  <path id="Path_96" data-name="Path 96" d="M595.857,445.25s-1.932,12.862,3.864,13.028,9.669-9.921,9.669-9.921l-2.366-8.068Z" transform="translate(-168.559 -121.23)" opacity="0.2"/>
  <path id="Path_97" data-name="Path 97" d="M423.929,787.962c-10.315.45-23.769-11.206-23.769-11.206l-.67-12.105s-.891.45-2.689-2.24c-1.207-1.806.528-9.29,1.8-14,.615-2.3,1.12-3.943,1.12-3.943l22.633,6.057,1.08,2.863,8.785,23.359S434.237,787.513,423.929,787.962Z" transform="translate(-126.462 -185.527)" fill="#636992"/>
  <path id="Path_98" data-name="Path 98" d="M544.911,749.241s-26.222,10.086-34.7,2.24-14.795-5.607-14.795-5.607-14.795.229-17.712-.9c-1.719-.655-.789-6.262.284-10.725.726-3.083,1.514-5.631,1.514-5.631s25.772-8.746,29.81-3.367a19.331,19.331,0,0,0,4.3,4.1c4.669,3.375,11.963,6.435,23.5,11.143C552.979,746.994,544.911,749.241,544.911,749.241Z" transform="translate(-143.448 -181.095)" fill="#636992"/>
  <path id="Path_99" data-name="Path 99" d="M531.6,496.35l7.169,14.345s10.315,14.574-1.79,20.173S525.1,498.6,525.1,498.6Z" transform="translate(-153.667 -133.08)" fill="#ffd6d6"/>
  <path id="Path_100" data-name="Path 100" d="M495.25,338.61s7.847,3.588,12.555,18.6,10.986,40.575,10.986,40.575,4.259,28.911,3.58,36.087a46.527,46.527,0,0,0,.229,11.877l6.049,20.173-12.105,4.259-18.6-71.276Z" transform="translate(-147.358 -99.737)" fill="#dce6f2"/>
  <path id="Path_101" data-name="Path 101" d="M495.25,338.61s7.847,3.588,12.555,18.6,10.986,40.575,10.986,40.575,4.259,28.911,3.58,36.087a46.527,46.527,0,0,0,.229,11.877l6.049,20.173-12.105,4.259-18.6-71.276Z" transform="translate(-147.358 -99.737)" opacity="0.05"/>
  <path id="Path_102" data-name="Path 102" d="M422.937,750.539l1.08,2.863-1.325,2.531c-5.158,2.24-17.933.45-17.933.45s-2.366-3-5.6-7.949c.615-2.3,1.12-3.943,1.12-3.943Z" transform="translate(-127.046 -185.532)" opacity="0.1"/>
  <path id="Path_103" data-name="Path 103" d="M514.743,730.409c-6.538,14.81-28.761,9.314-34.936,7.46-1.017-.308-1.577-.513-1.577-.513s.039-1.207.055-3.107c.726-3.083,1.514-5.631,1.514-5.631s25.772-8.746,29.81-3.367a19.33,19.33,0,0,0,4.3,4.1,7.6,7.6,0,0,0,.836,1.057Z" transform="translate(-143.76 -181.095)" opacity="0.1"/>
  <path id="Path_104" data-name="Path 104" d="M495.519,656.058c-5.378,11.2,1.128,17.484,1.128,17.484-6.538,14.8-28.761,9.314-34.936,7.452-1.017-.3-1.577-.5-1.577-.5s.449-15.473-1.12-22.87-1.349-38.548-.45-42.357a90.178,90.178,0,0,0,1.341-11.214s-.67-8.738.45-13a6.711,6.711,0,0,0-1.672-6.609l-.118-.118s-4.929,16.813-6.727,19.716-2.46,17.484-2.689,20.173-9.416,25.11-9.416,25.11-3.58,10.307-4.251,13.217-3.367,11.214-3.367,11.214l-10.8,20.851c-5.158,2.24-17.933.449-17.933.449s-2.46-3.154-5.828-8.3-4.929-23.3-4.929-23.3,12.326-.229,9.187-12.105,2.689-21.072,2.468-25.11,2.689-17.255,4.259-19.274,1.341-10.536.891-15.244-.221-21.293-.221-21.293.45-7.4,2.689-10.757,1.349-13,1.349-13,4.251-2.24,1.341-23.982,4.732-49.983,4.732-49.983l.26-3.943.41-6.388s64.107-4.038,69.265.891a17,17,0,0,1,3.273,4.692,46.686,46.686,0,0,1,3.706,11.932l2.689,67.916,2.689,49.983-.9,37.657A50.061,50.061,0,0,1,495.519,656.058Z" transform="translate(-125.664 -125.569)" fill="#565988"/>
  <path id="Path_105" data-name="Path 105" d="M494,538.42l-6.727,145.69L479.2,697.39c-1.017-.3-1.577-.5-1.577-.5s.45-15.473-1.12-22.87-1.349-38.548-.45-42.357a90.179,90.179,0,0,0,1.341-11.214s-.67-8.738.45-13a6.711,6.711,0,0,0-1.672-6.609l.11-.789Z" transform="translate(-143.151 -141.973)" opacity="0.1"/>
  <path id="Path_106" data-name="Path 106" d="M407.022,735.425s17.484-6.948,20.173-4.732-20.615,5.6-20.615,5.6Z" transform="translate(-128.615 -182.523)" opacity="0.1"/>
  <path id="Path_107" data-name="Path 107" d="M512.218,713.5c-.67.229-17.7,6.309-16.135,12.776S512.218,713.5,512.218,713.5Z" transform="translate(-147.512 -178.981)" opacity="0.1"/>
  <path id="Path_108" data-name="Path 108" d="M449.07,290.786s5.71,13.785,2.689,20.851S484.369,330.8,484.369,330.8s-10.418-26.9-.331-42.033S449.07,290.786,449.07,290.786Z" transform="translate(-137.596 -87.882)" fill="#ffd6d6"/>
  <path id="Path_109" data-name="Path 109" d="M699.222,791.74c-6.893,1.514-15.97,8.407-15.97,8.407s-17.484,3.7-29.423,2.019-9.913-14.629-.67-17.823c6.411-2.208,12.981-7.658,16.411-10.781,1.514-1.4,2.413-2.366,2.413-2.366l33.461-6.727s.544,1.869,1.3,4.448c1.341,4.55,3.32,11.3,4.077,13.872C712,786.867,706.114,790.226,699.222,791.74Z" transform="translate(-179.127 -189.755)" fill="#505484"/>
  <path id="Path_110" data-name="Path 110" d="M684.086,759.409s-14.124,1.514-20.007-1.845-14.29,2.019-14.29,2.019-24.211-.5-32.278-3.028,1.175-14.984,14.29-13.785c4.779.434,8.012-.615,10.2-2.114a10.741,10.741,0,0,0,4.44-6.656l28.39,1.68,3.943,10.063Z" transform="translate(-172.563 -183.314)" fill="#505484"/>
  <path id="Path_111" data-name="Path 111" d="M686.577,750.332s-33-5.394-37.207-9.676A10.741,10.741,0,0,0,653.81,734l28.39,1.68,3.943,10.063Z" transform="translate(-179.936 -183.314)" opacity="0.1"/>
  <path id="Path_112" data-name="Path 112" d="M634.52,514.745l.339,49.249s1.175,36.986,1.175,42.033.166,16.3.166,16.3,2.524,13.785,4.038,18.328,2.689,25.236,2.689,25.236,3.533,5.718,2.019,7.886,5.883,6.893,5.883,6.893-4.732,6.561-5.039,10.93,37.649,10.575,37.649,10.575L668.651,550.548,656.877,512.56Z" transform="translate(-176.797 -136.506)" fill="#575988"/>
  <path id="Path_113" data-name="Path 113" d="M634.52,514.745l.339,49.249s1.175,36.986,1.175,42.033.166,16.3.166,16.3,2.524,13.785,4.038,18.328,2.689,25.236,2.689,25.236,3.533,5.718,2.019,7.886,5.883,6.893,5.883,6.893-4.732,6.561-5.039,10.93,37.649,10.575,37.649,10.575L668.651,550.548,656.877,512.56Z" transform="translate(-176.797 -136.506)" opacity="0.1"/>
  <path id="Path_114" data-name="Path 114" d="M713.186,768.957c-10.985,26.19-37.112,5.978-37.112,5.978s0-.5-.063-1.372c1.514-1.4,2.413-2.366,2.413-2.366l33.461-6.727S712.428,766.378,713.186,768.957Z" transform="translate(-185.567 -189.755)" opacity="0.1"/>
  <path id="Path_115" data-name="Path 115" d="M706.637,711.966c-10.765,27.6-37.491,6.893-37.491,6.893s-.844-14.29.844-20.843-1.853-26.23-1.853-26.23-2.019-17.484-3.864-21.514-1.68-12.105-1.68-12.776.67-6.057-.844-9.755-2.366-12.776-2.366-12.776,0-12.776-1.514-20.339L652.656,568.6l-9.416-53.295,2.942-.5,52.7-9.243s9.921,50.472,6.553,55.645c-.726,1.136-1.364,3.62-1.893,6.822-1.924,11.451-2.642,32.01-2.642,32.01s6.553,10.252,4.038,17.484,2.366,19.163,2.366,19.163,1.514,47.073-1.349,51.781S706.637,711.966,706.637,711.966Z" transform="translate(-178.64 -135.027)" fill="#575988"/>
  <path id="Path_116" data-name="Path 116" d="M706.708,321.945s-47.743,33.619-36.986,16.806c5.8-9.053,4.732-20.583,2.461-29.289a69.117,69.117,0,0,0-4.732-12.847s40.567-17.255,35.188-1.79a28.975,28.975,0,0,0-1.577,11.23A29.967,29.967,0,0,0,706.708,321.945Z" transform="translate(-183.758 -89.121)" fill="#d28690"/>
  <path id="Path_117" data-name="Path 117" d="M601.61,427.867s-20.173-5.828-23.532-.11,1.009,18.264,7.1,20.283,20.063-6.837,20.063-6.837Z" transform="translate(-164.619 -118.049)" fill="#d28690"/>
  <path id="Path_118" data-name="Path 118" d="M629.759,416l-8.407,7.736s-14.629,1.341-18.832.331c0,0,3.872,25.89-1.68,29.084l33.958-6.893Z" transform="translate(-169.678 -116.095)" fill="#585b8a"/>
  <path id="Path_119" data-name="Path 119" d="M629.759,416l-8.407,7.736s-14.629,1.341-18.832.331c0,0,3.872,25.89-1.68,29.084l33.958-6.893Z" transform="translate(-169.678 -116.095)" opacity="0.1"/>
  <path id="Path_120" data-name="Path 120" d="M487.116,268.059a25.236,25.236,0,0,1-25.236,25.236c-12.949-6.222-25.236-11.285-25.236-25.236a25.236,25.236,0,1,1,50.432,0Z" transform="translate(-134.966 -79.279)" opacity="0.1"/>
  <path id="Path_121" data-name="Path 121" d="M487.146,267.482a25.189,25.189,0,1,1-5.71-15.954A25.188,25.188,0,0,1,487.146,267.482Z" transform="translate(-134.996 -79.381)" fill="#ffd6d6"/>
  <path id="Path_122" data-name="Path 122" d="M499.752,467.986a57.036,57.036,0,0,1-7.815,4.054s-12.776-1.853-14.621.331-18.138,3.028-18.138,3.028-24.881-1.175-28.58-4.369a15.143,15.143,0,0,0-3.777-2.24l.41-6.388s64.107-4.038,69.265.891a17,17,0,0,1,3.257,4.692Z" transform="translate(-132.893 -125.575)" opacity="0.1"/>
  <path id="Path_123" data-name="Path 123" d="M499.014,431.206c-.5,2.855-10.93,7.224-10.93,7.224s-12.776-1.845-14.621.339-18.138,3.028-18.138,3.028-24.881-1.183-28.58-4.377-11.94-4.732-11.94-4.732-4.2-29.92-2.516-36.474-2.524-24.55-3.533-30.938,2.855-24.037,7.563-26.892,11.435-12.444,15.465-15.3c3.4-2.405,7.153-5.52,8.249-6.459l.323-.268s.678-5.213,3.367-7.886,27.4,16.979,27.4,16.979.173,1.514,1.853-1.341c.379-.639,3.636,4.061,4.2,6.049,0,0,13.446,23.54,14.29,28.39s4.369,20.678,5.039,24.542c.173.994.457,4.479.789,9.148.063.915.118,1.885.189,2.894.5,7.744,1.033,17.634,1.356,25.11,0,.852.071,1.672.095,2.46A83.708,83.708,0,0,1,499.014,431.206Z" transform="translate(-129.041 -93.314)" fill="#dce6f2"/>
  <path id="Path_124" data-name="Path 124" d="M415,387.21s9.243,11.262,12.271,11.262S415,387.21,415,387.21Z" transform="translate(-130.395 -110.01)" opacity="0.1"/>
  <path id="Path_125" data-name="Path 125" d="M436.125,417.91s-15.134,16.474-13.115,19.5S436.125,417.91,436.125,417.91Z" transform="translate(-132.049 -116.499)" opacity="0.1"/>
  <path id="Path_126" data-name="Path 126" d="M425.62,452.631s17.35-19,18.138-25.551Z" transform="translate(-132.64 -118.438)" opacity="0.1"/>
  <path id="Path_127" data-name="Path 127" d="M453.33,455.658s20.007-10.591,21.687-19S453.33,455.658,453.33,455.658Z" transform="translate(-138.497 -120.124)" opacity="0.1"/>
  <path id="Path_128" data-name="Path 128" d="M484.776,330.992,482,337.711l4.621,2.184,4.542,12.7s12.523,25.047,12.019,38.075,2.271,32.609,2.271,32.609l7.224-1.341-3.407-38.319a55.275,55.275,0,0,0-4.4-17.2C499.1,353.2,488.356,328.8,487.678,328.8c-.923,0-.276.339-.276.339Z" transform="translate(-144.557 -97.663)" opacity="0.1"/>
  <path id="Path_129" data-name="Path 129" d="M485.626,330.134l-2.776,6.727,4.629,2.184,4.535,12.7s12.523,25.047,12.019,38.075,2.271,32.609,2.271,32.609l7.232-1.341-3.415-38.319a55.062,55.062,0,0,0-4.393-17.2c-5.773-13.225-16.514-37.617-17.184-37.617-.931,0-.284.339-.284.339Z" transform="translate(-144.737 -97.484)" fill="#575989"/>
  <path id="Path_130" data-name="Path 130" d="M585.7,449.727c-3.517-.268-11.956-4.535-15.307-6.309l-1.419-.789.173-13.02a22.864,22.864,0,0,1,2.571-1.3c4.479-1.956,13.667-4.613,18.272,3.943C596.2,443.725,590.152,450.026,585.7,449.727Z" transform="translate(-162.941 -118.277)" fill="#ffd6d6"/>
  <path id="Path_131" data-name="Path 131" d="M481.4,251.506a3.73,3.73,0,0,1-1.175.481c-2.926.639-6.254-1.877-8.762-.26-1.53.994-1.885,3.052-2.09,4.866q-.536,4.732-1.073,9.4a11.6,11.6,0,0,1-.694,3.241c-1.238,2.831-4.637,4.164-7.736,4.117a4.613,4.613,0,0,1-3.336-1.1c-.544-.552-.836-1.325-1.435-1.83-3.943-3.3-5.142,4.795-4.1,7.1,1.672,3.762,7.61,7.389,5.118,12.168a4.558,4.558,0,0,1-1.83,1.837A25.236,25.236,0,1,1,481.4,251.506Z" transform="translate(-134.959 -79.358)" opacity="0.1"/>
  <path id="Path_132" data-name="Path 132" d="M452.254,267.329c.591.5.891,1.27,1.435,1.822a4.621,4.621,0,0,0,3.336,1.1c3.1.047,6.5-1.278,7.728-4.124a11.228,11.228,0,0,0,.7-3.233l1.073-9.4c.205-1.814.552-3.872,2.09-4.866,2.508-1.577,5.836.9,8.762.26a4.282,4.282,0,0,0,3.155-4.937c-.339-1.506-1.491-2.7-2.082-4.132a27,27,0,0,1-.86-3.367c-1.632-6.12-8.817-9.558-15.063-8.533-3.47.576-6.7,2.232-10.173,2.737-2.492.363-5.039.126-7.555.394a19.069,19.069,0,0,0-6.7,1.979,3.9,3.9,0,0,0-1.42,1.072,5.923,5.923,0,0,0-.71,2.019c-.844,3.154-3.557,5.481-5.52,8.139a19.393,19.393,0,0,0-3.738,10.5,8.415,8.415,0,0,0,.268,2.878c.166.552.426,1.088.552,1.656.386,1.727-.5,3.454-.931,5.173a10.347,10.347,0,0,0,.552,6.577c3.028,6.964,13,9.29,15.078,16.6a16.561,16.561,0,0,0,5.867,1.577,5.66,5.66,0,0,0,5.173-2.642c2.484-4.732-3.446-8.407-5.118-12.161C447.1,272.108,448.279,264.017,452.254,267.329Z" transform="translate(-132.784 -76.302)" fill="#353045"/>
  <path id="Path_133" data-name="Path 133" d="M702.686,294.824a28.975,28.975,0,0,0-1.577,11.23c-1.214,1.033-2.539-2.058-3.943-1.262-3.849,2.224-8.3,7.516-13.06,7.516a26.159,26.159,0,0,1-11.885-2.847,69.117,69.117,0,0,0-4.732-12.847S708.065,279.36,702.686,294.824Z" transform="translate(-183.766 -89.121)" opacity="0.1"/>
  <path id="Path_134" data-name="Path 134" d="M707.719,276.73A26.229,26.229,0,1,1,681.49,250.5,26.229,26.229,0,0,1,707.719,276.73Z" transform="translate(-181.181 -81.112)" fill="#d28690"/>
  <path id="Path_135" data-name="Path 135" d="M703,334.365s-4.937,5.378-5.607,5.82S682.4,400.908,682.152,401.61s-17.042,55.132-17.042,55.132l-26.9,13.225,2.248-66.575,19.716-54.9s6.506-7.4,8.517-10.086,27.121-18.832,27.121-18.832l4.29,8.84Z" transform="translate(-177.577 -95.712)" fill="#f0f3f7"/>
  <path id="Path_136" data-name="Path 136" d="M707.427,330.12,676.5,352.265,676,340.1c2.019-2.689,27.121-18.824,27.121-18.824Z" transform="translate(-185.565 -96.074)" opacity="0.1"/>
  <path id="Path_137" data-name="Path 137" d="M708.281,328.41l-30.93,22.144L676.87,338.4c2.019-2.7,27.121-18.832,27.121-18.832Z" transform="translate(-185.749 -95.712)" fill="#f0f3f7"/>
  <path id="Path_138" data-name="Path 138" d="M665.348,336.59l1.033,5.41-6.916,7.027,5.52-12.358s-11.829,8.241-15.378,10.426-7.1,9.582-7.232,11.6-5.718,32.444-5.718,32.444-4.2,11.262-3.02,14.455-6.388,103.893-6.388,103.893a14.983,14.983,0,0,1,10.11-7.752l-2.7-59.509s3.281-39.589,3.446-40.093,7.65-23.454,7.65-23.454Z" transform="translate(-175.26 -99.31)" fill="#585b8a"/>
  <path id="Path_139" data-name="Path 139" d="M668.064,344.3l-.536,11.041s-7.484,23.619-10,27.483-10.173,26.9-10.173,26.9l-4.314,40.015-7.4,3.367L632,446.395l6.057-38.642s11.427-32.609,13.115-35.977l8.43-17.76Z" transform="translate(-176.264 -100.94)" opacity="0.1"/>
  <path id="Path_140" data-name="Path 140" d="M667.2,343.45l-.528,11.041s-7.484,23.619-10.008,27.483-10.165,26.9-10.165,26.9l-4.29,40.007-7.4,3.36-3.7-6.719,6.057-38.642s11.427-32.617,13.107-35.977l8.493-17.736Z" transform="translate(-176.076 -100.76)" fill="#4f9a94"/>
  <path id="Path_141" data-name="Path 141" d="M566.31,449.327l14.455,10.008s10.2-5.717,4.259-9.416a26.331,26.331,0,0,0-13.115-4.259C570,445.66,566.31,449.327,566.31,449.327Z" transform="translate(-162.379 -122.365)" fill="#d28690"/>
  <path id="Path_142" data-name="Path 142" d="M579.719,426.494a2.224,2.224,0,0,0-1.049,1.9c0,3.068.347,11.191,2.918,7.523,3.154-4.487,2.579-8.517,7.4-5.607a28.39,28.39,0,0,1,7.729,7.1l-1.341-9.637S585.468,422.882,579.719,426.494Z" transform="translate(-164.991 -118.033)" fill="#d28690"/>
  <path id="Path_143" data-name="Path 143" d="M706.135,561.165c-.725,1.136-1.364,3.62-1.893,6.822-29.479,8.84-51.047-9.85-51.047-9.85a257.268,257.268,0,0,1-6.388-26.892c-.528-3.107-.41-9.132.079-16.482l52.7-9.243S709.5,555.952,706.135,561.165Z" transform="translate(-179.321 -135.018)" opacity="0.1"/>
  <path id="Path_144" data-name="Path 144" d="M736.383,371.339c-1.341,4.377-.836,13.28-.836,13.28l-12.105,57.159s-5.883,44.044-6.893,49.928-2.689,31.773-2.689,31.773c-34.3,16.813-60.724-6.049-60.724-6.049a257.731,257.731,0,0,1-6.388-26.9c-1.688-9.984,3.281-49.983,5.631-67.75.7-5.26,1.175-8.572,1.175-8.572l8.825-32.783s10.844-27.657,14.881-35.725,20.252-26.19,20.252-26.19c2.011-1.278,5.229,3.233,7.618,7.342,1.806,3.107,3.154,5.994,3.154,5.994s20.173,8.738,23.193,13.407,2.524,14.29,2.863,14.795S737.731,366.97,736.383,371.339Z" transform="translate(-179.309 -95.653)" fill="#585b8a"/>
  <path id="Path_145" data-name="Path 145" d="M690.6,351.18s1.514,8.911-2.366,11.6c-3.746,2.6-31.632,57.435-33.367,60.858.7-5.268,1.175-8.58,1.175-8.58l8.825-32.775s10.851-27.657,14.881-35.732,20.26-26.19,20.26-26.19c2.011-1.278,5.221,3.233,7.61,7.342C704.017,335.187,696.5,349.335,690.6,351.18Z" transform="translate(-181.098 -95.833)" opacity="0.1"/>
  <path id="Path_146" data-name="Path 146" d="M689.748,350.33s1.506,8.911-2.366,11.6S655.759,419.358,654,422.781c.7-5.26,1.175-8.572,1.175-8.572L664,381.425s10.844-27.657,14.881-35.724,20.252-26.19,20.252-26.19c2.011-1.278,5.229,3.233,7.618,7.342C703.163,334.329,695.639,348.485,689.748,350.33Z" transform="translate(-180.914 -95.653)" fill="#585b8a"/>
  <path id="Path_147" data-name="Path 147" d="M670.491,420.949,661,470.309v.008l-.907,4.724v.008l-2.043,10.623-8.714-1.845-4.061-.86-56.2-11.908-4.132-.875-9.432-2,1.845-12.255.765-5.094,6.806-45.188Z" transform="translate(-121.651 -85.746)" fill="#5c6bc0"/>
  <path id="Path_148" data-name="Path 148" d="M678.677,511.92s-22.357,8.068-17.484,17.649,36.142-7.4,36.142-7.4Z" transform="translate(-182.288 -136.371)" fill="#d28690"/>
  <path id="Path_149" data-name="Path 149" d="M703.8,599.1c0,.67.844,9.25,4.2,12.271S703.8,599.1,703.8,599.1Z" transform="translate(-191.441 -154.799)" opacity="0.1"/>
  <path id="Path_150" data-name="Path 150" d="M675.24,637.68s4.03,11.1,20,15.638S675.24,637.68,675.24,637.68Z" transform="translate(-185.404 -162.954)" opacity="0.1"/>
  <path id="Path_151" data-name="Path 151" d="M709.087,276.748a26.222,26.222,0,0,1-13.146,22.736A13.959,13.959,0,0,1,692,296.2c-1.143-1.388-2.035-3.281-1.349-4.937.552-1.333,2.011-2.177,2.366-3.557a5.236,5.236,0,0,0-.126-2.539c-.292-1.3-.568-2.6-.852-3.9-.244-1.1-.678-2.405-1.774-2.673s-2.011.647-2.871,1.325c-2.106,1.664-6.143,2.792-8.675,1.427s-1.822-5.93-2.232-8.4a1.466,1.466,0,0,0-.552-1.112,2.3,2.3,0,0,0-1.144-.079,3.292,3.292,0,0,1-2.855-2.531,21.793,21.793,0,0,1-.457-4.061,4.531,4.531,0,0,0-1.814-3.509,5.607,5.607,0,0,0-2.989-.489l-4.945.055a26.23,26.23,0,0,1,47.317,15.552Z" transform="translate(-182.548 -81.131)" opacity="0.1"/>
  <path id="Path_152" data-name="Path 152" d="M686.866,278.023c.86-.678,1.806-1.577,2.871-1.317s1.522,1.577,1.767,2.666l.852,3.888a5.283,5.283,0,0,1,.134,2.547c-.4,1.388-1.853,2.224-2.413,3.557-.686,1.656.213,3.549,1.349,4.929a14.2,14.2,0,0,0,8.115,4.85,5.962,5.962,0,0,0,2.531.055c1.877-.434,3.154-2.161,4.164-3.777,5.213-8.123,9.7-17.026,10.615-26.632a17.084,17.084,0,0,0-.268-5.875,19.719,19.719,0,0,0-1.8-4.3,34.7,34.7,0,0,0-5.071-7.673c-3.588-3.864-8.541-6.238-13.627-7.642a46.151,46.151,0,0,0-17.594-1.38c-1.577.181-3.091.442-4.645.544a46.747,46.747,0,0,1-5.852-.095l-11.608-.694c-.662,1.349,0,2.949.789,4.211s1.766,2.571,1.7,4.069-1.128,2.681-1.948,3.943-1.443,2.894-.623,4.124,2.492,1.309,3.943,1.293l5.852-.063a5.591,5.591,0,0,1,2.973.513,4.544,4.544,0,0,1,1.814,3.509,23.2,23.2,0,0,0,.457,4.061,3.281,3.281,0,0,0,2.855,2.531,2.129,2.129,0,0,1,1.143.087,1.451,1.451,0,0,1,.552,1.1c.41,2.468-.347,7.027,2.232,8.4S684.76,279.687,686.866,278.023Z" transform="translate(-181.321 -79.235)" fill="#663d5c"/>
  <path id="Path_153" data-name="Path 153" d="M724.115,353.451a12.855,12.855,0,0,0-13.525,8.635c-3.154,8.982-8.415,25.189-7.1,31.592,1.853,9.077,4.038,24.211,4.038,24.211s9.582,5.52,4.732,11.088-6.222,13.454-6.222,13.454-6.222,2.689-7.563,8.407-10.426,13.612-10.426,13.612L674.44,478.068s22.523,22.87,27.065,24.037L715.456,485.8l16.474-21.853,14.29-14.984s3.359-7.886,1.68-22.87-8.241-29.25-8.241-29.25l.5-5.047S741.709,355.635,724.115,353.451Z" transform="translate(-185.235 -102.859)" opacity="0.1"/>
  <path id="Path_154" data-name="Path 154" d="M725.817,353.451a12.855,12.855,0,0,0-13.509,8.635c-3.155,8.982-8.415,25.189-7.1,31.592,1.845,9.077,4.03,24.211,4.03,24.211s9.582,5.52,4.732,11.088-6.214,13.454-6.214,13.454-6.222,2.689-7.571,8.407-10.418,13.612-10.418,13.612l-13.62,13.619s22.523,22.87,27.065,24.037L717.166,485.8,733.6,463.945l14.29-14.984s3.367-7.886,1.68-22.87-8.233-29.25-8.233-29.25l.5-5.047S743.411,355.635,725.817,353.451Z" transform="translate(-185.597 -102.859)" fill="#585b8a"/>
  <path id="Path_155" data-name="Path 155" d="M721.28,418.34s14.29,17.476,20.346,13.612S721.28,418.34,721.28,418.34Z" transform="translate(-195.136 -116.59)" opacity="0.1"/>
  <path id="Path_156" data-name="Path 156" d="M728.1,401.28c1.514.5,13.959,17.823,20.346,15.772S728.1,401.28,728.1,401.28Z" transform="translate(-196.578 -112.984)" opacity="0.1"/>
  <path id="Path_157" data-name="Path 157" d="M732.58,439s.844,9.921,11.1,8.572S732.58,439,732.58,439Z" transform="translate(-197.525 -120.957)" opacity="0.1"/>
  <path id="Path_158" data-name="Path 158" d="M619.534,301.83l-5.544,12.358,6.924-7.027Z" transform="translate(-129.785 -63.801)" opacity="0.1"/>
  <path id="Path_159" data-name="Path 159" d="M619.534,300.98l-5.544,12.358,6.924-7.027Z" transform="translate(-129.785 -63.621)" fill="#f0f3f7"/>
  <path id="Path_160" data-name="Path 160" d="M589.569,483.17l-4.132-.875-7.586-14.25.765-5.094Z" transform="translate(-122.146 -97.858)" opacity="0.3"/>
  <path id="Path_161" data-name="Path 161" d="M679.705,487.65l-.907,4.724v.008l-10.757,8.777-4.061-.86Z" transform="translate(-140.352 -103.079)" opacity="0.3"/>
  <path id="Path_162" data-name="Path 162" d="M501.37,430.324c-2.082.347-4.1.662-5.946.9-10.252,1.349-34.636-10.757-34.636-10.757s-29.755-24.881-38.327-48.413,10.252-27.065,10.252-27.065c7.1-4.038,22.531,7.224,24.715,9.077s4.038,6.553,3.864,9.582,5.047,6.893,5.047,6.893,8.911,15.465,11.1,17.145,2.689,3.194,3.36,6.057,6.553,5.213,9.077,5.039,5.52.844,5.52,2.184c0,1.08,2.468,1.617,4.5,1.79C500.486,411.374,501.078,422.667,501.37,430.324Z" transform="translate(-131.499 -100.901)" opacity="0.1"/>
  <path id="Path_163" data-name="Path 163" d="M501.637,427.143c-1.577.252-3.091.481-4.511.67-10.252,1.349-34.628-10.757-34.628-10.757s-29.755-24.881-38.327-48.413,10.252-27.065,10.252-27.065c7.1-4.038,22.523,7.224,24.707,9.077s4.038,6.553,3.872,9.582,5.039,6.893,5.039,6.893,8.911,15.465,11.1,17.145,2.689,3.194,3.367,6.057,6.553,5.2,9.077,5.039,5.52.844,5.52,2.185c0,.789,1.4,1.317,2.965,1.577.063.915.118,1.885.189,2.894C500.777,409.777,501.313,419.667,501.637,427.143Z" transform="translate(-131.86 -100.181)" opacity="0.1"/>
  <path id="Path_164" data-name="Path 164" d="M571.714,428.84l-.639,15.11h-.686l-1.419-.789.173-13.02A22.864,22.864,0,0,1,571.714,428.84Z" transform="translate(-162.941 -118.81)" opacity="0.1"/>
  <path id="Path_165" data-name="Path 165" d="M432.712,343.278s-18.824,3.533-10.252,27.065,38.327,48.421,38.327,48.421,24.376,12.1,34.636,10.757,25.883-4.874,27.9-4.369,15.638.5,15.638.5l.67-15.772-15.772-.844-8.068-1.68s-2.863-2.366-4.542-2.019-5.2-2.019-5.2-2.019-2.7-2.184-4.732-2.184-5.883-.5-5.883-1.845-3.028-2.366-5.52-2.184-8.446-2.185-9.14-5.079-1.175-4.369-3.359-6.049-11.1-17.152-11.1-17.152-5.213-3.864-5.047-6.885-1.68-7.736-3.864-9.59S439.763,339.248,432.712,343.278Z" transform="translate(-131.499 -100.541)" fill="#dce6f2"/>
  <path id="Path_166" data-name="Path 166" d="M495.935,412.15s-7.232,7.232-5.386,8.572Z" transform="translate(-146.301 -115.282)" opacity="0.1"/>
  <path id="Path_167" data-name="Path 167" d="M505.3,419.4s-9.416,7.232-6.893,7.736S505.3,419.4,505.3,419.4Z" transform="translate(-147.934 -116.814)" opacity="0.1"/>
  <path id="Path_168" data-name="Path 168" d="M487,433c1.349.678,21.348,12.618,28.919,12.444Z" transform="translate(-145.614 -119.689)" opacity="0.1"/>
  <path id="Path_169" data-name="Path 169" d="M480.387,327.176s-3.533,11.6-4.882,11.6c-1.057,0-18.8-14.369-26.206-20.409l.323-.268s.67-5.213,3.36-7.886S480.387,327.176,480.387,327.176Z" transform="translate(-137.645 -93.681)" opacity="0.1"/>
  <path id="Path_170" data-name="Path 170" d="M479.527,325.466s-3.525,11.6-4.874,11.6c-1.065,0-18.809-14.369-26.214-20.41l.323-.268s.678-5.213,3.367-7.886S479.527,325.466,479.527,325.466Z" transform="translate(-137.463 -93.32)" fill="#dce6f2"/>
  <g id="Group_6" data-name="Group 6" transform="translate(294.455 155.737)" opacity="0.15">
    <path id="Path_171" data-name="Path 171" d="M427.49,282.54h0c2.366,5.4,8.88,8.02,12.657,12.326C437.9,289.574,431.331,286.98,427.49,282.54Z" transform="translate(-427.49 -243.622)"/>
    <path id="Path_172" data-name="Path 172" d="M455.282,297.1a5.668,5.668,0,0,1-5.173,2.642,15.1,15.1,0,0,1-5.189-1.325,10.088,10.088,0,0,1,1.341,2.855,16.483,16.483,0,0,0,5.867,1.577,5.612,5.612,0,0,0,5.173-2.642c1.506-2.878-.063-5.339-1.9-7.665A5.008,5.008,0,0,1,455.282,297.1Z" transform="translate(-431.174 -245.735)"/>
    <path id="Path_173" data-name="Path 173" d="M485.86,245.027c-.339-1.514-1.491-2.7-2.082-4.132a25.8,25.8,0,0,1-.86-3.375,10.458,10.458,0,0,0-2.421-4.33,10.059,10.059,0,0,1,.4,1.191,27.129,27.129,0,0,0,.883,3.391c.591,1.427,1.743,2.618,2.082,4.132a4.282,4.282,0,0,1-3.155,4.937c-2.918.639-6.246-1.885-8.754-.26-1.538.986-1.893,3.044-2.1,4.858q-.528,4.732-1.073,9.408a11.278,11.278,0,0,1-.694,3.233c-1.238,2.839-4.637,4.172-7.736,4.125a4.645,4.645,0,0,1-3.328-1.1,21.994,21.994,0,0,0-1.443-1.83c-3.943-3.312-5.142,4.787-4.1,7.1a14.29,14.29,0,0,0,1.924,2.894c-.867-2.6.347-10.094,4.2-6.885a20.357,20.357,0,0,1,1.435,1.83,4.677,4.677,0,0,0,3.336,1.1c3.1.047,6.5-1.285,7.736-4.125a11.277,11.277,0,0,0,.694-3.241q.536-4.732,1.073-9.4c.205-1.814.56-3.872,2.09-4.858,2.516-1.625,5.844.9,8.762.252A4.274,4.274,0,0,0,485.86,245.027Z" transform="translate(-432.487 -233.19)"/>
  </g>
  <path id="Path_174" data-name="Path 174" d="M703.7,297.154a6.1,6.1,0,0,1-2.532-.063,14.2,14.2,0,0,1-8.107-4.842c-1.143-1.388-2.043-3.281-1.349-4.937.552-1.333,2-2.169,2.366-3.557a5.283,5.283,0,0,0-.134-2.547l-.852-3.888c-.244-1.1-.67-2.405-1.766-2.666s-2.011.639-2.871,1.317c-2.106,1.664-6.151,2.8-8.675,1.427s-1.822-5.93-2.232-8.4a1.475,1.475,0,0,0-.552-1.1,2.248,2.248,0,0,0-1.151-.087,3.3,3.3,0,0,1-2.855-2.531,22.393,22.393,0,0,1-.45-4.061,4.551,4.551,0,0,0-1.822-3.509,5.67,5.67,0,0,0-2.973-.513l-5.852.063c-1.443,0-3.154-.095-3.943-1.293s-.205-2.9.623-4.124,1.877-2.437,1.948-3.943-.907-2.807-1.7-4.069a7.3,7.3,0,0,1-.994-2.255l-1.68-.1c-.655,1.341,0,2.942.789,4.211s1.774,2.571,1.7,4.061-1.12,2.689-1.948,3.943-1.435,2.894-.615,4.124,2.484,1.317,3.943,1.3l5.852-.071a5.662,5.662,0,0,1,2.973.521,4.527,4.527,0,0,1,1.822,3.509,21.787,21.787,0,0,0,.457,4.061,3.264,3.264,0,0,0,2.855,2.524,2.31,2.31,0,0,1,1.143.087,1.482,1.482,0,0,1,.552,1.112c.41,2.461-.347,7.027,2.232,8.4s6.6.237,8.675-1.427c.86-.678,1.814-1.577,2.878-1.325s1.522,1.577,1.759,2.666l.86,3.9a5.276,5.276,0,0,1,.126,2.547c-.394,1.38-1.853,2.224-2.405,3.549-.686,1.656.205,3.557,1.349,4.937a14.2,14.2,0,0,0,8.162,4.842,6.1,6.1,0,0,0,2.531.063,5.946,5.946,0,0,0,3.281-2.492A4.385,4.385,0,0,1,703.7,297.154Z" transform="translate(-181.271 -79.203)" opacity="0.1"/>
  <ellipse id="Ellipse_13" data-name="Ellipse 13" cx="19.061" cy="2.926" rx="19.061" ry="2.926" transform="translate(141.573 560.386)" fill="#6c63ff" opacity="0.1"/>
  <ellipse id="Ellipse_14" data-name="Ellipse 14" cx="19.061" cy="2.926" rx="19.061" ry="2.926" transform="translate(807.106 484.315)" fill="#6c63ff" opacity="0.1"/>
  <ellipse id="Ellipse_15" data-name="Ellipse 15" cx="55.203" cy="8.47" rx="55.203" ry="8.47" transform="translate(576.639 596.67)" fill="#8e99f3" opacity="0.1"/>
  <ellipse id="Ellipse_16" data-name="Ellipse 16" cx="43.059" cy="6.609" rx="43.059" ry="6.609" transform="translate(745.712 562.649)" fill="#8e99f3" opacity="0.1"/>
  <ellipse id="Ellipse_17" data-name="Ellipse 17" cx="73.018" cy="11.206" rx="73.018" ry="11.206" transform="translate(708.662 623.901)" fill="#8e99f3" opacity="0.1"/>
  <ellipse id="Ellipse_18" data-name="Ellipse 18" cx="55.203" cy="8.47" rx="55.203" ry="8.47" transform="translate(23.848 636.496)" fill="#8e99f3" opacity="0.1"/>
  <path id="Path_175" data-name="Path 175" d="M257.3,631.85s2.161,2.823-.994,7.1-5.757,7.886-4.732,10.52c0,0,4.732-7.886,8.675-8.028S261.571,636.613,257.3,631.85Z" transform="translate(-95.803 -161.722)" fill="#5c6bc0"/>
  <path id="Path_176" data-name="Path 176" d="M257.342,631.85a3.155,3.155,0,0,1,.442.883c3.785,4.448,5.8,8.588,2.161,8.675-3.383.095-7.445,6.151-8.415,7.681a2.938,2.938,0,0,0,.11.347s4.732-7.886,8.675-8.028S261.609,636.613,257.342,631.85Z" transform="translate(-95.841 -161.722)" opacity="0.1"/>
  <path id="Path_177" data-name="Path 177" d="M263.865,636.239c0,.994-.118,1.8-.252,1.8s-.252-.789-.252-1.8.142-.52.276-.52S263.865,635.245,263.865,636.239Z" transform="translate(-98.341 -162.514)" fill="#ffd037"/>
  <path id="Path_178" data-name="Path 178" d="M265.284,637.736c-.867.473-1.632.789-1.7.639s.584-.6,1.459-1.08.528-.126.591,0S266.16,637.255,265.284,637.736Z" transform="translate(-98.389 -162.821)" fill="#ffd037"/>
  <path id="Path_179" data-name="Path 179" d="M243.141,631.85s-2.161,2.823.994,7.1,5.765,7.886,4.732,10.52c0,0-4.732-7.886-8.635-8.028S238.851,636.613,243.141,631.85Z" transform="translate(-93.043 -161.722)" fill="#5c6bc0"/>
  <path id="Path_180" data-name="Path 180" d="M243.136,631.85a3.479,3.479,0,0,0-.442.883c-3.785,4.448-5.8,8.588-2.161,8.675,3.383.095,7.445,6.151,8.422,7.681a3.01,3.01,0,0,1-.118.347s-4.732-7.886-8.635-8.028S238.846,636.613,243.136,631.85Z" transform="translate(-93.038 -161.722)" opacity="0.1"/>
  <path id="Path_181" data-name="Path 181" d="M239.35,636.239c0,.994.11,1.8.244,1.8s.252-.789.252-1.8-.142-.52-.276-.52S239.35,635.245,239.35,636.239Z" transform="translate(-93.266 -162.514)" fill="#ffd037"/>
  <path id="Path_182" data-name="Path 182" d="M237.458,637.736c.875.473,1.632.789,1.7.639s-.591-.6-1.467-1.08-.528-.126-.591,0S236.582,637.255,237.458,637.736Z" transform="translate(-92.754 -162.821)" fill="#ffd037"/>
  <ellipse id="Ellipse_19" data-name="Ellipse 19" cx="22.578" cy="3.462" rx="22.578" ry="3.462" transform="translate(133.222 502.414)" fill="#6c63ff" opacity="0.1"/>
  <path id="Path_183" data-name="Path 183" d="M260.177,649l-.11.883-.15,1.246-.063.521-.15,1.246-.071.521-.15,1.246-1.727,14.2c-.15,1.262-2.216,2.248-4.732,2.248h-8.943c-2.492,0-4.558-.986-4.732-2.248l-1.727-14.2-.15-1.246-.063-.521-.158-1.246-.063-.521-.15-1.246-.11-.883c-.087-.718,1.033-1.317,2.445-1.317H257.74C259.144,647.68,260.264,648.279,260.177,649Z" transform="translate(-92.753 -165.068)" fill="#65617d"/>
  <path id="Path_184" data-name="Path 184" d="M205.988,614.76l-.15,1.246H183.11l-.15-1.246Z" transform="translate(-38.674 -129.948)" fill="#9d9cb5"/>
  <path id="Path_185" data-name="Path 185" d="M205.832,617l-.15,1.246H183.388L183.23,617Z" transform="translate(-38.731 -130.421)" fill="#9d9cb5"/>
  <path id="Path_186" data-name="Path 186" d="M205.678,619.24l-.158,1.246H183.66l-.15-1.246Z" transform="translate(-38.79 -130.895)" fill="#9d9cb5"/>
  <path id="Path_187" data-name="Path 187" d="M1082.6,618s-2.7,12.555,9.3,14.037l.741-1.4S1083.342,621.9,1082.6,618Z" transform="translate(-271.457 -158.794)" fill="#6c63ff"/>
  <path id="Path_188" data-name="Path 188" d="M1097.447,628.842l-2.792.591-.276.063s-7.445-6.041-7.35-19.526a33.293,33.293,0,0,0,3.557,5.623C1093.536,619.5,1096.888,624.7,1097.447,628.842Z" transform="translate(-272.448 -157.097)" fill="#6c63ff"/>
  <path id="Path_189" data-name="Path 189" d="M1099.654,628.89a1.751,1.751,0,0,1-1.5.2c-7.161-1.672-4.732-25.007-4.732-25.007.394.181.789,3.154,2.476,6.987C1098.778,617.794,1101.957,627.2,1099.654,628.89Z" transform="translate(-273.716 -155.852)" fill="#6c63ff"/>
  <path id="Path_190" data-name="Path 190" d="M1118.279,618s.465,12.555-11.53,14.037l-.749-1.419S1117.537,621.9,1118.279,618Z" transform="translate(-276.458 -158.794)" fill="#6c63ff"/>
  <path id="Path_191" data-name="Path 191" d="M1113.822,610a23.22,23.22,0,0,1-9.574,19.526l-.284-.063-2.784-.591c.552-4.14,3.943-9.345,6.853-13.249A30.341,30.341,0,0,1,1113.822,610Z" transform="translate(-275.439 -157.103)" fill="#6c63ff"/>
  <path id="Path_192" data-name="Path 192" d="M1103.467,627.678a4.353,4.353,0,0,1-1.577,1.222h0a3.067,3.067,0,0,1-.591.2c-1.759.41-2.366-.86-2.271-3.02.166-3.841,2.579-10.5,4.732-15.5a19.368,19.368,0,0,1,4.5-6.49S1108.144,622.252,1103.467,627.678Z" transform="translate(-274.982 -155.854)" fill="#6c63ff"/>
  <path id="Path_193" data-name="Path 193" d="M1101.073,593.7s-8,28.39-1.112,32.633S1102.839,596.208,1101.073,593.7Z" transform="translate(-274.59 -153.658)" fill="#6c63ff"/>
  <path id="Path_194" data-name="Path 194" d="M1082.6,618s-2.7,12.555,9.3,14.037l.741-1.4S1083.342,621.9,1082.6,618Z" transform="translate(-271.457 -158.794)" opacity="0.1"/>
  <path id="Path_195" data-name="Path 195" d="M1097.447,628.842l-2.792.591-.276.063s-7.445-6.041-7.35-19.526a33.293,33.293,0,0,0,3.557,5.623C1093.536,619.5,1096.888,624.7,1097.447,628.842Z" transform="translate(-272.448 -157.097)" opacity="0.1"/>
  <path id="Path_196" data-name="Path 196" d="M1099.654,628.89a1.751,1.751,0,0,1-1.5.2c-7.161-1.672-4.732-25.007-4.732-25.007.394.181.789,3.154,2.476,6.987C1098.778,617.794,1101.957,627.2,1099.654,628.89Z" transform="translate(-273.716 -155.852)" opacity="0.1"/>
  <path id="Path_197" data-name="Path 197" d="M1118.279,618s.465,12.555-11.53,14.037l-.749-1.419S1117.537,621.9,1118.279,618Z" transform="translate(-276.458 -158.794)" opacity="0.1"/>
  <path id="Path_198" data-name="Path 198" d="M1113.822,610a23.22,23.22,0,0,1-9.574,19.526l-.284-.063-2.784-.591c.552-4.14,3.943-9.345,6.853-13.249A30.341,30.341,0,0,1,1113.822,610Z" transform="translate(-275.439 -157.103)" opacity="0.1"/>
  <path id="Path_199" data-name="Path 199" d="M1103.467,627.678a4.353,4.353,0,0,1-1.577,1.222h0a3.067,3.067,0,0,1-.591.2c-1.759.41-2.366-.86-2.271-3.02.166-3.841,2.579-10.5,4.732-15.5a19.368,19.368,0,0,1,4.5-6.49S1108.144,622.252,1103.467,627.678Z" transform="translate(-274.982 -155.854)" opacity="0.1"/>
  <path id="Path_200" data-name="Path 200" d="M1101.073,593.7s-8,28.39-1.112,32.633S1102.839,596.208,1101.073,593.7Z" transform="translate(-274.59 -153.658)" opacity="0.1"/>
  <path id="Path_201" data-name="Path 201" d="M1082.652,618s-1.577,12.555,10.41,14.037l.741-1.4S1083.393,621.9,1082.652,618Z" transform="translate(-271.508 -158.794)" fill="#5c6bc0"/>
  <path id="Path_202" data-name="Path 202" d="M1098.553,628.848l-2.792.591-.276.063s-8.556-6.041-8.485-19.5c0,0,2.192,2.366,4.669,5.623C1094.642,619.5,1097.993,624.708,1098.553,628.848Z" transform="translate(-272.442 -157.103)" fill="#5c6bc0"/>
  <path id="Path_203" data-name="Path 203" d="M1099.811,630.349l-2.792.591c-2.642-2.319-3.691-8.375-4.069-13.84C1095.9,621,1099.251,626.209,1099.811,630.349Z" transform="translate(-273.699 -158.604)" opacity="0.1"/>
  <path id="Path_204" data-name="Path 204" d="M1100.853,628.89a1.766,1.766,0,0,1-1.506.2c-7.161-1.672-5.852-25.007-5.852-25.007.394.181,1.94,3.154,3.588,6.987C1099.977,617.794,1103.147,627.2,1100.853,628.89Z" transform="translate(-273.795 -155.852)" fill="#5c6bc0"/>
  <path id="Path_205" data-name="Path 205" d="M1118.581,618s1.577,12.555-10.41,14.037l-.741-1.4S1117.84,621.9,1118.581,618Z" transform="translate(-276.76 -158.794)" fill="#5c6bc0"/>
  <path id="Path_206" data-name="Path 206" d="M1114.12,610c.095,13.485-8.462,19.526-8.462,19.526l-.276-.063-2.792-.591c.552-4.14,3.943-9.345,6.861-13.249C1111.927,612.366,1114.12,610,1114.12,610Z" transform="translate(-275.737 -157.103)" fill="#5c6bc0"/>
  <path id="Path_207" data-name="Path 207" d="M1109.451,617.1c-.363,5.094-1.293,10.7-3.557,13.32a4.006,4.006,0,0,1-.513.52l-2.792-.591C1103.142,626.209,1106.5,621,1109.451,617.1Z" transform="translate(-275.737 -158.604)" opacity="0.1"/>
  <path id="Path_208" data-name="Path 208" d="M1104.878,627.678a4.266,4.266,0,0,1-1.577,1.222h0a3.151,3.151,0,0,1-.583.2c-1.766.41-2.366-.86-2.279-3.02.173-3.841,2.587-10.5,4.732-15.5,1.577-3.588,3-6.309,3.383-6.49C1108.553,604.082,1109.554,622.252,1104.878,627.678Z" transform="translate(-275.281 -155.854)" fill="#5c6bc0"/>
  <path id="Path_209" data-name="Path 209" d="M1101.726,630.763a1.893,1.893,0,0,1-1.136-.363c-3.367-2.1-3.438-9.968-2.634-17.46C1100.851,619.667,1104.021,629.075,1101.726,630.763Z" transform="translate(-274.668 -157.725)" opacity="0.1"/>
  <path id="Path_210" data-name="Path 210" d="M1104.88,629.417c-.386.844-.907,1.285-1.577,1.222h0a2.122,2.122,0,0,1-.954-.363,5.1,5.1,0,0,1-1.908-2.461c.173-3.841,2.587-10.5,4.732-15.5C1105.945,619.236,1106.2,626.57,1104.88,629.417Z" transform="translate(-275.283 -157.594)" fill="#5c6bc0" opacity="0.1"/>
  <path id="Path_211" data-name="Path 211" d="M1101.3,593.7s-6.877,28.39,0,32.633S1103.067,596.208,1101.3,593.7Z" transform="translate(-274.819 -153.658)" fill="#5c6bc0"/>
  <path id="Path_212" data-name="Path 212" d="M1057.075,597.61H1028.44v4.74h4.369l.11.56,1.751,9.2h16.648l1.751-9.2.1-.56h3.9Z" transform="translate(-217.391 -126.323)" fill="#4b4770"/>
  <path id="Path_213" data-name="Path 213" d="M1057.075,597.61H1028.44v4.74h4.369l.11.56,1.751,9.2h16.648l1.751-9.2.1-.56h3.9Z" transform="translate(-217.391 -126.323)" opacity="0.1"/>
  <path id="Path_214" data-name="Path 214" d="M1056.031,601.14l-.481,2.516-1.751,9.2h-16.648l-1.751-9.2-.481-2.516Z" transform="translate(-218.761 -127.069)" fill="#4b4770"/>
  <path id="Path_215" data-name="Path 215" d="M1056.031,601.14l-.481,2.516H1035.4l-.481-2.516Z" transform="translate(-218.761 -127.069)" opacity="0.1"/>
  <rect id="Rectangle_25" data-name="Rectangle 25" width="28.635" height="4.74" transform="translate(812.161 471.287)" fill="#4b4770"/>
  <path id="Path_216" data-name="Path 216" d="M180.31,734.587a13.753,13.753,0,0,0-1.8,3.391c-.11.292-.221.631-.331.954a3.446,3.446,0,0,0-.623-.221,8.677,8.677,0,0,0-2.815-.237c0-.371.047-.789.055-1.159.118-4.156-.371-9.945-4.337-7.492-3.8,2.366-1.088,6.309,1.364,8.833.213.221.426.426.631.623-2.24,1.577-2.666,5.307-3.036,9.18s-3.659,8.107-5.844,10.512c-.221.245-.418.465-.615.67a8,8,0,0,0-6.348-1.633c-.087-.339-.189-.694-.292-1.064-1.767-6.38-5.434-17.429-10.11-19.85l.615-.789c1.987-2.595,4.227-6.459.923-7.445s-3.6,3.344-3.423,6.593q.047.615.095,1.159a4.834,4.834,0,0,0-3.454,1.688l-.513-.607c-2.681-3.155-7.594-8.178-9.085-4.385-1.388,3.533,2.942,8.123,5.986,10.78l.189.166c-2.043,8.288,6.877,15.047,11.679,18l.623.379c-6.624,7.807-10.717,22.444-10.717,22.444l18.548,3.312s12.3-10.615,10.725-20.583h.126c12.295-2.461,15.086-15.567,13.17-23.351l.221-.087a13.919,13.919,0,0,0,5.694-4.306C191.051,735.3,183.859,729.9,180.31,734.587Z" transform="translate(-70.384 -182.198)" fill="#6c63ff"/>
  <path id="Path_217" data-name="Path 217" d="M180.31,734.587a13.753,13.753,0,0,0-1.8,3.391c-.11.292-.221.631-.331.954a3.446,3.446,0,0,0-.623-.221,8.677,8.677,0,0,0-2.815-.237c0-.371.047-.789.055-1.159.118-4.156-.371-9.945-4.337-7.492-3.8,2.366-1.088,6.309,1.364,8.833.213.221.426.426.631.623-2.24,1.577-2.666,5.307-3.036,9.18s-3.659,8.107-5.844,10.512c-.221.245-.418.465-.615.67a8,8,0,0,0-6.348-1.633c-.087-.339-.189-.694-.292-1.064-1.767-6.38-5.434-17.429-10.11-19.85l.615-.789c1.987-2.595,4.227-6.459.923-7.445s-3.6,3.344-3.423,6.593q.047.615.095,1.159a4.834,4.834,0,0,0-3.454,1.688l-.513-.607c-2.681-3.155-7.594-8.178-9.085-4.385-1.388,3.533,2.942,8.123,5.986,10.78l.189.166c-2.043,8.288,6.877,15.047,11.679,18l.623.379c-6.624,7.807-10.717,22.444-10.717,22.444l18.548,3.312s12.3-10.615,10.725-20.583h.126c12.295-2.461,15.086-15.567,13.17-23.351l.221-.087a13.919,13.919,0,0,0,5.694-4.306C191.051,735.3,183.859,729.9,180.31,734.587Z" transform="translate(-70.384 -182.198)" opacity="0.1"/>
  <path id="Path_218" data-name="Path 218" d="M143.691,740.849l-2.169,6.309s-1.207-.852-2.729-2.192c-3.044-2.658-7.374-7.247-5.986-10.78,1.49-3.793,6.4,1.214,9.085,4.385C142.974,739.832,143.691,740.849,143.691,740.849Z" transform="translate(-70.689 -183.066)" fill="#5c6bc0"/>
  <path id="Path_219" data-name="Path 219" d="M151.8,736.317a30.048,30.048,0,0,1-2.113,2.492,33.291,33.291,0,0,1-.386-3.344c-.181-3.249.166-7.563,3.423-6.593S153.787,733.723,151.8,736.317Z" transform="translate(-74.223 -182.201)" fill="#5c6bc0"/>
  <path id="Path_220" data-name="Path 220" d="M186.331,737.454c-.063,2.09-.268,3.762-.268,3.762a27.518,27.518,0,0,1-2.7-2.421c-2.453-2.547-5.165-6.475-1.364-8.833C185.921,727.5,186.41,733.3,186.331,737.454Z" transform="translate(-80.743 -182.336)" fill="#5c6bc0"/>
  <path id="Path_221" data-name="Path 221" d="M201.477,741.142a13.919,13.919,0,0,1-5.694,4.306,17.043,17.043,0,0,1-1.908.694l-2.555-3.588a25.374,25.374,0,0,1,1.057-3.486,13.756,13.756,0,0,1,1.8-3.391C197.708,730.993,204.916,736.387,201.477,741.142Z" transform="translate(-83.113 -183.288)" fill="#5c6bc0"/>
  <path id="Path_222" data-name="Path 222" d="M143.569,740.11c1.08,1.262,1.8,2.24,1.8,2.24l-2.169,6.309s-1.207-.852-2.729-2.192a12.381,12.381,0,0,1,2.445-5.576C143.128,740.63,143.356,740.362,143.569,740.11Z" transform="translate(-72.365 -184.606)" opacity="0.1"/>
  <path id="Path_223" data-name="Path 223" d="M151.81,738.122a30.047,30.047,0,0,1-2.113,2.492,33.279,33.279,0,0,1-.386-3.344A4.361,4.361,0,0,1,151.81,738.122Z" transform="translate(-74.233 -184.005)" opacity="0.1"/>
  <path id="Path_224" data-name="Path 224" d="M160.569,763.631,155.175,766s-1.175-.568-2.871-1.625c-5.67-3.486-17.066-12.263-9.463-22.61s14.014,8.209,16.561,17.286C160.167,761.809,160.569,763.631,160.569,763.631Z" transform="translate(-72.33 -184.31)" fill="#5c6bc0"/>
  <path id="Path_225" data-name="Path 225" d="M184.18,740.961a4.432,4.432,0,0,1,2.973-1.341c-.063,2.09-.268,3.762-.268,3.762A27.523,27.523,0,0,1,184.18,740.961Z" transform="translate(-81.604 -184.502)" opacity="0.1"/>
  <path id="Path_226" data-name="Path 226" d="M195.8,746.84a17.03,17.03,0,0,1-1.908.694l-2.555-3.588a25.369,25.369,0,0,1,1.057-3.486C194.029,741.422,195.244,743.819,195.8,746.84Z" transform="translate(-83.118 -184.68)" opacity="0.1"/>
  <path id="Path_227" data-name="Path 227" d="M177.093,770.4c-.292.063-.6.118-.907.166-18.083,2.744-5.962-7.011-5.962-7.011s.789-.789,1.916-1.979c2.184-2.405,5.465-6.617,5.844-10.512.568-5.859,1.222-11.356,8.139-9.747C192.913,742.907,194.214,766.968,177.093,770.4Z" transform="translate(-77.814 -184.8)" fill="#5c6bc0"/>
  <rect id="Rectangle_26" data-name="Rectangle 26" width="34.549" height="9.085" transform="translate(64.391 630.62)" fill="#d4dfec"/>
  <rect id="Rectangle_27" data-name="Rectangle 27" width="45.141" height="31.703" transform="translate(58.902 601.094)" fill="#d4dfec"/>
  <rect id="Rectangle_28" data-name="Rectangle 28" width="34.549" height="9.085" transform="translate(64.391 630.62)" opacity="0.1"/>
  <rect id="Rectangle_29" data-name="Rectangle 29" width="45.141" height="31.703" transform="translate(58.902 601.094)" opacity="0.1"/>
  <rect id="Rectangle_30" data-name="Rectangle 30" width="34.549" height="9.085" transform="translate(66.662 630.62)" fill="#d4dfec"/>
  <path id="Path_228" data-name="Path 228" d="M162.618,764.51c.789,2.713,1.167,4.574,1.167,4.574l-5.394,2.366s-1.175-.568-2.871-1.625C157.633,767.152,160.015,765.133,162.618,764.51Z" transform="translate(-75.546 -189.763)" opacity="0.1"/>
  <path id="Path_229" data-name="Path 229" d="M177.093,775.9c-.292.063-.6.118-.907.166-18.083,2.744-5.962-7.011-5.962-7.011s.789-.789,1.916-1.979C175.516,769.785,176.912,772.829,177.093,775.9Z" transform="translate(-77.814 -190.307)" opacity="0.1"/>
  <path id="Path_230" data-name="Path 230" d="M142.72,792.9s10.126-36.277,24.329-25.086-5.781,28.39-5.781,28.39Z" transform="translate(-72.84 -190.009)" fill="#5c6bc0"/>
  <circle id="Ellipse_20" data-name="Ellipse 20" cx="1.136" cy="1.136" r="1.136" transform="translate(73.854 562.003)" opacity="0.1"/>
  <circle id="Ellipse_21" data-name="Ellipse 21" cx="1.136" cy="1.136" r="1.136" transform="translate(73.76 567.302)" opacity="0.1"/>
  <circle id="Ellipse_22" data-name="Ellipse 22" cx="1.136" cy="1.136" r="1.136" transform="translate(106.7 563.044)" opacity="0.1"/>
  <circle id="Ellipse_23" data-name="Ellipse 23" cx="1.136" cy="1.136" r="1.136" transform="translate(80.203 590.211)" opacity="0.1"/>
  <circle id="Ellipse_24" data-name="Ellipse 24" cx="1.136" cy="1.136" r="1.136" transform="translate(104.334 571.844)" opacity="0.1"/>
  <circle id="Ellipse_25" data-name="Ellipse 25" cx="1.136" cy="1.136" r="1.136" transform="translate(92.6 583.587)" opacity="0.1"/>
  <circle id="Ellipse_26" data-name="Ellipse 26" cx="1.136" cy="1.136" r="1.136" transform="translate(77.734 564.274)" opacity="0.1"/>
  <circle id="Ellipse_27" data-name="Ellipse 27" cx="1.136" cy="1.136" r="1.136" transform="translate(103.577 566.45)" opacity="0.1"/>
  <circle id="Ellipse_28" data-name="Ellipse 28" cx="1.136" cy="1.136" r="1.136" transform="translate(99.697 575.251)" opacity="0.1"/>
  <circle id="Ellipse_29" data-name="Ellipse 29" cx="1.136" cy="1.136" r="1.136" transform="translate(87.773 589.36)" opacity="0.1"/>
  <circle id="Ellipse_30" data-name="Ellipse 30" cx="1.136" cy="1.136" r="1.136" transform="translate(85.313 583.776)" opacity="0.1"/>
  <circle id="Ellipse_31" data-name="Ellipse 31" cx="1.136" cy="1.136" r="1.136" transform="translate(79.438 571.182)" opacity="0.1"/>
  <rect id="Rectangle_31" data-name="Rectangle 31" width="34.549" height="3.32" transform="translate(66.662 630.62)" opacity="0.1"/>
  <rect id="Rectangle_32" data-name="Rectangle 32" width="45.141" height="31.703" transform="translate(61.173 601.094)" fill="#d4dfec"/>
  <circle id="Ellipse_32" data-name="Ellipse 32" cx="1.136" cy="1.136" r="1.136" transform="translate(89.288 594.47)" opacity="0.1"/>
  <circle id="Ellipse_33" data-name="Ellipse 33" cx="1.136" cy="1.136" r="1.136" transform="translate(82.474 595.89)" opacity="0.1"/>
  <circle id="Ellipse_34" data-name="Ellipse 34" cx="8.249" cy="8.249" r="8.249" transform="translate(31.182 32.759)" fill="#8e99f3" opacity="0.1"/>
  <circle id="Ellipse_35" data-name="Ellipse 35" cx="11.041" cy="11.041" r="11.041" transform="translate(820.615 289.495)" fill="#8e99f3" opacity="0.1"/>
  <circle id="Ellipse_36" data-name="Ellipse 36" cx="8.06" cy="8.06" r="8.06" transform="translate(844.881 268.817)" fill="#8e99f3" opacity="0.1"/>
  <circle id="Ellipse_37" data-name="Ellipse 37" cx="11.041" cy="11.041" r="11.041" transform="translate(42.586)" fill="#8e99f3" opacity="0.1"/>
  <circle id="Ellipse_38" data-name="Ellipse 38" cx="11.041" cy="11.041" r="11.041" transform="translate(0 50.472)" fill="#8e99f3" opacity="0.1"/>
</svg>
