<svg xmlns="http://www.w3.org/2000/svg" width="1920" height="981" viewBox="0 0 1920 981"><g transform="translate(0 -1081)"><rect width="1920" height="981" transform="translate(0 1081)" fill="#fff"/><g transform="translate(22 -11)"><text transform="translate(968 1405)" font-size="60" font-family="Roboto-Bold, Roboto" font-weight="700"><tspan x="0" y="63">И все это </tspan><tspan y="63" fill="#cd0">бесплатно</tspan><tspan font-size="52" font-family="Roboto-Regular, Roboto" font-weight="400"><tspan x="0" y="133">Все верно, для того чтобы </tspan><tspan x="0" y="201" xml:space="preserve">пользоваться FluentCRM  не </tspan></tspan></text><g transform="translate(964 1709)"><rect width="258" height="52" rx="26" fill="#cd0"/><text transform="translate(52 37)" fill="#fff" font-size="30" font-family="Roboto-Regular, Roboto"><tspan x="0" y="0">Подробнее</tspan></text></g></g><g transform="translate(140 1327)"><path d="M128.619,196.713c0,50.636,31.766,91.61,71.024,91.61" transform="translate(-127.449 -169.951)" fill="#46455b"/><path d="M211.318,288.154c0-51.2,35.449-92.64,79.258-92.64" transform="translate(-139.125 -169.781)" fill="#cd0"/><path d="M158.582,202.058c0,48.1,20.257,87.02,45.29,87.02" transform="translate(-131.679 -170.705)" fill="#cd0"/><path d="M211.318,283.923c0-65.429,40.974-118.372,91.61-118.372" transform="translate(-139.125 -165.551)" fill="#46455b"/><rect width="618.348" height="350.397" rx="26.881" transform="translate(38.003 136.885)" fill="#f2f2f2"/><rect width="618.348" height="48.953" transform="translate(25.55 186.267)" fill="#fff"/><rect width="470.631" height="24.047" rx="5.17" transform="translate(111.431 396.677)" fill="#fff"/><rect width="618.348" height="350.397" rx="26.881" transform="translate(51.744 117.991)" fill="none" stroke="#3f3d56" stroke-miterlimit="10" stroke-width="1"/><rect width="618.348" height="48.953" transform="translate(51.314 170.808)" fill="none" stroke="#3f3d56" stroke-miterlimit="10" stroke-width="1"/><rect width="79.011" height="65.27" rx="8.758" transform="translate(72.785 294.478)" fill="#cd0"/><rect width="79.011" height="65.27" rx="8.758" transform="translate(82.232 283.313)" fill="none" stroke="#3f3d56" stroke-miterlimit="10" stroke-width="1"/><rect width="470.631" height="24.047" rx="5.17" transform="translate(125.172 384.654)" fill="none" stroke="#3f3d56" stroke-miterlimit="10" stroke-width="1"/><line x2="735.785" transform="translate(0 487.282)" fill="none" stroke="#3f3d56" stroke-miterlimit="10" stroke-width="1"/><path d="M1055.962,602.25l-20.741,19.844a3.934,3.934,0,0,1-5.169.246,286.032,286.032,0,0,1-52.9-55.286,3.934,3.934,0,0,1,.474-5.153l20.87-19.967a3.932,3.932,0,0,1,5.938.58c15.231,21.754,32.1,40.017,51.1,53.706a3.929,3.929,0,0,1,.421,6.03Z" transform="translate(-247.143 -218.536)" fill="#f2f2f2"/><path d="M1058.252,594.52l-20.741,19.844a3.934,3.934,0,0,1-5.169.246,286.035,286.035,0,0,1-52.9-55.286,3.935,3.935,0,0,1,.474-5.153l20.87-19.967a3.932,3.932,0,0,1,5.938.58c15.231,21.754,32.1,40.017,51.1,53.706a3.929,3.929,0,0,1,.421,6.03Z" transform="translate(-247.467 -217.445)" fill="none" stroke="#3f3d56" stroke-miterlimit="10" stroke-width="1"/><ellipse cx="6.871" cy="12.882" rx="6.871" ry="12.882" transform="matrix(0.723, -0.691, 0.691, 0.723, 758.117, 357.336)" fill="#cd0"/><ellipse cx="6.871" cy="12.882" rx="6.871" ry="12.882" transform="matrix(0.723, -0.691, 0.691, 0.723, 757.602, 353.074)" fill="none" stroke="#3f3d56" stroke-miterlimit="10" stroke-width="1"/><path d="M1039.458,528.546l-4.368,28.371a3.934,3.934,0,0,1-3.95,3.342,286.034,286.034,0,0,1-75.626-11.642,3.934,3.934,0,0,1-2.762-4.376l4.395-28.547a3.932,3.932,0,0,1,5.063-3.156c25.329,7.98,49.828,12.2,73.239,11.48a3.929,3.929,0,0,1,4.008,4.527Z" transform="translate(-243.797 -214.515)" fill="#f2f2f2"/><path d="M1036.569,521.019,1032.2,549.39a3.934,3.934,0,0,1-3.95,3.342,286.035,286.035,0,0,1-75.623-11.642,3.934,3.934,0,0,1-2.762-4.376l4.395-28.547a3.932,3.932,0,0,1,5.063-3.156c25.329,7.98,49.828,12.2,73.239,11.48a3.929,3.929,0,0,1,4.006,4.527Z" transform="translate(-243.389 -213.452)" fill="none" stroke="#3f3d56" stroke-miterlimit="10" stroke-width="1"/><ellipse cx="6.871" cy="12.882" rx="6.871" ry="12.882" transform="translate(739.383 323.976) rotate(-81.248)" fill="#cd0"/><ellipse cx="6.871" cy="12.882" rx="6.871" ry="12.882" transform="translate(736.381 320.901) rotate(-81.248)" fill="none" stroke="#3f3d56" stroke-miterlimit="10" stroke-width="1"/><circle cx="14.752" cy="14.752" r="14.752" transform="translate(657.316 52.653)" fill="#2f2e41"/><path d="M921.845,249.707a14.75,14.75,0,0,0-2.4-19.787c.365.217.726.447,1.077.7a14.752,14.752,0,0,1-17.175,23.988c-.352-.252-.686-.519-1.009-.795a14.75,14.75,0,0,0,19.5-4.105Z" transform="translate(-236.686 -174.639)" fill="#2f2e41"/><circle cx="26.938" cy="26.938" r="26.938" transform="translate(643.206 71.895)" fill="#2f2e41"/><path d="M907.159,326.959c0-.641-5.131-5.131-5.131-5.131s-25.655-7.055-30.786-1.924a9.279,9.279,0,0,0-1.924,10.9l23.731,7.055Z" transform="translate(-231.885 -187.079)" fill="#3f3d56"/><path d="M903.425,307.591s-5.772,16.034,0,17.317-30.786,7.055-30.786,7.055l-5.772-10.9s19.883-10.262,17.317-24.372Z" transform="translate(-231.677 -184.065)" fill="#fbbebe"/><path d="M903.425,307.591s-5.772,16.034,0,17.317-30.786,7.055-30.786,7.055l-5.772-10.9s19.883-10.262,17.317-24.372Z" transform="translate(-231.677 -184.065)" opacity="0.1"/><path d="M833.193,367.647l3.013,40.376s-1.662,30.016,4.758,57.616c0,0-.586,33.1,10.39,32.877s1.7-39.087,1.7-39.087l-1.844-83.274Z" transform="translate(-226.923 -194.084)" fill="#fbbebe"/><path d="M952.249,366.887l2.565,40.406s5.772,29.5,3.207,57.723c0,0,5.131,32.71-5.772,33.993s-7.055-38.482-7.055-38.482l-9.621-82.737Z" transform="translate(-241.378 -193.976)" fill="#fbbebe"/><path d="M889.121,508.034s5.772,66.7,3.848,70.551,0,73.116,0,73.116,1.924,26.3.641,26.3-12.186-3.848-12.186-3.848-8.338-32.71-10.262-39.124-1.924-39.124-1.924-52.592-12.827-69.268-12.827-69.268Z" transform="translate(-230.201 -213.904)" fill="#fbbebe"/><path d="M889.121,508.034s5.772,66.7,3.848,70.551,0,73.116,0,73.116,1.924,26.3.641,26.3-12.186-3.848-12.186-3.848-8.338-32.71-10.262-39.124-1.924-39.124-1.924-52.592-12.827-69.268-12.827-69.268Z" transform="translate(-230.201 -213.904)" opacity="0.1"/><path d="M879.428,701.58s10.262-6.414,12.827-2.565a25.129,25.129,0,0,0,5.131,5.772l1.282,21.405s-7.48-1-8.763.926-11.12,3.325-17.533.759,0-14.752,0-14.752Z" transform="translate(-232.052 -240.694)" fill="#2f2e41"/><path d="M937.405,497.866s-.693,21.56-9.031,36.311-17.958,26.938-16.676,38.482,9.62,7.055,4.49,55.8c0,0-3.207,19.883,0,30.144s-15.393,6.414-15.393,6.414-3.207-42.331-5.772-48.1-13.469-44.255-9.62-60.289S900.8,498.9,900.8,498.9Z" transform="translate(-234.18 -212.468)" fill="#fbbebe"/><path d="M904.321,681.294s8.979.641,11.545,1.283a3.572,3.572,0,0,0,3.848-1.283s3.207,19.882,5.131,24.372-1.924,17.317-11.545,17.317-12.186-5.772-12.186-7.7V690.273l-.641-5.772S904.321,683.218,904.321,681.294Z" transform="translate(-236.422 -238.365)" fill="#2f2e41"/><circle cx="23.089" cy="23.089" r="23.089" transform="translate(645.771 82.798)" fill="#fbbebe"/><path d="M897.468,322.188s.321,8.017-12.507,6.093-18.6-7.7-18.6-7.7-28.22,5.131-30.144,16.034S848.4,364.2,848.4,364.2s0,11.545,1.924,16.034-8.979,39.124-1.924,41.048,11.545,1.924,25.655,5.131,28.862,3.848,33.351,0,10.9-5.131,15.393-5.131,7.7-7.055,4.49-10.262-6.414-11.545-6.414-14.752,4.49-15.393,1.924-19.883l8.338-44.255s-8.979-7.055-14.11-7.7S897.468,322.188,897.468,322.188Z" transform="translate(-227.325 -187.439)" fill="#3f3d56"/><path d="M939.6,333.281l4.81.321s13.789,32.389,10.583,34.313-20.523,10.9-22.447,10.261S939.6,333.281,939.6,333.281Z" transform="translate(-240.911 -189.232)" fill="#3f3d56"/><path d="M841.815,336.268l-5.452.321s-5.452,30.465-6.093,32.389,21.165,10.9,23.089,9.621S841.815,336.268,841.815,336.268Z" transform="translate(-226.509 -189.653)" fill="#3f3d56"/><path d="M923.5,432.606l6.94,14.151s7.325,46.9,2.437,47.483-34.391-2.627-37.6,1.863-5.772,5.131-5.772,5.131-33.993,7.055-37.841,2.565,0-62.854,4.49-67.344c0,0,31.427,7.7,35.917,4.49S923.5,432.606,923.5,432.606Z" transform="translate(-229.309 -203.255)" fill="#2f2e41"/><path d="M915.644,265.316c.368.222.728.453,1.082.69A26.936,26.936,0,0,0,888.957,312.1c-.375-.2-.747-.412-1.115-.634a26.938,26.938,0,0,1,27.8-46.147Z" transform="translate(-232.798 -179.09)" fill="#2f2e41"/><path d="M890.358,265.316c-.368.222-.728.453-1.082.69A26.936,26.936,0,0,1,917.045,312.1c.375-.2.747-.412,1.115-.634a26.938,26.938,0,0,0-27.8-46.147Z" transform="translate(-234.841 -179.09)" fill="#2f2e41"/><ellipse cx="24.372" cy="15.393" rx="24.372" ry="15.393" transform="translate(645.772 77.025)" fill="#2f2e41"/></g></g></svg>