<svg xmlns="http://www.w3.org/2000/svg" width="812" height="654.811" viewBox="0 0 812 654.811"><g transform="translate(0 0)"><ellipse cx="406" cy="27.251" rx="406" ry="27.251" transform="translate(0 600.308)" fill="#3f3d56"/><ellipse cx="265.506" cy="20.244" rx="265.506" ry="20.244" transform="translate(237.386 604.98)" opacity="0.1"/><path d="M269.917,735.937l4.157,47.807,18.707,4.157,4.157-12.471s-7.275-34.3-7.275-40.532Z" transform="translate(-120.923 -185.668)" fill="#a0616a"/><path d="M333.263,693.52s-8.314,20.785-11.432,22.864,9.353,29.1,9.353,29.1l18.707-3.118s-6.236-21.825-1.039-34.3Z" transform="translate(-132.305 -176.507)" fill="#a0616a"/><path d="M325.326,708.87s-7.795,2.6-10.912,14.03-3.118,12.471-3.118,12.471l5.2,11.432h3.118s5.2,17.668,4.157,23.9,7.275,30.139,21.825,29.1S357.023,781.1,357.023,781.1l-7.275-36.375s0-9.353-2.079-9.353-18.707,3.118-18.707,3.118v3.118S317.012,725.5,325.326,708.87Z" transform="translate(-130.084 -179.906)" fill="#2f2e41"/><path d="M286.874,787.561v-6.236s-21.825,3.118-21.825,6.236v7.275s-18.707,39.492,2.079,39.492,24.943-8.314,24.943-8.314V814.582s10.393-5.2,10.393-8.314-10.142-30.659-10.142-30.659S292.071,791.718,286.874,787.561Z" transform="translate(-118.134 -194.681)" fill="#2f2e41"/><circle cx="33.257" cy="33.257" r="33.257" transform="translate(110.542 11.926)" fill="#a0616a"/><path d="M246.559,117.277s4.157,19.746,4.157,21.825,19.746,11.432,19.746,11.432l17.668-3.118,6.236-18.707s-10.393-15.589-10.393-21.825Z" transform="translate(-115.752 -46.632)" fill="#a0616a"/><path d="M237.816,135.607s10.728,17.478,26.317,12.281a21.5,21.5,0,0,0,15.25-20.1l51.264,18.019-9.353,75.867,8.314,88.338-6.235,11.432H231.916s-3.118-15.589-4.157-15.589-3.118-3.118-2.079-4.157,3.118-2.079,2.079-5.2-2.079-37.414-2.079-37.414L194.5,168.673Z" transform="translate(-104.227 -51.261)" fill="#d0cde1"/><path d="M199.174,389.2l18.707,24.942s3.118-25.982,7.275-27.021l-10.393-7.275Z" transform="translate(-105.261 -107.063)" fill="#a0616a"/><path d="M463.175,366.5s28.06,17.668,24.943,29.1-35.335-19.746-35.335-20.785S463.175,366.5,463.175,366.5Z" transform="translate(-161.407 -104.108)" fill="#a0616a"/><path d="M237.383,365.613H235.3l-3.118,14.55a34.725,34.725,0,0,0-8.314,37.414L240.5,526.7l2.079,126.791,18.707,5.2,20.785-4.157,5.2-169.4s7.275-15.589,4.157-20.785,1.039-4.157,1.039-4.157l21.825,60.278s-7.275,19.746,0,25.982c0,0-1.039,3.118,0,4.157s6.236,5.2,4.157,7.275-3.118,0-3.118,3.118-10.393,29.1-6.236,62.356L322.6,644.138l12.471-7.275,22.864-64.435s-5.2-9.353,0-11.432,6.236-4.157,4.157-7.275-2.079-13.511,1.039-18.707,0-13.511,0-13.511L351.7,416.538s5.2-28.06-12.471-42.61L336.114,362.5S310.133,381.2,237.383,365.613Z" transform="translate(-110.214 -103.222)" fill="#2f2e41"/><path d="M223.979,47.889s10.559-22.878,30.8-17.6,31.677,13.2,32.557,21.118-.44,19.8-.44,19.8-2.2-16.278-16.278-12.759-36.076.88-36.076.88L231.018,91s-3.96-5.719-8.359-2.2S209.9,54.928,223.979,47.889Z" transform="translate(-109.021 -29.5)" fill="#2f2e41"/><path d="M204.477,180.3H188.887s-13.511,11.432-12.471,33.257l-7.275,61.317s0,30.139,12.471,51.964l13.511,25.981s5.2-14.55,20.785-12.471l-8.314-21.825v-5.2s-3.118-4.157-3.118-5.2,4.157-1.039,1.039-3.118-6.236-22.864-6.236-22.864,1.039-4.157,2.079-5.2-1.039-4.157-1.039-4.157l2.079-3.118,13.51-50.924Z" transform="translate(-98.612 -62.885)" fill="#d0cde1"/><path d="M346.076,146.928l17.668,3.118s10.393,10.393,14.55,22.864l8.314,37.414,13.511,27.021s15.589,15.589,27.021,50.924l16.628,31.178L426.1,329.84s-48.846-57.16-55.081-76.906L344,200.97Z" transform="translate(-137.324 -55.497)" fill="#d0cde1"/><rect width="425.9" height="383.855" transform="translate(307.461 246.041)" fill="#3f3d56"/><rect width="11.908" height="285.75" transform="translate(301.677 300.543)" fill="#cd0"/><rect width="55.281" height="1.557" transform="translate(569.463 302.49)" fill="#f2f2f2"/><rect width="56.06" height="9.343" transform="translate(569.463 290.032)" fill="#f2f2f2"/><path d="M794.2,746.744H758.384V726.5h25.889v1.557H759.941v17.129h32.7v-9.76H794.2Z" transform="translate(-167.899 -160.84)" fill="#f2f2f2"/><rect width="257.72" height="6.229" transform="translate(367.024 335.192)" fill="#f2f2f2"/><rect width="257.72" height="6.229" transform="translate(367.024 364)" fill="#f2f2f2"/><rect width="257.72" height="6.229" transform="translate(367.024 392.809)" fill="#f2f2f2"/><rect width="257.72" height="6.229" transform="translate(367.024 421.617)" fill="#f2f2f2"/><rect width="257.72" height="6.229" transform="translate(367.024 450.426)" fill="#f2f2f2"/><rect width="257.72" height="6.229" transform="translate(367.024 479.234)" fill="#f2f2f2"/><rect width="257.72" height="6.229" transform="translate(367.024 508.043)" fill="#f2f2f2"/><rect width="257.72" height="6.229" transform="translate(367.024 536.852)" fill="#f2f2f2"/><circle cx="10.122" cy="10.122" r="10.122" transform="translate(653.553 328.184)" fill="#cd0"/><circle cx="10.122" cy="10.122" r="10.122" transform="translate(653.553 356.993)" fill="#f2f2f2"/><circle cx="10.122" cy="10.122" r="10.122" transform="translate(653.553 385.801)" fill="#cd0"/><circle cx="10.122" cy="10.122" r="10.122" transform="translate(653.553 414.61)" fill="#f2f2f2"/><circle cx="10.122" cy="10.122" r="10.122" transform="translate(653.553 443.418)" fill="#f2f2f2"/><circle cx="10.122" cy="10.122" r="10.122" transform="translate(653.553 472.227)" fill="#f2f2f2"/><circle cx="10.122" cy="10.122" r="10.122" transform="translate(653.553 501.036)" fill="#cd0"/><circle cx="10.122" cy="10.122" r="10.122" transform="translate(653.553 529.844)" fill="#cd0"/><path d="M779.4,739.3l-8.726-8.726,1.1-1.1L779.4,737.1l22.808-22.808,1.1,1.1Z" transform="translate(-170.62 -158.137)" fill="#cd0"/><ellipse cx="53.724" cy="3.114" rx="53.724" ry="3.114" transform="translate(555.059 594.079)" opacity="0.1"/><path d="M158.347,767.062c-.179-.292-4.392-7.327-5.853-21.935-1.34-13.4-.478-35.992,11.237-67.5,22.195-59.7-5.115-107.863-5.394-108.343l1.347-.782c.071.122,7.118,12.4,11.281,31.957a139.419,139.419,0,0,1-5.774,77.71c-22.157,59.595-5.684,87.806-5.516,88.085Z" transform="translate(-94.822 -148.829)" fill="#3f3d56"/><circle cx="10.122" cy="10.122" r="10.122" transform="translate(44.725 396.702)" fill="#cd0"/><circle cx="10.122" cy="10.122" r="10.122" transform="translate(76.648 434.075)" fill="#cd0"/><circle cx="10.122" cy="10.122" r="10.122" transform="translate(54.847 458.991)" fill="#cd0"/><circle cx="10.122" cy="10.122" r="10.122" transform="translate(81.32 480.013)" fill="#cd0"/><circle cx="10.122" cy="10.122" r="10.122" transform="translate(47.061 512.715)" fill="#cd0"/><path d="M167.54,811.6s-10.122-24.916,20.244-43.6Z" transform="translate(-97.899 -192.997)" fill="#3f3d56"/><path d="M140.564,815.95s-4.607-26.5-40.261-26.268Z" transform="translate(-83.372 -197.796)" fill="#3f3d56"/></g></svg>