<svg xmlns="http://www.w3.org/2000/svg" width="812" height="671.111" viewBox="0 0 812 671.111"><g transform="translate(0)"><path d="M925,813.055v4.168a15.932,15.932,0,0,1-17.432,15.84c-32.638-3.1-65.127-8.87-97.874-7.862-60.375,1.842-121.25,26.536-179.69,11.28-16.482-4.3-32.78-11.78-49.737-10.171-15.215,1.442-28.753,10.046-43.493,14.081C491.947,852.7,446.3,821.6,399.834,822.859c-30.629.834-59.958,15.748-90.554,14.089-17.732-.95-34.622-7.436-51.921-11.43-43.068-9.954-87.419-4.393-131.8-.942A11.671,11.671,0,0,1,113,812.963V809.4a11.671,11.671,0,0,1,11.671-11.671l784.422-.634A15.932,15.932,0,0,1,925,813.055Z" transform="translate(-113 -172.167)" fill="#3f3d56"/><path d="M925,813.055v4.168a15.932,15.932,0,0,1-17.432,15.84c-32.638-3.1-65.127-8.87-97.874-7.862-60.375,1.842-121.25,26.536-179.69,11.28-16.482-4.3-32.78-11.78-49.737-10.171-15.215,1.442-28.753,10.046-43.493,14.081C491.947,852.7,446.3,821.6,399.834,822.859c-30.629.834-59.958,15.748-90.554,14.089-17.732-.95-34.622-7.436-51.921-11.43-43.068-9.954-87.419-4.393-131.8-.942A11.671,11.671,0,0,1,113,812.963V809.4a11.671,11.671,0,0,1,11.671-11.671l784.422-.634A15.932,15.932,0,0,1,925,813.055Z" transform="translate(-113 -172.167)" opacity="0.1"/><path d="M925,803.915v4.168a17.035,17.035,0,0,1-.092,1.734,15.932,15.932,0,0,1-17.341,14.172c-32.638-3.11-65.127-8.879-97.874-7.87-60.375,1.851-121.25,26.544-179.69,11.28-16.482-4.3-32.78-11.78-49.737-10.171-15.215,1.442-28.753,10.046-43.493,14.089-44.827,12.272-90.47-18.824-136.94-17.574-30.629.834-59.958,15.748-90.554,14.1-17.732-.959-34.622-7.436-51.921-11.438-43.059-9.946-87.419-4.385-131.8-.934a11.671,11.671,0,0,1-12.388-9.587,11.421,11.421,0,0,1-.175-2.051v-3.568a11.671,11.671,0,0,1,11.671-11.671l196.606-.158L722.95,788.1l186.143-.15A15.932,15.932,0,0,1,925,803.915Z" transform="translate(-113 -170.647)" fill="#3f3d56"/><path d="M775.756,790.529c0,1.842-3.635,3.61-10.338,5.269-26.836,6.628-102.7,11.4-192.245,11.4-88.095,0-163.05-4.627-190.912-11.1-7.5-1.742-11.671-3.618-11.671-5.577,0-.684.5-1.359,1.484-2.026l401.673-.333C775.073,788.945,775.756,789.7,775.756,790.529Z" transform="translate(-155.844 -170.683)" opacity="0.1"/><g transform="translate(460.189)" opacity="0.5"><rect width="335.137" height="100.875" rx="19.03" fill="#36334a"/><rect width="77.532" height="17.507" transform="translate(40.85 21.676)" fill="#cd0"/><rect width="237.597" height="9.17" transform="translate(40.85 50.021)" fill="#cd0" opacity="0.3"/><rect width="95.039" height="9.17" transform="translate(40.85 70.029)" fill="#cd0" opacity="0.3"/></g><g transform="translate(40.016 82.125)" opacity="0.5"><rect width="335.137" height="100.875" rx="19.03" fill="#36334a"/><rect width="77.532" height="17.507" transform="translate(40.85 21.676)" fill="#36334a"/><rect width="237.597" height="9.17" transform="translate(40.85 50.021)" fill="#36334a"/><rect width="95.039" height="9.17" transform="translate(40.85 70.029)" fill="#36334a"/><rect width="335.137" height="100.875" rx="19.03" fill="#36334a"/><rect width="77.532" height="17.507" transform="translate(40.85 21.676)" fill="#cd0"/><rect width="237.597" height="9.17" transform="translate(40.85 50.021)" fill="#cd0" opacity="0.3"/><rect width="95.039" height="9.17" transform="translate(40.85 70.029)" fill="#cd0" opacity="0.3"/></g><rect width="8.595" height="70.879" rx="2.29" transform="translate(556.545 176.356)" fill="#3f3d56"/><rect width="4.827" height="23.335" rx="1.5" transform="translate(270.744 120.825)" fill="#3f3d56"/><rect width="5.436" height="40.617" rx="1.69" transform="translate(270.569 163.542)" fill="#3f3d56"/><rect width="5.177" height="40.967" rx="1.61" transform="translate(270.653 218.373)" fill="#3f3d56"/><rect width="287.701" height="584.715" rx="35.69" transform="translate(273.479 43.71)" fill="#3f3d56"/><rect width="40.175" height="8.162" rx="2.54" transform="translate(389.576 61.175)" fill="#e6e8ec"/><circle cx="4.627" cy="4.627" r="4.627" transform="translate(435.829 60.625)" fill="#e6e8ec"/><path d="M714.52,141.041V649.583a22.851,22.851,0,0,1-22.851,22.843H485.2a22.851,22.851,0,0,1-22.851-22.843V141.041A22.851,22.851,0,0,1,485.2,118.19h30.9v4.01a18.824,18.824,0,0,0,18.816,18.816H639.956A18.816,18.816,0,0,0,658.731,122.2v-3.968h32.939a22.851,22.851,0,0,1,22.851,22.809Z" transform="translate(-171.106 -59.249)" fill="#36334a"/><rect width="25.844" height="3.335" transform="translate(298.456 107.544)" fill="#3f3d56"/><rect width="25.844" height="3.335" transform="translate(298.456 113.38)" fill="#3f3d56"/><rect width="25.844" height="3.335" transform="translate(298.456 119.216)" fill="#3f3d56"/><rect width="25.844" height="3.335" transform="translate(298.456 107.544)" fill="#3f3d56"/><rect width="25.844" height="3.335" transform="translate(298.456 113.38)" fill="#3f3d56"/><rect width="25.844" height="3.335" transform="translate(298.456 119.216)" fill="#3f3d56"/><path d="M748.272,184.4h-.759l-.292-.242a6.344,6.344,0,0,0,1.484-4.077,6.2,6.2,0,1,0-6.169,6.236,6.444,6.444,0,0,0,4.068-1.484l.284.242v.767l4.785,4.794,1.434-1.434Zm-5.736,0a4.293,4.293,0,1,1,3.05-1.263,4.318,4.318,0,0,1-3.05,1.263Z" transform="translate(-216.67 -68.517)" fill="#3f3d56"/><rect width="77.532" height="17.507" transform="translate(298.456 166.735)" fill="#cd0"/><rect width="237.597" height="9.17" transform="translate(298.456 195.08)" fill="#cd0" opacity="0.3"/><rect width="95.039" height="9.17" transform="translate(298.456 215.088)" fill="#cd0" opacity="0.3"/><rect width="77.532" height="17.507" transform="translate(298.456 370.152)" fill="#cd0"/><rect width="237.597" height="9.17" transform="translate(298.456 398.497)" fill="#cd0" opacity="0.3"/><rect width="95.039" height="9.17" transform="translate(298.456 418.505)" fill="#cd0" opacity="0.3"/><rect width="77.532" height="17.507" transform="translate(298.456 471.86)" fill="#cd0"/><rect width="237.597" height="9.17" transform="translate(298.456 500.205)" fill="#cd0" opacity="0.3"/><rect width="95.039" height="9.17" transform="translate(298.456 520.213)" fill="#cd0" opacity="0.3"/><circle cx="28.345" cy="28.345" r="28.345" transform="translate(465.191 535.22)" fill="#cd0"/><path d="M716.342,718.982v13.7a1.042,1.042,0,0,1-1.042,1.042H687.372a1.042,1.042,0,0,1-1.042-1.042V710.862a1.042,1.042,0,0,1,1.042-1.042h19.433" transform="translate(-208.359 -157.652)" fill="none" stroke="#fff" stroke-linecap="round" stroke-miterlimit="10" stroke-width="1"/><line x2="18.891" transform="translate(483.257 560.23)" fill="none" stroke="#fff" stroke-linecap="round" stroke-miterlimit="10" stroke-width="1"/><line x2="18.899" transform="translate(483.532 564.123)" fill="none" stroke="#fff" stroke-linecap="round" stroke-miterlimit="10" stroke-width="1"/><line x2="18.899" transform="translate(483.807 568.008)" fill="none" stroke="#fff" stroke-linecap="round" stroke-miterlimit="10" stroke-width="1"/><line y2="9.446" transform="translate(504.374 551.059)" fill="none" stroke="#f0f" stroke-miterlimit="10" stroke-width="1"/><line x1="9.454" transform="translate(499.647 555.786)" fill="none" stroke="#f0f" stroke-miterlimit="10" stroke-width="1"/><line y2="9.446" transform="translate(504.374 551.059)" fill="none" stroke="#fff" stroke-linecap="round" stroke-miterlimit="10" stroke-width="1"/><line x1="9.454" transform="translate(499.647 555.786)" fill="none" stroke="#fff" stroke-linecap="round" stroke-miterlimit="10" stroke-width="1"/><path d="M999.471,772.48c2.5-4.594-.333-10.229-3.577-14.323s-7.178-8.337-7.094-13.581c.125-7.5,8.087-11.93,14.448-15.915a70.023,70.023,0,0,0,12.972-10.429,19.011,19.011,0,0,0,3.985-5.336c1.317-2.935,1.284-6.269,1.2-9.479q-.425-16.057-1.592-32.088" transform="translate(-258.667 -151.25)" fill="none" stroke="#3f3d56" stroke-miterlimit="10" stroke-width="4"/><path d="M1035.857,668.4a11.671,11.671,0,0,0-5.836-9.587L1027.4,664l.083-6.278a11.853,11.853,0,0,0-3.86-.467,11.671,11.671,0,1,0,12.238,11.146Z" transform="translate(-262.615 -148.907)" fill="#57b894"/><path d="M1011.082,762.224a11.671,11.671,0,1,1,.567-9.421l-7.311,5.944,8.045-1.859a11.672,11.672,0,0,1-1.3,5.336Z" transform="translate(-258.707 -163.536)" fill="#57b894"/><path d="M1006.057,733.7a11.671,11.671,0,0,1-3.71-22.951l-.067,4.819,2.651-5.244h0a11.672,11.672,0,0,1,12.23,11.138,11.543,11.543,0,0,1-.5,3.993,11.671,11.671,0,0,1-10.6,8.245Z" transform="translate(-259.459 -157.734)" fill="#57b894"/><path d="M1040.206,711.044a11.671,11.671,0,1,1,5.177-21.9l-2.068,5.669,4.252-4.085a11.673,11.673,0,0,1,3.793,8.062,11.5,11.5,0,0,1-.292,3.226,11.671,11.671,0,0,1-10.863,9.029Z" transform="translate(-265.204 -153.974)" fill="#57b894"/><path d="M1034.292,672.8c-2.7.292-5.327,1.134-8.037,1.3s-5.686-.475-7.4-2.584a36.228,36.228,0,0,1-2.159-3.81,8.336,8.336,0,0,0-2.951-2.776,11.672,11.672,0,1,0,21.876,7.77Q1034.959,672.725,1034.292,672.8Z" transform="translate(-262.626 -150.185)" opacity="0.1"/><path d="M1040.173,712.373a11.671,11.671,0,0,1-11.13-16.673,8.642,8.642,0,0,1,2.351,2.351,38.29,38.29,0,0,0,2.318,3.868c1.826,2.143,4.936,2.843,7.762,2.718s5.552-.934,8.337-1.192c.392,0,.784-.058,1.184-.067a11.671,11.671,0,0,1-10.821,9Z" transform="translate(-265.172 -155.303)" opacity="0.1"/><path d="M1006.1,735.083a11.671,11.671,0,0,1-11.221-16.473,9.571,9.571,0,0,1,2.5,2.376,39.315,39.315,0,0,0,2.543,3.952c1.976,2.193,5.294,2.968,8.278,2.9s5.694-.775,8.57-1a11.672,11.672,0,0,1-10.671,8.245Z" transform="translate(-259.506 -159.114)" opacity="0.1"/><path d="M1011.02,763.716a11.686,11.686,0,0,1-21.334-9.546,11.542,11.542,0,0,1,2.568,2.293,50.884,50.884,0,0,0,3.135,4.168c2.393,2.351,6.253,3.335,9.7,3.41a50.007,50.007,0,0,0,5.936-.325Z" transform="translate(-258.645 -165.028)" opacity="0.1"/><path d="M980.43,785.315s9.237-.283,12.022-2.268,14.172-4.343,14.889-1.167,13.881,15.84,3.46,15.89-24.227-1.617-27.011-3.335S980.43,785.315,980.43,785.315Z" transform="translate(-257.275 -169.379)" fill="#656380"/><path d="M1010.984,797.66c-10.429.083-24.227-1.626-27-3.335-2.117-1.292-2.96-5.911-3.243-8.045h-.308s.584,7.453,3.335,9.17,16.582,3.393,27.011,3.335c3.01,0,4.043-1.092,3.985-2.676C1014.369,797.043,1013.227,797.635,1010.984,797.66Z" transform="translate(-257.275 -170.369)" opacity="0.2"/><path d="M706.325,375.35v69.145a15.84,15.84,0,0,1-15.84,15.84H462.35V359.46H690.485a15.84,15.84,0,0,1,15.84,15.89Z" transform="translate(-171.106 -99.378)" fill="#3f3d56"/><rect width="335.137" height="100.875" rx="19.03" transform="translate(173.404 245.934)" fill="#f2f2f2"/><rect width="335.137" height="100.875" rx="19.03" transform="translate(173.404 245.934)" fill="#f2f2f2"/><rect width="77.532" height="17.507" transform="translate(214.255 267.61)" fill="#cd0"/><rect width="237.597" height="9.17" transform="translate(214.255 295.955)" fill="#cd0" opacity="0.3"/><rect width="95.039" height="9.17" transform="translate(214.255 315.963)" fill="#cd0" opacity="0.3"/><circle cx="29.804" cy="29.804" r="29.804" transform="translate(47.178 175.981)" fill="#3f3d56"/><path d="M175.014,568.612c3.076,21.584-.675,43.593-6.519,64.593a47.964,47.964,0,0,1-4.31,11.363c-2.042,3.51-4.885,6.528-7.286,9.829-5,6.886-7.937,15.006-10.679,23.043a649.99,649.99,0,0,0-19.024,67.794,4.643,4.643,0,0,0,0,2.893c.725,1.667,2.926,1.884,4.735,1.876l23.393-.125c.834-1.6-.709-3.335-1.667-4.869-3.335-5.185-.133-11.922,2.81-17.349a186.526,186.526,0,0,0,16.49-41.684c1.6-6.111,2.9-12.355,5.5-18.116,3.143-6.986,8.07-13,12.072-19.533,4.652-7.595,8.045-15.84,11.413-24.118,4.7-11.488,9.446-23.118,11.3-35.389,1.742-11.521.884-23.26-.25-34.856a2.2,2.2,0,0,0-2.551-2.5l-31.388-1.617c-6.469-.333-8-1.751-7.02,4.6C172.713,559.192,174.33,563.81,175.014,568.612Z" transform="translate(-115.322 -130.983)" fill="#3f3d56"/><path d="M175.014,568.612c3.076,21.584-.675,43.593-6.519,64.593a47.964,47.964,0,0,1-4.31,11.363c-2.042,3.51-4.885,6.528-7.286,9.829-5,6.886-7.937,15.006-10.679,23.043a649.99,649.99,0,0,0-19.024,67.794,4.643,4.643,0,0,0,0,2.893c.725,1.667,2.926,1.884,4.735,1.876l23.393-.125c.834-1.6-.709-3.335-1.667-4.869-3.335-5.185-.133-11.922,2.81-17.349a186.526,186.526,0,0,0,16.49-41.684c1.6-6.111,2.9-12.355,5.5-18.116,3.143-6.986,8.07-13,12.072-19.533,4.652-7.595,8.045-15.84,11.413-24.118,4.7-11.488,9.446-23.118,11.3-35.389,1.742-11.521.884-23.26-.25-34.856a2.2,2.2,0,0,0-2.551-2.5l-31.388-1.617c-6.469-.333-8-1.751-7.02,4.6C172.713,559.192,174.33,563.81,175.014,568.612Z" transform="translate(-115.322 -130.983)" opacity="0.1"/><path d="M189.736,509.015c-6.378,9.171-13.064,19.725-10.946,30.7,1.609,8.337,7.962,14.8,13.956,20.842,23.96,24.06,47.52,50.787,55.673,83.759,2.1,8.52,3.118,17.265,4.927,25.844,3.285,15.59,9.17,30.5,15.006,45.31l15.606,39.5a23.643,23.643,0,0,0,22.593-15.006c-2.051-.158-4.727-2.143-5.927-3.81-6.669-9.229-8.037-21.1-9.746-32.355-1.892-12.438-4.418-24.777-6.953-37.107l-11.171-54.539c-1.292-6.294-2.584-12.6-4.268-18.791-6.519-24.035-18.874-46.686-20.784-71.538-.283-3.652-.459-7.661-2.935-10.371-2.6-2.859-6.869-3.335-10.729-3.56C218.423,506.865,204.951,505.339,189.736,509.015Z" transform="translate(-123.876 -123.866)" fill="#3f3d56"/><path d="M137.674,782.764a24.894,24.894,0,0,0-5.185-.667,10.771,10.771,0,0,0-8.47,4.627,21.048,21.048,0,0,0-2.276,5l-2.259,6.486c-.667,1.9-1.317,4.093-.325,5.836a6.186,6.186,0,0,0,3.035,2.376c5.469,2.434,11.63,2.568,17.591,3.151,5.786.567,11.521,1.584,17.232,2.659,1.967.367,3.927.742,5.919.942a70.523,70.523,0,0,0,13.389-.4l4.594-.442a16.537,16.537,0,0,0,4.519-.834,5.694,5.694,0,0,0,3.335-2.993c1.134-2.809-1.3-6.136-4.277-6.669-1.209-.242-2.459-.133-3.685-.292a17.41,17.41,0,0,1-4.035-1.209c-5.877-2.309-11.813-4.644-16.982-8.278-1.434-1.009-2.935-2.418-2.776-4.168a8.5,8.5,0,0,1,.742-2.159,7.887,7.887,0,0,0,.067-5.577c-.283-.767-.834-1.576-1.609-1.667-2.2-.267-1.934,2.943-2.259,4.168-.442,1.667-1.242,1.817-2.809,1.667C146.645,783.839,142.143,783.614,137.674,782.764Z" transform="translate(-113.94 -169.07)" fill="#f2f2f2"/><path d="M299.322,804.523a14.714,14.714,0,0,0,3.185,8.962,6.969,6.969,0,0,0,2.268,1.826,9.1,9.1,0,0,0,4.127.659,33.389,33.389,0,0,0,11.58-2.343,33.106,33.106,0,0,1,4-1.509,44.894,44.894,0,0,1,5.2-.75c6.895-.992,12.947-5.06,19.608-7.119a41.229,41.229,0,0,0,5.836-1.917,26.745,26.745,0,0,0,6.861-5.36,16.582,16.582,0,0,0,3.151-3.768c1.226-2.284,1.3-5,1.351-7.586a2.158,2.158,0,0,0-.2-1.175,1.751,1.751,0,0,0-.75-.592c-2.026-1-4.427-.5-6.669-.108-8.1,1.442-16.4,1.175-24.627.909a3.576,3.576,0,0,1-3.785-2.159l-3.126-5c-.892-1.434-2.309-3.076-3.927-2.584-1.292.392-1.817,1.976-1.767,3.335s.467,2.709.208,4.035a5.511,5.511,0,0,1-2.668,3.468,17.042,17.042,0,0,1-4.168,1.6c-4.6,1.3-9.954,2.776-13.514,6.161C298.922,795.936,299.164,801.313,299.322,804.523Z" transform="translate(-143.975 -168.462)" fill="#f2f2f2"/><path d="M290.987,406.518a19.315,19.315,0,0,0,4.552-4.952,20.184,20.184,0,0,0,1.942-6.844l1.309-8.27c.725-4.56,1.576-9.387,4.619-12.864s9.1-4.719,12.2-1.284a10.7,10.7,0,0,1,2.218,5.536,40.3,40.3,0,0,1-9.854,33.347c-3.743,4.1-8.337,7.361-12.3,11.238-3.451,3.335-6.444,7.161-9.629,10.788a132.9,132.9,0,0,1-26.236,22.926c.117-6.2.909-12.855,0-19.016-.675-4.452-2.5-6.853,1.809-9.762C271.621,420.557,281.716,414.4,290.987,406.518Z" transform="translate(-137.257 -101.176)" fill="#fbbebe"/><path d="M195.4,337.969c-.325,4.435-2.168,8.97-5.836,11.53q15.581,5.452,30.738,12.022c-1.951-1.876-2.543-4.752-2.634-7.453-.258-7.061,2.184-14.006,5.752-20.092a4.877,4.877,0,0,0,.942-2.651c-.117-1.967-2.451-2.876-4.368-3.335a107.427,107.427,0,0,0-19.941-2.893c-2.876-.092-6.286-1-5.636,2.659A40.248,40.248,0,0,1,195.4,337.969Z" transform="translate(-125.734 -93.635)" fill="#fbbebe"/><circle cx="24.368" cy="24.368" r="24.368" transform="translate(65.385 197.973)" fill="#fbbebe"/><path d="M237.729,385.4a29.48,29.48,0,0,0-3.093-5.185c-4.418-6.344-8.954-12.68-14.623-17.932a91.028,91.028,0,0,0-13.881-10.2,31.5,31.5,0,0,0-8.687-4.168,33.991,33.991,0,0,0-5.577-.759l-6.328-.517a5.176,5.176,0,0,0-1.667.05c-1.717.434-2.5,2.568-2.134,4.293s1.667,3.126,2.818,4.435c.283,12.914-5.461,25.652-6.236,38.549-1.359,22.509,12.405,43.526,13.506,66.094a7.128,7.128,0,0,1-.317,3.026c-.183.467-.459.892-.667,1.351a13.193,13.193,0,0,0-.742,4.585,23.293,23.293,0,0,1-6.861,14.689,10.2,10.2,0,0,0,3.868,2.951c2.659,1.159,5.836,1.259,8.662,2.067,7.37,2.151,14.923,4.318,22.584,3.86a19.925,19.925,0,0,0,1.742-6.561c1.084-.675,2.334.767,2.5,2.034s-.075,2.743.834,3.66,2.059.775,3.168.634c4.677-.592,9.17-2.168,13.756-3.226s9.487-1.567,13.947-.05c.9-1.142.517-2.835-.217-4.085s-1.776-2.351-2.193-3.743a8.4,8.4,0,0,1-.267-2.459c0-7.128,1.467-14.331.075-21.325-.409-2.051-1.059-4.052-1.476-6.111a52.7,52.7,0,0,1-.6-12.188c.108-4.077-.383-8.487-.467-12.622a40.259,40.259,0,0,0-.333-5.11c-.283-1.776-.834-3.51-.984-5.3-.45-4.552,1.384-9.07,1.109-13.639C248.492,395.561,240.43,391.793,237.729,385.4Z" transform="translate(-123.849 -97.239)" fill="#ff6584"/><path d="M177.068,389.178c-5.9,15.656-8.787,32.263-11.671,48.753l-6.669,38.733c-1.892,10.946-3.793,21.959-3.718,33.064,0,3.118.2,6.294-.617,9.3-1.067,3.952-3.718,7.245-5.727,10.838a35.665,35.665,0,0,0-3.835,24.118c.684,3.46,2.551,7.386,6.061,7.786,2.885.317,5.377-1.976,7.061-4.343,3.868-5.427,5.786-11.98,7.5-18.433a416.928,416.928,0,0,0,11.563-64.268,62.578,62.578,0,0,1,1.159-8.17,57.98,57.98,0,0,1,2.818-8.137q3.827-9.487,7.661-18.974c5.894-14.614,11.822-29.3,19.917-42.818-8-2.3-16.332-5-24.335-7.278C181.928,388.669,179.452,389.078,177.068,389.178Z" transform="translate(-118.185 -104.286)" fill="#fbbebe"/><path d="M196.256,399.768c-5.6-1.209-11.4-.834-17.115-.975a3.693,3.693,0,0,1-2.3-.6c-1.159-.992-.667-2.851-.083-4.26l2.768-6.669a9.7,9.7,0,0,1,2.218-3.685c1.409-1.25,3.393-1.559,5.26-1.784,6.077-.7,12.33-.934,18.224.709s11.438,5.377,14.072,10.9c1.1,2.3,1.609,5.2.15,7.295-2.168,3.11-7.028,6.586-10.654,4.885C204.451,403.552,201.125,400.826,196.256,399.768Z" transform="translate(-123.501 -103.004)" fill="#ff6584"/><path d="M220.709,265.39a24.61,24.61,0,0,0-13.572,3.91,29.8,29.8,0,0,0-29.262-6.853,17.032,17.032,0,1,0-19.691,19.716,29.8,29.8,0,1,0,57.165,16.749,26.678,26.678,0,0,0,5.344.542c11.755,0,21.292-7.628,21.292-17.032S232.447,265.39,220.709,265.39Z" transform="translate(-118.167 -80.898)" fill="#3f3d56"/><path d="M239.245,298.1a25.929,25.929,0,0,1-5.344-.542,29.653,29.653,0,0,1-3.9,8.579,26.77,26.77,0,0,0,5,.484c10.988,0,20.008-6.669,21.167-15.206A23.486,23.486,0,0,1,239.245,298.1Z" transform="translate(-132.46 -88.06)" opacity="0.1"/><path d="M190.886,313.347a29.846,29.846,0,0,1-28.5-38.582,17.032,17.032,0,0,1-14.081-16.774,16.749,16.749,0,0,1,.275-3.051,17.032,17.032,0,0,0,9.554,28.345,29.8,29.8,0,1,0,56.932,17.657,29.746,29.746,0,0,1-24.185,12.4Z" transform="translate(-118.165 -81.994)" opacity="0.1"/></g></svg>