<svg xmlns="http://www.w3.org/2000/svg" width="307.37" height="38.798" viewBox="0 0 307.37 38.798">
  <path id="Inline_Logo" data-name="Inline Logo" d="M33.294-14.593H12.825v-6.524h20.47Zm2.889-14.643H10.235V0H3.76V-32.448a3.269,3.269,0,0,1,.249-1.27,3.311,3.311,0,0,1,.685-1.046,3.071,3.071,0,0,1,1.033-.7,3.333,3.333,0,0,1,1.295-.249H36.183ZM52.519,0H49.63a10.4,10.4,0,0,1-2.976-.473A8.8,8.8,0,0,1,43.7-2.03a8.516,8.516,0,0,1-2.266-2.814,9.151,9.151,0,0,1-.9-4.246V-38.3h6.475v29.21a2.5,2.5,0,0,0,.747,1.905,2.605,2.605,0,0,0,1.868.71h2.889ZM85.714-3.262a3.333,3.333,0,0,1-.249,1.295A3.166,3.166,0,0,1,84.78-.934a3.2,3.2,0,0,1-1.021.685A3.178,3.178,0,0,1,82.5,0H67.859a12.932,12.932,0,0,1-2.552-.274,12.048,12.048,0,0,1-2.677-.884A13.851,13.851,0,0,1,60.077-2.7a9.834,9.834,0,0,1-2.154-2.266,11.621,11.621,0,0,1-1.482-3.075,12.832,12.832,0,0,1-.56-3.935V-26.919h6.475v14.941A5.691,5.691,0,0,0,62.791-9.7a5.3,5.3,0,0,0,1.183,1.731A5.137,5.137,0,0,0,65.73-6.861a6.045,6.045,0,0,0,2.179.386H79.239V-26.919h6.475ZM120.751-18a10.01,10.01,0,0,1-.473,2.9,8.67,8.67,0,0,1-1.531,2.889,8.539,8.539,0,0,1-2.764,2.229,8.819,8.819,0,0,1-4.146.9H100.157V-15.24h11.679a2.594,2.594,0,0,0,2.042-.809,2.9,2.9,0,0,0,.722-2,2.533,2.533,0,0,0-.809-1.992,2.834,2.834,0,0,0-1.955-.722H100.157a2.594,2.594,0,0,0-2.042.809,2.9,2.9,0,0,0-.722,2v9.04A2.563,2.563,0,0,0,98.2-6.9a2.9,2.9,0,0,0,2,.722h11.629V0H100.157a10.01,10.01,0,0,1-2.9-.473A8.67,8.67,0,0,1,94.367-2a8.539,8.539,0,0,1-2.229-2.764,8.819,8.819,0,0,1-.9-4.146V-18a10.01,10.01,0,0,1,.473-2.9,8.67,8.67,0,0,1,1.531-2.889,8.539,8.539,0,0,1,2.764-2.229,8.819,8.819,0,0,1,4.146-.9h11.679a10.01,10.01,0,0,1,2.9.473,8.67,8.67,0,0,1,2.889,1.531,8.539,8.539,0,0,1,2.229,2.764A8.819,8.819,0,0,1,120.751-18ZM154.942,0h-6.475V-14.941a5.691,5.691,0,0,0-.436-2.279,5.3,5.3,0,0,0-1.183-1.731,5.137,5.137,0,0,0-1.756-1.108,6.045,6.045,0,0,0-2.179-.386H131.584V0h-6.475V-23.707a3.178,3.178,0,0,1,.249-1.258,3.1,3.1,0,0,1,.7-1.021,3.311,3.311,0,0,1,1.046-.685,3.269,3.269,0,0,1,1.27-.249h14.593a13.043,13.043,0,0,1,2.577.274,12.288,12.288,0,0,1,2.689.884,12.985,12.985,0,0,1,2.54,1.544,10.338,10.338,0,0,1,2.142,2.266,11.132,11.132,0,0,1,1.482,3.075,13.1,13.1,0,0,1,.548,3.935ZM184.3-20.445H173V0h-6.549V-20.445H158.03v-6.475h8.417V-35.71H173v8.791H184.3ZM221.257,0H197.9a9.65,9.65,0,0,1-1.93-.212,9.92,9.92,0,0,1-2.042-.66A9.445,9.445,0,0,1,192-2.03a7.855,7.855,0,0,1-1.631-1.718,8.52,8.52,0,0,1-1.133-2.341,9.889,9.889,0,0,1-.423-3V-26.621a9.65,9.65,0,0,1,.212-1.93,9.92,9.92,0,0,1,.66-2.042,9.149,9.149,0,0,1,1.17-1.93,8.112,8.112,0,0,1,1.731-1.631,8.557,8.557,0,0,1,2.328-1.133,9.768,9.768,0,0,1,2.988-.423h23.358v6.475H197.9a2.63,2.63,0,0,0-1.942.672,2.7,2.7,0,0,0-.672,1.992V-9.089a2.61,2.61,0,0,0,.685,1.93,2.61,2.61,0,0,0,1.93.685h23.358Zm41.811-23.707a13.194,13.194,0,0,1-.548,3.959,11.132,11.132,0,0,1-1.482,3.075,10.444,10.444,0,0,1-2.154,2.279,12.98,12.98,0,0,1-2.552,1.556,12.288,12.288,0,0,1-2.689.884,12.932,12.932,0,0,1-2.552.274L264.612,0H254.6L241.1-11.679h-4.657v-6.475H251.09a7.491,7.491,0,0,0,2.229-.51,5.536,5.536,0,0,0,1.743-1.108,4.736,4.736,0,0,0,1.133-1.681,5.965,5.965,0,0,0,.4-2.254v-4.084a2,2,0,0,0-.137-.834,1,1,0,0,0-.349-.423,1.011,1.011,0,0,0-.448-.162,4.186,4.186,0,0,0-.436-.025H233.858V0h-6.475V-32.448a3.269,3.269,0,0,1,.249-1.27,3.311,3.311,0,0,1,.685-1.046,3.071,3.071,0,0,1,1.033-.7,3.333,3.333,0,0,1,1.295-.249h24.579a7.8,7.8,0,0,1,3.661.784,7.449,7.449,0,0,1,2.428,1.967,7.638,7.638,0,0,1,1.345,2.552,8.951,8.951,0,0,1,.411,2.565ZM311.13,0h-6.524V-21.267l-11.48,20.2A2.821,2.821,0,0,1,291.943.1a3.459,3.459,0,0,1-1.631.4A3.265,3.265,0,0,1,288.73.1a2.86,2.86,0,0,1-1.158-1.17l-11.53-20.2V0h-6.475V-32.946a3.213,3.213,0,0,1,.66-1.992,3.186,3.186,0,0,1,1.731-1.17A3.435,3.435,0,0,1,273-36.2a3.486,3.486,0,0,1,1.009.224,3.071,3.071,0,0,1,.884.523,3.042,3.042,0,0,1,.672.809L290.312-9.015l14.742-25.625a3.167,3.167,0,0,1,1.581-1.345,3.369,3.369,0,0,1,2.1-.125,3.247,3.247,0,0,1,1.718,1.17,3.174,3.174,0,0,1,.672,1.992Z" transform="translate(-3.76 38.3)" fill="#26418f"/>
</svg>
