<svg xmlns="http://www.w3.org/2000/svg" width="180.806" height="22.822" viewBox="0 0 180.806 22.822">
  <path id="Logo" d="M19.585-8.584H7.544v-3.838H19.585Zm1.7-8.613H6.021V0H2.212V-19.087a1.923,1.923,0,0,1,.146-.747,1.948,1.948,0,0,1,.4-.615,1.807,1.807,0,0,1,.608-.41,1.961,1.961,0,0,1,.762-.146H21.284ZM30.894,0h-1.7a6.119,6.119,0,0,1-1.75-.278,5.174,5.174,0,0,1-1.736-.916,5.009,5.009,0,0,1-1.333-1.655,5.383,5.383,0,0,1-.527-2.5V-22.529h3.809V-5.347A1.473,1.473,0,0,0,28.1-4.226a1.533,1.533,0,0,0,1.1.417h1.7ZM50.42-1.919a1.961,1.961,0,0,1-.146.762,1.862,1.862,0,0,1-.4.608,1.883,1.883,0,0,1-.6.4A1.869,1.869,0,0,1,48.53,0H39.917a7.607,7.607,0,0,1-1.5-.161,7.087,7.087,0,0,1-1.575-.52,8.147,8.147,0,0,1-1.5-.908,5.785,5.785,0,0,1-1.267-1.333A6.836,6.836,0,0,1,33.2-4.731a7.548,7.548,0,0,1-.33-2.314v-8.789H36.68v8.789a3.348,3.348,0,0,0,.256,1.34,3.118,3.118,0,0,0,.7,1.018,3.022,3.022,0,0,0,1.033.652,3.556,3.556,0,0,0,1.282.227h6.665V-15.835H50.42Zm20.61-8.672a5.889,5.889,0,0,1-.278,1.707,5.1,5.1,0,0,1-.9,1.7,5.023,5.023,0,0,1-1.626,1.311,5.188,5.188,0,0,1-2.439.527h-6.87V-8.965h6.87a1.526,1.526,0,0,0,1.2-.476,1.706,1.706,0,0,0,.425-1.179,1.49,1.49,0,0,0-.476-1.172,1.667,1.667,0,0,0-1.15-.425h-6.87a1.526,1.526,0,0,0-1.2.476,1.706,1.706,0,0,0-.425,1.179v5.317a1.508,1.508,0,0,0,.476,1.187,1.706,1.706,0,0,0,1.179.425h6.841V0h-6.87a5.889,5.889,0,0,1-1.707-.278,5.1,5.1,0,0,1-1.7-.9A5.023,5.023,0,0,1,54.2-2.805a5.188,5.188,0,0,1-.527-2.439v-5.347A5.889,5.889,0,0,1,53.95-12.3a5.1,5.1,0,0,1,.9-1.7,5.023,5.023,0,0,1,1.626-1.311,5.188,5.188,0,0,1,2.439-.527h6.87a5.889,5.889,0,0,1,1.707.278,5.1,5.1,0,0,1,1.7.9A5.023,5.023,0,0,1,70.5-13.03,5.188,5.188,0,0,1,71.03-10.591ZM91.143,0H87.334V-8.789a3.348,3.348,0,0,0-.256-1.34,3.118,3.118,0,0,0-.7-1.018,3.022,3.022,0,0,0-1.033-.652,3.556,3.556,0,0,0-1.282-.227H77.4V0H73.594V-13.945a1.869,1.869,0,0,1,.146-.74,1.825,1.825,0,0,1,.41-.6,1.948,1.948,0,0,1,.615-.4,1.923,1.923,0,0,1,.747-.146H84.1a7.672,7.672,0,0,1,1.516.161,7.228,7.228,0,0,1,1.582.52,7.638,7.638,0,0,1,1.494.908,6.081,6.081,0,0,1,1.26,1.333A6.548,6.548,0,0,1,90.82-11.1a7.707,7.707,0,0,1,.322,2.314Zm17.271-12.026h-6.65V0H97.91V-12.026H92.959v-3.809H97.91v-5.171h3.853v5.171h6.65ZM130.151,0h-13.74a5.676,5.676,0,0,1-1.135-.125,5.835,5.835,0,0,1-1.2-.388,5.556,5.556,0,0,1-1.135-.681A4.621,4.621,0,0,1,111.98-2.2a5.012,5.012,0,0,1-.667-1.377,5.817,5.817,0,0,1-.249-1.765V-15.659a5.676,5.676,0,0,1,.125-1.135,5.835,5.835,0,0,1,.388-1.2,5.382,5.382,0,0,1,.688-1.135,4.772,4.772,0,0,1,1.018-.959,5.034,5.034,0,0,1,1.37-.667,5.746,5.746,0,0,1,1.758-.249h13.74V-17.2h-13.74a1.547,1.547,0,0,0-1.143.4,1.59,1.59,0,0,0-.4,1.172V-5.347a1.535,1.535,0,0,0,.4,1.135,1.535,1.535,0,0,0,1.135.4h13.74Zm24.595-13.945a7.761,7.761,0,0,1-.322,2.329,6.548,6.548,0,0,1-.872,1.809,6.144,6.144,0,0,1-1.267,1.34,7.635,7.635,0,0,1-1.5.916,7.228,7.228,0,0,1-1.582.52,7.607,7.607,0,0,1-1.5.161L155.654,0h-5.889l-7.939-6.87h-2.739v-3.809H147.7a4.407,4.407,0,0,0,1.311-.3,3.256,3.256,0,0,0,1.025-.652,2.786,2.786,0,0,0,.667-.989,3.509,3.509,0,0,0,.234-1.326v-2.4a1.175,1.175,0,0,0-.081-.491.589.589,0,0,0-.205-.249.6.6,0,0,0-.264-.1,2.462,2.462,0,0,0-.256-.015H137.563V0h-3.809V-19.087a1.923,1.923,0,0,1,.146-.747,1.948,1.948,0,0,1,.4-.615,1.807,1.807,0,0,1,.608-.41,1.961,1.961,0,0,1,.762-.146h14.458a4.588,4.588,0,0,1,2.153.461,4.382,4.382,0,0,1,1.428,1.157,4.493,4.493,0,0,1,.791,1.5,5.265,5.265,0,0,1,.242,1.509ZM183.018,0H179.18V-12.51L172.427-.63a1.659,1.659,0,0,1-.7.688,2.035,2.035,0,0,1-.959.234,1.921,1.921,0,0,1-.93-.234,1.683,1.683,0,0,1-.681-.688l-6.782-11.88V0h-3.809V-19.38a1.89,1.89,0,0,1,.388-1.172,1.874,1.874,0,0,1,1.018-.688,2.02,2.02,0,0,1,.615-.051,2.05,2.05,0,0,1,.593.132,1.807,1.807,0,0,1,.52.308,1.79,1.79,0,0,1,.4.476L170.771-5.3l8.672-15.073a1.863,1.863,0,0,1,.93-.791,1.982,1.982,0,0,1,1.238-.073,1.91,1.91,0,0,1,1.011.688,1.867,1.867,0,0,1,.4,1.172Z" transform="translate(-2.212 22.529)"/>
</svg>
