<svg xmlns="http://www.w3.org/2000/svg" width="160.078" height="27.688" viewBox="0 0 160.078 27.688"><path d="M22.609-18.344H13.656V0H9.594V-18.344H.625v-4.062H22.609ZM41.734-5.7a6.2,6.2,0,0,1-.266,1.883,5.486,5.486,0,0,1-.7,1.469A4.778,4.778,0,0,1,39.75-1.273a5.927,5.927,0,0,1-1.211.727,6.224,6.224,0,0,1-1.281.414A6.123,6.123,0,0,1,36.031,0H28.7a6.515,6.515,0,0,1-1.844-.3,5.422,5.422,0,0,1-1.852-.977,5.477,5.477,0,0,1-1.422-1.766,5.676,5.676,0,0,1-.57-2.664v-5.5a5.639,5.639,0,0,1,.57-2.648,5.477,5.477,0,0,1,1.422-1.766,5.422,5.422,0,0,1,1.852-.977,6.515,6.515,0,0,1,1.844-.3h7.328a5.753,5.753,0,0,1,2.656.563,5.284,5.284,0,0,1,1.766,1.414,5.609,5.609,0,0,1,.977,1.852,6.406,6.406,0,0,1,.3,1.859Zm-4.062-5.469a1.663,1.663,0,0,0-.422-1.25,1.688,1.688,0,0,0-1.219-.406h-7.3a1.692,1.692,0,0,0-1.234.414,1.623,1.623,0,0,0-.422,1.211v5.5A1.65,1.65,0,0,0,27.5-4.484a1.673,1.673,0,0,0,1.234.422h7.3a1.641,1.641,0,0,0,1.234-.422A1.688,1.688,0,0,0,37.672-5.7ZM68-9.375a9.757,9.757,0,0,1-.711,3.766,8.937,8.937,0,0,1-1.961,2.961A8.986,8.986,0,0,1,62.359-.7a9.768,9.768,0,0,1-3.734.7H47.656a2.091,2.091,0,0,1-.812-.156,1.986,1.986,0,0,1-.648-.43,1.986,1.986,0,0,1-.43-.648,2.091,2.091,0,0,1-.156-.812V-20.359a2.051,2.051,0,0,1,.156-.8,2.078,2.078,0,0,1,.43-.656,1.927,1.927,0,0,1,.648-.437,2.091,2.091,0,0,1,.813-.156H58.625a9.768,9.768,0,0,1,3.734.7,8.986,8.986,0,0,1,2.969,1.945,8.918,8.918,0,0,1,1.961,2.969A9.774,9.774,0,0,1,68-13.031Zm-4.062-3.656a5.945,5.945,0,0,0-.383-2.172,4.748,4.748,0,0,0-1.086-1.68,4.9,4.9,0,0,0-1.68-1.078,5.883,5.883,0,0,0-2.164-.383H49.672V-4.062h8.953a5.883,5.883,0,0,0,2.164-.383,4.9,4.9,0,0,0,1.68-1.078A4.763,4.763,0,0,0,63.555-7.2a5.928,5.928,0,0,0,.383-2.18ZM89.906-5.7a6.2,6.2,0,0,1-.266,1.883,5.486,5.486,0,0,1-.7,1.469,4.778,4.778,0,0,1-1.016,1.078,5.927,5.927,0,0,1-1.211.727,6.224,6.224,0,0,1-1.281.414A6.123,6.123,0,0,1,84.2,0H76.875a6.515,6.515,0,0,1-1.844-.3,5.422,5.422,0,0,1-1.852-.977,5.477,5.477,0,0,1-1.422-1.766,5.676,5.676,0,0,1-.57-2.664v-5.5a5.638,5.638,0,0,1,.57-2.648,5.477,5.477,0,0,1,1.422-1.766,5.422,5.422,0,0,1,1.852-.977,6.515,6.515,0,0,1,1.844-.3H84.2a5.753,5.753,0,0,1,2.656.563,5.284,5.284,0,0,1,1.766,1.414,5.609,5.609,0,0,1,.977,1.852,6.406,6.406,0,0,1,.3,1.859Zm-4.062-5.469a1.663,1.663,0,0,0-.422-1.25,1.688,1.688,0,0,0-1.219-.406h-7.3a1.692,1.692,0,0,0-1.234.414A1.623,1.623,0,0,0,75.25-11.2v5.5a1.65,1.65,0,0,0,.422,1.219,1.673,1.673,0,0,0,1.234.422h7.3a1.641,1.641,0,0,0,1.234-.422A1.688,1.688,0,0,0,85.844-5.7ZM115.8,0h-4.062V-5.5H97.453V0H93.391V-11.2a11.814,11.814,0,0,1,.844-4.516,10.538,10.538,0,0,1,2.344-3.547,10.67,10.67,0,0,1,3.547-2.312,11.805,11.805,0,0,1,4.469-.828h9.156a2.051,2.051,0,0,1,.8.156,2.013,2.013,0,0,1,.656.438,2.013,2.013,0,0,1,.438.656,2.051,2.051,0,0,1,.156.8ZM97.453-9.562h14.281v-8.781h-7.141q-.187,0-.789.055a8.016,8.016,0,0,0-1.391.273,8.7,8.7,0,0,0-1.664.672,5.845,5.845,0,0,0-1.609,1.25A6.4,6.4,0,0,0,97.93-14.1a7.835,7.835,0,0,0-.477,2.9ZM138.609-5.7a6.2,6.2,0,0,1-.266,1.883,5.486,5.486,0,0,1-.7,1.469,4.778,4.778,0,0,1-1.016,1.078,5.927,5.927,0,0,1-1.211.727,6.261,6.261,0,0,1-1.273.414A6.009,6.009,0,0,1,132.922,0h-7.328V-4.062h7.328a1.618,1.618,0,0,0,1.219-.422,1.688,1.688,0,0,0,.406-1.219v-5.469a1.683,1.683,0,0,0-.414-1.25,1.66,1.66,0,0,0-1.211-.406h-7.3a1.715,1.715,0,0,0-1.25.414,1.623,1.623,0,0,0-.422,1.211V5.281h-4.062V-11.2a6.129,6.129,0,0,1,.266-1.875,5.369,5.369,0,0,1,.711-1.461,4.929,4.929,0,0,1,1.023-1.078,5.927,5.927,0,0,1,1.211-.727,6.224,6.224,0,0,1,1.281-.414,6.055,6.055,0,0,1,1.211-.133h7.328a6.129,6.129,0,0,1,1.875.266,5.511,5.511,0,0,1,1.461.7,4.778,4.778,0,0,1,1.078,1.016,5.927,5.927,0,0,1,.727,1.211,6.261,6.261,0,0,1,.414,1.273,6.009,6.009,0,0,1,.133,1.219Zm22.094,0a6.2,6.2,0,0,1-.266,1.883,5.486,5.486,0,0,1-.7,1.469,4.778,4.778,0,0,1-1.016,1.078,5.927,5.927,0,0,1-1.211.727,6.261,6.261,0,0,1-1.273.414A6.009,6.009,0,0,1,155.016,0h-7.328V-4.062h7.328a1.618,1.618,0,0,0,1.219-.422,1.688,1.688,0,0,0,.406-1.219v-5.469a1.683,1.683,0,0,0-.414-1.25,1.66,1.66,0,0,0-1.211-.406h-7.3a1.715,1.715,0,0,0-1.25.414,1.623,1.623,0,0,0-.422,1.211V5.281h-4.062V-11.2a6.129,6.129,0,0,1,.266-1.875,5.369,5.369,0,0,1,.711-1.461,4.929,4.929,0,0,1,1.023-1.078,5.927,5.927,0,0,1,1.211-.727,6.224,6.224,0,0,1,1.281-.414,6.055,6.055,0,0,1,1.211-.133h7.328a6.129,6.129,0,0,1,1.875.266,5.511,5.511,0,0,1,1.461.7,4.778,4.778,0,0,1,1.078,1.016,5.927,5.927,0,0,1,.727,1.211,6.261,6.261,0,0,1,.414,1.273A6.009,6.009,0,0,1,160.7-11.2Z" transform="translate(-0.625 22.406)" fill="#a2be15"/></svg>