<svg xmlns="http://www.w3.org/2000/svg" xmlns:xlink="http://www.w3.org/1999/xlink" width="812" height="579.478" viewBox="0 0 812 579.478">
  <defs>
    <linearGradient id="linear-gradient" x1="0.5" y1="1" x2="0.5" gradientUnits="objectBoundingBox">
      <stop offset="0" stop-color="gray" stop-opacity="0.251"/>
      <stop offset="0.54" stop-color="gray" stop-opacity="0.122"/>
      <stop offset="1" stop-color="gray" stop-opacity="0.102"/>
    </linearGradient>
  </defs>
  <g id="Task_Image" data-name="Task Image" transform="translate(0)">
    <path id="Path_231" data-name="Path 231" d="M839.15,363.027A189.984,189.984,0,0,1,619.094,550.5H318.086A258.03,258.03,0,0,1,283,552.9c-114.355,0-211.2-75.027-243.961-178.538A255.69,255.69,0,0,1,27.15,297.044C27.15,155.736,141.7,41.19,283,41.19c113.8,0,210.233,74.283,243.465,177.05a189.119,189.119,0,0,1,122.845-45.083C754.144,173.157,839.15,258.163,839.15,363.027Z" transform="translate(-27.15 -41.19)" fill="#6c63ff" opacity="0.1"/>
    <path id="Path_232" data-name="Path 232" d="M771.1,612.7a190.161,190.161,0,0,1-147.12,37.882H322.974a258.03,258.03,0,0,1-35.082,2.4c-114.355,0-211.2-75.027-243.961-178.538,24.5-52.369,87.465-89.634,161.287-89.634,71.937,0,133.562,35.394,159.331,85.665a213.9,213.9,0,0,1,38.406-3.452c74.559,0,138.041,38.024,162.01,91.221a209.525,209.525,0,0,1,61.242-9.008C687.017,549.237,740.462,574.525,771.1,612.7Z" transform="translate(-32.037 -141.274)" fill="#26418f" opacity="0.1"/>
    <rect id="Rectangle_33" data-name="Rectangle 33" width="335.941" height="26.223" transform="translate(195.151 225.109)" fill="#fff"/>
    <rect id="Rectangle_34" data-name="Rectangle 34" width="335.941" height="26.223" transform="translate(195.151 281.808)" fill="#fff"/>
    <rect id="Rectangle_35" data-name="Rectangle 35" width="335.941" height="26.223" transform="translate(195.151 338.507)" fill="#fff"/>
    <path id="Path_233" data-name="Path 233" d="M869.027,370.158l-1.786,1.786,5.741,5.741,12.757-12.757-1.786-1.786-10.971,10.907Zm15.436,2.424a10.163,10.163,0,1,1-7.4-9.788l1.977-1.977a11.864,11.864,0,0,0-4.784-.957,12.757,12.757,0,1,0,12.757,12.757Z" transform="translate(-270.165 -134.007)" fill="#3acc6c"/>
    <path id="Path_234" data-name="Path 234" d="M869.027,450.158l-1.786,1.786,5.741,5.741,12.757-12.757-1.786-1.786-10.971,10.907Zm15.436,2.424a10.163,10.163,0,1,1-7.4-9.788l1.977-1.977a11.864,11.864,0,0,0-4.784-.957,12.757,12.757,0,1,0,12.757,12.757Z" transform="translate(-270.165 -157.308)" fill="#3acc6c"/>
    <ellipse id="Ellipse_39" data-name="Ellipse 39" cx="361.456" cy="18.073" rx="361.456" ry="18.073" transform="translate(44.898 543.332)" fill="#6c63ff" opacity="0.1"/>
    <path id="Path_235" data-name="Path 235" d="M921.726,284.631a5.344,5.344,0,0,1-.964-2.977c0-6.457,13.168-11.694,29.413-11.694s29.413,5.238,29.413,11.694a5.542,5.542,0,0,1-1.219,3.324c18.087,2.013,30.277,5.8,30.277,10.142,0,6.457-26.974,11.694-60.243,11.694s-60.243-5.238-60.243-11.694C888.16,290.542,901.839,286.544,921.726,284.631Z" transform="translate(-277.93 -107.822)" fill="#6c63ff" opacity="0.1"/>
    <path id="Path_236" data-name="Path 236" d="M775.2,110.721a4.415,4.415,0,0,1-.787-2.431c0-5.273,10.744-9.54,23.991-9.54s24,4.252,24,9.54a4.514,4.514,0,0,1-.985,2.707c14.749,1.651,24.692,4.734,24.692,8.278,0,5.266-21.971,9.54-49.144,9.54s-49.151-4.252-49.151-9.54C747.81,115.519,758.973,112.28,775.2,110.721Z" transform="translate(-237.052 -57.955)" fill="#6c63ff" opacity="0.1"/>
    <path id="Path_237" data-name="Path 237" d="M320.22,171.137a5.308,5.308,0,0,1-1.588-2.693c-1.417-6.308,10.305-14.281,26.159-17.811s29.852-1.29,31.255,5.018a5.556,5.556,0,0,1-.461,3.508c18.087-1.963,30.809-.921,31.751,3.317,1.417,6.3-23.785,17.279-56.26,24.508s-59.938,7.995-61.341,1.687C288.738,184.185,301.247,177.338,320.22,171.137Z" transform="translate(-103.616 -72.58)" fill="#6c63ff" opacity="0.1"/>
    <path id="Path_238" data-name="Path 238" d="M216.27,168.83c-1.651-.957-3.884-.043-5.018,1.5a11.993,11.993,0,0,0-1.736,5.408c-.631,4.189-1.091,9,1.736,12.162a39.55,39.55,0,0,0-32.6-26.315" transform="translate(-71.276 -76.255)" fill="none" stroke="#6c63ff" stroke-miterlimit="10" stroke-width="3" opacity="0.1"/>
    <path id="Path_239" data-name="Path 239" d="M424.828,263.135a2.646,2.646,0,0,0-3.225.964,7.676,7.676,0,0,0-1.12,3.473c-.4,2.7-.709,5.79,1.12,7.8A25.415,25.415,0,0,0,400.66,258.45" transform="translate(-135.94 -104.47)" fill="none" stroke="#6c63ff" stroke-miterlimit="10" stroke-width="3" opacity="0.1"/>
    <path id="Path_240" data-name="Path 240" d="M755.328,203.858a2.655,2.655,0,0,0-3.225.964,7.675,7.675,0,0,0-1.12,3.48c-.4,2.693-.709,5.783,1.12,7.8A25.429,25.429,0,0,0,731.16,199.18" transform="translate(-232.202 -87.207)" fill="none" stroke="#6c63ff" stroke-miterlimit="10" stroke-width="3" opacity="0.1"/>
    <path id="Path_241" data-name="Path 241" d="M218.534,799.642a26.224,26.224,0,0,1-.567,5.5c-.071.34-.149.709-.227,1-2.013,8.073-7.69,13.976-14.465,14.352h-.709c-7.165,0-13.225-6.18-15.224-14.692-.057-.227-.106-.454-.156-.709a26.223,26.223,0,0,1-.567-5.5c0-11.531,7.137-20.872,15.947-20.872S218.534,788.132,218.534,799.642Z" transform="translate(-73.598 -256.005)" fill="#3f3d56"/>
    <path id="Path_242" data-name="Path 242" d="M218.546,799.656a26.223,26.223,0,0,1-.567,5.5c-.071.34-.149.709-.227,1h-.709a32.423,32.423,0,0,1-5.216-.709,31.838,31.838,0,0,1-4.649,1.063,32.493,32.493,0,0,1-3.643.34H202.3a32.906,32.906,0,0,1-4.369-.291,32.02,32.02,0,0,1-6.85-1.7,32.3,32.3,0,0,1-3.7.992c-.057-.227-.106-.454-.156-.709a26.224,26.224,0,0,1-.567-5.5c0-11.531,7.137-20.872,15.947-20.872S218.546,788.147,218.546,799.656Z" transform="translate(-73.609 -256.02)" opacity="0.1"/>
    <path id="Path_243" data-name="Path 243" d="M236.854,734.071a32.276,32.276,0,0,0-3.473-14.607L214.628,725.3l16.464-9.681a32.411,32.411,0,0,0-24.352-13.877,32.351,32.351,0,0,0-2.53-3.345l-26.932,8.384,22.091-12.991a32.411,32.411,0,0,0-51.029,17.286l23.069,26.556-25.025-18.1a32.418,32.418,0,0,0,29.009,57.2,32.545,32.545,0,0,0,20.752.574,32.446,32.446,0,0,0,39.42-31.652c0-.709,0-1.417-.071-2.126a32.34,32.34,0,0,0,1.361-9.448Z" transform="translate(-57.898 -229.316)" fill="#5c6bc0"/>
    <path id="Path_244" data-name="Path 244" d="M236.274,758.8a86.4,86.4,0,0,0-30.008-.383c-11.262,1.864-22.772,5.961-33.785,2.97-6.464-1.758-12.049-5.826-18.363-8.087a34.856,34.856,0,0,0-18.959-1.134,32.432,32.432,0,0,0,40.178,43.275,32.545,32.545,0,0,0,20.752.574,32.446,32.446,0,0,0,39.42-31.652c0-.709,0-1.418-.071-2.126A32.019,32.019,0,0,0,236.274,758.8Z" transform="translate(-57.878 -248.035)" opacity="0.1"/>
    <path id="Path_245" data-name="Path 245" d="M999.7,736.977l28.9-17.01a69.708,69.708,0,0,0-14.777-17.718L959.3,719.258l42.723-25.118A69.456,69.456,0,0,0,899.2,755.092c0,38.357,31.1,39.689,69.456,39.689s69.456-1.333,69.456-39.689a69.209,69.209,0,0,0-5.96-28.179Z" transform="translate(-281.146 -228.883)" fill="#5c6bc0"/>
    <path id="Path_246" data-name="Path 246" d="M1007.006,792.555a53.188,53.188,0,0,0-10.241-8.044c-5.252-3.48-10.681-7.038-16.861-8.221-5.436-1.042-11.042-.163-16.563-.482a38.711,38.711,0,0,1-25.38-11.63c-3.948-4.082-7.052-9.093-11.8-12.212-5.117-3.359-11.609-4.082-17.676-3.246a46.849,46.849,0,0,0-5.23,1.07,69.266,69.266,0,0,0-4.1,23.565c0,38.357,31.1,39.689,69.456,39.689,18.611,0,35.515-.312,47.989-5.018l-2.084-3.9C1012.342,800.06,1010.131,795.95,1007.006,792.555Z" transform="translate(-281.131 -247.175)" opacity="0.1"/>
    <path id="Path_247" data-name="Path 247" d="M654.692,716.418a5.181,5.181,0,0,0-1.949-2.792c-.113-.078-.234-.149-.354-.22a8.739,8.739,0,0,0-3.133-.8c-4.068-.524-8.342-1.311-11.425-3.976-.893-.773-1.651-1.673-2.473-2.5a44,44,0,0,0-5.62-4.543,2.012,2.012,0,0,0-1.46-.539,7.086,7.086,0,0,1-1.864-2.233,8.562,8.562,0,0,1-.609-3.466c-.411-12.049-2.97-24.437-.128-36.146a7.046,7.046,0,0,0-.241-3.976c.574-.262,1.148-.532,1.715-.822a42.226,42.226,0,0,0,12.594-10.1,19.626,19.626,0,0,0,3.834-6.046c1.07-3.005.914-6.294.532-9.455a144.7,144.7,0,0,0-3.338-16.535L637.519,598.8a29.659,29.659,0,0,0-3.069-8.59h.149c-.106-1.5-.22-2.991-.439-4.472a63.084,63.084,0,0,0-1.914-7.973c-.284-.992-.5-2.374-.829-3.707.588-6.046,2.941-11.914,3.338-17.938.128.17.248.34.383.51.978,1.219,2.325,2.126,3.317,3.31,1.857,2.254,2.275,5.3,2.665,8.172a13.344,13.344,0,0,0,1.1,4.337,14.259,14.259,0,0,1,.9,1.765,7.592,7.592,0,0,1-.142,3.834c-.347,1.814-.482,3.926.829,5.252a4.154,4.154,0,0,0,2.6,1.155,5.8,5.8,0,0,0,4.961-2.19c1.339-1.736,1.531-4.068,1.474-6.244a14.413,14.413,0,0,0-.794-4.819,25.192,25.192,0,0,0-2.714-4.607,95.93,95.93,0,0,1-4.862-9.263,52.9,52.9,0,0,0-4.316-7.307c-.886-1.233-1.85-2.417-2.644-3.7-.262-.425-1.559-3.593-2.771-6.761.624-.128,1.269-.383,1.417-.964a1.856,1.856,0,0,0-.106-1.013,61.115,61.115,0,0,1-1.417-28.172,41.875,41.875,0,0,0,1.091-7.64,9.724,9.724,0,0,0-2.6-7.087c-1.162-1.113-2.679-1.814-3.884-2.877-2.318-2.055-3.246-5.209-3.841-8.228a11.728,11.728,0,0,0-1.3-4.047,6.155,6.155,0,0,0-.624-.794,40.4,40.4,0,0,0,2.509-14.111,41.2,41.2,0,0,0-1.417-10.7c.383.95.709,1.921,1.056,2.913-2.963-15.465-14.565-27-28.42-27h-.383c-15.713,0-28.527,14.834-29.136,33.41a19.136,19.136,0,0,0-8.64,18.916,19.051,19.051,0,0,0-5.578,13.466,19.434,19.434,0,0,0,19.568,19.292,19.674,19.674,0,0,0,9.432-2.409,32.494,32.494,0,0,0,.859,4.734c.652,2.466,1.658,4.848,2.126,7.35s.439,5.252-.921,7.42a18.882,18.882,0,0,0-2.445,5.457,26.226,26.226,0,0,0-.432,7.087c.064,2.169.12,4.33.184,6.5.241,8.5.475,17.01-1.247,25.359-.78,3.785-2.75,7.378-2.3,11.219a16.048,16.048,0,0,0,1.2,4.04c.709,1.857,1.63,3.856,3.43,4.756a6.96,6.96,0,0,0,2.792.6,19.427,19.427,0,0,0,3.544-.156c.709-.1,1.665-.574,1.417-1.254a1.332,1.332,0,0,0-.51-.56,7.832,7.832,0,0,1-2.977-6.1c0-3.359,2.232-6.6,1.545-9.922-.432-2.041-1.963-4.019-1.318-6,1.417-4.486,1.63-9.3,2.835-13.849.4-1.481.808-2.97,1.219-4.451.709-2.651,1.417-5.308,2.034-7.987a85.882,85.882,0,0,0,2.154-19.5,21.349,21.349,0,0,1,2.318,6.776c.213,1.722.1,3.544.907,5.082s2.41,2.665,3.367,4.146a23.843,23.843,0,0,1-1.34,2.615,36.305,36.305,0,0,0-2.743,4.054c-.709,1.418-1.2,2.878-1.807,4.316-2.02,4.834-5.486,9.214-5.989,14.423-.411,4.189,1.176,8.285,2.785,12.176q1.417,3.487,2.941,6.946c.064.149.135.312.213.461.12,1.184.276,2.36.432,3.544h2.6a19.672,19.672,0,0,1,2.885,4.486,14.442,14.442,0,0,1,.709,3.962c.517,6.379.418,12.92,2.835,18.852a16.56,16.56,0,0,1,1.488,5.337,20.8,20.8,0,0,0,.709,4.423,22.373,22.373,0,0,1,.567,4.763,74.652,74.652,0,0,1-.213,8.257c-5.67,3.544-10.39,8.661-15.493,13.09A85.264,85.264,0,0,1,569.2,669.471v-.411a13.869,13.869,0,0,0-6.932,1.836c-.773.383-1.524.794-2.268,1.2a3.776,3.776,0,0,0-1.1.78c-.992,1.155-.269,2.906.489,4.252q3.785,6.627,7.569,13.239c.581,1.021,1.169,2.048,1.651,3.118.822,1.821,1.347,3.756,2.268,5.528a27.381,27.381,0,0,0,3.912,5.223q2.466,2.835,4.961,5.606a6.583,6.583,0,0,0,1.9,1.673,2.311,2.311,0,0,0,2.417-.106,2.431,2.431,0,0,0,.631-.858,5.23,5.23,0,0,0,.51-2.559,5.45,5.45,0,0,0-1.793-3.792c-.709-.588-1.559-1.07-1.85-1.914a3.445,3.445,0,0,1-.085-1.417,57.809,57.809,0,0,1,1.956-12.389c.936-2.991,2.388-6.067,1.694-9.121a8.564,8.564,0,0,0-1.417-.3,20.833,20.833,0,0,1,1.545-1.616,42.3,42.3,0,0,1,8.583-5.741l13.324-7.428q.921,5.117,1.864,10.213c.22,1.176.432,2.353.645,3.544l2.991,16.287a36.048,36.048,0,0,1,.574,3.976c.085,1.318,0,2.636,0,3.948a29.375,29.375,0,0,1-.262,4.4,18.626,18.626,0,0,1-.631,2.417h-.1a1.566,1.566,0,0,0-.567.829,21.972,21.972,0,0,0-1.659,6.123,7.8,7.8,0,0,0,.992,4.826,1.942,1.942,0,0,0,.709.787,2.361,2.361,0,0,0,1.134.163l17.513-.369a38.467,38.467,0,0,1,6.457.234c1.7.255,3.374.709,5.089.843,3.99.241,7.8-1.559,11.34-3.31a2.836,2.836,0,0,0,1.417-1.091A2.275,2.275,0,0,0,654.692,716.418Z" transform="translate(-180.448 -154.389)" fill="url(#linear-gradient)"/>
    <path id="Path_248" data-name="Path 248" d="M562,484.717a19.673,19.673,0,0,1-.2-2.764,19.137,19.137,0,0,1,8.664-16.019c.593-18.425,13.13-33.174,28.51-33.174,15.762,0,28.541,15.472,28.541,34.551s-12.757,34.544-28.541,34.544a24.181,24.181,0,0,1-4.43-.411A19.136,19.136,0,1,1,562,484.717Z" transform="translate(-181.351 -155.24)" fill="#3f3d56"/>
    <path id="Path_249" data-name="Path 249" d="M600.618,437.268c-15.38,0-27.917,14.728-28.512,33.169a19.136,19.136,0,0,0-8.661,16.025,19.85,19.85,0,0,0,.2,2.764,19.087,19.087,0,0,0-5.457,13.381,20.152,20.152,0,0,0,.149,2.374,19.136,19.136,0,0,1,4.182-20.263,19.664,19.664,0,0,1-.2-2.764,19.137,19.137,0,0,1,8.663-16.019c.593-18.425,13.13-33.174,28.51-33.174,13.565,0,24.919,11.46,27.818,26.819C623.233,446.538,612.822,437.268,600.618,437.268Z" transform="translate(-181.492 -155.24)" opacity="0.1"/>
    <path id="Path_250" data-name="Path 250" d="M630.882,488.628a7.3,7.3,0,0,0,.368,3.345c.659,1.524,2.275,2.885,1.8,4.472a3.478,3.478,0,0,1-2.4,1.935c-4.791,1.623-10.022.659-15.075.879a48.422,48.422,0,0,1-5.067.177,8.094,8.094,0,0,1-4.713-1.644,40.452,40.452,0,0,0,7.414-4.671A8.378,8.378,0,0,0,614.7,491.7a8.784,8.784,0,0,0,1.3-5.089c.064-1.779.05-3.544,0-5.287q5.436-.064,10.851-.05c1.162,0,4.706-.283,5.11.971.206.624-.574,2.452-.709,3.154A30.986,30.986,0,0,0,630.882,488.628Z" transform="translate(-195.689 -169.364)" fill="#a0616a"/>
    <path id="Path_251" data-name="Path 251" d="M630.882,488.628a7.3,7.3,0,0,0,.368,3.345c.659,1.524,2.275,2.885,1.8,4.472a3.478,3.478,0,0,1-2.4,1.935c-4.791,1.623-10.022.659-15.075.879a48.422,48.422,0,0,1-5.067.177,8.094,8.094,0,0,1-4.713-1.644,40.452,40.452,0,0,0,7.414-4.671A8.378,8.378,0,0,0,614.7,491.7a8.784,8.784,0,0,0,1.3-5.089c.064-1.779.05-3.544,0-5.287q5.436-.064,10.851-.05c1.162,0,4.706-.283,5.11.971.206.624-.574,2.452-.709,3.154A30.986,30.986,0,0,0,630.882,488.628Z" transform="translate(-195.689 -169.364)" opacity="0.1"/>
    <path id="Path_252" data-name="Path 252" d="M656.388,583.434a24.381,24.381,0,0,1-1.417,11.914,226.941,226.941,0,0,0-23.431-1.233,13.162,13.162,0,0,0,2.5-6.173,34.09,34.09,0,0,0,0-6.308l15.2-.05a14.1,14.1,0,0,1,3.324.248C654.092,582.18,654.9,583.158,656.388,583.434Z" transform="translate(-203.186 -198.583)" fill="#a0616a"/>
    <path id="Path_253" data-name="Path 253" d="M668.393,590.472c.78,1.283,1.722,2.452,2.587,3.678a52.5,52.5,0,0,1,4.252,7.258,99.3,99.3,0,0,0,4.756,9.214,25.116,25.116,0,0,1,2.665,4.578,14.742,14.742,0,0,1,.773,4.784c.057,2.162-.135,4.479-1.417,6.2a5.67,5.67,0,0,1-4.89,2.176,4,4,0,0,1-2.544-1.106c-1.283-1.311-1.155-3.416-.815-5.216a7.639,7.639,0,0,0,.142-3.806,13.47,13.47,0,0,0-.879-1.751,13.568,13.568,0,0,1-1.077-4.309c-.383-2.835-.787-5.875-2.608-8.108-.971-1.2-2.289-2.084-3.246-3.3-.5-.638-.9-1.354-1.417-1.956-.758-.865-1.814-1.524-2.254-2.587a10.352,10.352,0,0,1-.4-2.126,15.712,15.712,0,0,0-1.247-3.31c-1.736-3.976-2.2-8.377-2.644-12.693a17.988,17.988,0,0,0,5.457-1.077C663,577.126,667.861,589.565,668.393,590.472Z" transform="translate(-210.931 -197.257)" fill="#a0616a"/>
    <path id="Path_254" data-name="Path 254" d="M668.393,590.472c.78,1.283,1.722,2.452,2.587,3.678a52.5,52.5,0,0,1,4.252,7.258,99.3,99.3,0,0,0,4.756,9.214,25.116,25.116,0,0,1,2.665,4.578,14.742,14.742,0,0,1,.773,4.784c.057,2.162-.135,4.479-1.417,6.2a5.67,5.67,0,0,1-4.89,2.176,4,4,0,0,1-2.544-1.106c-1.283-1.311-1.155-3.416-.815-5.216a7.639,7.639,0,0,0,.142-3.806,13.47,13.47,0,0,0-.879-1.751,13.568,13.568,0,0,1-1.077-4.309c-.383-2.835-.787-5.875-2.608-8.108-.971-1.2-2.289-2.084-3.246-3.3-.5-.638-.9-1.354-1.417-1.956-.758-.865-1.814-1.524-2.254-2.587a10.352,10.352,0,0,1-.4-2.126,15.712,15.712,0,0,0-1.247-3.31c-1.736-3.976-2.2-8.377-2.644-12.693a17.988,17.988,0,0,0,5.457-1.077C663,577.126,667.861,589.565,668.393,590.472Z" transform="translate(-210.931 -197.257)" opacity="0.1"/>
    <circle id="Ellipse_40" data-name="Ellipse 40" cx="12.764" cy="12.764" r="12.764" transform="translate(415.001 292.17)" fill="#a0616a"/>
    <path id="Path_255" data-name="Path 255" d="M639.059,652.23c2.4,2.835,3.345,6.634,4.21,10.263l3.189,13.338a144.077,144.077,0,0,1,3.267,16.421,20.894,20.894,0,0,1-.517,9.391,19.462,19.462,0,0,1-3.756,6,41.424,41.424,0,0,1-12.332,10.029c-2.5,1.3-5.145,2.289-7.711,3.444-3.834,1.722-7.5,3.792-11.163,5.861l-13.764,7.8a41.561,41.561,0,0,0-8.4,5.705,20.731,20.731,0,0,0-5.146,7.8,3.89,3.89,0,0,1-1.212,2.006,3.233,3.233,0,0,1-2.75.085,16.074,16.074,0,0,1-10.985-16.1A83.285,83.285,0,0,0,599.5,718.185c6.145-5.408,11.687-11.857,19.186-15.146,3.274-1.417,7.215-2.53,8.746-5.769a11.823,11.823,0,0,0,.8-4.727,60.024,60.024,0,0,0-.581-13.3c-.709-3.685-2.126-7.208-3.168-10.815-2.126-7.222-2.835-14.77-3.544-22.268a125.316,125.316,0,0,1,14.763-.872,1.68,1.68,0,0,1,1.219.326,1.779,1.779,0,0,1,.376.971C637.691,648.531,637.783,650.749,639.059,652.23Z" transform="translate(-185.835 -217.137)" fill="#a0616a"/>
    <path id="Path_256" data-name="Path 256" d="M639.059,652.23c2.4,2.835,3.345,6.634,4.21,10.263l3.189,13.338a144.077,144.077,0,0,1,3.267,16.421,20.894,20.894,0,0,1-.517,9.391,19.462,19.462,0,0,1-3.756,6,41.424,41.424,0,0,1-12.332,10.029c-2.5,1.3-5.145,2.289-7.711,3.444-3.834,1.722-7.5,3.792-11.163,5.861l-13.764,7.8a41.561,41.561,0,0,0-8.4,5.705,20.731,20.731,0,0,0-5.146,7.8,3.89,3.89,0,0,1-1.212,2.006,3.233,3.233,0,0,1-2.75.085,16.074,16.074,0,0,1-10.985-16.1A83.285,83.285,0,0,0,599.5,718.185c6.145-5.408,11.687-11.857,19.186-15.146,3.274-1.417,7.215-2.53,8.746-5.769a11.823,11.823,0,0,0,.8-4.727,60.024,60.024,0,0,0-.581-13.3c-.709-3.685-2.126-7.208-3.168-10.815-2.126-7.222-2.835-14.77-3.544-22.268a125.316,125.316,0,0,1,14.763-.872,1.68,1.68,0,0,1,1.219.326,1.779,1.779,0,0,1,.376.971C637.691,648.531,637.783,650.749,639.059,652.23Z" transform="translate(-185.835 -217.137)" opacity="0.1"/>
    <path id="Path_257" data-name="Path 257" d="M564.3,775.876q3.7,6.57,7.406,13.147c.574,1.013,1.148,2.034,1.623,3.1.8,1.807,1.311,3.728,2.218,5.486a27.316,27.316,0,0,0,3.827,5.188l4.834,5.571a6.508,6.508,0,0,0,1.864,1.658,2.225,2.225,0,0,0,2.367-.106,2.58,2.58,0,0,0,.617-.858,5.189,5.189,0,0,0,.5-2.537,5.45,5.45,0,0,0-1.758-3.763c-.666-.581-1.524-1.063-1.807-1.9a3.545,3.545,0,0,1-.085-1.417,58.727,58.727,0,0,1,1.921-12.3c.914-2.97,2.332-6.024,1.651-9.058-1.29-.39-2.97-.659-3.742.447-1.5,2.126-1.595,1.347-3.912,1.021s-4.493-.468-6.187-2.282c-2.254-2.4-2.062-6.109-1.729-9.377a13.827,13.827,0,0,0-6.783,1.821c-.758.383-1.5.787-2.225,1.191a3.656,3.656,0,0,0-1.077.773C562.845,772.829,563.553,774.565,564.3,775.876Z" transform="translate(-183.323 -252.85)" fill="#3f3d56"/>
    <path id="Path_258" data-name="Path 258" d="M650.766,635.414a61.148,61.148,0,0,1,1.871,7.917c.22,1.474.326,2.963.439,4.444-5.039,1.2-10.27,1.254-15.45,1.311l-21.6.234a46.435,46.435,0,0,1-.588-8.8c.3-4.841,2.126-9.568,1.821-14.409a133.634,133.634,0,0,1,17.931-1.956,8.356,8.356,0,0,1,3.253.312c.978.354,1.793,1.056,2.736,1.5,2.126,1.006,5.287.51,7.087,2.126C649.908,629.6,650.185,633.345,650.766,635.414Z" transform="translate(-198.492 -210.973)" fill="#3f3d56"/>
    <path id="Path_259" data-name="Path 259" d="M650.766,635.414a61.148,61.148,0,0,1,1.871,7.917c.22,1.474.326,2.963.439,4.444-5.039,1.2-10.27,1.254-15.45,1.311l-21.6.234a46.435,46.435,0,0,1-.588-8.8c.3-4.841,2.126-9.568,1.821-14.409a133.634,133.634,0,0,1,17.931-1.956,8.356,8.356,0,0,1,3.253.312c.978.354,1.793,1.056,2.736,1.5,2.126,1.006,5.287.51,7.087,2.126C649.908,629.6,650.185,633.345,650.766,635.414Z" transform="translate(-198.492 -210.973)" opacity="0.1"/>
    <path id="Path_260" data-name="Path 260" d="M649.983,647.6c1.63,7.683-.092,15.628-.5,23.473-.284,5.613.113,11.241.276,16.861a23.422,23.422,0,0,1-.22,4.834,24.391,24.391,0,0,1-1.283,4.146l-1.942,5.174c-1.821,4.862-3.678,10.071-1.821,15.139a7.087,7.087,0,0,1,.284,4.089c-2.778,11.616-.276,23.948.12,35.883a8.668,8.668,0,0,0,.6,3.437c.992,2.126,3.437,3.118,4.72,5.053,1.559,2.346,1,5.67-.836,7.8a11.05,11.05,0,0,1-7.5,3.416c-3.508.291-7.024-.56-10.468-1.12l-.383-.369c-.432-2.388.879-4.6,1.29-7.045a30,30,0,0,0,.262-4.373c0-1.3.071-2.615,0-3.919a37.255,37.255,0,0,0-.56-3.948L629.1,739.88l-.631-3.5-2.63-14.586c-.5-2.757.709-5.84,1.035-8.618A118.535,118.535,0,0,0,628,695.832a22.921,22.921,0,0,0-.56-4.727,20.976,20.976,0,0,1-.659-4.394,15.791,15.791,0,0,0-1.46-5.3c-2.332-5.89-2.24-12.4-2.743-18.718a14.492,14.492,0,0,0-.709-3.933c-.709-1.928-2.183-3.473-3.331-5.181s-2.02-3.841-1.368-5.8c1.035-3.125,5.28-4.125,7.853-5.039a22.084,22.084,0,0,1,13.728-.461A47.315,47.315,0,0,1,649.983,647.6Z" transform="translate(-198.935 -216.01)" fill="#a0616a"/>
    <path id="Path_261" data-name="Path 261" d="M635.5,832.427a1.919,1.919,0,0,0,.709.78,2.386,2.386,0,0,0,1.12.163L654.47,833a36.9,36.9,0,0,1,6.322.234c1.666.248,3.3.709,4.961.836,3.9.241,7.6-1.545,11.106-3.289a2.835,2.835,0,0,0,1.361-1.084,2.3,2.3,0,0,0,0-1.673,5.146,5.146,0,0,0-1.914-2.771,3.525,3.525,0,0,0-.347-.22,8.4,8.4,0,0,0-3.062-.794c-3.983-.524-8.172-1.3-11.191-3.955-.872-.758-1.609-1.651-2.417-2.481a42.013,42.013,0,0,0-5.5-4.508,1.935,1.935,0,0,0-1.417-.539,1.808,1.808,0,0,0-.787.454,5.436,5.436,0,0,0-1.864,2.3,2.126,2.126,0,0,0,.922,2.573c.709.276,1.417.135,2,.517-1.233.893-3.14,1.34-4.529,2.268a15.4,15.4,0,0,1-4.557,2.41,4.66,4.66,0,0,1-4.756-1.2c-.588-.709-1.332-1.822-2.126-1.347a1.517,1.517,0,0,0-.56.815,22.055,22.055,0,0,0-1.623,6.088,7.8,7.8,0,0,0,1.014,4.791Z" transform="translate(-204.032 -265.919)" fill="#3f3d56"/>
    <path id="Path_262" data-name="Path 262" d="M632.253,587.349a11.34,11.34,0,0,1,2.941.326,12.531,12.531,0,0,1,2.622,1.2l9.391,5.2a8.761,8.761,0,0,1,1.906,1.29c1.354,1.3,1.744,3.3,1.821,5.181.319,7.3-2.977,14.3-3.395,21.6a27.724,27.724,0,0,0,1.162,9.639c.234.773.468,1.715-.1,2.3a2.128,2.128,0,0,1-.709.425,32.27,32.27,0,0,1-9.384,1.651c-7.8.6-15.635,1.191-23.388.149a2.686,2.686,0,0,1-1.106-.312,2.834,2.834,0,0,1-.943-1.361q-1.467-3.437-2.835-6.889c-1.58-3.87-3.133-7.938-2.736-12.1.5-5.16,3.884-9.518,5.861-14.317.6-1.417,1.063-2.92,1.779-4.288a35.438,35.438,0,0,1,2.679-4.026c.758-1.084,1.488-3.544,2.417-4.252,1.134-.928,4.337-.907,5.776-1.077A48.893,48.893,0,0,1,632.253,587.349Z" transform="translate(-196.167 -200.265)" fill="#3f3d56"/>
    <path id="Path_263" data-name="Path 263" d="M564.3,776.614q3.7,6.57,7.406,13.147c.574,1.014,1.148,2.034,1.623,3.1.8,1.807,1.311,3.728,2.218,5.486a27.317,27.317,0,0,0,3.827,5.188l4.834,5.571a6.507,6.507,0,0,0,1.864,1.658,2.225,2.225,0,0,0,2.367-.106,2.58,2.58,0,0,0,.617-.858,5.189,5.189,0,0,0,.5-2.537,16.178,16.178,0,0,1-4.692-3.458,23.506,23.506,0,0,1-2.736-4.1q-.992-1.751-1.992-3.544Q575,787.125,569.854,778.1a20.5,20.5,0,0,1-2.736-7.676c-.758.383-1.5.787-2.225,1.191a3.657,3.657,0,0,0-1.077.773C562.845,773.567,563.553,775.3,564.3,776.614Z" transform="translate(-183.323 -253.588)" opacity="0.1"/>
    <path id="Path_264" data-name="Path 264" d="M635.5,837.562a1.919,1.919,0,0,0,.709.78,2.387,2.387,0,0,0,1.12.163l17.137-.369a36.9,36.9,0,0,1,6.322.234c1.665.248,3.3.709,4.961.836,3.9.241,7.6-1.545,11.106-3.289a2.835,2.835,0,0,0,1.361-1.084,2.3,2.3,0,0,0,0-1.673,5.146,5.146,0,0,0-1.914-2.771c-.248.156-.482.326-.709.489a20.227,20.227,0,0,1-7.8,3.544,40.152,40.152,0,0,1-8.406.609c-6.471,0-12.991.042-19.384-1.12-1.29-.234-3.905-1.417-5.528-1.113A7.8,7.8,0,0,0,635.5,837.562Z" transform="translate(-204.03 -271.055)" opacity="0.1"/>
    <path id="Path_265" data-name="Path 265" d="M605.387,499.008a127.328,127.328,0,0,0,18.782,1.779c1.552,0,3.43-.156,4.118-1.545.319-.652.3-1.46.751-2.034.843-1.07,2.544-.539,3.756.078,1.7.865,3.48,1.8,4.493,3.416a11.4,11.4,0,0,1,1.269,4.019c.6,3,1.5,6.131,3.77,8.172,1.176,1.056,2.658,1.744,3.792,2.835a9.73,9.73,0,0,1,2.551,7.024,42.639,42.639,0,0,1-1.07,7.6,61.588,61.588,0,0,0,1.417,27.967,1.921,1.921,0,0,1,.1,1.014c-.177.652-.971.886-1.644.992-10.4,1.715-21.56.092-31.128,4.508-.8-1.97-2.771-3.083-3.749-4.961-.787-1.524-.709-3.338-.886-5.046-.574-4.614-3.544-8.547-5.188-12.892-1.467-3.806-1.977-7.995-4.026-11.524-.709-1.247-1.637-2.388-2.353-3.65a28,28,0,0,1-1.68-3.87,27.317,27.317,0,0,1-1.942-7.123c-.411-4.961,1.892-9.7,4.614-13.842C602.19,500.334,603.5,498.689,605.387,499.008Z" transform="translate(-192.973 -173.833)" fill="#4f9a94"/>
    <path id="Path_266" data-name="Path 266" d="M651.54,524.89c1.191.262,1.885,1.46,2.438,2.544a13.46,13.46,0,0,1,.936,2.126,12.273,12.273,0,0,1,.39,3.806,8.9,8.9,0,0,1-.255,2.417,3.2,3.2,0,0,1-1.417,1.914" transform="translate(-209.012 -182.074)" fill="none" stroke="#000" stroke-miterlimit="10" stroke-width="1" opacity="0.1"/>
    <ellipse id="Ellipse_41" data-name="Ellipse 41" cx="14.267" cy="7.045" rx="14.267" ry="7.045" transform="translate(408.983 292.38) rotate(-14.34)" fill="#3f3d56"/>
    <path id="Path_267" data-name="Path 267" d="M621.419,460.622c6.79-1.736,11.815-5.592,12.169-9.072a3.771,3.771,0,0,1,.666,1.34c.964,3.77-4.444,8.406-12.049,10.362s-14.607.475-15.592-3.3a3.544,3.544,0,0,1-.092-1.283C608.626,461.423,614.771,462.323,621.419,460.622Z" transform="translate(-195.893 -160.713)" opacity="0.1"/>
    <path id="Path_268" data-name="Path 268" d="M607.027,642.158l-1.786,1.786,5.741,5.741,12.757-12.757-1.786-1.786-10.971,10.907Zm15.436,2.424a10.163,10.163,0,1,1-7.4-9.788l1.977-1.977a11.865,11.865,0,0,0-4.784-.957,12.757,12.757,0,1,0,12.757,12.757Z" transform="translate(-193.854 -213.23)" fill="#3acc6c"/>
    <path id="Path_269" data-name="Path 269" d="M609.372,524.607a21.972,21.972,0,0,0-3.544-10,8.646,8.646,0,0,0-3.218-3.118,3.969,3.969,0,0,0-4.252.333,6.132,6.132,0,0,0-1.538,2.835,34.02,34.02,0,0,0-2.254,14.387,52.656,52.656,0,0,0,1.191,13.31c.645,2.452,1.63,4.812,2.126,7.3a10.252,10.252,0,0,1-.9,7.371,18.631,18.631,0,0,0-2.388,5.422,26.413,26.413,0,0,0-.432,7.016l.184,6.457c.234,8.42.468,16.925-1.219,25.174-.765,3.77-2.693,7.328-2.254,11.148a16.014,16.014,0,0,0,1.177,4c.709,1.843,1.595,3.834,3.359,4.727a6.653,6.653,0,0,0,2.729.6,18.623,18.623,0,0,0,3.5-.149c.709-.1,1.63-.574,1.417-1.255a1.375,1.375,0,0,0-.5-.553,7.8,7.8,0,0,1-2.913-6.053c0-3.345,2.183-6.556,1.51-9.83-.418-2.027-1.914-3.99-1.29-5.961,1.417-4.451,1.6-9.214,2.835-13.75l1.191-4.422c.709-2.637,1.417-5.266,1.992-7.931a86.881,86.881,0,0,0,1.914-22.453c-.05-1.176.6-2.516.709-3.685.113-1.417,0-2.778,0-4.16C608.493,535.657,609.939,530.292,609.372,524.607Z" transform="translate(-191.323 -178.035)" fill="#a0616a"/>
  </g>
</svg>
